<?xml version="1.0" standalone="no"?>
<!DOCTYPE svg PUBLIC "-//W3C//DTD SVG 20010904//EN"
 "http://www.w3.org/TR/2001/REC-SVG-20010904/DTD/svg10.dtd">
<svg version="1.0" xmlns="http://www.w3.org/2000/svg"
 width="3500.000000pt" height="3500.000000pt" viewBox="0 0 3500.000000 3500.000000"
 preserveAspectRatio="xMidYMid meet">

<g transform="translate(0.000000,3500.000000) scale(0.100000,-0.100000)"
fill="#000000" stroke="none">
<path d="M17240 34993 c-1263 -16 -2626 -178 -3825 -454 -279 -64 -567 -136
-705 -174 -497 -139 -666 -190 -1055 -320 -500 -166 -873 -308 -1330 -503
-1294 -553 -2391 -1176 -3545 -2013 -957 -694 -1912 -1565 -2736 -2494 -1210
-1366 -2211 -2974 -2887 -4640 -541 -1333 -896 -2723 -1057 -4135 -91 -805
-122 -1774 -79 -2525 9 -158 8 -261 -2 -490 -27 -568 -17 -1315 27 -1910 157
-2170 788 -4328 1835 -6270 562 -1043 1248 -2042 2013 -2930 523 -607 1209
-1295 1786 -1791 738 -635 1463 -1165 2290 -1674 74 -45 162 -100 195 -120
345 -213 983 -553 1508 -802 2116 -1004 4464 -1594 6832 -1718 805 -42 1382
-39 2200 10 1093 66 2293 254 3355 526 1099 282 2121 641 3095 1089 1483 682
2810 1523 4050 2569 633 535 1298 1188 1835 1806 2001 2299 3284 4990 3775
7915 66 391 113 764 157 1240 22 237 22 268 26 2205 3 2070 3 2083 -43 2585
-239 2570 -1140 5090 -2608 7285 -750 1122 -1630 2146 -2647 3080 -152 139
-538 472 -725 626 -831 680 -1828 1348 -2765 1851 -1323 711 -2698 1246 -4145
1613 -1188 301 -2326 472 -3587 540 -196 11 -976 31 -1033 28 -16 -2 -109 -4
-205 -5z m1170 -1368 c1136 -61 2214 -225 3297 -500 1186 -302 2273 -707 3363
-1256 1349 -678 2514 -1480 3655 -2513 282 -256 843 -827 1127 -1148 881 -995
1601 -2053 2188 -3213 799 -1580 1295 -3266 1479 -5030 83 -792 96 -1714 36
-2535 -145 -1963 -707 -3913 -1633 -5665 -605 -1145 -1367 -2222 -2261 -3195
-183 -199 -640 -658 -841 -844 -548 -509 -1099 -955 -1720 -1393 -1115 -785
-2393 -1456 -3700 -1941 -1405 -522 -2909 -857 -4420 -986 -1015 -87 -2035
-84 -3030 9 -384 36 -438 42 -720 81 -2320 317 -4459 1070 -6425 2262 -1312
795 -2548 1820 -3576 2962 -1005 1117 -1868 2427 -2477 3760 -313 684 -526
1255 -745 1990 -96 322 -223 840 -296 1210 -195 989 -275 1812 -275 2820 0
995 79 1812 270 2785 418 2133 1336 4173 2688 5970 1068 1420 2411 2675 3936
3677 1414 930 2975 1637 4625 2096 1154 322 2367 522 3580 593 544 31 1338 33
1875 4z"/>
<path d="M14500 27449 c-811 -141 -1651 -340 -2374 -564 -638 -197 -1209 -403
-1795 -648 l-243 -102 -122 -175 c-967 -1383 -1717 -2796 -2258 -4250 -615
-1652 -945 -3311 -1019 -5110 -15 -368 -6 -1312 15 -1665 15 -244 49 -675 63
-793 l6 -52 141 -99 c495 -347 1219 -786 1801 -1093 364 -192 435 -228 665
-338 658 -315 1166 -528 1830 -770 414 -150 1220 -407 1240 -395 10 6 241 313
358 478 201 280 446 660 639 992 188 322 216 377 201 386 -7 4 -46 20 -88 35
-293 103 -741 290 -1090 454 -274 129 -710 356 -710 370 0 4 26 25 58 47 31
23 133 98 226 167 l169 127 101 -45 c247 -109 689 -282 961 -376 1853 -642
3780 -889 5735 -735 1111 88 2233 316 3290 668 408 136 769 273 1134 431 l129
56 131 -98 c72 -54 175 -129 228 -168 54 -38 96 -73 95 -78 -8 -25 -641 -345
-994 -502 -260 -115 -560 -235 -810 -325 -51 -18 -93 -38 -93 -44 0 -29 332
-591 518 -879 195 -300 526 -765 679 -954 11 -14 36 -9 210 42 279 82 891 286
1193 399 1057 393 2006 842 2995 1415 331 192 1170 731 1266 814 26 22 28 29
43 208 56 641 70 976 70 1640 0 604 -7 816 -45 1305 -115 1496 -407 2866 -912
4285 -247 692 -476 1228 -822 1921 -454 907 -954 1737 -1562 2590 l-82 116
-154 66 c-1326 569 -2911 1028 -4361 1263 -106 17 -109 17 -123 -2 -64 -86
-430 -784 -541 -1032 -41 -90 -43 -93 -70 -88 -123 26 -852 101 -1262 130
-1170 84 -2437 47 -3605 -104 -121 -15 -223 -25 -227 -22 -3 4 -78 149 -165
322 -137 271 -342 649 -420 773 -28 45 -23 45 -243 6z m-83 -6694 c157 -20
303 -57 443 -112 469 -183 849 -530 1079 -983 380 -747 298 -1682 -207 -2353
-465 -618 -1230 -913 -1962 -755 -390 83 -740 282 -1030 584 -314 327 -528
789 -581 1253 -15 135 -7 497 15 609 109 580 355 1002 791 1358 251 206 634
365 965 403 124 14 361 12 487 -4z m7450 0 c393 -51 753 -220 1067 -500 288
-256 519 -643 620 -1036 53 -206 70 -344 69 -564 -2 -547 -182 -1040 -531
-1455 -270 -322 -667 -560 -1082 -648 -501 -108 -1032 -4 -1470 286 -421 279
-738 731 -871 1239 -91 348 -93 761 -5 1109 159 628 567 1137 1121 1400 116
54 282 113 400 140 194 44 472 56 682 29z"/>
</g>
</svg>
