<?xml version="1.0" encoding="UTF-8"?>
<svg version="1.1" xmlns="http://www.w3.org/2000/svg" width="3500" height="3500">
<path d="M0 0 C6.43040022 0.01707159 12.86042689 0.00690249 19.2908144 -0.01032734 C83.36618448 -0.15520454 147.37545232 3.21589105 211.00927734 10.87451172 C214.62129118 11.30807929 218.23564732 11.71681526 221.85119629 12.11967468 C267.57787431 17.24572789 313.06208869 25.07651511 358.16113281 34.14111328 C358.8197871 34.27324219 359.47844139 34.40537109 360.1570549 34.54150391 C386.82957556 39.8975531 413.40435926 45.74231513 439.78613281 52.39111328 C440.63072052 52.60310364 441.47530823 52.81509399 442.3454895 53.0335083 C454.93377822 56.19855535 467.42455315 59.58600345 479.84960938 63.34521484 C484.12096134 64.62197118 488.40212204 65.86311744 492.68457031 67.10205078 C531.38787571 78.30800511 569.45608384 90.67191505 607.34863281 104.39111328 C608.62625488 104.85318176 608.62625488 104.85318176 609.9296875 105.32458496 C643.92774743 117.63149094 677.32627671 131.34253041 710.45581055 145.81835938 C712.91361298 146.89219689 715.37226915 147.96406024 717.83105469 149.03564453 C725.91847448 152.56282756 733.9984117 156.10707432 742.06738281 159.67626953 C742.7843483 159.99200928 743.50131378 160.30774902 744.24000549 160.63305664 C750.33815983 163.33811665 756.28566444 166.31052212 762.23144531 169.33251953 C766.6647201 171.57058406 771.16195612 173.66466577 775.66113281 175.76611328 C783.54685914 179.4687076 791.25862347 183.43661375 798.94628906 187.53173828 C803.021195 189.69902704 807.11543122 191.82702142 811.21972656 193.93798828 C811.82277618 194.24816895 812.42582581 194.55834961 813.04714966 194.87792969 C813.65839691 195.1922998 814.26964417 195.50666992 814.89941406 195.83056641 C828.49181821 202.82150207 841.99103858 209.95906837 855.34863281 217.39111328 C856.25178223 217.89288086 857.15493164 218.39464844 858.08544922 218.91162109 C874.01291264 227.78225961 889.70163155 237.0373927 905.34863281 246.39111328 C906.22769287 246.91576172 907.10675293 247.44041016 908.01245117 247.98095703 C913.80138587 251.44316036 919.55251803 254.96313743 925.28613281 258.51611328 C926.48206055 259.25474609 926.48206055 259.25474609 927.70214844 260.00830078 C930.58873685 261.79555246 933.46934563 263.59211944 936.34863281 265.39111328 C937.00783722 265.80223358 937.66704163 266.21335388 938.34622192 266.63693237 C950.42672178 274.18089686 962.33936677 281.95569809 974.17700195 289.87475586 C976.93879103 291.72211384 979.70309844 293.56565584 982.46777344 295.40869141 C984.26284157 296.60704005 986.05776863 297.80560006 987.85253906 299.00439453 C989.06376183 299.81243279 989.06376183 299.81243279 990.29945374 300.63679504 C995.25636628 303.95493909 1000.1617721 307.33912188 1005.0383606 310.77426147 C1007.35261582 312.3939008 1009.68415978 313.98510919 1012.02441406 315.56689453 C1020.22840164 321.11265064 1028.25326801 326.74818697 1036.04394531 332.86376953 C1039.88313407 335.84179872 1043.86575507 338.60997349 1047.84863281 341.39111328 C1055.1871043 346.52314557 1062.29177291 351.87877366 1069.34863281 357.39111328 C1070.95193091 358.62544128 1072.55808459 359.85598079 1074.16455078 361.08618164 C1084.49255022 368.99933869 1094.73468849 377.0135571 1104.77832031 385.28564453 C1107.24167614 387.30349984 1109.72816308 389.28819274 1112.22363281 391.26611328 C1116.7127145 394.84457301 1121.09473202 398.53779307 1125.46582031 402.25830078 C1128.85193624 405.13689582 1132.26952618 407.96895412 1135.72363281 410.76611328 C1144.56386567 417.96735406 1153.16346968 425.4703449 1161.59863281 433.14111328 C1164.96754096 436.20223081 1168.42633587 439.10119779 1171.97363281 441.95361328 C1176.07009735 445.26650654 1179.81110591 448.74259165 1183.48144531 452.51611328 C1185.23157841 454.27356911 1187.02979081 455.90122744 1188.91113281 457.51611328 C1194.88572583 462.66381331 1200.58651661 468.11104444 1206.33544922 473.50732422 C1208.27480752 475.322033 1210.22234001 477.12746821 1212.17285156 478.93017578 C1222.43733169 488.44257908 1232.34824217 498.28653118 1242.19897461 508.22558594 C1246.16876733 512.22468434 1250.16107213 516.20103234 1254.15707397 520.17390442 C1256.68373785 522.68705545 1259.20763532 525.20297753 1261.73144531 527.71899414 C1263.05508792 529.0376082 1264.37962669 530.35532331 1265.70507812 531.67211914 C1278.74771003 544.63205907 1278.74771003 544.63205907 1283.99169922 550.8137207 C1285.98741739 553.13368024 1288.15717203 555.25732252 1290.34863281 557.39111328 C1293.87275787 560.87814228 1297.21534971 564.43167627 1300.43847656 568.19580078 C1302.85696754 570.97533438 1305.3514747 573.68253108 1307.84863281 576.39111328 C1311.49375416 580.35018322 1315.09124244 584.34240059 1318.61425781 588.41064453 C1320.6212782 590.70244483 1322.67266133 592.9510808 1324.72363281 595.20361328 C1328.67234726 599.57397012 1332.39490491 604.09414407 1336.09863281 608.67236328 C1338.2836485 611.31259058 1340.54034672 613.85841048 1342.84863281 616.39111328 C1346.70955471 620.63278354 1350.35412985 625.01145255 1353.96191406 629.46923828 C1356.5725447 632.66523127 1359.23612805 635.81157335 1361.91113281 638.95361328 C1369.53865699 647.93867767 1376.78229625 657.20869108 1384.00634766 666.51928711 C1387.14915879 670.56930577 1390.30440249 674.60822987 1393.48803711 678.6262207 C1408.36675396 697.42259857 1422.47848309 716.84213091 1436.34863281 736.39111328 C1436.80850586 737.03773926 1437.26837891 737.68436523 1437.7421875 738.35058594 C1447.85403083 752.57357478 1457.77625819 766.92870377 1467.41503906 781.47705078 C1468.79035675 783.54975178 1470.17406898 785.61689327 1471.56347656 787.68017578 C1501.31556183 831.88169549 1528.51694901 878.0109224 1553.55712891 925.03466797 C1555.45379049 928.58812987 1557.36259781 932.13485526 1559.27441406 935.68017578 C1571.15773314 957.73261395 1571.15773314 957.73261395 1576.60644531 968.84423828 C1577.79339815 971.26072523 1578.99186511 973.66560234 1580.21582031 976.06298828 C1585.84862205 987.12487636 1590.98057494 998.40347471 1596.11914062 1009.70166016 C1597.64904741 1013.0482553 1599.21452516 1016.37640488 1600.78613281 1019.70361328 C1604.62102678 1027.8828678 1608.26135079 1036.14857004 1611.91088867 1044.41186523 C1614.30836177 1049.83350049 1616.73719735 1055.23302891 1619.25878906 1060.59814453 C1623.04194217 1068.76311706 1626.37096921 1077.10542391 1629.72363281 1085.45361328 C1630.39351705 1087.11612894 1631.0636033 1088.77856321 1631.73388672 1090.44091797 C1633.03556718 1093.67053778 1634.33534478 1096.90091382 1635.63378906 1100.13183594 C1637.00803319 1103.54915176 1638.39315853 1106.96184981 1639.78613281 1110.37158203 C1643.82275997 1120.28490544 1647.54206376 1130.2911724 1651.11767578 1140.38037109 C1652.94678967 1145.53845533 1654.82848111 1150.66575628 1656.81347656 1155.76611328 C1659.46107568 1162.60324149 1661.85869688 1169.51447335 1664.22363281 1176.45361328 C1665.09891206 1179.01255776 1665.97564344 1181.57100357 1666.85253906 1184.12939453 C1667.27680176 1185.3677002 1667.70106445 1186.60600586 1668.13818359 1187.88183594 C1669.49891528 1191.82680514 1670.89127638 1195.75973755 1672.29052734 1199.69116211 C1674.89182286 1207.01140902 1677.30118649 1214.34488438 1679.43359375 1221.81542969 C1681.13445319 1227.75733912 1683.0118973 1233.63494932 1684.91113281 1239.51611328 C1687.26843803 1246.83828432 1689.45648503 1254.15097754 1691.32910156 1261.61376953 C1692.20071687 1264.84308754 1693.15776413 1268.01642868 1694.15722656 1271.20751953 C1696.72961322 1279.50250446 1698.976893 1287.87849072 1701.22363281 1296.26611328 C1701.44373016 1297.08657135 1701.66382751 1297.90702942 1701.89059448 1298.75234985 C1702.7795937 1302.0666821 1703.6681571 1305.38112713 1704.55400085 1308.69630432 C1705.69095941 1312.94976535 1706.84209992 1317.19860603 1708.01660156 1321.44189453 C1712.69962528 1338.56454927 1716.19503782 1355.96685823 1719.8417511 1373.33276367 C1720.79363842 1377.84525163 1721.79416775 1382.33934211 1722.86816406 1386.82470703 C1725.03797128 1396.08848565 1726.64214998 1405.4709722 1728.34863281 1414.82861328 C1729.03362834 1418.57777502 1729.72086 1422.32651323 1730.41113281 1426.07470703 C1730.57808655 1426.98231781 1730.74504028 1427.88992859 1730.91705322 1428.82504272 C1731.82815411 1433.7336535 1732.80962612 1438.61514415 1733.89550781 1443.48876953 C1735.84311832 1452.39278805 1737.20901741 1461.38650762 1738.59863281 1470.39111328 C1738.82057312 1471.81976715 1738.82057312 1471.81976715 1739.04699707 1473.27728271 C1741.63393623 1489.9925984 1743.92770401 1506.74209767 1746.09863281 1523.51611328 C1746.2411145 1524.61391113 1746.38359619 1525.71170898 1746.53039551 1526.84277344 C1747.3661975 1533.30902457 1748.17824486 1539.77778834 1748.96557617 1546.25012207 C1749.21242204 1548.27421098 1749.46234825 1550.29792779 1749.71606445 1552.32116699 C1755.06662049 1595.2504254 1756.97467258 1638.09530581 1756.88593483 1681.33203578 C1756.87976806 1685.30488635 1756.88022854 1689.27770054 1756.88389587 1693.25055122 C1756.88481527 1694.25842632 1756.88481527 1694.25842632 1756.88575324 1695.28666254 C1756.88703291 1696.65417629 1756.88832978 1698.02169002 1756.88964361 1699.38920373 C1756.90088998 1712.03634553 1756.88819281 1724.68336898 1756.86644214 1737.33049131 C1756.84859018 1748.03980385 1756.85169127 1758.74894254 1756.87011719 1769.45825195 C1756.89182014 1782.07701662 1756.89978863 1794.69567911 1756.88766813 1807.31445986 C1756.88639474 1808.67559308 1756.88513724 1810.03672632 1756.88389587 1811.39785957 C1756.88327877 1812.06652574 1756.88266167 1812.7351919 1756.88202587 1813.42412068 C1756.87865927 1818.00043995 1756.88441699 1822.57668878 1756.89381409 1827.15299797 C1756.97469021 1872.74329902 1754.29275763 1917.80384418 1748.41113281 1963.01611328 C1748.14608709 1965.09783062 1747.88284211 1967.17977079 1747.61971283 1969.26173115 C1745.12206444 1989.01015036 1742.50585523 2008.73629206 1739.34863281 2028.39111328 C1739.11195176 2029.87613496 1738.87529932 2031.36116119 1738.63867188 2032.84619141 C1735.93226195 2049.77088313 1733.02259243 2066.62688251 1729.55566406 2083.41455078 C1728.47795984 2088.66348191 1727.51880979 2093.92872042 1726.57763672 2099.20361328 C1723.94966106 2113.88798492 1720.65999086 2128.36608865 1717.18212891 2142.87011719 C1716.4384525 2146.01168165 1715.72218134 2149.15706183 1715.02441406 2152.30908203 C1711.62028325 2167.63284019 1707.7211385 2182.82160226 1703.78613281 2198.01611328 C1703.50654724 2199.10033569 1703.22696167 2200.18455811 1702.93890381 2201.30163574 C1700.02035901 2212.60241572 1697.00948397 2223.82994449 1693.44116211 2234.94384766 C1691.82809053 2240.03358413 1690.43537767 2245.17692649 1689.03613281 2250.32861328 C1685.85445196 2261.83114545 1682.31315395 2273.18667203 1678.60595703 2284.52929688 C1677.40278374 2288.21665269 1676.21523201 2291.90895612 1675.02880859 2295.60173035 C1673.89980681 2299.1143206 1672.7670804 2302.62570433 1671.6338501 2306.13693237 C1671.07992392 2307.85492509 1670.527101 2309.57327403 1669.9755249 2311.29202271 C1666.29286135 2322.75784915 1662.34392909 2334.09208581 1658.10910034 2345.36578369 C1657.10384778 2348.04304168 1656.1115763 2350.72506808 1655.11816406 2353.40673828 C1652.87915116 2359.40814666 1650.61833763 2365.40125169 1648.34863281 2371.39111328 C1647.68951904 2373.13134766 1647.68951904 2373.13134766 1647.01708984 2374.90673828 C1641.0987886 2390.48275454 1634.95023122 2405.94973381 1628.53613281 2421.32861328 C1628.22770447 2422.06857544 1627.91927612 2422.8085376 1627.60150146 2423.57092285 C1623.80559878 2432.66414759 1619.92106878 2441.71514271 1615.9543457 2450.73510742 C1614.57708447 2453.87095764 1613.21281038 2457.0118152 1611.85644531 2460.15673828 C1600.3722835 2486.66807355 1587.79963923 2512.663504 1574.91113281 2538.51611328 C1574.45676849 2539.43010895 1574.00240417 2540.34410461 1573.53427124 2541.28579712 C1568.47414103 2551.45156994 1563.28630935 2561.51426245 1557.69618225 2571.40029907 C1554.57730139 2576.91675756 1551.73085202 2582.52970449 1548.93066406 2588.21533203 C1545.75341217 2594.59337101 1542.3188268 2600.79787863 1538.63378906 2606.89501953 C1535.27500209 2612.47216573 1532.06728355 2618.13055594 1528.85958862 2623.79553223 C1521.28377341 2637.15743435 1513.44320467 2650.33578239 1505.34863281 2663.39111328 C1504.72569336 2664.3969043 1504.10275391 2665.40269531 1503.4609375 2666.43896484 C1501.5313361 2669.55031304 1499.59752045 2672.65898445 1497.66113281 2675.76611328 C1497.09193115 2676.67973633 1496.52272949 2677.59335938 1495.9362793 2678.53466797 C1487.15133888 2692.56967684 1478.06208334 2706.40533658 1468.86914062 2720.17553711 C1467.34755282 2722.45523137 1465.82845239 2724.73656877 1464.30957031 2727.01806641 C1457.74314587 2736.86988408 1451.08549496 2746.65510972 1444.34863281 2756.39111328 C1443.72335693 2757.29539062 1443.09808105 2758.19966797 1442.45385742 2759.13134766 C1429.67281015 2777.56405051 1416.37875471 2795.70841557 1402.62988281 2813.43017578 C1400.39608966 2816.32951689 1398.21314392 2819.2614932 1396.03613281 2822.20361328 C1391.93210512 2827.69736464 1387.63458184 2833.01551556 1383.29125977 2838.32128906 C1379.71161283 2842.69774488 1376.19540022 2847.11625327 1372.72363281 2851.57861328 C1368.71215116 2856.72386939 1364.57478089 2861.74156532 1360.33691406 2866.70166016 C1357.41522107 2870.12146414 1354.55288367 2873.58134486 1351.72363281 2877.07861328 C1348.1493076 2881.47337969 1344.41005604 2885.67814811 1340.59472656 2889.86376953 C1338.28675683 2892.46073721 1336.09307419 2895.12515341 1333.91113281 2897.82861328 C1329.99933139 2902.66204332 1325.88862278 2907.26784079 1321.68066406 2911.84423828 C1319.7245803 2913.98053077 1317.80675584 2916.13891985 1315.91113281 2918.32861328 C1312.52255329 2922.22747301 1309.03145751 2926.0295901 1305.53417969 2929.83056641 C1302.63910111 2932.97842128 1299.76502273 2936.14323706 1296.91113281 2939.32861328 C1288.59950137 2948.56867164 1280.21880959 2957.67634332 1271.33227539 2966.37060547 C1268.45804308 2969.20043666 1265.71582567 2972.08263678 1263.08984375 2975.14550781 C1259.59604556 2979.15750191 1255.93196486 2982.95295489 1252.16503906 2986.70751953 C1251.50583969 2987.36767563 1250.84664032 2988.02783173 1250.16746521 2988.70799255 C1248.78466446 2990.09146834 1247.40062206 2991.47370411 1246.01538086 2992.85473633 C1243.91632938 2994.94842997 1241.82267341 2997.04741202 1239.72949219 2999.14697266 C1238.37499495 3000.50080899 1237.0201875 3001.85433503 1235.66503906 3003.20751953 C1235.05020157 3003.82438126 1234.43536407 3004.44124298 1233.80189514 3005.07679749 C1230.06525788 3008.79372 1226.21416086 3012.32095971 1222.2106781 3015.74925232 C1218.93406772 3018.63840797 1215.90587897 3021.77362386 1212.84863281 3024.89111328 C1208.52054638 3029.26106562 1204.20257497 3033.55277264 1199.50097656 3037.52392578 C1196.37676577 3040.23422117 1193.3705659 3043.06777339 1190.34863281 3045.89111328 C1186.06619958 3049.88644032 1181.76256734 3053.83695162 1177.32519531 3057.66064453 C1174.85705659 3059.82148535 1172.45059272 3062.0454903 1170.03613281 3064.26611328 C1166.41339376 3067.57448242 1162.7317039 3070.75123686 1158.91113281 3073.82861328 C1154.86888984 3077.08662652 1151.01985581 3080.480268 1147.22363281 3084.01611328 C1143.23459217 3087.72614252 1139.15336603 3091.18301289 1134.80566406 3094.46533203 C1131.6682429 3096.92439186 1128.67155084 3099.52922981 1125.66113281 3102.14111328 C1120.46535109 3106.63703216 1115.1685372 3110.95867838 1109.74267578 3115.1730957 C1105.20354674 3118.70261852 1100.73725395 3122.31391103 1096.28613281 3125.95361328 C1085.56028219 3134.70371666 1074.53160527 3143.03777977 1063.44628906 3151.32470703 C1060.76185549 3153.33150423 1058.08220023 3155.34438094 1055.40722656 3157.36376953 C1048.31312974 3162.71452886 1041.17645919 3167.99989876 1033.97363281 3173.20361328 C1033.26094238 3173.71851318 1032.54825195 3174.23341309 1031.81396484 3174.76391602 C1027.2049648 3178.08199147 1022.56378886 3181.35184923 1017.90722656 3184.6027832 C1015.38699027 3186.36430332 1012.8732832 3188.13481812 1010.36035156 3189.90673828 C996.00041986 3199.99666112 981.39579592 3209.66767457 966.67919922 3219.22558594 C963.71447283 3221.15324487 960.75479847 3223.08827072 957.79785156 3225.02783203 C933.14915497 3241.17492226 907.86495208 3256.33308929 882.41748047 3271.18310547 C880.99178857 3272.01557225 879.56703842 3272.84965327 878.14306641 3273.68505859 C858.8109983 3285.02378175 839.09676961 3295.59840459 819.20019531 3305.90869141 C816.4326159 3307.34745358 813.67090781 3308.79682067 810.91113281 3310.25048828 C785.39540469 3323.67657797 759.6091601 3336.48266972 733.34863281 3348.39111328 C732.27436035 3348.87999023 731.20008789 3349.36886719 730.09326172 3349.87255859 C686.2861287 3369.75655326 641.46031759 3387.27444891 596.25653076 3403.69787598 C594.37962404 3404.37985258 592.50304164 3405.06272156 590.62646484 3405.74560547 C576.28586807 3410.9537387 561.91548645 3415.96093205 547.33789062 3420.46533203 C543.98190056 3421.50469125 540.63009373 3422.55698779 537.27832031 3423.60986328 C524.52961888 3427.60406653 511.7638951 3431.49707204 498.89941406 3435.10205078 C495.86692598 3435.95406939 492.84512786 3436.8341193 489.82910156 3437.74267578 C488.98234863 3437.99662109 488.1355957 3438.25056641 487.26318359 3438.51220703 C485.15941121 3439.14661653 483.05777607 3439.7881284 480.95751953 3440.43408203 C467.52119721 3444.51883841 453.89903762 3447.88101769 440.27429581 3451.2711525 C438.2683383 3451.77054329 436.26272246 3452.27128707 434.25717163 3452.77230835 C415.68911468 3457.40789158 397.10450018 3461.90703094 378.35571289 3465.75952148 C375.95174107 3466.26443949 373.55745577 3466.79501043 371.16186523 3467.33740234 C365.98499206 3468.49187055 360.78115534 3469.4777475 355.56738281 3470.44970703 C354.55502563 3470.63952652 353.54266846 3470.82934601 352.49963379 3471.0249176 C350.36512538 3471.42480448 348.2304793 3471.82395714 346.09570312 3472.22241211 C342.88539885 3472.82174937 339.67557725 3473.42361806 336.46582031 3474.02587891 C326.00362294 3475.98552778 315.53784906 3477.9170835 305.05175781 3479.74487305 C301.69571796 3480.33054271 298.34249021 3480.93026281 294.98925781 3481.53173828 C270.53793437 3485.8228264 245.90915358 3488.88289832 221.28796387 3492.01550293 C218.02537232 3492.432422 214.76380931 3492.85676324 211.50274658 3493.28546143 C167.61104609 3498.94568517 123.84133138 3501.01959248 79.60963941 3500.9284153 C75.65353975 3500.92224792 71.69747664 3500.92270931 67.74137688 3500.92637634 C67.0722355 3500.92698927 66.40309413 3500.92760221 65.71367575 3500.92823371 C64.351799 3500.92951338 62.98992227 3500.93081025 61.62804555 3500.93212408 C49.03383868 3500.94336972 36.43975066 3500.93067449 23.84556334 3500.90892261 C13.18173234 3500.89107074 2.51807591 3500.89417182 -8.14575195 3500.91259766 C-20.71177903 3500.93430201 -33.27770349 3500.94226836 -45.84374672 3500.9301486 C-47.19926296 3500.92887521 -48.55477922 3500.92761771 -49.91029549 3500.92637634 C-50.57619754 3500.92575924 -51.24209959 3500.92514214 -51.9281805 3500.92450634 C-56.48496323 3500.92114014 -61.0416752 3500.92689659 -65.5984478 3500.93629456 C-111.3162957 3501.01775179 -156.48938796 3498.23702402 -201.83886719 3492.45361328 C-203.95804073 3492.18873063 -206.07741167 3491.92546466 -208.19678593 3491.6621933 C-227.73356 3489.23239044 -247.23277073 3486.64605961 -266.65136719 3483.39111328 C-268.02191521 3483.16485354 -269.39252296 3482.93895541 -270.76318359 3482.71337891 C-289.12311494 3479.68494877 -307.42355726 3476.36999269 -325.69335938 3472.83886719 C-327.138948 3472.56045303 -328.58458552 3472.28229263 -330.03027344 3472.00439453 C-330.7381601 3471.86791504 -331.44604675 3471.73143555 -332.17538452 3471.59082031 C-336.60993617 3470.74668474 -341.05206051 3469.99839882 -345.51118469 3469.29652405 C-353.16551528 3468.08639569 -360.48670002 3466.47347009 -367.95507812 3464.38232422 C-373.7716901 3462.82251942 -379.67103901 3461.67479484 -385.56872559 3460.47036743 C-402.66346388 3456.95287808 -419.53536451 3452.68206353 -436.40136719 3448.20361328 C-437.53221741 3447.90392639 -438.66306763 3447.6042395 -439.82818604 3447.29547119 C-451.64577386 3444.15655529 -463.4303094 3440.93590809 -475.14599609 3437.43481445 C-478.81471513 3436.34247751 -482.49525918 3435.303074 -486.18310547 3434.27783203 C-497.98062844 3430.9843253 -509.6296646 3427.26388557 -521.27348328 3423.46714783 C-526.04955852 3421.90997336 -530.82930789 3420.36446044 -535.61056519 3418.82327271 C-539.42550094 3417.59296014 -543.23929807 3416.35914192 -547.05291748 3415.12475586 C-548.92368529 3414.5197798 -550.79480923 3413.91590368 -552.6663208 3413.31323242 C-562.88486827 3410.02050497 -573.02219454 3406.6081988 -583.04931641 3402.76928711 C-586.34319443 3401.50902267 -589.64685462 3400.28332948 -592.95996094 3399.07470703 C-625.37245106 3387.21162032 -657.65631257 3374.63257726 -689.12011719 3360.42626953 C-692.48400018 3358.90785013 -695.86092488 3357.42230958 -699.24511719 3355.94970703 C-714.75040585 3349.19708132 -730.08817109 3342.12469243 -745.38818359 3334.92285156 C-748.14206372 3333.63018031 -750.90020232 3332.3479758 -753.66308594 3331.07470703 C-761.7912635 3327.31906793 -769.74190633 3323.3019527 -777.6472168 3319.09667969 C-782.53212643 3316.49835523 -787.44157962 3313.96824349 -792.40136719 3311.51611328 C-812.73680627 3301.43006738 -832.73527778 3290.731158 -852.25390625 3279.14282227 C-857.37784381 3276.11034833 -862.56033098 3273.19932145 -867.77636719 3270.32861328 C-875.18777326 3266.24204632 -882.47630467 3261.99029621 -889.70019531 3257.58154297 C-891.77002983 3256.318716 -893.84339634 3255.06181585 -895.91699219 3253.80517578 C-911.04525203 3244.61826261 -925.99696226 3235.15140266 -940.86181641 3225.54492188 C-942.77978926 3224.30831346 -944.70174648 3223.07805051 -946.62402344 3221.84814453 C-956.6721812 3215.40382094 -966.55172478 3208.73597987 -976.37744141 3201.95800781 C-978.5192165 3200.48217438 -980.66450922 3199.01165478 -982.81152344 3197.54345703 C-992.49149329 3190.91975929 -1002.09705019 3184.19474972 -1011.65136719 3177.39111328 C-1012.36518555 3176.88354492 -1013.07900391 3176.37597656 -1013.81445312 3175.85302734 C-1024.57314059 3168.18897358 -1035.12463451 3160.27800228 -1045.60839844 3152.24267578 C-1049.38301712 3149.35163023 -1053.18162558 3146.49622385 -1056.99926758 3143.66235352 C-1063.76003045 3138.64240097 -1070.34817713 3133.45221684 -1076.85693359 3128.10961914 C-1080.95926385 3124.74659772 -1085.11203954 3121.47090119 -1089.33886719 3118.26611328 C-1094.35770117 3114.43987351 -1099.19807915 3110.45384508 -1103.99243164 3106.35107422 C-1107.12295279 3103.67412155 -1110.28932005 3101.06294706 -1113.52636719 3098.51611328 C-1119.09403483 3094.10161952 -1124.42710926 3089.4279536 -1129.78027344 3084.75830078 C-1132.86293175 3082.07014244 -1135.96806328 3079.41005076 -1139.08349609 3076.76000977 C-1145.17664677 3071.57447583 -1151.12614965 3066.26175933 -1156.99902344 3060.82861328 C-1159.12627253 3058.8736745 -1161.27408971 3056.96229283 -1163.46386719 3055.07861328 C-1168.10202496 3051.06016761 -1172.54984157 3046.83783715 -1177.02612305 3042.64135742 C-1180.49333186 3039.39426156 -1183.9783932 3036.17526821 -1187.52636719 3033.01611328 C-1202.98339259 3019.15497556 -1217.67798219 3004.52445486 -1232.33886719 2989.83398438 C-1235.2252889 2986.94180483 -1238.11626425 2984.0542248 -1241.00853157 2981.16789246 C-1243.27015904 2978.90989557 -1245.52937888 2976.64950178 -1247.78789902 2974.38839722 C-1248.85314791 2973.32248913 -1249.91911809 2972.2573013 -1250.98587418 2971.19290161 C-1256.25446271 2965.93342645 -1261.45166221 2960.65446249 -1266.28036499 2954.9822998 C-1268.1288897 2952.83690017 -1270.11961534 2950.86221582 -1272.15136719 2948.89111328 C-1275.4358418 2945.6451501 -1278.5128971 2942.3146238 -1281.51464844 2938.80908203 C-1284.44371518 2935.49447086 -1287.49118444 2932.29586698 -1290.52636719 2929.07861328 C-1295.37454623 2923.92651096 -1299.96254681 2918.66483992 -1304.37792969 2913.13330078 C-1307.02480558 2909.94067728 -1309.81724425 2906.91692245 -1312.65136719 2903.89111328 C-1317.07934056 2899.15735597 -1321.26438369 2894.30133243 -1325.32714844 2889.24658203 C-1327.94108898 2886.03516936 -1330.63220645 2882.89928347 -1333.33886719 2879.76611328 C-1343.64941002 2867.79659333 -1353.62071751 2855.55803155 -1363.32470703 2843.09277344 C-1365.59145113 2840.18530078 -1367.87236982 2837.28898325 -1370.15136719 2834.39111328 C-1371.06934345 2833.22184834 -1371.98731221 2832.05257752 -1372.90527344 2830.88330078 C-1374.72078775 2828.57217748 -1376.54142907 2826.26523753 -1378.36621094 2823.96142578 C-1385.28268132 2815.21796322 -1392.00378781 2806.34032331 -1398.65136719 2797.39111328 C-1399.20195801 2796.65231934 -1399.75254883 2795.91352539 -1400.31982422 2795.15234375 C-1408.74724202 2783.83800007 -1416.9253303 2772.37017461 -1424.97851562 2760.78710938 C-1427.09941458 2757.74938283 -1429.24345083 2754.72847877 -1431.38916016 2751.70825195 C-1436.85759279 2744.00706727 -1442.16368718 2736.21543618 -1447.36523438 2728.33203125 C-1448.69427602 2726.32635907 -1450.0345692 2724.32862637 -1451.37792969 2722.33251953 C-1467.85310506 2697.82376163 -1483.62128094 2672.81230635 -1498.65136719 2647.39111328 C-1499.24933105 2646.38081055 -1499.84729492 2645.37050781 -1500.46337891 2644.32958984 C-1515.44960802 2618.97605125 -1529.84881665 2593.33471901 -1543.63583374 2567.3081665 C-1544.3493146 2565.96130708 -1545.06342037 2564.61477861 -1545.77798462 2563.26849365 C-1552.2811811 2551.00872641 -1558.62861683 2538.67682273 -1564.83886719 2526.26611328 C-1565.29191223 2525.36103027 -1565.74495728 2524.45594727 -1566.21173096 2523.5234375 C-1574.46655483 2507.00151169 -1582.27492786 2490.31930302 -1589.74700928 2473.4309082 C-1590.99653902 2470.61257225 -1592.25537607 2467.79842436 -1593.51353455 2464.9839325 C-1601.88330683 2446.24902662 -1609.92614235 2427.40113106 -1617.65136719 2408.39111328 C-1618.1118042 2407.26382813 -1618.1118042 2407.26382813 -1618.58154297 2406.11376953 C-1620.30705532 2401.88663638 -1621.98972051 2397.64364982 -1623.65136719 2393.39111328 C-1623.98249512 2392.54806641 -1624.31362305 2391.70501953 -1624.65478516 2390.83642578 C-1636.09451653 2361.64986781 -1646.66571391 2332.1051232 -1656.65136719 2302.39111328 C-1657.23168701 2300.66634766 -1657.23168701 2300.66634766 -1657.82373047 2298.90673828 C-1669.20464741 2264.86328087 -1679.23004222 2230.2621906 -1688.11480713 2195.48657227 C-1688.70246333 2193.19156455 -1689.29468552 2190.89776016 -1689.88720703 2188.60400391 C-1706.81495178 2122.9564962 -1719.40838262 2056.54868637 -1728.65136719 1989.39111328 C-1728.93096299 1987.37890255 -1729.21058489 1985.36669545 -1729.49023438 1983.35449219 C-1736.15606048 1935.11730808 -1740.25241821 1886.71021674 -1742.48065186 1838.07130432 C-1742.61440257 1835.18797696 -1742.75681153 1832.30543489 -1742.90264893 1829.42271423 C-1743.61908876 1814.78170323 -1743.82847713 1800.16919363 -1743.85449219 1785.51220703 C-1743.86146895 1783.06751996 -1743.86850993 1780.62283308 -1743.87561035 1778.17814636 C-1743.89491932 1770.39496644 -1743.89978684 1762.61181454 -1743.90136719 1754.82861328 C-1743.901944 1753.49169667 -1743.90253914 1752.15478006 -1743.90315247 1750.81786346 C-1743.91810423 1710.92612645 -1743.62935568 1671.18919025 -1740.65136719 1631.39111328 C-1740.57168701 1630.30352722 -1740.49200684 1629.21594116 -1740.40991211 1628.09539795 C-1739.37422103 1613.99559459 -1738.18744089 1599.91357122 -1736.87664795 1585.83685303 C-1736.60187127 1582.85376542 -1736.34046115 1579.86961849 -1736.08052063 1576.88520813 C-1731.62253344 1525.86075976 -1723.58082755 1474.92963321 -1714.07202148 1424.62335205 C-1713.65413544 1422.40580328 -1713.24092585 1420.18743185 -1712.82910156 1417.96875 C-1695.75388769 1326.13290859 -1670.61312041 1235.24413442 -1631.90844727 1132.66845703 C-1630.76418083 1129.68523066 -1629.64349847 1126.69404969 -1628.53063965 1123.69898987 C-1625.04329418 1114.32215092 -1621.35402884 1105.0345037 -1617.58886719 1095.76611328 C-1617.26666199 1094.97140625 -1616.94445679 1094.17669922 -1616.61248779 1093.35791016 C-1610.66091254 1078.69349748 -1604.43721642 1064.16075851 -1598.08105469 1049.66796875 C-1596.33236739 1045.65996313 -1594.61719829 1041.6383056 -1592.90698242 1037.61376953 C-1589.30761605 1029.14503795 -1585.59381459 1020.75596547 -1581.63183594 1012.44921875 C-1580.50789896 1010.0899586 -1579.39217259 1007.72688598 -1578.27636719 1005.36376953 C-1573.89867526 996.10998153 -1569.4609641 986.89257693 -1564.84667969 977.75439453 C-1563.13546698 974.36496992 -1561.44925723 970.96373646 -1559.76855469 967.55908203 C-1554.91912108 957.75672548 -1550.02888245 948.07050022 -1544.49121094 938.63720703 C-1542.5062578 935.13509226 -1540.72610229 931.57078509 -1538.96386719 927.95361328 C-1534.17892066 918.18559823 -1528.73795466 908.79491562 -1523.33935547 899.35693359 C-1521.71862919 896.50929361 -1520.11680917 893.65202758 -1518.52246094 890.78955078 C-1510.88218326 877.09561922 -1502.83332128 863.67771767 -1494.647995 850.30615234 C-1492.06820953 846.08707416 -1489.53007376 841.84474419 -1487.00708008 837.59155273 C-1474.4920812 816.51921602 -1460.90838122 796.12440547 -1447.25822449 775.77734375 C-1445.17110872 772.66558432 -1443.0911041 769.54937242 -1441.02172852 766.42578125 C-1436.83577957 760.11106457 -1432.64657528 753.82135403 -1428.08886719 747.76611328 C-1424.69215919 743.19399079 -1421.37294974 738.58853669 -1418.15136719 733.89111328 C-1409.85078462 721.81619831 -1400.99379396 710.13982753 -1392.18505859 698.43359375 C-1390.62128276 696.35104861 -1389.06331327 694.26427399 -1387.50683594 692.17626953 C-1382.66352985 685.68393664 -1377.80008126 679.22705296 -1372.69824219 672.93408203 C-1371.15002929 671.01063433 -1369.62088544 669.07767904 -1368.10449219 667.12939453 C-1363.1255079 660.73356818 -1358.05811754 654.44991853 -1352.78369141 648.29516602 C-1349.39935512 644.32667906 -1346.16213313 640.26052856 -1342.96386719 636.14111328 C-1339.33356563 631.46876895 -1335.59105164 626.97434567 -1331.60839844 622.59423828 C-1329.39844765 620.10638949 -1327.3062171 617.54104426 -1325.21386719 614.95361328 C-1321.53052251 610.41441399 -1317.70291125 606.04549127 -1313.76855469 601.72314453 C-1311.8708555 599.63287439 -1310.00403304 597.52125213 -1308.15136719 595.39111328 C-1304.75278997 591.48904314 -1301.28762725 587.64918347 -1297.81933594 583.80908203 C-1296.01089161 581.79209638 -1294.23149379 579.75619732 -1292.46386719 577.70361328 C-1287.87423091 572.43403089 -1283.05869442 567.37149801 -1278.28027344 562.27392578 C-1275.46630625 559.26987605 -1272.67619382 556.24523893 -1269.89599609 553.20996094 C-1264.96631052 547.82934039 -1259.93979855 542.60464333 -1254.70996094 537.51220703 C-1252.61407916 535.4533402 -1252.61407916 535.4533402 -1250.99902344 533.11376953 C-1250.55429688 532.54529297 -1250.10957031 531.97681641 -1249.65136719 531.39111328 C-1248.99136719 531.39111328 -1248.33136719 531.39111328 -1247.65136719 531.39111328 C-1247.38212433 530.79688065 -1247.11288147 530.20264801 -1246.83547974 529.59040833 C-1245.65068447 527.38984525 -1244.46711281 525.95913139 -1242.70556641 524.20239258 C-1241.81356033 523.30577156 -1241.81356033 523.30577156 -1240.90353394 522.39103699 C-1240.26086578 521.75555435 -1239.61819763 521.12007172 -1238.95605469 520.46533203 C-1238.28978058 519.79951614 -1237.62350647 519.13370026 -1236.93704224 518.44770813 C-1235.52549658 517.03918146 -1234.11152338 515.63308396 -1232.6953125 514.22924805 C-1230.54995483 512.10200179 -1228.41256285 509.96700886 -1226.27636719 507.83056641 C-1224.89923101 506.45835179 -1223.52164079 505.08659266 -1222.14355469 503.71533203 C-1221.51303192 503.08592209 -1220.88250916 502.45651215 -1220.23287964 501.80802917 C-1216.41670838 498.03153728 -1212.47991105 494.44953581 -1208.41921997 490.93782043 C-1206.41483509 489.18416964 -1204.51557737 487.35527411 -1202.65136719 485.45361328 C-1201.99136719 484.78587891 -1201.33136719 484.11814453 -1200.65136719 483.43017578 C-1199.99136719 482.75728516 -1199.33136719 482.08439453 -1198.65136719 481.39111328 C-1194.12663017 476.77800249 -1189.53912851 472.34628592 -1184.64257812 468.12841797 C-1181.26739616 465.18361723 -1178.02981855 462.09396129 -1174.77636719 459.01611328 C-1166.22222336 450.96142363 -1157.52297143 443.09540118 -1148.65136719 435.39111328 C-1148.12414063 434.93220703 -1147.59691406 434.47330078 -1147.05371094 434.00048828 C-1135.64844123 424.07414366 -1124.18313589 414.23677755 -1112.45214844 404.69580078 C-1109.9343485 402.62397099 -1107.4467065 400.52295934 -1104.96704102 398.40600586 C-1098.19036194 392.62108549 -1091.24522843 387.08758856 -1084.21484375 381.61523438 C-1082.07179782 379.93734052 -1079.95539929 378.22727568 -1077.83886719 376.51611328 C-1071.22920926 371.2109931 -1064.46215131 366.10905965 -1057.72167969 360.97216797 C-1055.28845668 359.11396606 -1052.86280019 357.24615286 -1050.43896484 355.37573242 C-1031.57392476 340.81965862 -1012.21527393 326.98848771 -992.65136719 313.39111328 C-991.6682959 312.70581543 -990.68522461 312.02051758 -989.67236328 311.31445312 C-981.47908325 305.61798249 -973.20963505 300.04324998 -964.90136719 294.51611328 C-964.24462006 294.07879883 -963.58787292 293.64148438 -962.91122437 293.19091797 C-952.87612495 286.51009001 -942.81660075 279.87277789 -932.65136719 273.39111328 C-931.96268555 272.94993164 -931.27400391 272.50875 -930.56445312 272.05419922 C-907.95245333 257.57967123 -884.90885898 243.79951085 -861.65136719 230.39111328 C-860.98572754 230.00697266 -860.32008789 229.62283203 -859.63427734 229.22705078 C-856.29761739 227.30413649 -852.95164883 225.39816884 -849.60058594 223.50048828 C-847.30012276 222.19120663 -845.00736586 220.86880595 -842.71386719 219.54736328 C-829.39732132 211.90953266 -815.87304584 204.76320332 -802.21386719 197.76611328 C-797.32622095 195.26174499 -792.47427083 192.70485168 -787.65136719 190.07861328 C-781.03513357 186.51958913 -774.27179075 183.3045792 -767.47753906 180.10083008 C-762.16724941 177.59613064 -756.89102119 175.04021773 -751.65136719 172.39111328 C-736.19505915 164.6006115 -720.51468569 157.31098584 -704.65136719 150.39111328 C-703.62027832 149.93929687 -702.58918945 149.48748047 -701.52685547 149.02197266 C-662.29611993 131.84128606 -622.74842788 115.77282837 -582.38183594 101.43798828 C-578.68485186 100.12477386 -575.0012636 98.78258865 -571.32714844 97.40673828 C-534.33043217 83.64013632 -496.34304612 72.53004463 -458.28894043 62.11373901 C-455.58116137 61.37187873 -452.87453052 60.62592668 -450.16796875 59.87963867 C-368.92089909 37.52998358 -285.58167547 21.35230432 -201.87463379 11.6496582 C-199.6575336 11.39183038 -197.44103614 11.12927128 -195.22460938 10.86572266 C-130.41564056 3.19792813 -65.24016507 -0.17449426 0 0 Z M-137.65136719 359.39111328 C-139.13751433 359.54867458 -140.62367931 359.70606775 -142.10986328 359.86328125 C-204.48433904 366.51540496 -266.21513786 377.59559651 -327.21386719 392.14111328 C-328.16519531 392.3676358 -329.11652344 392.59415833 -330.09667969 392.82754517 C-348.45561229 397.21491935 -366.56900273 402.29892308 -384.65136719 407.70361328 C-385.45483582 407.94366089 -386.25830444 408.1837085 -387.08612061 408.43103027 C-391.14724428 409.64493407 -395.20768865 410.86107688 -399.26757812 412.07910156 C-402.9470562 413.18215349 -406.6306471 414.27074432 -410.31542969 415.35595703 C-439.16218967 423.93941048 -467.62127864 434.15054219 -495.609375 445.19970703 C-498.93613517 446.5026436 -502.27280337 447.77745096 -505.61230469 449.04736328 C-506.77882568 449.49168701 -507.94534668 449.93601074 -509.1472168 450.39379883 C-511.35297683 451.23326131 -513.55945638 452.07083705 -515.7668457 452.90600586 C-521.52670445 455.10780088 -527.15841721 457.47860455 -532.75463867 460.06713867 C-537.73590327 462.34386837 -542.77976319 464.47601982 -547.81240845 466.63613892 C-589.20974108 484.43366326 -630.08970894 503.90031962 -669.20996094 526.29345703 C-674.4868647 529.31165399 -679.81346604 532.23259566 -685.15136719 535.14111328 C-692.71703695 539.28054192 -700.15353983 543.58202419 -707.50878906 548.08349609 C-709.97323255 549.58754798 -712.44494014 551.07928826 -714.91699219 552.57080078 C-732.6641534 563.29737373 -750.21822915 574.31050445 -767.41894531 585.89501953 C-770.18271334 587.74720353 -772.9560378 589.58471623 -775.72949219 591.42236328 C-776.8079541 592.1379541 -777.88641602 592.85354492 -778.99755859 593.59082031 C-781.14461531 595.01526375 -783.29268968 596.43817475 -785.44189453 597.859375 C-786.43141113 598.51695801 -787.42092773 599.17454102 -788.44042969 599.85205078 C-789.7661499 600.73062744 -789.7661499 600.73062744 -791.11865234 601.62695312 C-793.72691225 603.44373412 -796.181342 605.39166444 -798.65136719 607.39111328 C-799.89609738 608.31586957 -801.14835655 609.23060899 -802.40917969 610.13330078 C-803.10720703 610.63466553 -803.80523438 611.13603027 -804.52441406 611.65258789 C-805.26755859 612.18505127 -806.01070312 612.71751465 -806.77636719 613.26611328 C-821.9221496 624.17113864 -836.90966467 635.23752718 -851.58496094 646.77001953 C-853.52958194 648.29557287 -855.47987172 649.81348097 -857.43261719 651.32861328 C-863.75452496 656.24479078 -869.94991758 661.27607077 -876.03930664 666.4777832 C-879.19932199 669.17483866 -882.39456184 671.81193356 -885.65136719 674.39111328 C-890.12491316 677.93509126 -894.47505969 681.60934936 -898.81738281 685.31152344 C-902.94558882 688.82147795 -907.15415638 692.21348707 -911.43261719 695.53955078 C-914.00036684 697.68235595 -916.2992477 700.01408481 -918.65136719 702.39111328 C-920.5797099 704.19444619 -922.51364942 705.98692864 -924.46386719 707.76611328 C-924.99520264 708.25233154 -925.52653809 708.7385498 -926.07397461 709.23950195 C-928.84041199 711.76410173 -931.62669009 714.2584146 -934.46386719 716.70361328 C-943.21207022 724.29639327 -951.66900052 732.28551926 -959.78051758 740.55273438 C-961.48408233 742.22673185 -963.23230615 743.76677137 -965.05761719 745.30517578 C-970.61722545 750.14031339 -975.78102519 755.3712611 -980.97875977 760.58813477 C-982.71031419 762.32504928 -984.44715078 764.05655217 -986.18457031 765.78759766 C-991.31280009 770.91307087 -996.34006975 776.04933557 -1001.04760742 781.5690918 C-1004.70292869 785.72187953 -1008.74296089 789.51926649 -1012.69042969 793.39111328 C-1016.62799966 797.28307434 -1020.36386236 801.27176631 -1023.9765625 805.46679688 C-1026.57820393 808.45602978 -1029.30740183 811.32152665 -1032.02636719 814.20361328 C-1036.70924922 819.2023456 -1041.12669515 824.33099179 -1045.40917969 829.68017578 C-1047.89045473 832.68018428 -1050.50042176 835.54224762 -1053.15136719 838.39111328 C-1057.32770597 842.89030938 -1061.29654048 847.5086227 -1065.14746094 852.28955078 C-1067.64455924 855.38268035 -1070.1738233 858.44680622 -1072.70947266 861.50830078 C-1079.03358679 869.14958462 -1085.23706649 876.87110527 -1091.32910156 884.69824219 C-1092.66406037 886.40736412 -1094.00777437 888.10921411 -1095.35449219 889.80908203 C-1102.27758041 898.55403558 -1109.00554905 907.43396545 -1115.65136719 916.39111328 C-1116.53308594 917.57906494 -1116.53308594 917.57906494 -1117.43261719 918.79101562 C-1119.2787096 921.28099144 -1121.12194147 923.7730539 -1122.96386719 926.26611328 C-1123.52630127 927.02625732 -1124.08873535 927.78640137 -1124.66821289 928.56958008 C-1128.75418839 934.11436008 -1132.71495026 939.73952373 -1136.65136719 945.39111328 C-1137.80552427 947.034898 -1138.96046891 948.67813004 -1140.11621094 950.32080078 C-1148.91723023 962.83412666 -1148.91723023 962.83412666 -1157.43847656 975.53857422 C-1158.36733498 976.95728953 -1159.29881461 978.374289 -1160.23144531 979.79052734 C-1187.71717045 1021.53202101 -1212.83137177 1064.59148263 -1235.82324219 1108.96142578 C-1237.5788936 1112.34562799 -1239.35547173 1115.71618643 -1241.16699219 1119.07080078 C-1247.64742311 1131.10198056 -1253.40808638 1143.42750679 -1259.09541321 1155.84991455 C-1261.02540859 1160.05597917 -1262.99902433 1164.23931215 -1264.99511719 1168.41455078 C-1278.96441491 1197.71885407 -1291.20575541 1227.7874978 -1302.47216797 1258.22705078 C-1303.59417754 1261.2376603 -1304.74039128 1264.23757946 -1305.89746094 1267.23486328 C-1320.00108076 1303.90866163 -1332.0250193 1341.7813267 -1341.96386719 1379.79150391 C-1342.70548126 1382.59573212 -1343.47304837 1385.39199621 -1344.24511719 1388.18798828 C-1362.97945544 1456.22747775 -1375.27522624 1525.60615943 -1383.3381958 1595.67919922 C-1383.63616413 1598.25946208 -1383.93961569 1600.83901879 -1384.24462891 1603.41845703 C-1386.63070696 1623.72613291 -1388.18430785 1644.03934215 -1389.33886719 1664.45361328 C-1389.3998056 1665.52839935 -1389.46074402 1666.60318542 -1389.52352905 1667.71054077 C-1391.06237614 1695.32375271 -1391.86020324 1722.92256261 -1391.83886719 1750.57861328 C-1391.8387476 1751.2480106 -1391.83862801 1751.91740791 -1391.83850479 1752.60709 C-1391.83238819 1779.90264657 -1391.11053579 1807.13241844 -1389.65136719 1834.39111328 C-1389.60280579 1835.32324646 -1389.55424438 1836.25537964 -1389.50421143 1837.21575928 C-1387.11776783 1882.8408324 -1381.70824225 1928.2628327 -1374.65136719 1973.39111328 C-1374.5224408 1974.21687866 -1374.3935144 1975.04264404 -1374.26068115 1975.89343262 C-1368.3715262 2013.42341934 -1360.6039769 2050.57275445 -1351.77636719 2087.51611328 C-1351.54743774 2088.47520599 -1351.3185083 2089.43429871 -1351.0826416 2090.42245483 C-1348.51086742 2101.15570171 -1345.76713469 2111.80105839 -1342.65136719 2122.39111328 C-1342.17377901 2124.04995127 -1341.69748179 2125.70916124 -1341.22216797 2127.36865234 C-1323.24639845 2190.1199403 -1302.29747568 2251.62369133 -1275.95410156 2311.41064453 C-1274.5317321 2314.66482113 -1273.14667516 2317.93376349 -1271.76074219 2321.20361328 C-1265.34663389 2336.17224647 -1258.11629682 2350.76565031 -1250.96386719 2365.39111328 C-1250.47681305 2366.38767944 -1249.98975891 2367.38424561 -1249.48794556 2368.41101074 C-1242.80626641 2382.07218651 -1236.05394651 2395.67844205 -1228.87890625 2409.08886719 C-1227.61031082 2411.46811438 -1226.35936409 2413.85598361 -1225.11230469 2416.24658203 C-1224.31293849 2417.77398491 -1223.51346554 2419.30133192 -1222.71386719 2420.82861328 C-1222.2008606 2421.8142627 -1222.2008606 2421.8142627 -1221.67749023 2422.81982422 C-1219.55284582 2426.85031498 -1217.23506184 2430.71044277 -1214.79614258 2434.55834961 C-1213.37825248 2436.82836475 -1212.09602768 2439.15371502 -1210.83886719 2441.51611328 C-1204.66857689 2452.97462805 -1198.05246994 2464.15898028 -1191.27636719 2475.26611328 C-1190.52277238 2476.50373492 -1189.76919182 2477.74136523 -1189.015625 2478.97900391 C-1176.52085938 2499.48297504 -1163.69215136 2519.74457269 -1149.98535156 2539.46435547 C-1148.64140191 2541.40550677 -1147.30876923 2543.35395233 -1145.97949219 2545.30517578 C-1139.58412299 2554.68489602 -1132.99301025 2563.9093792 -1126.31738281 2573.09130859 C-1124.64399656 2575.40128786 -1122.98199755 2577.71904755 -1121.32324219 2580.03955078 C-1112.79439039 2591.95602475 -1103.83336671 2603.4382361 -1094.65527344 2614.85986328 C-1092.40892025 2617.69736204 -1090.21826263 2620.57385472 -1088.02636719 2623.45361328 C-1078.51572036 2635.89734582 -1068.35893136 2647.83113254 -1058.12353516 2659.68066406 C-1056.61681828 2661.43125418 -1055.11927444 2663.18931676 -1053.62402344 2664.94970703 C-1047.95254016 2671.61973579 -1042.17955383 2678.16787847 -1036.23339844 2684.59423828 C-1033.85113204 2687.17472655 -1031.49566784 2689.77615625 -1029.15136719 2692.39111328 C-1024.5405824 2697.52418166 -1019.88992185 2702.61924969 -1015.21400452 2707.69303894 C-1014.22050564 2708.77264642 -1013.22842838 2709.85356517 -1012.23826599 2710.93623352 C-1001.75100032 2722.39712012 -990.80366615 2733.39431664 -979.80859375 2744.36425781 C-977.26387019 2746.90323082 -974.72373973 2749.44674472 -972.18486214 2751.99156189 C-970.1962241 2753.98383585 -968.20518326 2755.97369486 -966.21343613 2757.96286011 C-964.82748262 2759.34784074 -963.44350927 2760.73480205 -962.05960083 2762.12182617 C-957.61073881 2766.55428912 -953.10350891 2770.84561955 -948.33981323 2774.93847656 C-946.31602494 2776.67962144 -944.36693804 2778.48889501 -942.43261719 2780.32861328 C-941.7275 2780.99634766 -941.02238281 2781.66408203 -940.29589844 2782.35205078 C-938.86621094 2783.71142578 -937.43652344 2785.07080078 -936.00683594 2786.43017578 C-931.8870155 2790.33157795 -927.70657617 2794.13707697 -923.41992188 2797.85449219 C-921.2598343 2799.73129936 -919.1417668 2801.65167654 -917.02636719 2803.57861328 C-907.1529366 2812.48138403 -896.97586614 2821.01782172 -886.65136719 2829.39111328 C-884.92162443 2830.80707648 -883.19247157 2832.22376058 -881.46386719 2833.64111328 C-879.52655649 2835.22467823 -877.58903581 2836.80798631 -875.65136719 2838.39111328 C-875.04631348 2838.88659668 -874.44125977 2839.38208008 -873.81787109 2839.89257812 C-865.88960294 2846.38257585 -857.92353676 2852.80371244 -849.77246094 2859.01220703 C-846.67699714 2861.37157806 -843.60193834 2863.75589732 -840.52636719 2866.14111328 C-832.01253469 2872.70690978 -823.33028635 2879.04625743 -814.65136719 2885.39111328 C-813.90725586 2885.93670898 -813.16314453 2886.48230469 -812.39648438 2887.04443359 C-800.01025742 2896.11735865 -787.38184999 2904.80940389 -774.65136719 2913.39111328 C-773.86761719 2913.92091797 -773.08386719 2914.45072266 -772.27636719 2914.99658203 C-750.83426297 2929.47744755 -728.8811719 2943.15698426 -706.65136719 2956.39111328 C-706.00748047 2956.77493164 -705.36359375 2957.15875 -704.70019531 2957.55419922 C-683.59587452 2970.11430292 -662.11284451 2981.91491142 -640.38801575 2993.359375 C-637.16610636 2995.05762394 -633.94950672 2996.76481112 -630.7421875 2998.49047852 C-623.37718332 3002.45142585 -615.96875574 3006.26533168 -608.40136719 3009.82861328 C-607.42321045 3010.29251465 -606.44505371 3010.75641602 -605.43725586 3011.234375 C-603.45185644 3012.17559901 -601.46578551 3013.11540802 -599.47900391 3014.05371094 C-596.86796864 3015.28866614 -594.26081576 3016.53133891 -591.65527344 3017.77783203 C-557.00283658 3034.33610463 -521.60929742 3049.30252329 -485.6060791 3062.66442871 C-483.6977711 3063.37386214 -481.79101232 3064.0872945 -479.88476562 3064.80224609 C-452.27799724 3075.14287529 -424.48795487 3085.30301627 -395.99511719 3092.93017578 C-391.26038393 3094.20067367 -386.617026 3095.66557076 -381.96386719 3097.20361328 C-343.29090564 3109.74021881 -302.61652347 3119.11696421 -262.65136719 3126.39111328 C-261.0773854 3126.68295379 -259.50349944 3126.97531134 -257.9296875 3127.26806641 C-203.08453623 3137.44851107 -147.92515499 3144.68018565 -92.27636719 3148.70361328 C-90.59469955 3148.82558075 -90.59469955 3148.82558075 -88.87905884 3148.95001221 C-85.62906694 3149.18247801 -82.37868073 3149.40781431 -79.12792969 3149.62939453 C-78.22025345 3149.69265427 -77.31257721 3149.755914 -76.37739563 3149.8210907 C-57.49286575 3151.06139277 -38.61187892 3151.55209815 -19.69042969 3151.55908203 C-17.56090272 3151.56231614 -15.43137594 3151.56568157 -13.30184937 3151.56916809 C-8.86659229 3151.57509464 -4.43135449 3151.57701506 0.00390625 3151.57641602 C4.45153928 3151.57633533 8.89906804 3151.5831979 13.34667969 3151.59692383 C51.84304469 3151.71365783 90.11818547 3150.62624143 128.47363281 3147.20361328 C129.6660257 3147.09917908 130.85841858 3146.99474487 132.08694458 3146.887146 C182.98127464 3142.39795377 233.7147596 3135.63727834 283.73291016 3125.13720703 C287.40804984 3124.37885275 291.08933968 3123.66200529 294.77441406 3122.95361328 C313.29845456 3119.34323058 331.60288657 3114.96885569 349.91113281 3110.39111328 C351.08625427 3110.0980127 352.26137573 3109.80491211 353.47210693 3109.50292969 C374.50471154 3104.24340045 395.46947678 3098.69040474 416.16113281 3092.20361328 C417.33796631 3091.8361499 418.5147998 3091.46868652 419.72729492 3091.09008789 C483.55069895 3071.01402589 545.86051179 3047.00120203 606.34863281 3018.39111328 C607.91508545 3017.65127197 607.91508545 3017.65127197 609.51318359 3016.89648438 C616.81410529 3013.44046091 624.08959118 3009.93421694 631.34863281 3006.39111328 C631.93878174 3006.10322937 632.52893066 3005.81534546 633.13696289 3005.51873779 C648.76456307 2997.88832386 664.14349275 2990.00041712 679.21972656 2981.31689453 C683.83131675 2978.66490844 688.50466475 2976.15813209 693.22363281 2973.70361328 C701.78019279 2969.2266702 710.0770291 2964.3719301 718.34863281 2959.39111328 C719.37956055 2958.77171875 720.41048828 2958.15232422 721.47265625 2957.51416016 C751.03893941 2939.72852473 780.04175249 2921.13048318 808.34863281 2901.39111328 C809.34588379 2900.69671143 809.34588379 2900.69671143 810.36328125 2899.98828125 C821.83704075 2891.98477951 833.11971412 2883.73372541 844.34863281 2875.39111328 C844.91388672 2874.97265137 845.47914063 2874.55418945 846.06152344 2874.12304688 C860.54168066 2863.40233997 874.6762173 2852.23528179 888.60888672 2840.81494141 C890.16811608 2839.53885024 891.73264381 2838.26923947 893.29785156 2837.00048828 C898.9990122 2832.37297687 904.59103138 2827.63161827 910.15112305 2822.83666992 C913.7336562 2819.75349932 917.35820567 2816.73573777 921.03613281 2813.76611328 C925.77840769 2809.91650191 930.29792243 2805.86398657 934.79394531 2801.73095703 C937.59478309 2799.16566372 940.44626338 2796.66668262 943.31347656 2794.17626953 C945.72219124 2792.06344303 948.09755542 2789.91556034 950.47363281 2787.76611328 C953.16258652 2785.3365839 955.85536705 2782.93477269 958.66113281 2780.64111328 C962.25104217 2777.63560777 965.45862336 2774.29418976 968.74316406 2770.96142578 C969.54109375 2770.15447266 970.33902344 2769.34751953 971.16113281 2768.51611328 C971.95132813 2767.71431641 972.74152344 2766.91251953 973.55566406 2766.08642578 C975.62753471 2764.08699816 977.70282767 2762.21417806 979.88769531 2760.34814453 C985.25329163 2755.69228318 990.23810592 2750.65126315 995.2487793 2745.62133789 C996.90790601 2743.95685051 998.57231333 2742.29777881 1000.23730469 2740.63916016 C1005.29853282 2735.58076718 1010.26443072 2730.48877486 1014.91430664 2725.04394531 C1016.94375425 2722.70533079 1019.12911728 2720.54836518 1021.34863281 2718.39111328 C1026.69313726 2713.12394089 1031.9394058 2707.85765327 1036.80957031 2702.14501953 C1038.23803378 2700.51715126 1039.7231905 2699.01356918 1041.28613281 2697.51611328 C1043.58079127 2695.64547629 1043.58079127 2695.64547629 1043.34863281 2693.39111328 C1044.00863281 2693.39111328 1044.66863281 2693.39111328 1045.34863281 2693.39111328 C1046.85137168 2691.94428276 1046.85137168 2691.94428276 1048.41113281 2690.01611328 C1051.12787068 2686.81564984 1053.891985 2683.67805265 1056.72363281 2680.57861328 C1060.58250922 2676.30396568 1064.23059035 2671.89410596 1067.85253906 2667.41845703 C1070.68755541 2663.98005692 1073.60413864 2660.62171497 1076.53613281 2657.26611328 C1083.04198821 2649.80519984 1089.34976488 2642.19219347 1095.60791016 2634.52294922 C1097.33678486 2632.40562329 1099.07087131 2630.29265405 1100.80566406 2628.18017578 C1106.42312392 2621.32348693 1111.91934096 2614.41579937 1117.19238281 2607.28955078 C1119.43676321 2604.27264815 1121.73125646 2601.2995091 1124.03613281 2598.32861328 C1141.05365282 2576.31348329 1157.04188429 2553.50925876 1172.40722656 2530.31689453 C1173.80872774 2528.20477303 1175.21706053 2526.09842564 1176.63378906 2523.99658203 C1189.50304902 2504.86960245 1201.59107963 2485.21774101 1213.34863281 2465.39111328 C1213.86200195 2464.52583008 1214.37537109 2463.66054687 1214.90429688 2462.76904297 C1223.19883216 2448.75413852 1231.13018982 2434.58176274 1238.81787109 2420.22607422 C1240.2332348 2417.60482967 1241.6722869 2414.9990633 1243.12597656 2412.39892578 C1259.09281575 2383.76921784 1273.27838322 2354.1567122 1286.54840088 2324.19403076 C1287.80090385 2321.3721495 1289.06605497 2318.55594389 1290.32910156 2315.73876953 C1305.13970857 2282.55889577 1318.10032584 2248.59021359 1330.34863281 2214.39111328 C1330.70538086 2213.39655121 1330.70538086 2213.39655121 1331.06933594 2212.38189697 C1360.73422312 2129.54160008 1381.48666578 2042.64752192 1397.34863281 1927.39111328 C1397.50558624 1926.06950195 1397.50558624 1926.06950195 1397.66571045 1924.72119141 C1404.15853789 1869.91818868 1407.72289072 1815.55993151 1407.66430664 1760.36328125 C1407.65969768 1755.65680322 1407.66653684 1750.95058508 1407.68481445 1746.24414062 C1407.85563777 1701.79066403 1406.39563262 1657.30988264 1401.62988281 1613.08251953 C1401.53525757 1612.19399796 1401.44063232 1611.30547638 1401.34313965 1610.39002991 C1395.39718836 1555.36342569 1387.39659874 1500.57803864 1375.09863281 1446.57861328 C1374.80835205 1445.30203857 1374.51807129 1444.02546387 1374.21899414 1442.71020508 C1359.32995447 1377.66642684 1340.11722528 1313.73921165 1316.34863281 1251.39111328 C1315.92308105 1250.27462402 1315.4975293 1249.15813477 1315.05908203 1248.0078125 C1312.54604741 1241.44571177 1309.97598024 1234.90826883 1307.34863281 1228.39111328 C1306.98801758 1227.49650391 1306.62740234 1226.60189453 1306.25585938 1225.68017578 C1295.77083754 1199.82017433 1284.26406942 1174.36972489 1272.34863281 1149.14111328 C1272.00363739 1148.41001343 1271.65864197 1147.67891357 1271.30319214 1146.92565918 C1259.34280519 1121.61901453 1246.59733876 1096.72131936 1232.56152344 1072.5 C1230.58785009 1069.06831917 1228.70680693 1065.58858906 1226.82519531 1062.10595703 C1220.61949048 1050.69599708 1214.10749202 1039.4812231 1207.34863281 1028.39111328 C1206.39730469 1026.82683594 1206.39730469 1026.82683594 1205.42675781 1025.23095703 C1203.77822169 1022.53675854 1202.11969583 1019.84915684 1200.45166016 1017.16699219 C1199.70501597 1015.96489175 1198.9606124 1014.76139722 1198.21826172 1013.55664062 C1190.76096066 1001.46940786 1182.91351154 989.64423574 1175.03613281 977.82861328 C1174.2507312 976.64983109 1174.2507312 976.64983109 1173.44946289 975.44723511 C1167.83873682 967.03169486 1162.21507994 958.63162423 1156.34863281 950.39111328 C1155.92751221 949.79854736 1155.5063916 949.20598145 1155.07250977 948.59545898 C1153.51863239 946.41550323 1151.95705887 944.24108164 1150.39648438 942.06591797 C1148.08716168 938.84103477 1145.79573263 935.60538496 1143.53222656 932.34814453 C1137.14830743 923.180172 1130.48932716 914.2873691 1123.57519531 905.51220703 C1120.92234471 902.14288444 1118.33804425 898.72801829 1115.7734375 895.29125977 C1113.60556188 892.40013983 1111.39157309 889.5466334 1109.16113281 886.70361328 C1108.69481445 886.10911377 1108.22849609 885.51461426 1107.74804688 884.90209961 C1104.00018214 880.15451141 1100.12226183 875.52956047 1096.19140625 870.93310547 C1093.68474985 867.99519636 1091.25168779 865.02523749 1088.91113281 861.95361328 C1085.41011975 857.37794872 1081.65489102 853.03814062 1077.88745117 848.68212891 C1074.84503043 845.15857897 1071.87963401 841.59153642 1068.97363281 837.95361328 C1064.12558919 831.97317991 1058.84506789 826.42275132 1053.56738281 820.82470703 C1050.68773564 817.76672554 1047.90699274 814.63928533 1045.16503906 811.45751953 C1041.3241414 807.08798219 1037.33767421 802.8468514 1033.37748718 798.58546448 C1031.84618598 796.92925263 1030.32164962 795.2667825 1028.80039978 793.60133362 C1021.80775475 785.95672467 1014.63508767 778.52856653 1007.30175781 771.21142578 C1006.19449625 770.10348745 1005.08738289 768.99540098 1003.98040771 767.88717651 C1001.68630698 765.59161942 999.39045372 763.29783459 997.09326172 761.00537109 C994.16959305 758.0874325 991.25048503 755.16497889 988.33266068 752.24119759 C986.05750017 749.96240403 983.77993945 747.68602132 981.50167084 745.41033554 C980.42459803 744.33392267 979.34824761 743.25678641 978.27268219 742.17886734 C972.98388539 736.88102262 967.67071015 731.66251558 961.98178101 726.79067993 C960.00503843 725.09666159 958.11300478 723.32673495 956.23535156 721.52392578 C955.20825073 720.544198 955.20825073 720.544198 954.16040039 719.54467773 C953.45939209 718.87525146 952.75838379 718.2058252 952.03613281 717.51611328 C946.55850125 712.31838235 941.00961426 707.36000738 935.09082031 702.66455078 C931.69431917 699.84864812 928.49641356 696.85313276 925.28613281 693.82861328 C920.66389755 689.48024686 915.97112708 685.36833104 910.95800781 681.46923828 C907.76181064 678.92376388 904.68479344 676.25551481 901.59863281 673.57861328 C895.19115497 668.03812213 888.58727164 662.79066161 881.89599609 657.59912109 C879.75649381 655.92883752 877.64650812 654.22298198 875.53613281 652.51611328 C859.76853426 639.87106698 843.54101688 627.71480089 827.05175781 616.02783203 C824.32011132 614.08955718 821.60475213 612.13011014 818.89550781 610.16064453 C810.49231656 604.05211999 802.04133631 598.08398185 793.34863281 592.39111328 C790.84575766 590.72875075 788.34742904 589.05959836 785.84863281 587.39111328 C784.57001434 586.5395097 783.29136885 585.68794669 782.01269531 584.83642578 C779.7323245 583.31657468 777.45699401 581.79008268 775.18457031 580.25830078 C769.21260901 576.24022655 763.16312553 572.39411959 757.01660156 568.64892578 C753.49458752 566.4937072 750.01185392 564.27886285 746.52856445 562.06176758 C737.63449872 556.40434468 728.65308213 550.93879258 719.53173828 545.65625 C717.25051282 544.33425153 714.97323292 543.00562722 712.69628906 541.67626953 C689.08178309 527.91385264 665.15391182 514.54303196 640.60839844 502.50927734 C637.92491673 501.18145256 635.25400403 499.82981454 632.58300781 498.47705078 C597.62334414 480.80117843 561.80787583 464.72960062 525.34863281 450.39111328 C524.62518677 450.10621033 523.90174072 449.82130737 523.15637207 449.527771 C452.42078454 421.71223157 379.73559446 399.11481378 305.34863281 383.39111328 C304.47952271 383.20633423 303.6104126 383.02155518 302.71496582 382.83117676 C272.08490513 376.32482331 241.31593796 371.0184507 210.34863281 366.39111328 C209.50187988 366.26391907 208.65512695 366.13672485 207.78271484 366.00567627 C162.88776464 359.27977769 117.68295493 355.4802609 72.34863281 353.39111328 C71.32125 353.34305542 70.29386719 353.29499756 69.23535156 353.2454834 C49.73295731 352.35812446 30.24237297 352.14781526 10.72363281 352.14111328 C9.93140068 352.14052414 9.13916855 352.139935 8.32292938 352.139328 C-40.46044702 352.11391481 -89.13083829 354.14913479 -137.65136719 359.39111328 Z " fill="#000000" transform="translate(1743.6513671875,-0.39111328125)"/>
<path d="M0 0 C1.91405549 0.00030698 3.82811108 0.00017174 5.74216652 -0.00036526 C10.82778008 -0.00058929 15.9133697 0.00516993 20.99897766 0.01224518 C25.78634713 0.01797686 30.57371103 0.01821029 35.36108398 0.0189209 C49.32487291 0.02415015 63.28865747 0.03811141 77.25244141 0.05102539 C108.47869141 0.07165039 139.70494141 0.09227539 171.87744141 0.11352539 C171.87744141 109.34352539 171.87744141 218.57352539 171.87744141 331.11352539 C83.12744141 331.42602539 83.12744141 331.42602539 55.20263672 331.50146484 C46.87361753 331.53806982 46.87361753 331.53806982 38.5446167 331.57853699 C34.86214949 331.59632591 31.17976028 331.60604737 27.49725342 331.61064148 C22.77498591 331.61680765 18.05297272 331.63739955 13.33080053 331.66768682 C11.61338638 331.67638268 9.89593876 331.68034741 8.17850351 331.67856467 C-7.68783148 331.6671006 -23.5413149 333.35806725 -38.87255859 337.61352539 C-40.21072632 337.98429199 -40.21072632 337.98429199 -41.57592773 338.36254883 C-58.6823213 343.39881346 -74.87284201 351.41191457 -89.12255859 362.11352539 C-89.71713867 362.55164551 -90.31171875 362.98976563 -90.92431641 363.44116211 C-103.23327651 372.55635736 -113.80158314 382.90908271 -123.12255859 395.11352539 C-123.83927734 396.05196289 -124.55599609 396.99040039 -125.29443359 397.95727539 C-134.8632293 411.12285247 -142.28038602 425.60288325 -147.56005859 440.98852539 C-147.86564697 441.85840088 -148.17123535 442.72827637 -148.48608398 443.62451172 C-159.19968701 476.77888987 -155.63211506 511.78247787 -156.12255859 546.11352539 C132.62744141 546.44352539 421.37744141 546.77352539 718.87744141 547.11352539 C718.87744141 836.19352539 718.87744141 1125.27352539 718.87744141 1423.11352539 C791.14744141 1423.11352539 863.41744141 1423.11352539 937.87744141 1423.11352539 C937.91777276 1505.88689746 937.91777276 1505.88689746 937.92626953 1540.36938477 C937.92822755 1548.26285809 937.93024807 1556.1563314 937.93237305 1564.04980469 C937.9326368 1565.03918948 937.93290054 1566.02857428 937.93317229 1567.04794043 C937.93752736 1583.04268127 937.94541434 1599.03741852 937.9545942 1615.03215723 C937.96392971 1631.43429183 937.9694968 1647.83642455 937.9715299 1664.23856169 C937.97290534 1674.36808033 937.97725708 1684.49758887 937.98535787 1694.62710441 C937.99062406 1701.56342245 937.99224599 1708.49973522 937.99094278 1715.43605512 C937.9902992 1719.44418834 937.99131916 1723.45230385 937.99664688 1727.46043396 C938.00148096 1731.12371629 938.00178 1734.78696884 937.9983403 1738.45025248 C937.99771167 1740.41594218 938.00205333 1742.38163149 938.00652272 1744.34731621 C938.00453167 1745.49882779 938.00254062 1746.65033938 938.00048923 1747.83674526 C938.00086896 1748.83882721 938.00124868 1749.84090917 938.0016399 1750.87335724 C937.87744141 1753.11352539 937.87744141 1753.11352539 936.87744141 1754.11352539 C935.20194959 1754.21155924 933.5222872 1754.2387555 931.84392983 1754.23887455 C930.1943312 1754.24262983 930.1943312 1754.24262983 928.51140735 1754.24646097 C926.6728125 1754.24294923 926.6728125 1754.24294923 924.79707432 1754.23936653 C923.50322542 1754.24081997 922.20937653 1754.24227341 920.87632009 1754.2437709 C917.25225292 1754.24769659 913.62821206 1754.24531855 910.00414527 1754.24199294 C906.07383477 1754.23947234 902.14352853 1754.24270972 898.21321863 1754.24523628 C891.31400556 1754.24886113 884.41480029 1754.24873036 877.51558685 1754.24618912 C867.25648683 1754.2424205 856.99739345 1754.24433313 846.73829348 1754.24739742 C828.41967323 1754.25267494 810.10105645 1754.25220209 791.78243587 1754.24931851 C775.75129819 1754.24680727 759.7201618 1754.24614423 743.68902397 1754.24734116 C742.62744133 1754.24741754 741.56585868 1754.24749393 740.47210687 1754.24757263 C736.16325902 1754.24788394 731.85441118 1754.24820234 727.54556333 1754.24853239 C687.08809475 1754.25159447 646.63062839 1754.24881309 606.17316015 1754.24343549 C570.19673774 1754.23868989 534.22031887 1754.23911387 498.24389648 1754.24389648 C457.86399434 1754.24924648 417.48409417 1754.25137701 377.10419172 1754.24828422 C372.80268602 1754.24796348 368.50118031 1754.24765064 364.19967461 1754.24734116 C362.61085672 1754.24722254 362.61085672 1754.24722254 360.98994151 1754.24710153 C344.96609819 1754.2459621 328.94225629 1754.24729796 312.91841316 1754.24982071 C294.70523089 1754.25267377 276.49205265 1754.25197844 258.27887089 1754.24653997 C248.07462497 1754.24359382 237.87038777 1754.24342614 227.66614207 1754.24718614 C220.86176043 1754.24941771 214.05738584 1754.24805268 207.25300525 1754.24368137 C203.36830582 1754.24128797 199.48362381 1754.24051931 195.59892488 1754.24408735 C191.42715171 1754.24788026 187.25542188 1754.24404762 183.08364964 1754.23936653 C181.24856654 1754.24287828 181.24856654 1754.24287828 179.37641105 1754.24646097 C178.27417511 1754.24395746 177.17193918 1754.24145394 176.03630215 1754.23887455 C175.08098858 1754.2388068 174.12567502 1754.23873904 173.14141256 1754.23866922 C170.87744141 1754.11352539 170.87744141 1754.11352539 168.87744141 1753.11352539 C168.85457677 1711.21789295 168.83694407 1669.32226123 168.82637608 1627.4266238 C168.8251253 1622.48591325 168.82383098 1617.54520272 168.82250977 1612.60449219 C168.82224746 1611.62084224 168.82198514 1610.63719229 168.82171489 1609.62373476 C168.81735781 1593.67472092 168.80947006 1577.72571067 168.80028861 1561.77669895 C168.7909531 1545.42428491 168.78538602 1529.07187274 168.78335291 1512.71945614 C168.78197747 1502.62064694 168.77762574 1492.52184789 168.76952494 1482.42304181 C168.76425874 1475.50774856 168.76263682 1468.59246058 168.76394003 1461.67716546 C168.76458361 1457.68118381 168.76356367 1453.68521993 168.75823593 1449.68924141 C168.75340184 1446.03706159 168.75310282 1442.38491164 168.75654251 1438.7327305 C168.75717114 1436.77300569 168.75282949 1434.81328128 168.7483601 1432.85356146 C168.75035115 1431.70553327 168.75234219 1430.55750507 168.75439358 1429.37468815 C168.753824 1427.87612187 168.753824 1427.87612187 168.75324291 1426.34728152 C168.87744141 1424.11352539 168.87744141 1424.11352539 169.87744141 1423.11352539 C172.73476865 1423.01559288 175.56792636 1422.98360148 178.42567444 1422.99327087 C179.33307749 1422.99241645 180.24048054 1422.99156202 181.17538065 1422.99068171 C184.24023103 1422.98902412 187.30502764 1422.99455281 190.36987305 1423 C192.55718484 1423.00028184 194.74449673 1423.00012421 196.93180847 1422.9995575 C202.89024513 1422.99926939 208.84866185 1423.00516825 214.80709386 1423.01213145 C221.02645979 1423.0183628 227.24582613 1423.01896861 233.4651947 1423.02015686 C243.91063782 1423.02291654 254.35607408 1423.02917204 264.80151367 1423.03808594 C275.56225548 1423.04725939 286.3229953 1423.05434055 297.08374023 1423.05859375 C298.07801568 1423.05898784 298.07801568 1423.05898784 299.09237749 1423.05938988 C302.41757066 1423.06069488 305.74276385 1423.06195635 309.06795704 1423.06320179 C336.67112362 1423.07366765 364.274282 1423.09126835 391.87744141 1423.11352539 C391.54744141 1422.45352539 391.21744141 1421.79352539 390.87744141 1421.11352539 C390.78033417 1418.20205805 390.74554383 1415.31454183 390.75439358 1412.40281487 C390.75266296 1411.0262021 390.75266296 1411.0262021 390.75089738 1409.62177897 C390.74822808 1406.51336835 390.75275447 1403.40500838 390.75718689 1400.29660034 C390.75674986 1398.06465645 390.75587366 1395.83271261 390.7545929 1393.60076904 C390.75233861 1387.42818969 390.7563787 1381.25562751 390.76136868 1375.08305034 C390.76527001 1369.03276031 390.76444985 1362.98247203 390.76376098 1356.93218123 C390.76251716 1344.62317101 390.7658195 1332.31416611 390.77186584 1320.00515747 C390.78002695 1303.36167205 390.78196804 1286.71819574 390.78283691 1270.07470703 C390.78809327 1230.04597873 390.8020543 1190.01725196 390.81494141 1149.98852539 C390.83556641 1060.59977539 390.85619141 971.21102539 390.87744141 879.11352539 C210.36744141 879.11352539 29.85744141 879.11352539 -156.12255859 879.11352539 C-156.08293521 1057.39648587 -156.08293521 1057.39648587 -156.0324707 1235.67944336 C-156.0279541 1270.07470703 -156.0279541 1270.07470703 -156.02711487 1286.15042114 C-156.02611728 1298.18033881 -156.02179442 1310.2102509 -156.01588517 1322.240167 C-156.00994712 1334.49356722 -156.0077185 1346.7469639 -156.00911364 1359.0003655 C-156.00977078 1365.65697557 -156.00872474 1372.31357724 -156.00334346 1378.970186 C-155.9985157 1384.97827585 -155.99820984 1390.98634752 -156.00165749 1396.99443817 C-156.00208486 1399.1770291 -156.00078827 1401.35962112 -155.99767601 1403.54220986 C-155.9937088 1406.49576757 -155.99579768 1409.44925836 -155.99951077 1412.40281487 C-155.99688374 1413.26715336 -155.99425672 1414.13149185 -155.99155008 1415.02202242 C-156.00841333 1420.88523486 -156.00841333 1420.88523486 -157.12255859 1423.11352539 C-84.85255859 1423.11352539 -12.58255859 1423.11352539 61.87744141 1423.11352539 C61.91777276 1505.88689746 61.91777276 1505.88689746 61.92626953 1540.36938477 C61.92822755 1548.26285809 61.93024807 1556.1563314 61.93237305 1564.04980469 C61.9326368 1565.03918948 61.93290054 1566.02857428 61.93317229 1567.04794043 C61.93752736 1583.04268127 61.94541434 1599.03741852 61.9545942 1615.03215723 C61.96392971 1631.43429183 61.9694968 1647.83642455 61.9715299 1664.23856169 C61.97290534 1674.36808033 61.97725708 1684.49758887 61.98535787 1694.62710441 C61.99062406 1701.56342245 61.99224599 1708.49973522 61.99094278 1715.43605512 C61.9902992 1719.44418834 61.99131916 1723.45230385 61.99664688 1727.46043396 C62.00148096 1731.12371629 62.00178 1734.78696884 61.9983403 1738.45025248 C61.99771167 1740.41594218 62.00205333 1742.38163149 62.00652272 1744.34731621 C62.00453167 1745.49882779 62.00254062 1746.65033938 62.00048923 1747.83674526 C62.00105882 1749.33986819 62.00105882 1749.33986819 62.0016399 1750.87335724 C61.87744141 1753.11352539 61.87744141 1753.11352539 60.87744141 1754.11352539 C59.19902939 1754.21119588 57.51646788 1754.23799793 55.83521646 1754.23772389 C54.73353818 1754.23997118 53.63185989 1754.24221847 52.49679741 1754.24453387 C51.26889147 1754.24190685 50.04098553 1754.23927984 48.77587032 1754.23657322 C46.83166563 1754.23830399 46.83166563 1754.23830399 44.84818408 1754.24006972 C41.21771392 1754.24315898 37.58727145 1754.23994697 33.95680334 1754.23579158 C30.0195834 1754.23237452 26.08236644 1754.23472489 22.14514595 1754.23636907 C15.23385909 1754.23844885 8.32258081 1754.23678879 1.41129494 1754.23273087 C-8.86564966 1754.2267135 -19.1425888 1754.22639341 -29.41953483 1754.22727285 C-46.70421202 1754.22858901 -63.9888854 1754.22523679 -81.27356148 1754.21925545 C-98.39605287 1754.21334537 -115.51854268 1754.20949091 -132.64103508 1754.20840263 C-133.70429432 1754.20833389 -134.76755356 1754.20826515 -135.86303278 1754.20819433 C-141.26243827 1754.20785601 -146.66184376 1754.20755462 -152.06124925 1754.20726746 C-190.3394179 1754.20516512 -228.61758447 1754.19842242 -266.89575195 1754.18896484 C-304.0904133 1754.17978556 -341.28507408 1754.17269943 -378.47973633 1754.16845703 C-379.62554569 1754.16832551 -380.77135504 1754.16819398 -381.9518859 1754.16805847 C-393.45821402 1754.16673999 -404.96454214 1754.16546417 -416.47087026 1754.16421961 C-439.91213436 1754.16168316 -463.35339843 1754.15886191 -486.79466248 1754.15586853 C-488.41147155 1754.1556626 -488.41147155 1754.1556626 -490.06094343 1754.1554525 C-523.10960401 1754.15122807 -556.15826425 1754.14579609 -589.20692444 1754.13917542 C-590.14550574 1754.13898786 -591.08408704 1754.1388003 -592.0511102 1754.13860706 C-630.07492649 1754.13099043 -668.09874251 1754.12209742 -706.12255859 1754.11352539 C-706.12255859 1644.88352539 -706.12255859 1535.65352539 -706.12255859 1423.11352539 C-633.85255859 1423.11352539 -561.58255859 1423.11352539 -487.12255859 1423.11352539 C-487.12255859 1243.26352539 -487.12255859 1063.41352539 -487.12255859 878.11352539 C-559.39255859 878.11352539 -631.66255859 878.11352539 -706.12255859 878.11352539 C-706.12255859 768.88352539 -706.12255859 659.65352539 -706.12255859 547.11352539 C-633.85255859 547.11352539 -561.58255859 547.11352539 -487.12255859 547.11352539 C-487.12255859 521.70352539 -487.12255859 496.29352539 -487.12255859 470.11352539 C-484.76644574 437.12794539 -484.76644574 437.12794539 -482.99755859 425.17602539 C-482.89407104 424.46693024 -482.7905835 423.75783508 -482.68395996 423.0272522 C-478.52992131 394.82361777 -472.06972845 367.18178086 -463.12255859 340.11352539 C-462.53885498 338.3457373 -462.53885498 338.3457373 -461.94335938 336.54223633 C-454.40398329 314.0136787 -445.12754421 292.15529572 -434.1484375 271.08276367 C-432.99955482 268.87741202 -431.86435179 266.66521589 -430.72802734 264.45336914 C-429.88130722 262.81876931 -429.03366364 261.18464746 -428.18505859 259.55102539 C-427.81429199 258.83172852 -427.44352539 258.11243164 -427.06152344 257.37133789 C-420.61779876 245.08926597 -413.1537895 233.39785915 -405.44799805 221.87866211 C-404.18311376 219.98561471 -402.92702061 218.08693616 -401.67138672 216.18774414 C-396.15170058 207.88498303 -390.29969703 199.94044587 -384.12255859 192.11352539 C-383.42791504 191.22713379 -382.73327148 190.34074219 -382.01757812 189.42749023 C-373.51416534 178.61114917 -364.39136187 168.27570729 -355.12255859 158.11352539 C-354.26017578 157.15833008 -353.39779297 156.20313477 -352.50927734 155.21899414 C-344.50901257 146.38447716 -336.34327329 137.71180161 -327.25927734 129.97290039 C-325.12793838 128.11820689 -323.0644223 126.20042609 -321.00268555 124.26904297 C-314.53278941 118.22732487 -307.72752834 112.74698114 -300.71533203 107.35083008 C-298.48797571 105.62056615 -296.30730205 103.83463563 -294.12255859 102.05102539 C-276.40438363 87.88795349 -256.93316638 75.91195518 -237.39794922 64.45092773 C-235.35694034 63.25128753 -233.32538847 62.03709217 -231.29443359 60.82055664 C-218.42758124 53.23214912 -204.75544304 47.1754466 -191.12255859 41.11352539 C-189.95499023 40.59322754 -188.78742187 40.07292969 -187.58447266 39.53686523 C-168.47368494 31.111305 -149.01916771 24.53043106 -128.99645996 18.66369629 C-127.31724362 18.17068424 -125.64016325 17.67041062 -123.96337891 17.16918945 C-84.38577435 5.45730856 -41.17693194 -0.08721454 0 0 Z " fill="#000000" transform="translate(1634.12255859375,878.886474609375)"/>
<path d="M0 0 C1.06492676 0.53149658 1.06492676 0.53149658 2.15136719 1.07373047 C42.5503239 21.61800789 73.73478405 60.01574717 87.92724609 102.79492188 C101.87234055 148.13024304 98.03315021 197.00343011 76 239.0625 C67.61554504 254.6402281 57.04535807 268.06864361 45 281 C44.31550781 281.73863281 43.63101563 282.47726562 42.92578125 283.23828125 C18.96679643 308.17156859 -14.22259763 324.8186212 -48 331 C-49.69769531 331.32097656 -49.69769531 331.32097656 -51.4296875 331.6484375 C-98.21863132 339.39049295 -144.5628582 327.82376224 -183.1171875 300.81640625 C-190.57070155 295.38598887 -197.35911524 289.37359174 -204 283 C-204.54865723 282.47857422 -205.09731445 281.95714844 -205.66259766 281.41992188 C-212.95890829 274.45669002 -219.41909136 267.45207858 -225 259 C-225.72703125 257.92105469 -226.4540625 256.84210938 -227.203125 255.73046875 C-253.17731635 216.67774282 -263.19971194 169.24088113 -254.328125 122.9765625 C-244.38359829 76.17608985 -217.04325074 35.84156516 -177.14501953 9.38720703 C-159.52279199 -2.00927566 -140.56220041 -10.6727781 -120 -15 C-119.11957031 -15.19464844 -118.23914062 -15.38929688 -117.33203125 -15.58984375 C-77.31696303 -24.22497131 -36.41538524 -18.23851393 0 0 Z " fill="#000000" transform="translate(2253,889)"/>
</svg>
