<?xml version="1.0" encoding="UTF-8"?>
<svg version="1.1" xmlns="http://www.w3.org/2000/svg" width="3500" height="3500">
<path d="M0 0 C2.60142854 -0.00297354 5.2028531 -0.00708573 7.80427957 -0.01150417 C16.03333189 -0.02513478 24.26237457 -0.03481711 32.49143738 -0.03870606 C40.89906467 -0.04270659 49.30657784 -0.05487485 57.71416688 -0.08106136 C97.8984234 -0.20356054 137.88551871 -0.19739814 177.97045732 3.01072025 C182.87928753 3.3933892 187.79195656 3.72326085 192.70417428 4.05910492 C254.26228965 8.31160584 315.78042371 16.77955013 376.40093446 28.20018864 C377.45993958 28.39957035 378.51894471 28.59895206 379.6100409 28.80437565 C413.79366884 35.26444748 447.66471218 42.71495513 481.40093446 51.20018864 C483.38367732 51.6963005 485.36642469 52.19239434 487.34917665 52.68846989 C512.79870861 59.07466971 537.97282516 66.16544936 563.0339911 73.93396854 C568.25567653 75.54990976 573.48810197 77.11999537 578.73687196 78.64550114 C602.33268801 85.5338536 625.42440448 93.8074948 648.53466249 102.16466618 C651.42985922 103.21063853 654.32669981 104.25196411 657.22368836 105.29296207 C666.49909551 108.63474934 675.72191218 112.05442082 684.85601258 115.76561832 C688.60272836 117.28185124 692.36559792 118.75023455 696.13530946 120.20800114 C712.77840565 126.66477148 729.15263185 133.50435868 745.41997743 140.86718082 C749.82341865 142.83628722 754.2677656 144.70396817 758.71343446 146.57518864 C768.71793898 150.80933791 778.54388527 155.41461787 788.37212586 160.03856754 C795.57539259 163.42603987 802.80504748 166.73787469 810.08843446 169.95018864 C817.38786746 173.18433226 824.44435847 176.76831374 831.47661805 180.54540348 C836.48673827 183.22765204 841.54536602 185.71353574 846.71343446 188.07518864 C856.19009374 192.43698435 865.25897799 197.50182424 874.38530946 202.54540348 C878.58795192 204.85154909 882.81467987 207.11171018 887.04155946 209.3730402 C908.43718056 220.82502105 929.43854005 232.89130011 950.27105165 245.33251286 C953.10563061 247.02397378 955.94392618 248.70895569 958.78374696 250.39159489 C979.38209461 262.62626495 999.37361984 275.755611 1019.26397157 289.09862614 C1022.41374911 291.20877362 1025.56887188 293.31072221 1028.72515321 295.41112614 C1033.20094265 298.39376287 1037.659461 301.39850696 1042.08843446 304.45018864 C1042.75431581 304.90853092 1043.42019715 305.36687321 1044.10625672 305.83910465 C1050.48050944 310.23716789 1056.80935446 314.69858623 1063.12749696 319.17675114 C1065.92760696 321.16117138 1068.73472263 323.13488638 1071.54937196 325.09862614 C1081.94358639 332.36358353 1092.10737853 339.9090064 1102.2227118 347.55663395 C1104.04443131 348.93119299 1105.8704038 350.29939627 1107.70171571 351.66112614 C1115.97223479 357.81539898 1124.10003096 364.15003116 1132.22173524 370.49852848 C1134.21495084 372.05496056 1136.21162094 373.60681846 1138.20952821 375.15721989 C1144.42847561 379.99607679 1150.5206638 384.94528955 1156.50322938 390.07372379 C1160.42491139 393.41986073 1164.44856407 396.60898899 1168.52593446 399.76268864 C1173.83745975 403.87921188 1178.83261922 408.2309742 1183.76030946 412.80565739 C1186.38324689 415.18414947 1189.07969422 417.41887328 1191.83843446 419.63768864 C1196.37117844 423.29354331 1200.65406298 427.14111846 1204.9114325 431.1074152 C1208.22243763 434.17298166 1211.62962362 437.06188532 1215.15093446 439.88768864 C1219.20773137 443.15291542 1222.8980535 446.58709531 1226.52593446 450.31737614 C1228.92996741 452.73142589 1231.48527402 454.93046937 1234.06499696 457.15331364 C1241.15511872 463.36606247 1248.09247318 469.77698382 1254.68438172 476.51659489 C1256.41929309 478.21819477 1258.21975246 479.79193703 1260.06890321 481.36815739 C1265.32890214 485.94377208 1270.1633628 490.91275229 1275.04546571 495.88378239 C1279.09682448 499.9795802 1283.24074086 503.86990017 1287.6055243 507.62938786 C1291.81654994 511.31360583 1295.54007273 515.42035176 1299.27593446 519.57518864 C1304.37744463 525.20505675 1309.72629971 530.55945277 1315.12407899 535.90380192 C1318.80478955 539.56183288 1322.31941319 543.27879744 1325.66655946 547.24706364 C1327.96991618 549.84093382 1330.43301064 552.26482427 1332.90093446 554.70018864 C1336.60427388 558.35938147 1340.15058959 562.09003639 1343.53374696 566.04784489 C1345.89635238 568.77126661 1348.33407959 571.42310233 1350.77593446 574.07518864 C1351.72916003 575.11285668 1352.6822855 576.15061668 1353.63530946 577.18846989 C1354.10130555 577.69587711 1354.56730165 578.20328434 1355.04741883 578.72606754 C1360.93579831 585.13913307 1366.60942857 591.64495266 1372.08452821 598.41503239 C1374.44693863 601.25550226 1376.89922474 603.98194763 1379.40093446 606.70018864 C1383.51793545 611.17352974 1387.37832377 615.79726242 1391.19390321 620.52831364 C1393.31716784 623.09877913 1395.51905294 625.55938227 1397.77593446 628.01268864 C1401.75426835 632.38334957 1405.41045652 636.93828941 1409.03106141 641.60350895 C1412.60966256 646.21172318 1416.26920006 650.74679156 1419.96343446 655.26268864 C1424.75079316 661.12732594 1429.43479754 667.0569081 1434.02202821 673.07909489 C1436.38139924 676.17455868 1438.76571849 679.24961748 1441.15093446 682.32518864 C1445.89477267 688.47050787 1450.49452711 694.71982632 1455.08526063 700.97997379 C1458.35456919 705.43550732 1461.65251345 709.86551299 1464.99566102 714.26586246 C1470.44917769 721.45285723 1475.61870012 728.79733 1480.67974305 736.26561832 C1483.91776569 741.04328421 1487.20874202 745.77179948 1490.58843446 750.45018864 C1495.21956937 756.87965216 1499.61788899 763.44833073 1503.98345399 770.06005192 C1505.52066413 772.38095858 1507.06727053 774.69539884 1508.61577821 777.00878239 C1526.10702998 803.14464825 1543.0111332 829.54291552 1558.9180243 856.67528629 C1560.267099 858.97231141 1561.62303319 861.26504924 1562.98296571 863.55565739 C1575.75933357 885.09705902 1587.70679988 907.05882611 1599.40093446 929.20018864 C1600.15382752 930.62500553 1600.15382752 930.62500553 1600.92193055 932.07860661 C1602.99261123 936.00009232 1605.05789361 939.92431723 1607.11577821 943.85253239 C1608.67739417 946.83148092 1610.25455587 949.80151508 1611.84234071 952.76659489 C1618.07326149 964.43135856 1623.87592247 976.26549952 1629.48375916 988.24150944 C1630.13250419 989.62694077 1630.78176548 991.0121304 1631.431391 992.39714909 C1641.63545049 1014.15446709 1651.65575985 1035.96700317 1661.0664618 1058.08007145 C1662.26188171 1060.87507079 1663.47576033 1063.66066992 1664.70171571 1066.44237614 C1671.89161891 1082.82163561 1678.23083763 1099.54321641 1684.6458075 1116.23687077 C1685.68075291 1118.92771209 1686.72080823 1121.61657333 1687.76030946 1124.30565739 C1689.66942042 1129.25981421 1691.5471832 1134.22506199 1693.40093446 1139.20018864 C1693.85967957 1140.42995426 1693.85967957 1140.42995426 1694.32769227 1141.68456364 C1697.10023085 1149.16107216 1699.7666547 1156.67399795 1702.40093446 1164.20018864 C1702.83853089 1165.44986423 1702.83853089 1165.44986423 1703.28496766 1166.7247858 C1713.91370993 1197.125693 1723.77450098 1227.67608173 1732.66185975 1258.63134098 C1733.35177719 1261.02932967 1734.04721798 1263.42562264 1734.74517274 1265.82128239 C1762.02193502 1359.59236532 1780.95715654 1456.73270895 1791.03693891 1553.85571575 C1791.29698872 1556.24511183 1791.58429246 1558.63160551 1791.88967538 1561.01563168 C1793.7614546 1576.41978015 1793.70822112 1591.83225131 1793.70636094 1607.32351339 C1793.708032 1611.34933693 1793.72114102 1615.37512775 1793.73255372 1619.40093327 C1793.75523895 1628.17741784 1793.76330812 1636.95387799 1793.76838017 1645.73038793 C1793.77165992 1651.23791527 1793.77819625 1656.74543579 1793.78538156 1662.25295925 C1793.80493477 1677.5771957 1793.82134355 1692.90142586 1793.82425809 1708.22567558 C1793.82444566 1709.20323473 1793.82463323 1710.18079389 1793.82482648 1711.18797604 C1793.82519268 1713.16880174 1793.82555638 1715.14962745 1793.82591759 1717.13045315 C1793.82619181 1718.60489531 1793.82619181 1718.60489531 1793.82647157 1720.10912418 C1793.82665212 1721.09332274 1793.82683267 1722.0775213 1793.82701869 1723.09154405 C1793.83054558 1738.96947072 1793.85748029 1754.84726052 1793.89496946 1770.72513989 C1793.93337453 1787.12587714 1793.95241794 1803.52654713 1793.9527176 1819.9273302 C1793.95329541 1829.09534089 1793.96147542 1838.26318719 1793.99071527 1847.4311552 C1794.10527534 1884.93397433 1793.95191679 1921.89251628 1788.68963504 1959.11550999 C1788.10089411 1963.36675062 1787.59801927 1967.62860321 1787.08084321 1971.88904476 C1786.51549659 1976.43847817 1785.86750994 1980.97530732 1785.21343446 1985.51268864 C1785.07264466 1986.50361515 1784.93185487 1987.49454166 1784.78679872 1988.51549625 C1776.89551362 2043.84492413 1766.90508487 2099.11157644 1753.14272523 2153.29959965 C1751.66405876 2159.12476626 1750.23649773 2164.96145443 1748.81890321 2170.80175114 C1742.92486135 2194.9941096 1736.35691269 2218.91489032 1729.14190125 2242.74547672 C1728.4153499 2245.15243243 1727.6950418 2247.56115811 1726.97710633 2249.97069645 C1715.9343492 2287.01347291 1703.83948627 2323.83705478 1689.71782899 2359.82763004 C1688.29992363 2363.45887672 1686.90875467 2367.09993492 1685.52202821 2370.74315739 C1679.01288798 2387.80726219 1672.11709799 2404.68402325 1664.97368836 2421.49169254 C1663.43152614 2425.12283662 1661.90536341 2428.76058402 1660.38140321 2432.39940739 C1659.42966403 2434.66636963 1658.47784508 2436.93329838 1657.52593446 2439.20018864 C1657.11013124 2440.19510319 1656.69432801 2441.19001774 1656.26592469 2442.21508121 C1653.12799537 2449.65794866 1649.74412092 2456.97438464 1646.302912 2464.28008366 C1644.83586426 2467.40309452 1643.38675562 2470.53438757 1641.93609071 2473.66503239 C1631.12600613 2496.95309366 1631.12600613 2496.95309366 1626.44365907 2506.14403629 C1623.78719509 2511.37323015 1621.25573608 2516.65874173 1618.72783875 2521.9511652 C1613.31734463 2533.27354195 1607.77781395 2544.48700202 1601.83062196 2555.53661442 C1600.16672749 2558.63652709 1598.51822154 2561.74442618 1596.86968446 2564.85253239 C1589.81278739 2578.13838154 1582.59165776 2591.30863968 1575.05523133 2604.33007145 C1573.16415927 2607.610981 1571.28897227 2610.90079941 1569.41655946 2614.19237614 C1555.55534746 2638.55250925 1555.55534746 2638.55250925 1548.40093446 2650.20018864 C1547.93155457 2650.96782536 1547.46217469 2651.73546207 1546.97857118 2652.52636051 C1539.98056365 2663.96121502 1532.81787075 2675.27529411 1525.47124696 2686.48925114 C1523.29332495 2689.81472193 1521.15586773 2693.1630766 1519.03374696 2696.52440739 C1515.19808519 2702.56528466 1511.18845223 2708.4804571 1507.15093446 2714.38768864 C1506.39531425 2715.49513298 1505.63978151 2716.602637 1504.8843329 2717.7101984 C1503.39748651 2719.88926557 1501.90929709 2722.06739711 1500.42046571 2724.24511051 C1498.71292648 2726.74366646 1497.00908824 2729.24466872 1495.30718446 2731.74706364 C1489.00771537 2740.98771675 1482.48641657 2750.05795803 1475.91607118 2759.1074152 C1473.72940782 2762.12773074 1471.56409042 2765.16301687 1469.40093446 2768.20018864 C1468.17670715 2769.91465461 1466.9519542 2771.62874408 1465.72710633 2773.34276676 C1464.79514432 2774.64806259 1463.86424927 2775.95412056 1462.93413758 2777.26073551 C1455.80491079 2787.26682558 1448.47439426 2797.0743507 1440.88921571 2806.73925114 C1437.41147332 2811.17218234 1433.99770103 2815.65202217 1430.58843446 2820.13768864 C1426.41299061 2825.61733881 1422.17022981 2831.02201392 1417.77593446 2836.32909489 C1414.79405329 2839.9338361 1411.84805203 2843.56701659 1408.90093446 2847.20018864 C1407.78123645 2848.57786893 1406.66144645 2849.95547446 1405.54155946 2851.33300114 C1403.65209062 2853.65788909 1401.76611834 2855.98547895 1399.88530946 2858.31737614 C1395.61780879 2863.58460599 1391.20992704 2868.66748743 1386.64312196 2873.67675114 C1384.35577542 2876.25101222 1382.18545175 2878.89308353 1380.02593446 2881.57518864 C1376.34692719 2886.12587707 1372.47970063 2890.43214291 1368.49395204 2894.71044254 C1365.42828453 2898.02151381 1362.53931098 2901.42878657 1359.71343446 2904.95018864 C1356.44820767 2909.00698555 1353.01402778 2912.69730768 1349.28374696 2916.32518864 C1346.8696972 2918.72922159 1344.67065373 2921.2845282 1342.44780946 2923.86425114 C1336.19341119 2931.00190412 1329.73070613 2937.96883365 1322.95562196 2944.61425114 C1321.29239288 2946.31091195 1319.75530879 2948.0802283 1318.21343446 2949.88768864 C1314.62231571 2954.06246551 1310.73467847 2957.89527407 1306.81987977 2961.76171207 C1303.3330526 2965.22214055 1300.04004798 2968.79003502 1296.85015321 2972.52831364 C1294.81673114 2974.87414825 1292.62430914 2977.03532381 1290.40093446 2979.20018864 C1289.59655946 2980.02518864 1288.79218446 2980.85018864 1287.96343446 2981.70018864 C1285.22967734 2984.36726876 1282.33416 2986.75583402 1279.40093446 2989.20018864 C1277.05229115 2991.50605155 1274.74566486 2993.84945398 1272.43853211 2996.19677067 C1270.20030517 2998.47219249 1267.95697521 3000.74250702 1265.71343446 3003.01268864 C1264.94193055 3003.80095036 1264.17042665 3004.58921207 1263.37554383 3005.40136051 C1262.63755555 3006.14579411 1261.89956727 3006.8902277 1261.13921571 3007.65721989 C1260.46930604 3008.33760319 1259.79939637 3009.01798649 1259.10918641 3009.71898746 C1257.40093446 3011.20018864 1257.40093446 3011.20018864 1255.40093446 3011.20018864 C1254.90593446 3012.68518864 1254.90593446 3012.68518864 1254.40093446 3014.20018864 C1252.85210633 3015.74315739 1252.85210633 3015.74315739 1250.86968446 3017.38768864 C1246.4004195 3021.17979224 1242.14777907 3025.16220524 1237.90093446 3029.20018864 C1233.08180364 3033.78231302 1228.2199522 3038.2844144 1223.19585633 3042.64159489 C1220.90397755 3044.63171379 1218.65098161 3046.66298378 1216.40093446 3048.70018864 C1212.10284741 3052.57561962 1207.76949915 3056.40455046 1203.40093446 3060.20018864 C1202.25247531 3061.20276801 1201.10404003 3062.20537471 1199.95562196 3063.20800114 C1193.37238241 3068.94489657 1186.74172398 3074.59063889 1179.95171571 3080.08300114 C1177.32523099 3082.26302368 1174.79723738 3084.52464495 1172.27593446 3086.82518864 C1168.66118479 3090.11235161 1164.96112056 3093.16609479 1161.07671571 3096.12596989 C1157.49131877 3098.90530678 1153.97948759 3101.77141611 1150.46343446 3104.63768864 C1149.0624468 3105.77837998 1147.66140614 3106.91900621 1146.26030946 3108.05956364 C1145.59450868 3108.60161442 1144.9287079 3109.1436652 1144.24273133 3109.70214176 C1131.21672725 3120.29699344 1117.83683868 3130.40667104 1104.39312196 3140.46190739 C1101.30881418 3142.76895075 1098.22972631 3145.08246663 1095.15874696 3147.40721989 C1086.38887542 3154.03883144 1077.4816631 3160.44311338 1068.47173524 3166.74413395 C1066.542376 3168.10073599 1064.62391505 3169.47100727 1062.70952821 3170.84862614 C1049.52368267 3180.30807441 1035.96504805 3189.21956831 1022.44347596 3198.18837833 C1019.11230519 3200.3980346 1015.78342733 3202.61095584 1012.46050477 3204.83300114 C1004.81864716 3209.94307589 997.14650592 3214.99790301 989.40093446 3219.95018864 C988.34277528 3220.62702702 987.2846161 3221.30386539 986.19439149 3222.00121403 C976.16601314 3228.39097063 966.02983924 3234.59508137 955.84282899 3240.72802067 C953.76310934 3241.98184085 951.6880625 3243.24273291 949.61577821 3244.50878239 C937.85859357 3251.6494835 925.87133895 3258.39960452 913.91411805 3265.19774723 C911.48612063 3266.57948376 909.06259285 3267.96871537 906.64165711 3269.36278629 C906.0213411 3269.71932789 905.40102509 3270.07586948 904.76191163 3270.44321537 C903.04329083 3271.43151174 901.32571518 3272.42162495 899.60820985 3273.41185856 C896.41539089 3275.19212794 893.18276067 3276.84081394 889.90093446 3278.45018864 C883.88386068 3281.40524043 878.01794409 3284.58347025 872.15093446 3287.82518864 C860.67844718 3294.14516941 848.9885998 3299.99250789 837.2461493 3305.79149723 C834.21432846 3307.29257894 831.19241794 3308.81225268 828.17290711 3310.33788395 C824.92400331 3311.97573964 821.66408467 3313.5909338 818.40093446 3315.20018864 C817.57029481 3315.60994938 816.73965516 3316.01971012 815.88384461 3316.44188786 C796.6282173 3325.90013141 777.05837166 3334.61728336 757.40093446 3343.20018864 C756.5472931 3343.57309025 755.69365174 3343.94599186 754.81414247 3344.33019352 C733.72878393 3353.53308721 712.59923622 3362.4979624 691.07280946 3370.62206364 C686.42835679 3372.38349466 681.86433336 3374.27366727 677.31109071 3376.25878239 C670.99521321 3378.99569191 664.61177233 3381.32475907 658.08843446 3383.51268864 C655.80539922 3384.28991668 653.52285873 3385.06859932 651.24077821 3385.84862614 C649.52737245 3386.43402164 649.52737245 3386.43402164 647.77935243 3387.03124332 C642.54834502 3388.84119154 637.35126794 3390.74182957 632.15093446 3392.63768864 C609.24486112 3400.93401949 586.11186382 3408.30688187 562.75347352 3415.19921207 C559.82297731 3416.07417817 556.90298761 3416.97398662 553.98687196 3417.89550114 C538.35480554 3422.81915001 522.52302019 3426.95917619 506.67217469 3431.11351871 C505.70493974 3431.36810856 504.73770478 3431.6226984 503.74115968 3431.88500309 C501.90851893 3432.36708626 500.07516762 3432.84647898 498.24100709 3433.32274723 C493.48777667 3434.55779154 493.48777667 3434.55779154 488.92388368 3436.33788395 C484.86038844 3437.72672323 480.77521207 3437.5454084 476.51030946 3437.57128239 C475.54130204 3437.58244083 474.57229463 3437.59359928 473.57392335 3437.60509586 C470.43275641 3437.63231859 467.29221447 3437.63861355 464.15093446 3437.63768864 C463.08426545 3437.63842381 462.01759645 3437.63915897 460.91860414 3437.63991642 C444.86390026 3437.61070982 429.86262323 3436.89286417 414.40093446 3432.20018864 C413.52630555 3431.94849918 412.65167665 3431.69680973 411.75054383 3431.43749332 C394.15732854 3426.27638404 378.62252818 3417.72498095 364.40093446 3406.20018864 C363.8015204 3405.74128239 363.20210633 3405.28237614 362.58452821 3404.80956364 C359.05002698 3402.04102482 356.19978072 3398.82432148 353.31109071 3395.41503239 C352.00101809 3393.89599113 350.65195061 3392.40997632 349.27202821 3390.95409489 C331.78893533 3372.43721913 318.94045332 3345.59537722 316.40093446 3320.20018864 C316.29265321 3319.30300114 316.18437196 3318.40581364 316.07280946 3317.48143864 C315.4510526 3311.5256624 315.33855393 3305.6010241 315.35015321 3299.62011051 C315.35112504 3298.79143719 315.35209687 3297.96276386 315.35309815 3297.10897923 C315.37916883 3288.39379821 315.56821716 3279.68365418 315.77127481 3270.97111034 C317.19688302 3208.83558919 317.60281806 3146.71630212 317.58941102 3084.56618595 C317.58837861 3079.66385772 317.58897195 3074.76153132 317.59005368 3069.85920316 C317.60122462 3013.83020044 317.55149111 2957.78260199 315.12359071 2901.79393864 C315.07227494 2900.60868595 315.02095918 2899.42343327 314.96808839 2898.20226383 C309.40549144 2765.63684825 309.40549144 2765.63684825 282.40093446 2636.20018864 C282.06714784 2635.07870426 282.06714784 2635.07870426 281.72661805 2633.93456364 C278.73379189 2624.00668513 274.73345671 2614.59947069 270.40093446 2605.20018864 C269.96780946 2604.23854801 269.53468446 2603.27690739 269.08843446 2602.28612614 C266.25566143 2596.26648346 262.62820401 2591.31579744 258.40093446 2586.20018864 C257.44187196 2584.90081364 257.44187196 2584.90081364 256.46343446 2583.57518864 C254.66956624 2581.5095222 252.91922645 2579.89414666 250.83843446 2578.13768864 C225.79772472 2556.6475273 209.84991015 2523.87836238 206.40093446 2491.20018864 C205.73656709 2476.57618161 206.08962948 2462.47144672 209.40093446 2448.20018864 C209.58269227 2447.22307926 209.76445008 2446.24596989 209.95171571 2445.23925114 C214.05623044 2425.30303675 225.10126463 2405.43165408 238.40093446 2390.20018864 C239.20659852 2389.2733527 240.01226258 2388.34651676 240.84234071 2387.39159489 C263.7983689 2361.56168225 296.09908387 2344.93911175 330.60439515 2341.91988468 C336.92327724 2341.56408749 343.23882655 2341.50438194 349.56655335 2341.51082706 C355.23576033 2341.51405262 360.90408436 2341.43183258 366.57280946 2341.36425114 C367.68653428 2341.35308765 368.8002591 2341.34192417 369.94773316 2341.3304224 C404.78654291 2340.95410394 439.27394462 2337.19969794 473.40093446 2330.20018864 C474.62127381 2329.95317204 474.62127381 2329.95317204 475.86626649 2329.7011652 C481.07015371 2328.63629881 486.23987913 2327.4556902 491.40093446 2326.20018864 C492.36338075 2325.96606266 493.32582704 2325.73193668 494.31743836 2325.49071598 C579.05435951 2304.64305452 660.5287426 2265.79595852 726.83599305 2208.54296207 C728.43740723 2207.16889374 730.05152423 2205.81136129 731.67046571 2204.45800114 C742.37876277 2195.50058677 752.6096798 2186.16058205 762.40093446 2176.20018864 C765.41799245 2173.16711087 768.4587897 2170.15943569 771.51030946 2167.16112614 C782.48486586 2156.34343087 782.48486586 2156.34343087 792.47124696 2144.62987614 C794.49183398 2142.0857362 796.63476586 2139.71186086 798.83843446 2137.32518864 C803.56644659 2132.1227393 807.82689034 2126.61697534 812.04448915 2121.00243473 C813.4604487 2119.12111482 814.88710797 2117.24824808 816.31499696 2115.37596989 C867.54723248 2047.96250515 902.30913202 1969.75489131 920.40093446 1887.20018864 C920.65810243 1886.03987125 920.9152704 1884.87955387 921.18023133 1883.68407536 C929.89169971 1843.68009557 932.37586425 1803.2242489 932.88588929 1762.40190983 C933.07691802 1747.61640533 933.51229377 1732.97878941 934.96343446 1718.26268864 C939.1960789 1674.42677404 936.97060121 1629.55316397 929.40093446 1586.20018864 C929.19629579 1585.00861149 928.99165711 1583.81703434 928.78081727 1582.58934879 C923.70432466 1553.49247147 916.31466634 1525.02885631 906.40093446 1497.20018864 C905.86677918 1495.66298161 905.86677918 1495.66298161 905.3218329 1494.09471989 C900.44752987 1480.09016071 894.92229504 1466.49774026 888.77593446 1453.01268864 C888.46832185 1452.33739109 888.16070924 1451.66209354 887.84377503 1450.96633244 C881.1861696 1436.40711454 874.15088047 1422.10241632 866.08843446 1408.26268864 C865.44108338 1407.14732731 864.79373231 1406.03196598 864.12676454 1404.88280582 C858.8218043 1395.80282199 853.31319913 1386.89669118 847.40093446 1378.20018864 C846.75366395 1377.24185123 846.75366395 1377.24185123 846.09331727 1376.26415348 C841.65329331 1369.72993478 837.16549225 1363.63141869 831.40093446 1358.18065739 C805.68482439 1332.7156812 791.83748672 1296.52078868 791.21343446 1260.70018864 C791.38852014 1246.41176372 793.49623287 1232.54217993 796.68578553 1218.64113712 C801.1675011 1198.97006063 804.09541703 1179.23030497 806.40093446 1159.20018864 C806.52694032 1158.1500861 806.65294618 1157.09998356 806.7827704 1156.01805973 C812.55008131 1106.84189378 809.75791616 1055.89345519 801.40093446 1007.20018864 C801.22179002 1006.14937107 801.22179002 1006.14937107 801.0390265 1005.07732487 C799.29668902 994.98812478 796.9945208 985.10057916 794.40093446 975.20018864 C743.03204714 987.75939678 694.4652017 1006.67919547 647.15093446 1030.20018864 C646.51464112 1030.51556583 645.87834779 1030.83094303 645.22277284 1031.15587711 C639.12122271 1034.18709911 633.10581801 1037.24343785 627.38701844 1040.95971012 C625.00227164 1042.4491875 622.55217283 1043.77720559 620.07671571 1045.11034489 C589.4125286 1061.66404562 560.26379859 1082.1897164 533.47124696 1104.45800114 C502.55611965 1130.09648 466.60974045 1144.52107844 425.88970399 1140.98192692 C417.3899423 1139.98123079 409.48253823 1137.96380057 401.34025025 1135.36515141 C391.0010523 1132.08711074 380.53558356 1129.23593997 370.08843446 1126.32518864 C368.9714618 1126.01382969 367.85448915 1125.70247074 366.70366883 1125.38167667 C360.17460132 1123.56330381 353.64344708 1121.75261049 347.11034608 1119.94878483 C344.82595133 1119.31761856 342.54224135 1118.68407332 340.25884461 1118.04930973 C307.81915697 1109.08503146 274.54476574 1102.01803766 241.40093446 1096.20018864 C239.94744514 1095.94080307 238.4939974 1095.68118445 237.0405829 1095.42138004 C208.6107724 1090.36106371 180.08934352 1086.4664873 151.40093446 1083.20018864 C150.52795716 1083.09964176 149.65497987 1082.99909489 148.75554872 1082.89550114 C126.22158782 1080.30551473 103.6742436 1078.67410634 81.02593446 1077.45018864 C79.84621064 1077.3849802 78.66648683 1077.31977177 77.4510138 1077.25258732 C52.31640926 1075.88732284 27.34131283 1075.83846391 2.21343446 1077.32518864 C1.11152772 1077.38887638 0.00962098 1077.45256413 -1.12567687 1077.5181818 C-92.34864308 1082.87000657 -184.26123874 1095.00197663 -273.11011291 1116.5973444 C-276.04129154 1117.30729931 -278.97419389 1118.00990789 -281.90717101 1118.71239567 C-318.2742139 1127.33154729 -318.2742139 1127.33154729 -354.24359679 1137.44774723 C-389.55450709 1148.25688081 -426.71527552 1147.35924237 -459.830755 1130.37108707 C-473.52496239 1123.08806396 -485.87314954 1114.24172396 -496.71234679 1103.09471989 C-499.19194481 1100.60485438 -501.82036746 1098.32372661 -504.48578429 1096.03612614 C-506.79480447 1094.03013818 -509.03656499 1091.95957929 -511.28656554 1089.88768864 C-516.55828318 1085.13752602 -522.12290386 1080.81953237 -527.79242492 1076.56102848 C-529.6879864 1075.1332096 -531.57354339 1073.69283164 -533.45844054 1072.25096989 C-542.2784511 1065.53142491 -551.27902517 1059.20500204 -560.59906554 1053.20018864 C-561.34059875 1052.72049625 -562.08213195 1052.24080387 -562.84613585 1051.74657536 C-573.55626798 1044.83674105 -584.3804362 1038.25019158 -595.59906554 1032.20018864 C-596.43357238 1031.7467609 -597.26807921 1031.29333317 -598.12787414 1030.8261652 C-612.94823507 1022.80661692 -628.05856259 1015.71047225 -643.59906554 1009.20018864 C-644.7862921 1008.70011295 -644.7862921 1008.70011295 -645.99750304 1008.18993473 C-671.70296168 997.46979796 -698.58290457 990.65445925 -725.59906554 984.20018864 C-725.64369933 984.86993717 -725.68833312 985.53968571 -725.73431945 986.22972965 C-726.347012 994.47756722 -727.46101525 1002.61965824 -728.64044738 1010.79952335 C-738.67638114 1081.1364367 -736.59620476 1150.9344791 -725.9290216 1221.03179264 C-720.04577406 1259.69515471 -723.00654049 1296.67800486 -746.38373351 1329.55126286 C-748.97792036 1333.0709772 -751.70842162 1336.48251777 -754.44452453 1339.89232731 C-759.61335058 1346.37290133 -764.11866367 1353.23344646 -768.59906554 1360.20018864 C-769.28887511 1361.26100651 -769.28887511 1361.26100651 -769.99262023 1362.34325504 C-777.86946071 1374.46782974 -785.09325061 1386.90180274 -792.10883117 1399.54149723 C-793.41838965 1401.87784911 -794.75587615 1404.19306412 -796.11469054 1406.50096989 C-803.79792686 1419.67967889 -809.87495881 1433.61398589 -816.06641173 1447.53547001 C-817.63612593 1451.06210983 -819.22738093 1454.57506324 -820.88031554 1458.06346989 C-848.23081567 1516.19468163 -865.02160882 1584.31317491 -870.34320617 1648.15233707 C-870.59770335 1651.18396195 -870.8833589 1654.21120759 -871.17719054 1657.23925114 C-874.87336864 1696.0233638 -874.06979886 1734.86631104 -871.74756408 1773.70855045 C-871.60733065 1776.06150944 -871.47285206 1778.41474151 -871.33881164 1780.76805973 C-869.21035058 1817.02524036 -862.32792725 1852.98784174 -853.59906554 1888.20018864 C-853.37074035 1889.13910954 -853.14241515 1890.07803043 -852.90717101 1891.04540348 C-842.04594898 1935.21005986 -824.4744594 1977.89642109 -803.59906554 2018.20018864 C-803.25456359 2018.86985661 -802.91006164 2019.53952457 -802.55512023 2020.22948551 C-797.28278566 2030.45261318 -791.67090004 2040.4377053 -785.74408507 2050.29540348 C-784.74068694 2051.96459585 -783.74537702 2053.63864478 -782.75140929 2055.31346989 C-768.55159213 2078.87580386 -752.56894398 2101.29004116 -735.0272882 2122.46776676 C-732.98644064 2124.94329741 -730.98479419 2127.45017078 -728.97406554 2129.95018864 C-724.92775114 2134.89321374 -720.65144784 2139.59230735 -716.31000304 2144.27440739 C-706.3185957 2155.05764096 -706.3185957 2155.05764096 -701.84906554 2160.51268864 C-699.56105952 2163.24558472 -697.14905382 2165.71091437 -694.59906554 2168.20018864 C-694.0744171 2168.73514957 -693.54976867 2169.27011051 -693.00922179 2169.82128239 C-690.05553201 2172.82855384 -687.0535578 2175.71691462 -683.85687804 2178.46581364 C-679.72495244 2182.05941326 -675.7529424 2185.80104092 -671.78656554 2189.57518864 C-666.45159016 2194.61333081 -661.04556483 2199.45424908 -655.30219054 2204.02831364 C-652.76569209 2206.0663095 -650.29032519 2208.15806241 -647.82172179 2210.27684879 C-641.28771871 2215.87879555 -634.55832484 2221.13274802 -627.59906554 2226.20018864 C-626.92714171 2226.69277164 -626.25521789 2227.18535465 -625.56293273 2227.69286442 C-610.31695239 2238.86396058 -594.72903445 2249.34907844 -578.59906554 2259.20018864 C-577.96903625 2259.58610172 -577.33900695 2259.97201481 -576.68988585 2260.36962223 C-547.98319371 2277.85837208 -517.78530225 2292.7053423 -486.59906554 2305.20018864 C-485.74200011 2305.54646305 -484.88493468 2305.89273746 -484.00189757 2306.24950504 C-467.82174911 2312.75008967 -451.23328499 2318.00542523 -434.59906554 2323.20018864 C-433.72201964 2323.47492008 -432.84497375 2323.74965153 -431.9413507 2324.03270817 C-388.2470698 2337.61578663 -342.17469618 2345.15495555 -296.51703429 2347.57909489 C-254.30262607 2349.92815568 -219.0901323 2363.81967528 -189.91156554 2395.07518864 C-166.42767203 2421.99264781 -154.64195869 2457.52157861 -156.97626281 2493.15136051 C-159.20148296 2519.40676601 -167.38561036 2544.16719944 -183.84906554 2565.01268864 C-197.60472841 2582.74193527 -205.80099303 2606.41194274 -213.59906554 2627.20018864 C-213.98932921 2628.23627262 -214.37959289 2629.27235661 -214.78168273 2630.33983707 C-236.49851058 2688.36476622 -248.90521034 2749.77315985 -249.93796325 2811.75939274 C-250.14704228 2824.08498199 -251.15896019 2834.67956026 -255.59906554 2846.20018864 C-256.25939101 2848.38335771 -256.90576956 2850.57080512 -257.53656554 2852.76268864 C-261.84391473 2866.54966575 -265.98765786 2879.01127594 -276.70844054 2889.14940739 C-279.03235135 2891.67017841 -280.78725029 2894.39220954 -282.66156554 2897.26268864 C-306.00031464 2932.05368416 -348.13467279 2941.22222915 -386.77872252 2948.84117985 C-392.71241462 2949.9958144 -398.65319481 2951.11012255 -404.59906554 2952.20018864 C-405.67474792 2952.39771732 -405.67474792 2952.39771732 -406.77216125 2952.59923649 C-483.93008757 2966.66329241 -559.82526292 2962.79398771 -635.59906554 2943.20018864 C-636.45763152 2942.98005604 -637.3161975 2942.75992344 -638.20078063 2942.53312016 C-664.94590275 2935.6696197 -691.44163016 2927.12017036 -716.87445617 2916.35302067 C-719.4999299 2915.24213474 -722.13398255 2914.15457051 -724.77094054 2913.07128239 C-775.8785918 2891.8635458 -825.96145877 2863.60083051 -868.90375304 2828.58055973 C-870.75257327 2827.07519833 -872.61274894 2825.58459757 -874.47406554 2824.09471989 C-894.04846405 2808.37652993 -912.44476377 2791.5433244 -930.16351867 2773.76610661 C-932.1226521 2771.80153663 -934.08718198 2769.84247415 -936.05219054 2767.88378239 C-942.11569382 2761.82347975 -948.05519101 2755.74551154 -953.59906554 2749.20018864 C-955.23964854 2747.40371314 -956.8849177 2745.61149662 -958.53656554 2743.82518864 C-962.33567411 2739.65473863 -965.94463841 2735.3986788 -969.42719054 2730.96190739 C-971.02609397 2728.9287694 -972.63858824 2726.91312531 -974.27094054 2724.90721989 C-988.31897971 2707.60440686 -1001.34249915 2689.52773238 -1013.38251281 2670.77465153 C-1019.71957329 2660.91128581 -1026.39177699 2651.44548412 -1033.59906554 2642.20018864 C-1034.07086242 2641.59481266 -1034.54265929 2640.98943668 -1035.02875304 2640.36571598 C-1037.33011254 2637.41988046 -1039.64242827 2634.48298547 -1041.96234679 2631.55175114 C-1044.48400924 2628.35942399 -1046.9488656 2625.1257574 -1049.41156554 2621.88768864 C-1055.58628477 2613.81229032 -1062.07807988 2605.99685832 -1068.59906554 2598.20018864 C-1069.37685363 2597.26940495 -1069.37685363 2597.26940495 -1070.1703546 2596.31981754 C-1081.04922463 2583.34667645 -1092.01022118 2570.41253661 -1105.59906554 2560.20018864 C-1106.38281554 2559.55436832 -1107.16656554 2558.90854801 -1107.97406554 2558.24315739 C-1113.85144938 2553.65145127 -1119.43754343 2551.93007607 -1126.64984679 2550.22362614 C-1155.55089377 2543.15079608 -1183.67240767 2521.0090211 -1199.59906554 2496.20018864 C-1200.37250304 2495.00909489 -1200.37250304 2495.00909489 -1201.16156554 2493.79393864 C-1219.28183008 2464.72601427 -1227.77534795 2429.14706272 -1220.59906554 2395.20018864 C-1217.27194392 2381.07298637 -1212.94952189 2367.74606558 -1205.59906554 2355.20018864 C-1205.25649718 2354.60593082 -1204.91392882 2354.01167301 -1204.5609796 2353.39940739 C-1198.9401034 2343.78158007 -1192.08303463 2335.42221071 -1184.59906554 2327.20018864 C-1183.98418273 2326.51311832 -1183.36929992 2325.82604801 -1182.73578429 2325.11815739 C-1177.35141575 2319.41313166 -1170.9375456 2314.78222241 -1164.59906554 2310.20018864 C-1164.05363097 2309.80509098 -1163.5081964 2309.40999332 -1162.94623351 2309.00292301 C-1138.36796385 2291.50478308 -1108.3766317 2285.05193695 -1078.59906554 2286.20018864 C-1077.32804992 2286.24530582 -1076.05703429 2286.29042301 -1074.74750304 2286.33690739 C-1038.22558867 2289.29710466 -995.39617773 2312.46679645 -964.55658507 2331.96532536 C-962.38365058 2333.336079 -960.19325454 2334.67630349 -958.00140929 2336.01659489 C-946.82114341 2342.90565166 -936.11887417 2350.34404135 -925.59906554 2358.20018864 C-924.69051818 2358.87694645 -924.69051818 2358.87694645 -923.76361632 2359.56737614 C-916.66724168 2364.87608372 -909.80455013 2370.43704014 -903.08685851 2376.21459293 C-900.86324264 2378.12319232 -898.62895927 2380.01749983 -896.3812921 2381.8976984 C-888.39799623 2388.60645751 -880.84704211 2395.63689635 -873.50165343 2403.03685856 C-871.77658077 2404.77273595 -870.04094564 2406.49753954 -868.30414367 2408.22167301 C-862.33438806 2414.18470097 -856.74453377 2420.24116278 -851.48749328 2426.848382 C-849.13402388 2429.77934137 -846.62797175 2432.47822304 -844.03656554 2435.20018864 C-839.04824232 2440.55161338 -834.79725122 2446.21870284 -830.59906554 2452.20018864 C-829.62656731 2453.53163763 -828.65107874 2454.86090547 -827.67328429 2456.18846989 C-820.63053101 2465.77643496 -813.98947384 2475.56252614 -807.57172179 2485.57909489 C-803.14143828 2492.47702525 -798.8115105 2499.20348541 -793.41156554 2505.38768864 C-789.53247544 2509.87860163 -785.79427813 2514.44540754 -782.16156554 2519.13768864 C-777.9066079 2524.61870275 -773.47831627 2529.91772179 -768.93695617 2535.16307926 C-765.95385871 2538.61047204 -763.02969336 2542.09316505 -760.16156554 2545.63768864 C-750.42025721 2557.60008522 -740.11235969 2568.98711884 -729.50189757 2580.17968082 C-727.61202616 2582.18642651 -725.74161004 2584.20957493 -723.87640929 2586.23925114 C-715.17808881 2595.67967889 -706.07822189 2604.54702782 -696.59906554 2613.20018864 C-695.66062804 2614.06514957 -694.72219054 2614.93011051 -693.75531554 2615.82128239 C-661.66750743 2645.11663885 -623.67303142 2670.25677322 -581.59906554 2682.20018864 C-580.40918029 2682.54702702 -580.40918029 2682.54702702 -579.19525695 2682.90087223 C-550.74691084 2691.06966975 -521.98821093 2692.43048333 -492.59906554 2692.20018864 C-492.62178527 2691.04148258 -492.644505 2689.88277653 -492.6679132 2688.68895817 C-492.66482273 2684.51716737 -492.1828446 2680.49011043 -491.49750304 2676.37987614 C-491.32234664 2675.28726727 -491.32234664 2675.28726727 -491.14365172 2674.17258549 C-490.76125192 2671.80549846 -490.36850343 2669.44029749 -489.97406554 2667.07518864 C-489.83968078 2666.25883945 -489.70529601 2665.44249027 -489.56683898 2664.60140324 C-485.94523276 2642.63123517 -481.60616187 2620.8398936 -476.42719054 2599.17992496 C-476.18742492 2598.17211979 -475.94765929 2597.16431461 -475.70062804 2596.12596989 C-475.48744933 2595.24336491 -475.27427062 2594.36075993 -475.05463195 2593.45140934 C-474.49989369 2591.09293127 -474.49989369 2591.09293127 -474.59906554 2588.20018864 C-475.50108703 2587.96010075 -476.40310851 2587.72001286 -477.33246398 2587.47264957 C-500.02114975 2581.40850723 -522.34997946 2574.60523584 -544.53925109 2566.91368961 C-546.52767261 2566.2249185 -548.51730299 2565.53975708 -550.50726867 2564.85546207 C-565.81522656 2559.57257446 -580.85912389 2553.83775756 -595.7328546 2547.43261051 C-598.54528667 2546.22331264 -601.36437339 2545.03084412 -604.18500304 2543.84081364 C-629.2385034 2533.19652552 -653.56952953 2520.96839783 -677.59906554 2508.20018864 C-678.41310851 2507.76819157 -679.22715148 2507.3361945 -680.06586242 2506.89110661 C-715.18363079 2488.12840372 -748.54297707 2465.74490831 -780.59906554 2442.20018864 C-781.62942931 2441.44439518 -781.62942931 2441.44439518 -782.68060851 2440.67333317 C-792.28921538 2433.60432457 -801.61841735 2426.2376356 -810.82709289 2418.65624332 C-812.3983065 2417.36515515 -813.97668946 2416.08280279 -815.55609679 2414.80175114 C-822.38486465 2409.26275056 -829.06782024 2403.56347315 -835.7226007 2397.81786442 C-837.67141893 2396.13781372 -839.62524321 2394.4637122 -841.57953429 2392.79003239 C-842.89870226 2391.65610107 -844.2177166 2390.521991 -845.53656554 2389.38768864 C-846.13888 2388.87303043 -846.74119445 2388.35837223 -847.36176085 2387.82811832 C-850.96916816 2384.71580621 -854.35717051 2381.46324226 -857.69659972 2378.06633854 C-859.50559892 2376.29187109 -861.36905405 2374.64038069 -863.29584289 2372.99559879 C-867.71807097 2369.1485977 -871.87169111 2365.07194039 -876.00922179 2360.92284489 C-876.78035811 2360.15266529 -877.55149444 2359.38248569 -878.34599853 2358.58896732 C-879.96486707 2356.97077491 -881.58249105 2355.35133652 -883.19891906 2353.73070621 C-885.65475272 2351.26951632 -888.11587919 2348.81371055 -890.57758117 2346.35839176 C-892.15928208 2344.77602997 -893.74067271 2343.19335796 -895.32172179 2341.61034489 C-896.41106772 2340.5240353 -896.41106772 2340.5240353 -897.52242064 2339.41578007 C-901.53492202 2335.38506425 -905.38056764 2331.26301347 -909.0879724 2326.94939518 C-911.31889255 2324.36693351 -913.64804401 2321.88484388 -915.97406554 2319.38768864 C-920.32231216 2314.68643679 -924.41177773 2309.82769529 -928.42719054 2304.83690739 C-930.53662903 2302.27598835 -932.72794203 2299.82895409 -934.97406554 2297.38768864 C-940.02436024 2291.83762519 -944.59452707 2285.9542394 -949.18304992 2280.02343082 C-951.05124438 2277.6179694 -952.94061067 2275.22956928 -954.82977843 2272.8405695 C-962.9367854 2262.575858 -970.71497897 2252.11570537 -978.22553039 2241.40795231 C-980.98996113 2237.4677782 -983.79130791 2233.56444942 -986.66156554 2229.70018864 C-991.98167586 2222.42937121 -996.75614244 2214.79261781 -1001.59906554 2207.20018864 C-1002.25133117 2206.18440739 -1002.90359679 2205.16862614 -1003.57562804 2204.12206364 C-1018.40410694 2180.96526098 -1032.06746508 2157.19458043 -1044.69672179 2132.77440739 C-1046.39978533 2129.48632539 -1048.12274966 2126.21407881 -1049.90765929 2122.96971989 C-1056.69589898 2110.59715751 -1062.37147954 2097.72212389 -1068.0219171 2084.80175114 C-1069.00259295 2082.56228829 -1069.9880499 2080.32490511 -1070.98090148 2078.09081364 C-1089.60813095 2036.15501938 -1104.86454406 1992.1246086 -1115.76605773 1947.54686832 C-1116.63668219 1944.04906055 -1117.55494269 1940.56628709 -1118.48187804 1937.08300114 C-1130.65206421 1890.83870007 -1137.93343842 1843.50296156 -1141.91156554 1795.88768864 C-1141.9931491 1794.91155613 -1142.07473266 1793.93542362 -1142.15878844 1792.92971134 C-1144.09772676 1769.31280695 -1144.80756049 1745.76876787 -1144.78656554 1722.07518864 C-1144.78565917 1720.16899754 -1144.78565917 1720.16899754 -1144.78473449 1718.22429752 C-1144.75766879 1697.14639155 -1144.24519578 1676.21242826 -1142.59906554 1655.20018864 C-1142.53590148 1654.37140202 -1142.47273742 1653.54261539 -1142.40765929 1652.68871403 C-1137.36183027 1586.54259513 -1125.95170856 1521.25362397 -1107.47406554 1457.51268864 C-1107.19282836 1456.54040318 -1106.91159118 1455.56811771 -1106.62183166 1454.56636906 C-1094.87942876 1414.07072626 -1080.54475114 1374.81177009 -1063.59906554 1336.20018864 C-1063.04992492 1334.94673649 -1063.04992492 1334.94673649 -1062.48969054 1333.66796207 C-1049.2123901 1303.45962647 -1034.80659088 1273.31356241 -1017.71625304 1245.07030582 C-1015.19192992 1240.84471248 -1012.80234002 1236.54004862 -1010.38812804 1232.25096989 C-1008.59906554 1229.20018864 -1008.59906554 1229.20018864 -1006.37250304 1226.61815739 C-1001.20128997 1216.65161238 -1005.37290522 1201.10311459 -1006.53656554 1190.20018864 C-1009.06479314 1166.44505977 -1009.78758175 1142.880925 -1009.78436828 1119.00365543 C-1009.78428767 1116.0328895 -1009.79114325 1113.06227994 -1009.80487609 1110.09154606 C-1009.87948205 1093.66865858 -1009.66253744 1077.31218118 -1008.68109679 1060.91503239 C-1008.64001485 1060.2243347 -1008.59893291 1059.53363701 -1008.55660605 1058.82200909 C-1007.85303345 1047.26602724 -1006.73446643 1035.77519422 -1005.38031554 1024.27831364 C-1004.91487446 1020.26923466 -1004.51035662 1016.26120909 -1004.17206359 1012.23973942 C-1003.07827218 999.25510788 -1001.46585637 986.44155866 -999.41156554 973.57518864 C-999.26011077 972.61439396 -999.108656 971.65359928 -998.95261168 970.66368961 C-994.8225947 944.51543382 -990.03564324 918.49280784 -983.51801085 892.82421207 C-982.83176571 890.11788291 -982.15157336 887.4104015 -981.47699523 884.7011652 C-972.39881212 848.2634501 -972.39881212 848.2634501 -966.66693664 831.37450504 C-965.58794907 828.16714418 -964.53384813 824.9524944 -963.48474669 821.73526859 C-962.43720511 818.52495302 -961.3831595 815.31679316 -960.32800841 812.1089716 C-959.81020185 810.53300992 -959.2939052 808.95655114 -958.77930236 807.37954044 C-954.44184135 794.11481355 -949.85094033 781.03818673 -942.41156554 769.13768864 C-941.94742248 768.38527897 -941.48327941 767.6328693 -941.0050714 766.85765934 C-936.49005072 759.71602102 -931.21799231 753.49302234 -925.59906554 747.20018864 C-924.93777648 746.3455402 -924.27648742 745.49089176 -923.59515929 744.61034489 C-919.88405579 740.12942344 -915.15477893 736.78260933 -910.59906554 733.20018864 C-909.23588195 732.09610661 -909.23588195 732.09610661 -907.84515929 730.96971989 C-859.34500489 692.8576375 -795.4282546 702.26497871 -738.21851134 708.88512516 C-662.88436648 717.94621647 -588.10701816 738.45871688 -519.06683898 770.07372379 C-516.29362151 771.33961471 -513.51263372 772.58766652 -510.73187804 773.83690739 C-485.55177225 785.22195253 -461.29005011 797.96891719 -437.59906554 812.20018864 C-436.05097912 813.11961213 -434.5028074 814.03889205 -432.95453429 814.95800114 C-417.01801566 824.49053788 -401.60709964 834.90818297 -386.41156554 845.57518864 C-385.73206847 846.0496442 -385.0525714 846.52409977 -384.35248351 847.01293278 C-381.12142228 849.29832723 -378.01999735 851.64753366 -375.02094054 854.23143864 C-374.45141662 854.71048649 -373.88189269 855.18953434 -373.29511046 855.68309879 C-371.7816079 856.9728898 -370.30008767 858.2999569 -368.82172179 859.62987614 C-363.9159121 862.0203434 -360.71654311 860.62625027 -355.59906554 859.20018864 C-354.21029436 858.84598535 -352.82047135 858.49589199 -351.42987609 858.14891911 C-348.1055446 857.31730207 -344.78452763 856.47395448 -341.46552062 855.62133121 C-315.98742316 849.08971743 -290.36906859 843.44889514 -264.59906554 838.20018864 C-263.70467772 838.01714176 -262.81028991 837.83409489 -261.88879943 837.64550114 C-220.05649767 829.08563555 -177.98287556 822.36531144 -135.59906554 817.20018864 C-134.31695189 817.04358768 -133.03483825 816.88698673 -131.71387267 816.7256403 C-88.06693718 811.40999939 -44.51886696 807.40862058 -0.59906554 805.20018864 C0.40970643 805.14824345 1.4184784 805.09629826 2.45781922 805.04277897 C14.85586688 804.40922529 27.23588459 803.96241474 39.65093446 803.95018864 C40.48622682 803.94884922 41.32151917 803.9475098 42.18212342 803.9461298 C67.2206632 803.9545353 92.21822972 805.47191417 117.20165467 807.00420475 C120.08251542 807.18068268 122.96359761 807.35282963 125.84478211 807.52391911 C194.05438107 811.64470314 263.49593529 821.10448165 330.16997743 836.24559879 C334.45627437 837.21697704 338.74844916 838.16115965 343.04068971 839.10587406 C347.36713432 840.05894501 351.69229726 841.01774936 356.01723695 841.97762394 C358.14619264 842.44968623 360.27543328 842.92046577 362.4049933 843.38979435 C374.50062508 846.06043991 386.49342491 848.88614954 398.36696839 852.43444157 C404.06381247 854.07698615 407.51360019 854.77255806 412.89849305 851.84008121 C413.77328309 851.26411198 414.64807313 850.68814274 415.54937196 850.09471989 C417.03932679 849.12478092 417.03932679 849.12478092 418.55938172 848.13524723 C419.62084413 847.43480289 420.68230653 846.73435856 421.77593446 846.01268864 C424.03998078 844.53818119 426.30829122 843.0702928 428.57671571 841.60253239 C429.15048448 841.2304163 429.72425324 840.85830021 430.31540895 840.47490788 C451.28662119 826.89975727 472.95250527 814.24755436 494.90093446 802.32518864 C495.81866639 801.82624088 496.73639832 801.32729313 497.68194032 800.81322575 C555.93621291 769.45986093 617.16489351 744.40227753 680.02684999 723.97310734 C681.6581824 723.44200267 683.28871611 722.90844037 684.91857362 722.37282658 C698.50423907 717.9133794 712.17611257 713.96398943 726.00689149 710.33763981 C729.16485282 709.50903666 732.32010178 708.67065553 735.47515321 707.83104801 C745.36550849 705.21285965 755.25465485 702.66891818 765.26879334 700.56452274 C769.12475616 699.74701688 772.90823722 698.79295061 776.70269227 697.72289371 C782.33562009 696.16534472 787.99188366 695.05620963 793.74468446 694.04393864 C794.79386048 693.8555341 795.84303651 693.66712955 796.92400575 693.47301579 C799.13204396 693.07749122 801.34050745 692.68433402 803.54937196 692.29345036 C806.86544729 691.70647024 810.18014971 691.11220614 813.49468446 690.51659489 C863.26417471 681.61024295 910.79855723 674.79714798 955.54155946 704.18456364 C968.30240375 713.17991289 978.73947879 722.89771222 988.40093446 735.20018864 C989.42573915 736.49956364 989.42573915 736.49956364 990.47124696 737.82518864 C1017.26014486 773.12350116 1027.76711059 824.99531727 1038.88390565 867.23888493 C1039.37598322 869.1055383 1039.87342385 870.97077546 1040.3711493 872.83593082 C1052.03578169 916.74764764 1059.61834089 961.64869916 1064.71343446 1006.76268864 C1064.89836457 1008.37326649 1064.89836457 1008.37326649 1065.08703065 1010.01638126 C1068.61835848 1041.10179088 1069.74224409 1072.04381168 1069.66167665 1103.3039484 C1069.65029197 1107.74458351 1069.65708079 1112.18497862 1069.66853929 1116.62560558 C1069.72749083 1143.45659798 1069.53469927 1170.42146666 1065.97905946 1197.05956364 C1065.81292146 1198.33320522 1065.81292146 1198.33320522 1065.64342713 1199.63257694 C1065.20918238 1202.91896887 1064.77124919 1206.20090328 1064.24566102 1209.47411442 C1062.73593251 1219.08433 1062.13091732 1226.0676441 1067.93999696 1234.27440739 C1069.30465309 1236.0819751 1070.70121954 1237.85217749 1072.13506532 1239.60527897 C1073.87685492 1241.7998163 1075.30024867 1244.1363272 1076.72124696 1246.54784489 C1077.18893495 1247.32909733 1077.65662293 1248.11034977 1078.13848329 1248.91527653 C1078.59634217 1249.68992252 1079.05420106 1250.46456852 1079.52593446 1251.26268864 C1080.03471131 1252.11790104 1080.54348817 1252.97311344 1081.0676825 1253.85424137 C1084.83081906 1260.19651923 1088.55270844 1266.56031281 1092.1602118 1272.99266911 C1093.09457247 1274.65510303 1094.0331142 1276.31518806 1094.97368836 1277.97411442 C1113.85465325 1311.29747154 1130.27831369 1345.59138138 1144.40093446 1381.20018864 C1144.81697938 1382.23804508 1145.2330243 1383.27590153 1145.66167665 1384.34520817 C1165.36919811 1433.59838334 1179.69029055 1484.82174692 1189.58062196 1536.90233707 C1190.11162289 1539.69685529 1190.65266214 1542.48903472 1191.20562196 1545.2792902 C1195.86047354 1568.77641055 1199.03745618 1592.36562918 1201.40093446 1616.20018864 C1201.48556947 1617.03973087 1201.57020448 1617.87927311 1201.65740418 1618.74425602 C1205.41920399 1656.48240987 1204.76277516 1694.38836927 1204.4412787 1732.26195621 C1204.40034859 1737.13911718 1204.36873233 1742.01631433 1204.33794618 1746.89354801 C1204.11248272 1781.39048645 1203.87881029 1815.84667651 1200.40093446 1850.20018864 C1200.3171454 1851.04490726 1200.23335633 1851.88962589 1200.14702821 1852.75994205 C1197.54945259 1878.83565158 1193.62893533 1904.52656706 1188.40093446 1930.20018864 C1188.13736146 1931.49944279 1188.13736146 1931.49944279 1187.86846375 1932.8249445 C1181.56086141 1963.851149 1174.03835536 1994.07531325 1164.0765326 2024.15514469 C1163.35045228 2026.35299883 1162.62891359 2028.55230759 1161.90825868 2030.75194645 C1160.5897888 2034.77591868 1159.26556373 2038.79795472 1157.93715882 2042.81865788 C1157.42093838 2044.38232713 1156.90594489 2045.94640209 1156.39229798 2047.51091862 C1153.75797534 2055.52341074 1151.02765569 2063.41402091 1147.69634461 2071.1699152 C1146.21900067 2074.62577518 1144.81569708 2078.10910406 1143.42046571 2081.59862614 C1135.22384706 2102.02230431 1126.69522195 2122.22489817 1116.6265204 2141.81102848 C1115.71911297 2143.57993069 1114.81691317 2145.35150645 1113.91753602 2147.12450504 C1106.09605221 2162.54072912 1097.88924328 2177.63832726 1089.02105165 2192.47753239 C1087.53855185 2194.96891842 1086.07883287 2197.47181507 1084.62749696 2199.98143864 C1078.23989521 2210.94229632 1071.30883637 2221.52186187 1064.27593446 2232.07518864 C1063.58068666 2233.11955585 1063.58068666 2233.11955585 1062.87139344 2234.1850214 C1050.73809463 2252.38201526 1037.79792962 2269.91470079 1024.40093446 2287.20018864 C1023.9439618 2287.79154606 1023.48698915 2288.38290348 1023.01616883 2288.99218082 C1017.97411448 2295.50919298 1012.89442102 2301.91028337 1007.34624696 2308.00878239 C1005.19841802 2310.42832462 1003.17639229 2312.92744098 1001.15093446 2315.45018864 C997.22439565 2320.29382561 993.08935642 2324.88859977 988.82573915 2329.43358707 C986.16017912 2332.27721451 983.55142494 2335.15640234 980.99468446 2338.09862614 C971.88803617 2348.55620598 962.18563203 2358.50466956 952.40093446 2368.32518864 C951.71982606 2369.01088932 951.03871766 2369.69659 950.33696961 2370.4030695 C946.48944686 2374.23884194 942.53167245 2377.8784423 938.41900086 2381.42723942 C934.87747467 2384.53860685 931.4973897 2387.82020643 928.08843446 2391.07518864 C922.59172394 2396.28566794 917.05830966 2401.29247813 911.12749696 2406.00487614 C907.87981788 2408.6197696 904.73812264 2411.34387576 901.58843446 2414.07518864 C895.31588807 2419.48676383 888.8746545 2424.64012099 882.32280946 2429.70800114 C880.25829586 2431.31093649 878.2041097 2432.92650922 876.15093446 2434.54393864 C862.91606343 2444.94628634 849.44843523 2455.02098031 835.36577821 2464.25487614 C833.22126895 2465.66194545 831.09028211 2467.08167746 828.96734071 2468.52050114 C820.0394489 2474.55861944 810.92404511 2480.23272402 801.6992743 2485.80468082 C799.42166637 2487.18760062 797.15408143 2488.5855754 794.88921571 2489.98925114 C784.56095543 2496.38122427 774.0852741 2502.42362092 763.40093446 2508.20018864 C762.67390321 2508.59528629 761.94687196 2508.99038395 761.19780946 2509.39745426 C746.84765205 2517.17045619 732.15207327 2524.22511461 717.40093446 2531.20018864 C716.5126143 2531.62086613 716.5126143 2531.62086613 715.60634828 2532.05004215 C706.21857675 2536.48924148 696.76724977 2540.75530191 687.21343446 2544.82518864 C686.52160066 2545.12022282 685.82976686 2545.415257 685.11696839 2545.71923161 C673.6926576 2550.57029424 662.14414248 2555.00649419 650.46343446 2559.20018864 C649.736373 2559.4613245 649.00931153 2559.72246037 648.26021791 2559.99150944 C631.90549985 2565.84379998 615.44938542 2571.32684933 598.77593446 2576.20018864 C598.05057496 2576.41296452 597.32521546 2576.62574039 596.57787538 2576.84496403 C587.10027885 2579.61965256 577.6037254 2582.28912621 568.02593446 2584.70018864 C567.11376161 2584.93093082 566.20158875 2585.16167301 565.2617743 2585.39940739 C558.69267819 2587.00667465 552.08210319 2588.16273108 545.40093446 2589.20018864 C545.58567323 2590.13210026 545.770412 2591.06401188 545.96074891 2592.02416325 C562.56688907 2676.14839349 574.39198904 2760.79274353 586.30779481 2926.2643671 C586.37614226 2928.41872264 586.44877995 2930.57294319 586.52385926 2932.72707462 C587.38645893 2957.63144306 587.55848858 2982.51822109 587.53130555 3007.43627262 C587.52560519 3012.70849984 587.52899507 3017.98067654 587.53475785 3023.25290203 C587.55397137 3044.14600378 587.48537871 3065.02141278 586.75033021 3085.90345097 C586.4448691 3094.67667361 586.34549383 3103.42282195 586.40093446 3112.20018864 C625.16282441 3096.37559624 664.31763123 3080.07221644 701.1211493 3060.04247379 C705.43649861 3057.69464544 709.80610865 3055.49224048 714.21343446 3053.32518864 C721.59364422 3049.68224164 728.7801205 3045.72790656 735.95171571 3041.69237614 C743.0458041 3037.70370628 750.20786837 3033.83950214 757.37359071 3029.98143864 C758.3758368 3029.44132145 759.3780829 3028.90120426 760.41070008 3028.34471989 C762.4488846 3027.24673437 764.48795101 3026.15038434 766.52788758 3025.05565739 C772.92798892 3021.60215776 779.19389186 3017.98814438 785.40093446 3014.20018864 C787.48664328 3012.94069529 789.57259661 3011.68160679 791.65874696 3010.42284489 C821.26585671 2992.53150386 821.26585671 2992.53150386 850.24468446 2973.64940739 C852.86025067 2971.89148155 855.48966367 2970.1551633 858.11968446 2968.41893864 C868.84416542 2961.32966077 879.4307056 2954.14621186 889.7227118 2946.44286442 C892.56361056 2944.3392603 895.4532436 2942.30486468 898.33843446 2940.26268864 C909.5098642 2932.32538543 920.40492832 2924.01114826 931.24859071 2915.63378239 C933.39812418 2913.9743532 935.55066998 2912.32001128 937.70952821 2910.67284489 C943.74089862 2906.06599127 949.68181111 2901.37033401 955.53374696 2896.53612614 C958.14428258 2894.40928649 960.78404417 2892.33050129 963.44243836 2890.26439762 C970.71791528 2884.60870224 977.73514253 2878.70301841 984.69829774 2872.66893864 C987.41508046 2870.3253532 990.15809864 2868.01316772 992.90093446 2865.70018864 C994.51595327 2864.33465426 996.13040772 2862.96845563 997.74468446 2861.60204411 C998.86933623 2860.65013513 999.99434883 2859.69865234 1001.11968446 2858.74755192 C1008.70697388 2852.32672356 1016.12552385 2845.76565078 1023.39702821 2838.98925114 C1025.97354259 2836.58883238 1028.58480182 2834.23107733 1031.21343446 2831.88768864 C1040.7265953 2823.35542654 1050.22854311 2814.70511314 1059.01812196 2805.42284489 C1060.40093446 2804.20018864 1060.40093446 2804.20018864 1062.40093446 2804.20018864 C1062.62780946 2803.64331364 1062.85468446 2803.08643864 1063.08843446 2802.51268864 C1065.18533757 2798.81814506 1068.20924456 2796.23267438 1071.38921571 2793.47753239 C1077.74411003 2787.93435566 1083.4760374 2781.96542043 1089.21441102 2775.79320621 C1094.23016363 2770.40830082 1099.3581384 2765.16172213 1104.62066102 2760.01781559 C1108.12450072 2756.56915868 1111.38557489 2752.97443075 1114.59990907 2749.25512028 C1118.21539123 2745.12993208 1122.02372318 2741.18190446 1125.79546571 2737.20018864 C1130.1099784 2732.62662653 1134.29188775 2727.95890574 1138.40093446 2723.20018864 C1138.93621766 2722.5817609 1139.47150086 2721.96333317 1140.02300477 2721.3261652 C1141.60831255 2719.49336623 1143.19213522 2717.65929122 1144.77593446 2715.82518864 C1148.56033289 2711.4450274 1152.37382896 2707.10146863 1156.27593446 2702.82518864 C1159.53286021 2699.2319499 1162.53176924 2695.52263092 1165.46734071 2691.66503239 C1167.80160426 2688.68943582 1170.25337829 2685.82145779 1172.71343446 2682.95018864 C1176.81781227 2678.14576345 1180.74381444 2673.24215288 1184.56475282 2668.2101984 C1187.73237346 2664.0448238 1190.98901425 2659.95935508 1194.27593446 2655.88768864 C1199.99164174 2648.78679952 1205.47029074 2641.52438668 1210.90532899 2634.20751286 C1212.38493094 2632.22166773 1213.87354189 2630.2429593 1215.36577821 2628.26659489 C1232.09421393 2606.10334479 1248.20572413 2583.44431619 1263.40093446 2560.20018864 C1263.82648622 2559.54953434 1264.25203797 2558.89888004 1264.69048524 2558.22850895 C1267.95077169 2553.23407816 1271.18291734 2548.22194218 1274.40093446 2543.20018864 C1274.85661805 2542.48975407 1275.31230165 2541.7793195 1275.78179383 2541.04735661 C1290.00149737 2518.83032333 1303.59347755 2496.26039349 1316.40093446 2473.20018864 C1317.63893745 2470.98128336 1318.87722964 2468.76253942 1320.11577821 2466.54393864 C1323.89240032 2459.77090485 1327.65115925 2452.98811776 1331.40093446 2446.20018864 C1331.96264344 2445.18408512 1332.52435243 2444.16798161 1333.1030829 2443.12108707 C1339.12904238 2432.20376298 1345.00632864 2421.24555089 1350.49175477 2410.04638004 C1351.67245032 2407.6488452 1352.87913008 2405.26457142 1354.08501649 2402.879632 C1355.87469604 2399.32859942 1357.63704366 2395.76408139 1359.40093446 2392.20018864 C1359.8720868 2391.25208317 1360.34323915 2390.3039777 1360.82866883 2389.32714176 C1383.60557914 2343.34464655 1403.26372997 2295.797816 1420.57207704 2247.5070734 C1421.38625634 2245.24104092 1422.20607283 2242.97713387 1423.02788758 2240.71386051 C1440.75410549 2191.85271823 1455.45327455 2141.96464962 1467.61968446 2091.43602848 C1468.14243532 2089.27085974 1468.67112817 2087.10711736 1469.20562196 2084.94481754 C1475.56106126 2059.23176936 1480.47320394 2033.21719264 1485.40093446 2007.20018864 C1485.5614026 2006.35528873 1485.72187074 2005.51038883 1485.88720155 2004.6398859 C1495.0147569 1956.4908832 1500.58119189 1907.7709082 1504.58843446 1858.95018864 C1504.66724854 1858.01125767 1504.74606263 1857.0723267 1504.82726502 1856.10494328 C1507.88585347 1819.27913329 1508.78310472 1782.45075644 1508.71343446 1745.51268864 C1508.71120862 1743.41436105 1508.70903228 1741.31603341 1508.7069037 1739.21770573 C1508.66140387 1706.78857803 1508.07488721 1674.53497928 1505.40093446 1642.20018864 C1505.29676209 1640.92713871 1505.19258973 1639.65408878 1505.08526063 1638.34246159 C1500.07459606 1577.33634996 1492.02461437 1517.2982462 1480.40093446 1457.20018864 C1480.23851258 1456.35824955 1480.07609071 1455.51631046 1479.90874696 1454.64885807 C1475.25489308 1430.57325689 1469.76943454 1406.78355408 1463.6445868 1383.04100895 C1462.42424283 1378.30490927 1461.23317232 1373.56174527 1460.04546571 1368.81737614 C1455.96859171 1352.58602461 1451.52710783 1336.55319448 1446.46196961 1320.59716129 C1445.30881493 1316.905262 1444.19892381 1313.201494 1443.10015321 1309.49315739 C1433.73123065 1277.92557776 1422.8407684 1246.94226906 1411.14715028 1216.16466618 C1410.44595843 1214.31871814 1409.74709674 1212.47188547 1409.0483954 1210.62499332 C1397.1546531 1179.31659921 1383.83306409 1148.42101558 1369.40093446 1118.20018864 C1368.93753663 1117.22922245 1368.93753663 1117.22922245 1368.46477723 1116.23864079 C1366.03827375 1111.15778613 1363.59806371 1106.0836375 1361.15093446 1101.01268864 C1360.82204225 1100.32971714 1360.49315003 1099.64674564 1360.15429139 1098.94307804 C1356.32410095 1091.00159219 1352.37767058 1083.14266993 1348.18065858 1075.387887 C1345.91419814 1071.19885179 1343.7644965 1066.96765456 1341.65093446 1062.70018864 C1334.51914511 1048.36468468 1327.28584527 1034.08485679 1319.0520575 1020.34545231 C1316.03686206 1015.3132743 1313.16415691 1010.21593458 1310.33843446 1005.07518864 C1306.29831343 997.75003664 1302.09787515 990.54715102 1297.74224305 983.40575504 C1296.17913065 980.83546792 1294.62806471 978.25806099 1293.07671571 975.68065739 C1287.1055585 965.78417574 1281.05617982 955.98184069 1274.56890321 946.41503239 C1272.58715391 943.47633027 1270.66773417 940.50980953 1268.77593446 937.51268864 C1255.30098049 916.20853689 1240.88825429 895.28785422 1225.65874696 875.20018864 C1223.60140822 872.46656208 1221.58145735 869.71029364 1219.57085633 866.94237614 C1213.24645878 858.24291706 1206.66020215 849.76148249 1200.03179383 841.29247379 C1197.69745511 838.29767097 1195.39346863 835.28005508 1193.08843446 832.26268864 C1188.64391662 826.47464825 1184.04714401 820.82671545 1179.40093446 815.20018864 C1177.96334144 813.42943082 1176.52584279 811.65859638 1175.08843446 809.88768864 C1170.62453191 804.43008257 1166.03884745 799.0828783 1161.43999696 793.73925114 C1158.57496029 790.40853231 1155.73470236 787.05751525 1152.90093446 783.70018864 C1151.53225986 782.0824187 1150.16316657 780.46500388 1148.79400086 778.84764957 C1147.85506957 777.73725553 1146.91726696 776.62590623 1145.9805243 775.5136652 C1139.10118071 767.35157429 1131.99023844 759.46132244 1124.67437196 751.68846989 C1119.52594907 746.21696782 1114.41850214 740.69678649 1109.65093446 734.88768864 C1107.36377518 732.15580395 1104.93231907 729.70683706 1102.40093446 727.20018864 C1100.60138512 725.39597734 1098.8021729 723.59142976 1097.00322938 721.78661442 C1091.76520524 716.53223923 1086.524629 711.28041723 1081.28259778 706.03003979 C1078.12075911 702.86298439 1074.95986284 699.69500009 1071.80108094 696.52489567 C1068.73064112 693.44352637 1065.65770699 690.36466435 1062.58308816 687.2874651 C1061.41934166 686.12188542 1060.25646851 684.95543303 1059.09452844 683.78805256 C1053.04020913 677.70650313 1046.94071208 671.76512103 1040.40093446 666.20018864 C1039.08197614 664.99387743 1037.76947463 663.78034492 1036.47124696 662.55175114 C1035.82631288 661.94347477 1035.18137879 661.3351984 1034.51690125 660.70848942 C1033.85988221 660.08700016 1033.20286317 659.4655109 1032.52593446 658.82518864 C1024.88296185 651.63502177 1017.26288959 644.47658135 1009.08843446 637.88768864 C1004.84326126 634.45797244 1000.81850542 630.86569426 996.83843446 627.13768864 C992.36881131 622.95602806 987.80722723 619.01614945 982.97905946 615.24706364 C979.97613512 612.86292371 977.06374587 610.38004054 974.15093446 607.88768864 C968.55197519 603.11380442 962.81468583 598.54489227 957.01030946 594.02440739 C953.87996928 591.58428156 950.78219448 589.10580123 947.69072938 586.61669254 C941.28776726 581.46199372 934.81071236 576.43759283 928.20513368 571.54345036 C926.07778766 569.9595995 923.95987928 568.36353393 921.84234071 566.76659489 C906.24633428 555.0111566 890.49223478 543.53035096 874.35112977 532.53417301 C872.41127345 531.20726078 870.4792305 529.86971709 868.54937196 528.52831364 C858.76919389 521.73915493 848.82841745 515.21930904 838.82329774 508.76708317 C836.56110765 507.30379593 834.30583382 505.83059404 832.05327821 504.35253239 C822.15830525 497.87277173 812.0830167 491.73802203 801.91411805 485.69872379 C799.49312332 484.25515806 797.08036941 482.79889891 794.67046571 481.33690739 C773.9368739 468.77193612 752.85717158 456.86955465 731.47124696 445.45409489 C725.87543768 442.46536379 720.32274766 439.40358666 714.77593446 436.32518864 C707.23459144 432.16035607 699.6327639 428.17873424 691.88628602 424.40966129 C690.0508561 423.51646681 688.21712442 422.61978064 686.3843329 421.72118473 C643.63853128 400.77386438 599.94288838 381.99664797 555.40093446 365.20018864 C553.18869184 364.35644659 550.9764522 363.51269674 548.76421571 362.66893864 C530.87379895 355.89670934 512.75113188 349.86441075 494.5753119 343.91368961 C492.49444516 343.23087327 490.41493699 342.54410789 488.33599305 341.85546207 C468.56306223 335.30710186 448.65430868 329.39057968 428.5888617 323.8095026 C426.41181207 323.20321793 424.23562317 322.59392975 422.05962586 321.98388004 C404.63815899 317.10535106 387.18927908 312.5405421 369.51287293 308.66503239 C367.13976435 308.14270434 364.76786354 307.61509195 362.39605165 307.08690739 C271.91439349 286.95345839 178.6257756 272.42340064 43.49297547 271.0148859 C38.83701105 271.01496666 34.18114607 271.00809112 29.52520204 270.99437809 C-11.57801618 270.87553396 -52.4232584 271.92218053 -93.34906554 275.88768864 C-94.71583607 276.01741422 -96.08263773 276.1468121 -97.44946837 276.27590275 C-139.6471803 280.27115799 -181.66949826 285.50587913 -223.42682433 292.81993961 C-225.45870355 293.17561839 -227.49126323 293.52740371 -229.52387023 293.87889957 C-257.01279259 298.66055473 -284.19026967 305.01093223 -311.33392882 311.43309879 C-314.17871837 312.10143502 -317.02612577 312.75500989 -319.87640929 313.39940739 C-335.03555252 316.85816453 -349.98108097 321.10122474 -364.94098449 325.32517338 C-369.5815508 326.63521465 -374.22666532 327.92689248 -378.87640929 329.20409489 C-395.77480028 333.88303215 -412.37078262 339.33088814 -428.96962523 344.96222782 C-433.81752325 346.60512751 -438.67429371 348.2177763 -443.54047179 349.80565739 C-459.56950554 355.04909872 -475.3766181 360.72690496 -491.09467101 366.83983707 C-494.44714447 368.14121524 -497.8054975 369.42613791 -501.16547179 370.70800114 C-520.97629161 378.32064863 -540.43615627 386.7411849 -559.90912414 395.17235661 C-563.88075552 396.89139408 -567.85766422 398.59753458 -571.83734679 400.29784489 C-580.35689865 403.94733676 -588.80171341 407.6623009 -597.05341125 411.88671207 C-603.31109392 415.08996527 -609.65046026 418.11825439 -615.99039245 421.15425968 C-634.15795388 429.86301862 -651.86494453 439.28444526 -669.49164367 449.0371027 C-672.1040772 450.47890452 -674.72563559 451.90350953 -677.34906554 453.32518864 C-684.47477276 457.20792694 -691.53804882 461.20146075 -698.59906554 465.20018864 C-699.44420714 465.67826969 -700.28934875 466.15635075 -701.1601007 466.64891911 C-710.62763916 472.0103466 -720.07197237 477.3825929 -729.30219054 483.14550114 C-731.82517523 484.71788259 -734.35543836 486.27373767 -736.89594054 487.81737614 C-737.66333556 488.2839362 -738.43073058 488.75049625 -739.22138 489.2311945 C-740.69059039 490.12375182 -742.16040843 491.01531029 -743.63104796 491.9055109 C-755.58105695 499.18008747 -767.24222684 506.90709937 -778.87543273 514.67430973 C-780.9644579 516.06877535 -783.05511341 517.46077046 -785.14594054 518.85253239 C-797.7199241 527.23267203 -810.26456478 535.66904616 -822.47406554 544.57518864 C-823.98696862 545.67430908 -825.49999314 546.77326237 -827.01312804 547.87206364 C-827.76755187 548.42055973 -828.5219757 548.96905582 -829.29926085 549.53417301 C-831.60924012 551.20755927 -833.92699981 552.86955828 -836.24750304 554.52831364 C-844.44365248 560.39483057 -852.49414729 566.38423982 -860.38031554 572.66112614 C-863.3645019 575.03102593 -866.4095779 577.30977438 -869.47406554 579.57518864 C-876.42574506 584.75177352 -883.10483485 590.25346789 -889.81000304 595.74315739 C-892.09693182 597.60565615 -894.40916064 599.43513213 -896.72406554 601.26268864 C-901.36684251 604.96130424 -905.85829132 608.82560021 -910.35077453 612.70385075 C-913.94941535 615.80524975 -917.58934899 618.84100671 -921.28656554 621.82518864 C-925.98076302 625.63278073 -930.42791566 629.66084776 -934.87250304 633.75487614 C-937.42522764 636.04428244 -940.04004408 638.19256736 -942.72406554 640.32518864 C-949.334888 645.6555792 -955.41217687 651.53646132 -961.56390929 657.38378239 C-964.73829638 660.39882306 -967.95391037 663.35200091 -971.22406554 666.26268864 C-974.53752566 669.21233979 -977.6927711 672.26230457 -980.79659057 675.43015385 C-982.53597295 677.13823156 -984.33228003 678.71885543 -986.18866515 680.29808903 C-991.19108489 684.65136438 -995.85847808 689.315986 -1000.54047179 694.00878239 C-1001.93023475 695.39711025 -1001.93023475 695.39711025 -1003.34807372 696.81348515 C-1005.29688915 698.76083719 -1007.24391291 700.70995776 -1009.18964171 702.66039371 C-1011.66270416 705.13915258 -1014.14023087 707.61339295 -1016.6191318 710.08631134 C-1019.01202755 712.47469009 -1021.40106872 714.86690943 -1023.79047179 717.25878239 C-1024.66981887 718.13610523 -1025.54916595 719.01342808 -1026.4551599 719.91733646 C-1031.37203527 724.85278343 -1036.08985926 729.88966827 -1040.59906554 735.20018864 C-1042.03357202 736.86943254 -1043.47042559 738.53666837 -1044.91156554 740.20018864 C-1045.56769835 740.96331364 -1046.22383117 741.72643864 -1046.89984679 742.51268864 C-1048.59906554 744.20018864 -1048.59906554 744.20018864 -1050.59906554 744.20018864 C-1051.00089049 745.08529118 -1051.00089049 745.08529118 -1051.41083312 745.98827457 C-1052.61080037 748.22203322 -1053.86518567 749.76292288 -1055.61078429 751.59081364 C-1056.20004699 752.21351139 -1056.78930968 752.83620914 -1057.39642882 753.47777653 C-1058.3320465 754.45412052 -1058.3320465 754.45412052 -1059.28656554 755.45018864 C-1060.56993936 756.80748504 -1061.85250219 758.16554877 -1063.13422179 759.52440739 C-1063.74282043 760.16813297 -1064.35141906 760.81185856 -1064.97846007 761.47509098 C-1067.94816962 764.63627923 -1070.78442241 767.90130582 -1073.59906554 771.20018864 C-1074.48552982 772.2329592 -1075.37227589 773.26548792 -1076.25922179 774.29784489 C-1078.31241594 776.68901755 -1080.36289326 779.08248468 -1082.41156554 781.47753239 C-1084.51138555 783.93182568 -1086.61559191 786.38223243 -1088.72406554 788.82909489 C-1094.78764853 795.87055094 -1100.74717632 802.98094621 -1106.59906554 810.20018864 C-1107.58296789 811.40239853 -1108.56737521 812.60419526 -1109.55219054 813.80565739 C-1117.19215854 823.14248523 -1124.65133945 832.60889087 -1132.02240539 842.15917301 C-1133.41528348 843.96227937 -1134.81265103 845.76174918 -1136.21234679 847.55956364 C-1143.51527105 856.97806497 -1150.56793417 866.57792644 -1157.59906554 876.20018864 C-1158.15529601 876.96025211 -1158.71152648 877.72031559 -1159.28461242 878.50341129 C-1170.78295278 894.23672304 -1181.74425776 910.32115666 -1192.50971007 926.56249332 C-1193.50086463 928.05255714 -1194.50066936 929.53685795 -1195.50140929 931.02050114 C-1213.43465867 957.63602136 -1229.90371666 985.23371185 -1245.84906554 1013.07518864 C-1246.33262511 1013.91904118 -1246.81618468 1014.76289371 -1247.31439757 1015.63231754 C-1250.82223426 1021.77914339 -1254.22465705 1027.9793033 -1257.59906554 1034.20018864 C-1258.60153165 1036.03880558 -1259.60413686 1037.8773467 -1260.60687804 1039.71581364 C-1272.01032032 1060.67241061 -1283.07321401 1081.78829991 -1293.59906554 1103.20018864 C-1294.03009582 1104.07481754 -1294.46112609 1104.94944645 -1294.90521789 1105.85057926 C-1308.12685094 1132.7807751 -1319.855011 1160.39441457 -1331.14685607 1188.17911625 C-1332.97265465 1192.67091252 -1334.81731085 1197.15436378 -1336.67328429 1201.63378239 C-1337.62777779 1203.94755707 -1338.58220849 1206.26135767 -1339.53656554 1208.57518864 C-1339.94874328 1209.56446354 -1340.36092101 1210.55373844 -1340.78558898 1211.57299137 C-1344.41082366 1220.40822697 -1347.5197688 1229.40722119 -1350.63809752 1238.43004704 C-1351.9505657 1242.21344317 -1353.28186151 1245.99011098 -1354.61276793 1249.76705265 C-1363.17789116 1274.08829255 -1371.47196094 1298.41741859 -1378.59906554 1323.20018864 C-1379.03760774 1324.71925965 -1379.47625072 1326.23830157 -1379.91498351 1327.75731754 C-1382.27824671 1335.94879106 -1384.6227005 1344.14547893 -1386.9413507 1352.34969425 C-1388.19718782 1356.79229337 -1389.47209367 1361.22912194 -1390.75140929 1365.66503239 C-1392.21225958 1370.77909426 -1393.57881661 1375.89593574 -1394.78656554 1381.07518864 C-1394.9837921 1381.91122623 -1395.18101867 1382.74726383 -1395.38422179 1383.6086359 C-1398.10189625 1395.22169847 -1400.69799796 1406.86370509 -1403.29877257 1418.50341129 C-1406.61042519 1433.31974442 -1406.61042519 1433.31974442 -1408.00922179 1439.12596989 C-1425.16540707 1510.4911803 -1433.03632194 1585.07261965 -1437.59906554 1658.20018864 C-1437.65965148 1659.14420536 -1437.72023742 1660.08822208 -1437.78265929 1661.06084538 C-1441.43079193 1718.11738654 -1441.17307646 1776.1490566 -1437.59906554 1833.20018864 C-1437.53825805 1834.20311954 -1437.47745055 1835.20605045 -1437.41480041 1836.23937321 C-1433.47902262 1901.06795933 -1424.9771823 1965.53890214 -1412.78656554 2029.32518864 C-1412.60369994 2030.28356632 -1412.42083434 2031.24194401 -1412.23242736 2032.22936344 C-1410.30081712 2042.28213406 -1408.17445318 2052.23909459 -1405.62372375 2062.15282536 C-1404.46831163 2066.66204632 -1403.42048457 2071.19445296 -1402.38031554 2075.73143864 C-1402.09955924 2076.95466328 -1402.09955924 2076.95466328 -1401.81313109 2078.20259953 C-1401.04900798 2081.53779988 -1400.28772747 2084.87364672 -1399.52631164 2088.20946598 C-1396.19954994 2102.76937521 -1392.86835201 2117.31928345 -1388.59906554 2131.63768864 C-1387.98795383 2133.70396639 -1387.37731515 2135.77038408 -1386.76703429 2137.83690739 C-1386.42720519 2138.98594547 -1386.08737609 2140.13498356 -1385.73724914 2141.31884098 C-1384.67921942 2144.91338266 -1383.64379946 2148.51423314 -1382.61079955 2152.11603642 C-1375.85029606 2175.68602478 -1368.61328109 2199.02608068 -1360.59906554 2222.20018864 C-1360.32282348 2222.99908512 -1360.04658141 2223.79798161 -1359.76196837 2224.62108707 C-1357.76079149 2230.40147362 -1355.74722289 2236.17746005 -1353.72406554 2241.95018864 C-1353.32636458 2243.08502689 -1353.32636458 2243.08502689 -1352.92062926 2244.24279118 C-1347.58590459 2259.43634011 -1341.95873996 2274.49965289 -1335.97406554 2289.45018864 C-1335.59338927 2290.40147144 -1335.59338927 2290.40147144 -1335.20502257 2291.37197208 C-1326.32918752 2313.51867631 -1316.72597372 2335.3515109 -1306.97455382 2357.12450504 C-1305.68620389 2360.00534147 -1304.40516022 2362.88930025 -1303.12640929 2365.77440739 C-1302.36749518 2367.47892374 -1301.6083932 2369.18335647 -1300.84906554 2370.88768864 C-1300.53300353 2371.60376286 -1300.21694152 2372.31983707 -1299.89130187 2373.05761051 C-1296.70095891 2380.18639914 -1293.15578736 2387.13663546 -1289.64655089 2394.11184025 C-1287.99824209 2397.39803707 -1286.36957157 2400.69388779 -1284.73969054 2403.98925114 C-1277.01356183 2419.57990169 -1269.09006317 2435.00849679 -1260.59906554 2450.20018864 C-1259.47894103 2452.21953529 -1258.35916242 2454.23907385 -1257.23969054 2456.25878239 C-1237.96156397 2490.94863279 -1217.78064889 2525.27503913 -1195.59906554 2558.20018864 C-1194.65152545 2559.62405234 -1193.70498839 2561.04858382 -1192.75922179 2562.47362614 C-1186.80008362 2571.4503381 -1180.78339866 2580.37660116 -1174.59906554 2589.20018864 C-1173.94285216 2590.1401569 -1173.94285216 2590.1401569 -1173.27338195 2591.09911442 C-1165.23604525 2602.60616685 -1156.97387076 2613.93685106 -1148.59906554 2625.20018864 C-1148.08344054 2625.89499332 -1147.56781554 2626.58979801 -1147.03656554 2627.30565739 C-1135.39632205 2642.97754772 -1123.40233748 2658.35777645 -1111.0272882 2673.45604801 C-1109.73901906 2675.02927788 -1108.45583829 2676.60667112 -1107.17328429 2678.18456364 C-1090.07036291 2699.20627162 -1072.19212388 2719.58134035 -1053.93890929 2739.60643864 C-1051.94034473 2741.82187581 -1049.98074807 2744.06221405 -1048.03656554 2746.32518864 C-1044.8676882 2749.9787178 -1041.47554474 2753.36479837 -1038.00531554 2756.73143864 C-1036.02641122 2758.76174308 -1034.17479191 2760.82409109 -1032.32562804 2762.96971989 C-1028.5626263 2767.30596773 -1024.55729657 2771.35462963 -1020.47406554 2775.38768864 C-1019.7844171 2776.07282536 -1019.09476867 2776.75796207 -1018.38422179 2777.46386051 C-1017.05024605 2778.78890907 -1015.71532658 2780.11300841 -1014.37933898 2781.43602848 C-1012.11165367 2783.68318894 -1009.85460953 2785.94084743 -1007.59906554 2788.20018864 C-1006.82973693 2788.96887272 -1006.06040832 2789.7375568 -1005.26776671 2790.52953434 C-1002.69973095 2793.09944956 -1000.13884674 2795.67627668 -997.57953429 2798.25487614 C-996.14072096 2799.70107137 -994.70142073 2801.14678008 -993.26190734 2802.59227848 C-992.28280787 2803.57640063 -991.3046086 2804.56141925 -990.32733703 2805.54735661 C-985.12980092 2810.78955561 -979.89798313 2815.92677172 -974.2863214 2820.72899723 C-971.99446299 2822.72736777 -969.89299791 2824.88390873 -967.78656554 2827.07518864 C-963.49806492 2831.42297729 -958.95333901 2835.24509638 -954.18500304 2839.05175114 C-951.83974852 2841.00022544 -949.71813383 2843.01192629 -947.59906554 2845.20018864 C-943.81299268 2849.10192564 -939.69040096 2852.44824765 -935.45453429 2855.84862614 C-932.58098012 2858.21508251 -929.83623937 2860.67777167 -927.09906554 2863.20018864 C-922.68750169 2867.25557807 -918.14718672 2871.08492603 -913.48578429 2874.84862614 C-910.2989453 2877.44467089 -907.16577566 2880.09780997 -904.03656554 2882.76268864 C-898.63870448 2887.34791766 -893.16344196 2891.81762668 -887.59906554 2896.20018864 C-887.0773175 2896.61236637 -886.55556945 2897.02454411 -886.01801085 2897.44921207 C-865.24650631 2913.85786165 -844.14531071 2929.82118352 -822.59906554 2945.20018864 C-821.91312316 2945.69051579 -821.22718078 2946.18084293 -820.52045226 2946.68602848 C-811.82283369 2952.89387865 -803.04544884 2958.9821082 -794.22406554 2965.01268864 C-793.33300109 2965.6228986 -792.44193664 2966.23310856 -791.52387023 2966.86180973 C-786.10495892 2970.55305406 -780.61984832 2974.11830156 -775.07758117 2977.62133121 C-772.02085037 2979.56852173 -769.03061675 2981.59543844 -766.03656554 2983.63768864 C-737.98995709 3002.48509858 -708.35975343 3019.21828308 -678.75336242 3035.46874332 C-675.69413097 3037.14800566 -672.63858926 3038.83382543 -669.58344054 3040.52050114 C-660.96197899 3045.26669623 -652.32027813 3049.92955903 -643.48724914 3054.27098942 C-639.24933159 3056.35720016 -635.06635814 3058.52870482 -630.89911437 3060.75267887 C-619.30166113 3066.93790737 -607.50425115 3072.63372325 -595.59906554 3078.20018864 C-594.24666641 3078.83474284 -592.89429124 3079.46934812 -591.54193664 3080.10399723 C-555.4989137 3096.99555651 -518.79251065 3112.03454234 -481.59906554 3126.20018864 C-480.86492431 3126.4799152 -480.13078307 3126.75964176 -479.37439513 3127.04784489 C-457.97899896 3135.18194495 -436.29921724 3142.2543825 -414.44338012 3149.04473209 C-409.63932818 3150.54282665 -404.86679171 3152.11003245 -400.10297179 3153.73143864 C-392.03835582 3156.44223848 -383.87653605 3158.76759471 -375.68378234 3161.05736637 C-373.1666222 3161.76127457 -370.65131373 3162.47151774 -368.13617492 3163.18261051 C-359.17681164 3165.70477155 -350.20537719 3168.09447795 -341.14984679 3170.24779606 C-324.43633246 3174.73070444 -308.9378387 3183.30685722 -295.59906554 3194.20018864 C-295.01705382 3194.6753693 -294.4350421 3195.15054996 -293.83539367 3195.64013004 C-286.88587338 3201.35234156 -280.1102262 3207.03980285 -274.59906554 3214.20018864 C-273.6535382 3215.40868473 -273.6535382 3215.40868473 -272.68890929 3216.64159489 C-267.2926711 3223.78459227 -262.85620782 3231.34969965 -258.59906554 3239.20018864 C-258.05121398 3240.18889957 -257.50336242 3241.17761051 -256.93890929 3242.19628239 C-241.02283608 3272.19665569 -240.06654834 3307.93287072 -249.46503234 3340.03978825 C-251.40884016 3346.2798829 -253.63747319 3352.36797434 -256.59906554 3358.20018864 C-257.09019835 3359.1811652 -257.58133117 3360.16214176 -258.08734679 3361.17284489 C-265.66851417 3375.79491254 -275.09155079 3387.57121338 -286.59906554 3399.20018864 C-287.40859679 3400.03421207 -288.21812804 3400.86823551 -289.05219054 3401.72753239 C-313.49037932 3425.35396314 -349.1413513 3436.52032556 -382.59906554 3436.20018864 C-402.22207676 3435.51973954 -420.97907939 3429.86912005 -439.59515929 3424.05956364 C-444.5792971 3422.50501243 -449.58214325 3421.02640444 -454.59515929 3419.56810856 C-468.20121709 3415.60140979 -481.71682127 3411.36412379 -495.22406554 3407.07518864 C-496.1581021 3406.77949986 -497.09213866 3406.48381107 -498.05447936 3406.17916203 C-509.28785054 3402.61946395 -520.45041772 3398.91748379 -531.54132628 3394.93608952 C-535.06683393 3393.67527663 -538.60104882 3392.43931878 -542.13422179 3391.20018864 C-543.5555042 3390.70035479 -544.97672825 3390.20035499 -546.39789367 3389.70018864 C-548.53146172 3388.94932129 -550.66518585 3388.19891861 -552.799505 3387.45018864 C-566.1595254 3382.76235509 -579.46847562 3377.93998925 -592.59906554 3372.63768864 C-593.40916076 3372.31163639 -594.21925597 3371.98558414 -595.05389953 3371.64965153 C-596.88039708 3370.91360028 -598.70646682 3370.17648679 -600.53217101 3369.43846989 C-602.70478333 3368.56126166 -604.8783869 3367.68650666 -607.05267882 3366.81346989 C-636.12566982 3355.13984631 -664.98810606 3343.02578884 -693.3554132 3329.7167902 C-696.85170857 3328.0820629 -700.35535944 3326.46364242 -703.86078429 3324.84862614 C-705.71660955 3323.99225961 -707.57230727 3323.13561739 -709.42795348 3322.27886295 C-711.13866792 3321.48958864 -712.85016963 3320.70202137 -714.56171203 3319.91454411 C-722.63358234 3316.17717577 -730.58946256 3312.23642564 -738.53320861 3308.2369318 C-741.95735569 3306.51853542 -745.39202728 3304.8214665 -748.82562804 3303.12206364 C-764.0634242 3295.5659003 -779.19095174 3287.89242337 -794.05121398 3279.61083317 C-796.68529517 3278.15244671 -799.33129311 3276.71818621 -801.98187804 3275.29003239 C-812.79191393 3269.4603551 -823.46091101 3263.43001542 -834.04852843 3257.20507145 C-839.63224562 3253.92272966 -845.24180405 3250.70604624 -850.91156554 3247.57518864 C-858.26713121 3243.4876092 -865.35400292 3239.01218506 -872.44281554 3234.48143864 C-876.00907041 3232.20299802 -879.59305561 3229.95656497 -883.19281554 3227.73143864 C-897.48088943 3218.89440289 -911.49094884 3209.70023324 -925.42914367 3200.32665348 C-928.36991411 3198.35390929 -931.31802555 3196.3929736 -934.27094054 3194.43846989 C-951.71364759 3182.89081087 -968.79707563 3170.86656723 -985.7172296 3158.56786442 C-987.30925032 3157.41081978 -988.90316709 3156.25638468 -990.49750304 3155.10253239 C-993.20313446 3153.14199023 -995.90198104 3151.17247523 -998.59906554 3149.20018864 C-999.28581359 3148.69906559 -999.97256164 3148.19794254 -1000.68012023 3147.68163395 C-1010.56606215 3140.46193848 -1020.35361392 3133.15319068 -1029.92963195 3125.52684879 C-1032.80932267 3123.23842537 -1035.70528576 3120.97074834 -1038.59906554 3118.70018864 C-1039.76315643 3117.78486015 -1040.92721895 3116.8694956 -1042.09125304 3115.95409489 C-1044.44686687 3114.10287967 -1046.8066137 3112.25711108 -1049.16937804 3110.41503239 C-1055.7843204 3105.25104532 -1062.3036396 3100.00306662 -1068.72797179 3094.60253239 C-1071.5374186 3092.25177077 -1074.37653127 3089.94207472 -1077.22406554 3087.63768864 C-1081.63570182 3084.04138342 -1085.86197997 3080.28335523 -1090.06781554 3076.45018864 C-1092.68751364 3074.12156811 -1095.37421864 3071.90455916 -1098.09906554 3069.70018864 C-1102.62148242 3066.03888075 -1106.96879209 3062.23004843 -1111.27094054 3058.31346989 C-1113.33838863 3056.43680979 -1115.42793158 3054.5927429 -1117.53656554 3052.76268864 C-1121.73765226 3049.10477273 -1125.8439661 3045.34555261 -1129.95844054 3041.59081364 C-1132.06705769 3039.68182888 -1134.19372512 3037.80565561 -1136.34906554 3035.95018864 C-1141.56390621 3031.4150828 -1146.57503939 3026.65815058 -1151.61469054 3021.93065739 C-1154.15622958 3019.54657521 -1156.70721435 3017.17367099 -1159.27094054 3014.81346989 C-1167.12841687 3007.56382412 -1174.76067559 3000.12611396 -1182.25848937 2992.50389957 C-1186.34003768 2988.37366757 -1190.50465021 2984.44058079 -1194.93646789 2980.6867609 C-1197.11882352 2978.73545936 -1198.8262718 2976.52315974 -1200.59906554 2974.20018864 C-1202.25231781 2972.52021468 -1203.92078278 2970.85515768 -1205.59906554 2969.20018864 C-1206.77928283 2968.02782658 -1206.77928283 2968.02782658 -1207.98334289 2966.83178043 C-1208.79239074 2966.02909733 -1209.60143859 2965.22641422 -1210.43500304 2964.39940739 C-1212.28142903 2962.56223998 -1214.127781 2960.72499819 -1215.97406554 2958.88768864 C-1217.35465148 2957.51967106 -1217.35465148 2957.51967106 -1218.76312804 2956.12401676 C-1223.39344275 2951.51023889 -1227.87930108 2946.85057944 -1232.13275695 2941.88695621 C-1234.02015892 2939.71578402 -1236.03485856 2937.7027775 -1238.09906554 2935.70018864 C-1241.43068355 2932.40776613 -1244.55885833 2929.02730811 -1247.60687804 2925.47362614 C-1250.10822434 2922.61914859 -1252.69862056 2919.8507555 -1255.28656554 2917.07518864 C-1260.05102715 2911.95256992 -1264.63798137 2906.70408097 -1269.16156554 2901.36840153 C-1272.4521368 2897.50014981 -1275.82933113 2893.73232138 -1279.28656554 2890.01268864 C-1283.47275271 2885.49969875 -1287.42451221 2880.84092893 -1291.28656554 2876.04784489 C-1293.84773616 2872.89397094 -1296.46641587 2869.79434771 -1299.09906554 2866.70018864 C-1304.00498988 2860.92506433 -1308.8160899 2855.07764699 -1313.59906554 2849.20018864 C-1315.03645346 2847.45009658 -1316.47395546 2845.70009821 -1317.91156554 2843.95018864 C-1326.47477636 2833.47741164 -1334.90899626 2822.9090116 -1343.11029601 2812.14989567 C-1344.84302089 2809.88070234 -1346.58252537 2807.61676923 -1348.32172179 2805.35253239 C-1356.39638839 2794.82116582 -1364.30530919 2784.19321761 -1372.02240539 2773.39745426 C-1373.61804877 2771.17373323 -1375.22567059 2768.9591872 -1376.83734679 2766.74706364 C-1384.10826255 2756.75894385 -1391.15119862 2746.63472558 -1398.09076476 2736.41405582 C-1399.46157754 2734.401992 -1400.84146261 2732.39676829 -1402.22797179 2730.39550114 C-1424.0794529 2698.85499809 -1445.01105369 2666.6566418 -1464.27826476 2633.46776676 C-1465.77408379 2630.89971369 -1467.28195245 2628.33892624 -1468.79047179 2625.77831364 C-1488.21630345 2592.7461335 -1506.45145862 2559.02197197 -1523.38959289 2524.64696598 C-1524.77858194 2521.83702487 -1526.18883588 2519.03830364 -1527.60248351 2516.24071598 C-1529.28528 2512.90239257 -1530.94453047 2509.55259354 -1532.59906554 2506.20018864 C-1533.26446349 2504.85271549 -1533.26446349 2504.85271549 -1533.94330382 2503.47802067 C-1543.36104005 2484.33330912 -1552.08644818 2464.91114599 -1560.64734435 2445.3718195 C-1561.56313698 2443.28217018 -1562.48055485 2441.19324188 -1563.39838195 2439.10448551 C-1572.77314328 2417.75420348 -1581.98046871 2396.31027201 -1590.02875304 2374.41893864 C-1591.24820238 2371.11294817 -1592.51502832 2367.8272064 -1593.79437804 2364.54393864 C-1613.45995098 2314.05571866 -1630.10306192 2262.39586836 -1644.59906554 2210.20018864 C-1644.81756164 2209.41577396 -1645.03605773 2208.63135929 -1645.26117492 2207.82317448 C-1663.95328441 2140.67224797 -1678.43811609 2072.16508347 -1688.59906554 2003.20018864 C-1688.81858886 2001.72639744 -1688.81858886 2001.72639744 -1689.04254699 2000.22283268 C-1697.27472467 1944.90174653 -1702.89727373 1889.06656292 -1705.59906554 1833.20018864 C-1705.64237754 1832.32987633 -1705.68568954 1831.45956402 -1705.73031402 1830.56287861 C-1706.53615429 1814.14903387 -1706.77733534 1797.76500195 -1706.80219054 1781.33300114 C-1706.80650402 1779.35626469 -1706.81081797 1777.37952824 -1706.81516504 1775.40279186 C-1706.82687921 1769.88452062 -1706.83447554 1764.36625918 -1706.83796024 1758.8479768 C-1706.84193898 1752.5953573 -1706.85398606 1746.34289283 -1706.88031554 1740.09032536 C-1707.10320961 1685.93723717 -1704.85347709 1632.12731337 -1699.59906554 1578.20018864 C-1699.52021117 1577.3885828 -1699.4413568 1576.57697697 -1699.36011291 1575.74077702 C-1698.23317356 1564.21213737 -1696.95696281 1552.70373393 -1695.59906554 1541.20018864 C-1695.49914306 1540.34648685 -1695.39922057 1539.49278507 -1695.29627013 1538.61321354 C-1686.56262147 1464.11231164 -1673.28241719 1389.87348421 -1654.59906554 1317.20018864 C-1654.34961181 1316.22444889 -1654.10015807 1315.24870914 -1653.84314513 1314.24340153 C-1646.65879266 1286.14774218 -1638.91601419 1258.25698278 -1630.32947326 1230.55748844 C-1629.59126789 1228.17502269 -1628.8559008 1225.79169518 -1628.1210382 1223.40819645 C-1623.22735514 1207.55314922 -1618.27114563 1191.73375586 -1612.64203429 1176.12157536 C-1611.33773007 1172.46818015 -1610.06230963 1168.80504099 -1608.78656554 1165.14159489 C-1599.55046499 1138.66446626 -1599.55046499 1138.66446626 -1594.24896789 1125.76513004 C-1592.26003482 1120.91587235 -1590.47008776 1116.0378677 -1588.78656554 1111.07518864 C-1585.43783533 1101.34347556 -1581.34306371 1091.94083922 -1577.28478026 1082.48835087 C-1574.79787991 1076.68652408 -1572.35154711 1070.86789742 -1569.90765929 1065.04784489 C-1569.0668061 1063.04749898 -1568.22590398 1061.04717364 -1567.38495421 1059.04686832 C-1566.12866695 1056.05851545 -1564.87304279 1053.06989587 -1563.61997008 1050.08019352 C-1558.83661536 1038.67230907 -1553.94963412 1027.35472286 -1548.59906554 1016.20018864 C-1548.07667296 1015.10682194 -1547.55428039 1014.01345524 -1547.01605773 1012.88695621 C-1545.46671264 1009.65494465 -1543.90927038 1006.42697042 -1542.34906554 1003.20018864 C-1538.67234685 995.58462022 -1535.00594204 987.96472531 -1531.37567687 980.32689762 C-1523.11999354 962.97716895 -1514.6694253 945.74755312 -1505.38495421 928.92186832 C-1502.42376328 923.55491887 -1499.50618224 918.16809794 -1496.63812804 912.75096989 C-1496.12676047 911.78527576 -1496.12676047 911.78527576 -1495.60506225 910.80007267 C-1494.90999301 909.48728083 -1494.21492976 908.17448581 -1493.51987243 906.86168766 C-1488.15628571 896.73772013 -1482.69973361 886.70498208 -1476.79437804 876.88378239 C-1474.989539 873.88070016 -1473.26955089 870.83973932 -1471.57709289 867.77221012 C-1460.13767297 847.05403031 -1447.37326426 827.04663869 -1434.52460265 807.18285465 C-1432.82087837 804.54377775 -1431.12632478 801.89901351 -1429.43364501 799.25284672 C-1424.35923494 791.32922966 -1419.17959007 783.4778748 -1413.96014953 775.64916325 C-1412.53192779 773.50572842 -1411.10743954 771.35984323 -1409.68304992 769.21386051 C-1405.05706829 762.26088389 -1400.36285354 755.39009197 -1395.40692687 748.66576481 C-1392.52076482 744.72959322 -1389.75524133 740.71083763 -1386.97406554 736.70018864 C-1380.59209449 727.54250912 -1374.01860786 718.54045852 -1367.36224914 709.58104801 C-1365.56411454 707.15299366 -1363.77729836 704.71698695 -1361.99359679 702.27831364 C-1355.46041304 693.35208403 -1348.82625605 684.53517364 -1341.93451476 675.88280582 C-1340.07037434 673.53405705 -1338.22532904 671.17054958 -1336.37860656 668.80809879 C-1331.20744232 662.19785339 -1325.93917821 655.67507525 -1320.59906554 649.20018864 C-1314.25215114 641.49613436 -1314.25215114 641.49613436 -1308.09906554 633.63768864 C-1304.90710823 629.49696982 -1301.44061982 625.65927443 -1297.91937804 621.79784489 C-1293.09862477 616.40087364 -1288.60318855 610.72456293 -1284.10297179 605.05956364 C-1282.8944757 603.55136051 -1282.8944757 603.55136051 -1281.66156554 602.01268864 C-1280.9306671 601.09100895 -1280.19976867 600.16932926 -1279.44672179 599.21971989 C-1278.83699523 598.55327457 -1278.22726867 597.88682926 -1277.59906554 597.20018864 C-1276.93906554 597.20018864 -1276.27906554 597.20018864 -1275.59906554 597.20018864 C-1275.36574523 596.64846989 -1275.13242492 596.09675114 -1274.89203429 595.52831364 C-1273.2588727 592.58763597 -1271.20567347 590.40941613 -1268.91156554 587.95018864 C-1266.01272513 584.82026629 -1263.12639795 581.68922592 -1260.34906554 578.45018864 C-1256.26957917 573.74906625 -1251.98316809 569.24045781 -1247.72430968 564.70263004 C-1244.6851079 561.45804931 -1241.68093912 558.20082808 -1238.78656554 554.82518864 C-1235.7110552 551.24613126 -1232.39119833 547.95375029 -1229.00531554 544.66893864 C-1227.14117358 542.7563774 -1225.4241128 540.83505938 -1223.69843078 538.8039484 C-1218.60298014 532.96496269 -1213.08536159 527.54234115 -1207.60297179 522.07128239 C-1206.44372281 520.91135808 -1205.28462217 519.75128552 -1204.12566161 518.59107304 C-1201.70752733 516.17147254 -1199.28761474 513.75366892 -1196.86639953 511.33715153 C-1193.78230082 508.25874942 -1190.7027146 505.1758784 -1187.62445712 502.09163666 C-1185.23519521 499.69873995 -1182.8435304 497.30825626 -1180.45116019 494.91846752 C-1179.31547393 493.78344247 -1178.18051368 492.64769044 -1177.04633307 491.51116085 C-1171.55613749 486.01208853 -1166.06721975 480.56093498 -1160.14238524 475.52332401 C-1158.18790696 473.84768976 -1156.3866057 472.05156951 -1154.59906554 470.20018864 C-1151.53064991 467.09038782 -1148.3525418 464.20574359 -1145.04047179 461.36034489 C-1141.78556997 458.48040776 -1138.63688788 455.49300188 -1135.47406554 452.51268864 C-1129.97269574 447.34050761 -1124.3584037 442.34386482 -1118.59540343 437.46581364 C-1114.96326793 434.38719062 -1111.41541294 431.23821624 -1107.91156554 428.01268864 C-1103.58245577 424.04328624 -1099.11717299 420.30325399 -1094.54828429 416.61425114 C-1091.18537694 413.86156671 -1087.88986317 411.03826742 -1084.59906554 408.20018864 C-1078.67811975 403.10021432 -1072.66782964 398.12373276 -1066.59906554 393.20018864 C-1064.84874284 391.76308158 -1063.09874953 390.32557327 -1061.34906554 388.88768864 C-1051.91075001 381.17031953 -1042.41065561 373.53205938 -1032.72235656 366.13012028 C-1029.55865991 363.71228532 -1026.41161479 361.27508765 -1023.27875304 358.81737614 C-1015.95023826 353.07188311 -1008.60953011 347.38630917 -1000.99335265 342.02611637 C-996.01092612 338.51701477 -991.11748594 334.89456603 -986.22406554 331.26268864 C-979.23154214 326.08770895 -972.1548175 321.07263759 -964.96234679 316.18065739 C-960.63416077 313.23512877 -956.34215718 310.23878813 -952.04974914 307.2414484 C-938.17177825 297.55205648 -924.14295452 288.15194788 -909.91547179 278.98534489 C-907.06337361 277.14766935 -904.21725671 275.30130106 -901.37640929 273.44628239 C-891.97672156 267.31605126 -882.46706397 261.39467918 -872.86957335 255.57958317 C-870.59556561 254.19806234 -868.32695785 252.80809222 -866.06000304 251.41503239 C-851.53882056 242.49373652 -836.89454843 233.84870776 -821.97015929 225.61815739 C-818.62442876 223.77241354 -815.29490802 221.90042794 -811.9726007 220.01293278 C-789.83729362 207.4569005 -767.23769851 195.75931917 -744.56842589 184.20470524 C-742.68940379 183.24626769 -740.81155856 182.28556449 -738.93402648 181.32421207 C-721.92218008 172.63074549 -704.68782789 164.55791098 -687.25928283 156.74491215 C-683.42312556 155.02448408 -679.59591059 153.28674529 -675.77875304 151.52440739 C-648.13942733 138.77055797 -619.94486592 127.13109573 -591.49359679 116.31737614 C-588.36565903 115.11010191 -585.26561559 113.84258623 -582.16156554 112.57518864 C-574.31193767 109.39824074 -566.36009997 106.49291149 -558.41156554 103.57518864 C-557.77066985 103.33935062 -557.12977416 103.10351261 -556.46945739 102.86052799 C-549.27595131 100.21612888 -542.06732718 97.64665538 -534.78729796 95.25048161 C-531.07840156 94.02866735 -527.37784778 92.78259472 -523.67719054 91.53612614 C-476.69692236 75.74582716 -429.32563185 61.77123025 -381.21008849 49.84868717 C-378.66962616 49.21771374 -376.13052818 48.58151852 -373.59174132 47.94384098 C-279.37512978 24.33268519 -182.81568308 10.47117368 -74.66156554 2.51268864 C-73.79675567 2.45184086 -72.93194579 2.39099308 -72.04092956 2.32830143 C-67.08557986 1.98291507 -62.12928519 1.66139091 -57.17119098 1.35793018 C-55.58560634 1.26069053 -54.00011701 1.16186322 -52.41479564 1.06042194 C-34.95642669 -0.03175647 -17.48445505 0.01905661 0 0 Z " fill="#000000" transform="translate(1706.599065542221,-0.20018863677978516)"/>
</svg>
