<?xml version="1.0" encoding="UTF-8"?>
<svg version="1.1" xmlns="http://www.w3.org/2000/svg" width="3500" height="3500">
<path d="M0 0 C2.19757316 -0.00298124 4.39514168 -0.00709461 6.5927124 -0.01150417 C13.56168331 -0.0251331 20.53064289 -0.03481371 27.49962616 -0.03870606 C34.5917506 -0.04269535 41.68373906 -0.05479519 48.77581787 -0.08106136 C86.21732252 -0.2167419 123.39557979 0.29224321 160.76177597 3.01070309 C165.99048782 3.38419432 171.22176754 3.71993161 176.45277786 4.05944824 C233.32880297 7.79253114 289.98723507 15.4430098 346.08099365 25.43309879 C349.88025162 26.10868187 353.68343021 26.75850104 357.4887085 27.39940739 C390.54747597 33.02627432 423.41204836 40.13018225 455.92669678 48.32274723 C459.23111465 49.15405605 462.53870141 49.9709306 465.8480835 50.78221989 C480.43006339 54.36774163 494.94004628 58.20351395 509.41448975 62.20018864 C510.64844482 62.53969547 511.8823999 62.87920231 513.15374756 63.22899723 C549.32506367 73.21165918 585.36050278 84.13112163 620.55706787 97.15917301 C624.24250039 98.50184938 627.95380963 99.76027282 631.66888428 101.01805973 C648.10644685 106.59858738 664.22741493 113.02202772 680.37036133 119.39360905 C682.23731004 120.13027643 684.1049184 120.86527152 685.97259521 121.60009098 C708.75419078 130.57382125 731.44434684 139.89002917 753.74945068 149.99657536 C756.44245046 151.21281655 759.13936047 152.42014974 761.83700562 153.62604618 C787.94895484 165.30237966 787.94895484 165.30237966 799.6137085 171.28221989 C804.30657951 173.67866036 809.08478271 175.89404647 813.85198975 178.13768864 C821.1144667 181.56680946 828.2588883 185.15448846 835.3324585 188.95702457 C839.79875386 191.35629153 844.30189458 193.65206894 848.85198975 195.88768864 C868.42836143 205.56921153 887.47057032 216.34561842 906.41448975 227.20018864 C907.49859131 227.82103336 908.58269287 228.44187809 909.699646 229.08153629 C921.64921265 235.93264404 933.5930156 242.79092433 945.35980225 249.95263004 C947.81166415 251.44134372 950.26950345 252.91999718 952.72698975 254.39940739 C954.68549267 255.58272049 956.64382571 256.76631482 958.60198975 257.95018864 C959.90946167 258.73631535 959.90946167 258.73631535 961.24334717 259.5383234 C977.52271203 269.41254822 993.32030846 280.08147285 1009.15350342 290.64940739 C1011.87410882 292.46494936 1014.59637477 294.27798186 1017.31878662 296.09081364 C1029.80420356 304.41246825 1042.21763995 312.80849121 1054.35198975 321.63768864 C1060.62392049 326.19437778 1060.62392049 326.19437778 1066.93792725 330.69237614 C1075.86926486 336.98715652 1084.54824449 343.59252073 1093.2230835 350.23534489 C1097.74195764 353.69398016 1102.29004043 357.11119572 1106.85198975 360.51268864 C1119.64161607 370.07378812 1132.06023321 380.0856095 1144.41448975 390.20018864 C1145.4813501 391.07344791 1145.4813501 391.07344791 1146.56976318 391.96434879 C1155.92239089 399.62696966 1165.21574508 407.35354861 1174.41448975 415.20018864 C1174.99327881 415.69261051 1175.57206787 416.18503239 1176.168396 416.69237614 C1182.92143225 422.43902038 1189.61978996 428.23007824 1196.18792725 434.18846989 C1198.24553366 436.04753533 1200.32295738 437.87947221 1202.41448975 439.70018864 C1211.2200685 447.37865331 1219.81693941 455.29065734 1228.41448975 463.20018864 C1228.9235083 463.66795719 1229.43252686 464.13572575 1229.95697021 464.61766911 C1233.18128389 467.5815144 1236.39736757 470.5540675 1239.60972595 473.53086185 C1240.7484223 474.58410567 1241.88868536 475.63566052 1243.03114319 476.68482304 C1255.85967927 488.46738327 1268.15190186 500.78301018 1280.45379639 513.10912418 C1283.40863191 516.06970941 1286.36801017 519.02570703 1289.32869053 521.98044586 C1291.64093234 524.28905705 1293.95076652 526.60006538 1296.25990105 528.91178417 C1297.35026952 530.00281224 1298.44136041 531.09311889 1299.53323555 532.18263912 C1304.87635985 537.51674269 1310.15708214 542.86371648 1315.05241394 548.6179285 C1316.89723586 550.76097235 1318.8857757 552.73203322 1320.91448975 554.70018864 C1324.19552342 557.94275123 1327.26908971 561.27065885 1330.2699585 564.77050114 C1333.24897795 568.14563794 1336.33410907 571.41768429 1339.41448975 574.70018864 C1344.17982732 579.78713238 1348.89187528 584.89481398 1353.41448975 590.20018864 C1355.37178295 592.49274533 1357.33039449 594.78417178 1359.28948975 597.07518864 C1360.06957397 597.98856998 1360.06957397 597.98856998 1360.86541748 598.92040348 C1363.89406809 602.45738227 1366.96636157 605.94453826 1370.10198975 609.38768864 C1373.89638601 613.57038039 1377.47872797 617.89364665 1381.03167725 622.28221989 C1383.62205368 625.45436939 1386.26154206 628.58042508 1388.91448975 631.70018864 C1396.14161247 640.21546174 1403.18249046 648.86348572 1410.05389404 657.66796207 C1413.02159291 661.46016355 1416.04499746 665.19991718 1419.10614014 668.91698551 C1424.96565128 676.04124729 1430.53957699 683.32498454 1435.97015381 690.78099918 C1439.72175848 695.92627848 1443.547535 701.0044444 1447.434021 706.04857731 C1453.76461832 714.2651903 1459.88579867 722.56152597 1465.63934326 731.19432926 C1468.83940152 735.97983341 1472.19080908 740.62704264 1475.61761475 745.25096989 C1481.46580955 753.16320043 1486.93089313 761.30433344 1492.35198975 769.51268864 C1493.32285072 770.9772632 1494.29404562 772.44161646 1495.26556396 773.90575504 C1497.15083018 776.74755331 1499.03445328 779.59042942 1500.91693115 782.43407536 C1503.46947675 786.28708082 1506.04283433 790.12586565 1508.62078857 793.96190739 C1517.91790725 807.81079041 1526.68723516 821.98772777 1535.41448975 836.20018864 C1536.07642334 837.27566959 1536.73835693 838.35115055 1537.42034912 839.45922184 C1546.89404039 854.87014474 1556.02569388 870.41089253 1564.77337646 886.24901676 C1566.35485987 889.09295776 1567.95882315 891.92251483 1569.574646 894.74706364 C1575.98076994 905.94610865 1582.17148523 917.24621309 1588.22698975 928.63768864 C1588.5776651 929.29624851 1588.92834045 929.95480839 1589.28964233 930.63332462 C1594.15928937 939.78873057 1598.86802327 949.01600059 1603.47422791 958.30658817 C1605.11360395 961.60814003 1606.76486348 964.90375005 1608.41448975 968.20018864 C1609.08766683 969.54784489 1609.76084391 970.89550114 1610.434021 972.24315739 C1611.69682009 974.76937068 1612.96495185 977.2927653 1614.2387085 979.81346989 C1616.31728041 983.93253049 1618.36858104 988.06482343 1620.41448975 992.20018864 C1621.07263672 993.52518375 1621.07263672 993.52518375 1621.74407959 994.87694645 C1648.45023273 1048.83557704 1670.72172232 1105.06582087 1691.13470459 1161.66649723 C1692.37669133 1165.09582117 1693.63829532 1168.51738553 1694.902771 1171.93846989 C1701.3188534 1189.47075948 1707.02260852 1207.21826579 1712.66448975 1225.01268864 C1713.04662628 1226.21277561 1713.42876282 1227.41286259 1713.82247925 1228.64931583 C1718.53191464 1243.46607895 1722.88819854 1258.32742083 1726.85418701 1273.36010075 C1728.14687272 1278.24605281 1729.53105747 1283.09562727 1730.9887085 1287.93456364 C1734.01429882 1298.03238172 1736.62324616 1308.23684679 1739.22698975 1318.45018864 C1739.48772278 1319.47054203 1739.74845581 1320.49089542 1740.01708984 1321.54216862 C1744.80308186 1340.32146532 1749.07677049 1359.17430419 1752.99060059 1378.15252018 C1753.67162666 1381.4423321 1754.36613718 1384.72926002 1755.059021 1388.01659489 C1756.54064185 1395.07184432 1757.98688866 1402.13382667 1759.41448975 1409.20018864 C1759.61606689 1410.1919611 1759.81764404 1411.18373356 1760.02532959 1412.20555973 C1761.57069619 1419.85544504 1763.02019311 1427.52140831 1764.41448975 1435.20018864 C1764.55328552 1435.96448185 1764.6920813 1436.72877506 1764.83508301 1437.51622868 C1777.37345629 1506.83152639 1785.37504027 1576.59052492 1789.652771 1646.87987614 C1789.74764549 1648.43757473 1789.74764549 1648.43757473 1789.84443665 1650.02674198 C1790.04461043 1653.41738295 1790.22977373 1656.8086707 1790.41448975 1660.20018864 C1790.47729567 1661.25793523 1790.47729567 1661.25793523 1790.54137039 1662.33705044 C1791.46917577 1678.05032331 1791.59392543 1693.74594069 1791.61467838 1709.48323464 C1791.61766277 1711.64513365 1791.62177647 1713.80702798 1791.62618256 1715.96892452 C1791.63980488 1722.82790118 1791.64948909 1729.68686637 1791.65338445 1736.54585558 C1791.65737422 1743.52094546 1791.66947998 1750.49589709 1791.69573975 1757.47094059 C1791.83248874 1794.59503884 1791.27569986 1831.46246889 1788.6039753 1868.51385403 C1788.22726339 1873.85449464 1787.89282803 1879.19794648 1787.55523014 1884.54117966 C1783.68722269 1945.15742701 1775.18338735 2005.45602478 1764.41448975 2065.20018864 C1764.25077881 2066.10984379 1764.08706787 2067.01949894 1763.918396 2067.9567194 C1759.12176862 2094.53624498 1753.56266453 2120.9017317 1747.41448975 2147.20018864 C1747.13895264 2148.38274235 1746.86341553 2149.56529606 1746.57952881 2150.78368473 C1745.16943972 2156.81002778 1743.72069964 2162.82591157 1742.24066162 2168.83544254 C1741.63864644 2171.28726677 1741.04092118 2173.73989396 1740.44769287 2176.19384098 C1735.55818119 2196.40506566 1730.1980595 2216.41224109 1724.18463135 2236.31871891 C1722.7685811 2241.00672788 1721.38340511 2245.7031675 1720.00823975 2250.40331364 C1694.05788749 2338.85093341 1660.60378651 2425.2313414 1614.1730957 2520.67961979 C1611.70944871 2525.58654293 1609.34742716 2530.53128518 1607.03948975 2535.51268864 C1602.9177087 2544.2895631 1598.48394133 2552.87109754 1593.90423584 2561.41649723 C1592.22993051 2564.54505005 1590.5663538 2567.6792029 1588.902771 2570.81346989 C1581.45765522 2584.81094598 1573.84954929 2598.70208758 1565.97747803 2612.46532536 C1564.39778109 2615.22942486 1562.82532774 2617.99754127 1561.2543335 2620.76659489 C1555.85363302 2630.27355704 1550.38740382 2639.731648 1544.70599365 2649.07372379 C1543.21203574 2651.53352974 1541.72559074 2653.99781822 1540.2387085 2656.46190739 C1539.06841777 2658.39567194 1537.89784449 2660.32926553 1536.72698975 2662.26268864 C1536.21152588 2663.11717594 1535.69606201 2663.97166325 1535.16497803 2664.85204411 C1524.69490995 2682.09190269 1513.66878305 2698.99366352 1502.57244873 2715.83471012 C1500.7129857 2718.6589587 1498.85960294 2721.48713819 1497.00628662 2724.31542301 C1490.81924052 2733.72843822 1484.50389919 2742.98481199 1477.7711792 2752.01586246 C1474.67164338 2756.20391237 1471.75151546 2760.49762383 1468.85198975 2764.82518864 C1464.45050586 2771.32240048 1459.90368288 2777.60703697 1455.059021 2783.78221989 C1451.83235832 2787.91378604 1448.75813664 2792.15622186 1445.66448975 2796.38768864 C1438.76297305 2805.80338306 1431.62913078 2815.02325216 1424.41448975 2824.20018864 C1423.43519662 2825.44878738 1422.45602377 2826.69748047 1421.47698975 2827.94628239 C1419.67258154 2830.24674456 1417.86494547 2832.54461584 1416.05511475 2834.84081364 C1414.26416079 2837.11466185 1412.48414884 2839.3965243 1410.71136475 2841.68456364 C1405.53329329 2848.35160843 1400.21110794 2854.85007369 1394.68426514 2861.23143864 C1391.8554102 2864.50176988 1389.09403797 2867.80498468 1386.41448975 2871.20018864 C1381.78598843 2877.05023256 1376.91332029 2882.68348025 1372.03509521 2888.32518864 C1370.38941456 2890.2292 1368.74748241 2892.13639689 1367.105896 2894.04393864 C1361.35808214 2900.71184206 1355.54956429 2907.30698229 1349.60198975 2913.79784489 C1347.71788634 2915.86699416 1345.86994227 2917.9587279 1344.03948975 2920.07518864 C1339.4837445 2925.31376221 1334.7375134 2930.37875648 1330.01702881 2935.46825504 C1328.41319174 2937.20159145 1326.815286 2938.94020403 1325.21917725 2940.68065739 C1320.59743921 2945.71615376 1315.96876971 2950.71778037 1311.08235168 2955.49988651 C1309.46190563 2957.1518505 1307.97273258 2958.8612512 1306.47869873 2960.62767887 C1301.33263563 2966.53788782 1295.74339736 2972.01532769 1290.199646 2977.54784489 C1289.01797675 2978.73018941 1287.83645584 2979.91268221 1286.65507507 2981.09531498 C1284.18986252 2983.56199398 1281.72287089 2986.02687567 1279.25457764 2988.49047184 C1276.10994491 2991.62940795 1272.96982419 2994.77281335 1269.83103275 2997.91758919 C1267.39544742 3000.3568087 1264.95745986 3002.79361604 1262.5187664 3005.22972775 C1261.36075136 3006.38708141 1260.20346282 3007.54516251 1259.0469532 3008.7040205 C1253.53450446 3014.22520753 1248.03721475 3019.71703519 1242.07218933 3024.75656986 C1240.26689489 3026.32872261 1238.59018521 3027.9912681 1236.91448975 3029.70018864 C1234.5868715 3032.06742452 1232.20197115 3034.29443392 1229.684021 3036.45800114 C1225.5474773 3040.05359025 1221.57157831 3043.79747168 1217.60198975 3047.57518864 C1212.29816595 3052.58973524 1206.90182704 3057.34840371 1201.18792725 3061.89550114 C1197.80601215 3064.70582495 1194.61474178 3067.68653897 1191.41448975 3070.70018864 C1186.51424844 3075.30879615 1181.51027381 3079.68224406 1176.25823975 3083.89159489 C1172.92217853 3086.59985338 1169.66747932 3089.393223 1166.41448975 3092.20018864 C1160.49244385 3097.29924082 1154.48650678 3102.28017483 1148.41448975 3107.20018864 C1147.16548107 3108.21933915 1145.91680522 3109.23889766 1144.668396 3110.25878239 C1132.39549951 3120.27516017 1119.96338933 3130.07130898 1107.38031006 3139.69530582 C1105.94898311 3140.79102109 1104.51879749 3141.88822775 1103.08929443 3142.98632145 C1091.72796238 3151.71263254 1080.2791163 3160.28365119 1068.62493896 3168.61473942 C1066.36232827 3170.23760156 1064.10803826 3171.87142837 1061.855896 3173.50878239 C1061.0910791 3174.06412663 1060.32626221 3174.61947086 1059.53826904 3175.19164371 C1058.12602375 3176.21751857 1056.71460212 3177.24452925 1055.30438232 3178.27318668 C1042.27816263 3187.71464103 1028.86770607 3196.61951658 1015.47869873 3205.53417301 C1012.98153272 3207.19716324 1010.48602385 3208.86261837 1007.99066162 3210.52831364 C994.15213016 3219.75629923 980.26662328 3228.91548697 966.10198975 3237.63768864 C964.79633057 3238.44363468 964.79633057 3238.44363468 963.46429443 3239.26586246 C954.16363554 3244.99288981 944.80381686 3250.61994304 935.41448975 3256.20018864 C934.33288574 3256.84335026 934.33288574 3256.84335026 933.22943115 3257.49950504 C914.50798653 3268.61441414 895.56167433 3279.27509941 876.39007568 3289.59325504 C872.54160697 3291.67157972 868.70499956 3293.77118137 864.86907959 3295.87255192 C848.88977805 3304.62211477 832.86064661 3313.0838409 816.37542725 3320.84471989 C812.16407757 3322.83203549 808.00154515 3324.90017762 803.85198975 3327.01268864 C771.80565263 3343.25727754 738.53753963 3357.33068265 705.41448975 3371.20018864 C704.57885498 3371.55097477 703.74322021 3371.9017609 702.88226318 3372.26317692 C702.11688232 3372.58399235 701.35150146 3372.90480778 700.56292725 3373.23534489 C699.59878906 3373.63958683 699.59878906 3373.63958683 698.61517334 3374.05199528 C692.77175221 3376.46579563 686.90682431 3378.7997203 680.980896 3381.00487614 C679.95276039 3381.38889843 679.95276039 3381.38889843 678.90385437 3381.78067875 C676.74110529 3382.58818429 674.57780042 3383.39418901 672.41448975 3384.20018864 C671.02513064 3384.71889053 669.63580735 3385.23768839 668.246521 3385.75658512 C657.97637656 3389.59054552 647.69778887 3393.40166386 637.41448975 3397.20018864 C636.27238037 3397.62235661 635.130271 3398.04452457 633.95355225 3398.47948551 C596.10401799 3412.4227963 557.49917247 3425.53538561 518.4262085 3435.60253239 C513.71392575 3436.82557682 509.04796165 3438.18382721 504.38323975 3439.57518864 C495.05107669 3442.34781142 485.65743386 3444.84768892 476.22698975 3447.26268864 C475.32640839 3447.49363224 474.42582703 3447.72457584 473.49795532 3447.96251774 C425.94317741 3460.1059175 377.85331651 3469.82517808 329.44799805 3477.86095524 C326.26767399 3478.39150244 323.08936697 3478.93393598 319.9105835 3479.47362614 C258.73602995 3489.73917726 196.95420359 3495.56691907 135.04667664 3498.99765873 C132.4323511 3499.14343292 129.81952786 3499.29912011 127.20625305 3499.46143436 C111.85227753 3500.36988732 96.49775481 3500.40131001 81.121521 3500.43846989 C79.66183649 3500.44253944 78.20215212 3500.4466568 76.74246788 3500.45081997 C69.83594396 3500.46982477 62.92943005 3500.48403693 56.02288514 3500.49243194 C49.02644322 3500.50109263 42.03022752 3500.52001415 35.03387451 3500.55687809 C-8.01407444 3500.77882992 -50.65134985 3499.42766921 -93.58551025 3496.20018864 C-95.50709371 3496.0584465 -97.42869785 3495.91698447 -99.35032654 3495.77585697 C-107.93759197 3495.14119765 -116.51810876 3494.46854129 -125.08892822 3493.63622379 C-125.80860779 3493.56647343 -126.52828735 3493.49672306 -127.26977539 3493.42485905 C-128.0339679 3493.35071781 -128.7981604 3493.27657658 -129.58551025 3493.20018864 C-130.42704651 3493.11960209 -131.26858276 3493.03901554 -132.13562012 3492.95598698 C-198.21067991 3486.61883231 -263.67035519 3475.96436838 -328.58551025 3462.20018864 C-330.29770752 3461.83739811 -330.29770752 3461.83739811 -332.04449463 3461.46727848 C-362.42965157 3454.97773337 -392.65254005 3447.52506425 -422.58551025 3439.20018864 C-424.64667508 3438.63236018 -426.70787347 3438.06465354 -428.769104 3437.49706364 C-465.38955652 3427.37037871 -501.78056692 3416.36207836 -537.47467041 3403.32323551 C-541.42741518 3401.89625184 -545.39970188 3400.53093394 -549.37579346 3399.17064762 C-568.90523049 3392.48478833 -588.08019704 3384.90041906 -607.16461182 3377.04271793 C-612.40838115 3374.88564033 -617.66176391 3372.77894731 -622.9644165 3370.77050114 C-630.14220731 3368.0275846 -637.17502471 3364.97174018 -644.21051025 3361.88768864 C-646.85955448 3360.73114262 -649.50951962 3359.57671814 -652.159729 3358.42284489 C-652.80444656 3358.14192997 -653.44916412 3357.86101505 -654.11341858 3357.57158756 C-660.06093504 3354.98432182 -666.03458613 3352.46130389 -672.03521729 3349.99974918 C-684.59287869 3344.79031322 -696.79391742 3338.69254817 -709.02301025 3332.76268864 C-709.69905304 3332.43525669 -710.37509583 3332.10782475 -711.07162476 3331.77047062 C-719.79910405 3327.54274581 -728.5145776 3323.2937503 -737.17144775 3318.92284489 C-740.03777164 3317.47656476 -742.91177233 3316.04719165 -745.78912354 3314.6230402 C-766.81489707 3304.18471291 -787.60327805 3293.37728997 -807.96392822 3281.69091129 C-812.22616042 3279.26725793 -816.53126802 3276.92314733 -820.83551025 3274.57518864 C-841.97249442 3263.00994557 -862.5654053 3250.54083934 -883.0112915 3237.8027277 C-884.62198837 3236.80001391 -886.2337911 3235.79907186 -887.847229 3234.80077457 C-903.43304412 3225.15545456 -918.62126252 3214.90541017 -933.84527588 3204.70336246 C-936.2003731 3203.1257618 -938.55797719 3201.55209761 -940.91949463 3199.98412418 C-947.06930992 3195.89974256 -953.16921892 3191.75593963 -959.21051025 3187.51268864 C-960.06314453 3186.91456364 -960.91577881 3186.31643864 -961.79425049 3185.70018864 C-970.45002417 3179.61416033 -979.0383708 3173.437688 -987.58551025 3167.20018864 C-988.36281494 3166.63300114 -989.14011963 3166.06581364 -989.940979 3165.48143864 C-1000.61315752 3157.68186935 -1011.17998143 3149.75586938 -1021.65142822 3141.68895817 C-1023.49288206 3140.27148966 -1025.3373921 3138.85811815 -1027.1831665 3137.44628239 C-1032.82016608 3133.13077128 -1038.41390107 3128.7690626 -1043.940979 3124.31346989 C-1045.89192988 3122.75443824 -1047.85090152 3121.21141737 -1049.8237915 3119.68065739 C-1056.57128188 3114.43926084 -1063.15718812 3109.06483929 -1069.61578369 3103.47069645 C-1072.88652499 3100.64169849 -1076.18998782 3097.87998821 -1079.58551025 3095.20018864 C-1085.45731925 3090.55647041 -1091.10126085 3085.65576688 -1096.7666626 3080.76464176 C-1098.55031184 3079.230464 -1100.34170258 3077.7059228 -1102.1362915 3076.18456364 C-1109.14347491 3070.23574676 -1115.97235107 3064.13621642 -1122.6987915 3057.87206364 C-1124.98644734 3055.75466635 -1127.29207062 3053.67788378 -1129.64801025 3051.63768864 C-1134.52155061 3047.41667251 -1139.25106645 3043.03864723 -1143.99127197 3038.66942692 C-1145.55405784 3037.22917495 -1147.11849031 3035.79073017 -1148.6831665 3034.35253239 C-1151.38798366 3031.86442497 -1154.08480649 3029.36780427 -1156.7804718 3026.86979008 C-1157.91926719 3025.81644165 -1159.05963139 3024.76478442 -1160.20219421 3023.71552372 C-1173.03072913 3011.9329844 -1185.32293313 2999.6173563 -1197.62481689 2987.29125309 C-1200.57965242 2984.33066786 -1203.53903067 2981.37467024 -1206.49971104 2978.41993141 C-1208.81195285 2976.11132023 -1211.12178702 2973.8003119 -1213.43092155 2971.4885931 C-1214.52129003 2970.39756504 -1215.61238092 2969.30725838 -1216.70425606 2968.21773815 C-1222.04738036 2962.88363458 -1227.32810265 2957.53666079 -1232.22343445 2951.78244877 C-1234.06825637 2949.63940492 -1236.0567962 2947.66834406 -1238.08551025 2945.70018864 C-1241.38814876 2942.43633951 -1244.48601673 2939.08604674 -1247.50738525 2935.56346989 C-1250.30396067 2932.38315386 -1253.19528209 2929.29529064 -1256.08551025 2926.20018864 C-1260.10160152 2921.894889 -1264.0768046 2917.57050973 -1267.92144775 2913.11034489 C-1269.90091151 2910.83814353 -1271.93134195 2908.61558991 -1273.96051025 2906.38768864 C-1277.08973852 2902.92488781 -1280.09051374 2899.3933986 -1283.02301025 2895.76268864 C-1286.05268739 2892.01366008 -1289.18155974 2888.42045997 -1292.46051025 2884.88768864 C-1296.65965364 2880.32621547 -1300.48477606 2875.57942791 -1304.26641846 2870.67577457 C-1307.74637039 2866.19312463 -1311.4005389 2861.89819687 -1315.14801025 2857.63768864 C-1319.55963417 2852.61249774 -1323.75816702 2847.51120411 -1327.78594971 2842.1711359 C-1331.02942594 2837.88129337 -1334.41591278 2833.72540832 -1337.83551025 2829.57518864 C-1343.16269995 2823.08064272 -1348.19631284 2816.4086878 -1353.14093018 2809.61962223 C-1356.89269244 2804.47431874 -1360.71848625 2799.39602277 -1364.6050415 2794.35179996 C-1370.93563883 2786.13518697 -1377.05681918 2777.8388513 -1382.81036377 2769.20604801 C-1386.01042203 2764.42054387 -1389.36182959 2759.77333463 -1392.78863525 2755.14940739 C-1398.63683006 2747.23717685 -1404.10191364 2739.09604383 -1409.52301025 2730.88768864 C-1410.49387123 2729.42311407 -1411.46506613 2727.95876081 -1412.43658447 2726.49462223 C-1414.32185069 2723.65282396 -1416.20547379 2720.80994785 -1418.08795166 2717.96630192 C-1420.64049726 2714.11329645 -1423.21385484 2710.27451162 -1425.79180908 2706.43846989 C-1432.25208434 2696.81531679 -1438.45473781 2687.03592117 -1444.58551025 2677.20018864 C-1445.62965088 2675.52569645 -1445.62965088 2675.52569645 -1446.69488525 2673.81737614 C-1452.76498969 2664.00989335 -1458.67868347 2654.10657292 -1464.58551025 2644.20018864 C-1465.01621826 2643.4781525 -1465.44692627 2642.75611637 -1465.89068604 2642.01220036 C-1473.32595596 2629.52366242 -1480.48982785 2616.88420037 -1487.58551025 2604.20018864 C-1488.52620361 2602.52037907 -1488.52620361 2602.52037907 -1489.48590088 2600.80663395 C-1498.39998573 2584.86992345 -1506.99076787 2568.79371464 -1515.31988525 2552.54393864 C-1517.76742685 2547.77109361 -1520.27031628 2543.03546201 -1522.83551025 2538.32518864 C-1531.60977304 2521.96799615 -1539.13627901 2504.93030618 -1546.88238525 2488.07128239 C-1548.92646927 2483.62350699 -1550.99636979 2479.18943531 -1553.08551025 2474.76268864 C-1573.7703264 2430.4096694 -1591.6674374 2384.86295309 -1608.27056885 2338.84374332 C-1609.16360529 2336.36923982 -1610.05917334 2333.89582995 -1610.95904541 2331.42382145 C-1617.4063279 2313.70061014 -1623.31665763 2295.86709284 -1628.84176636 2277.83580875 C-1630.42903409 2272.67012418 -1632.09209592 2267.53145539 -1633.77105713 2262.39501286 C-1637.19723881 2251.89773985 -1640.27696118 2241.35078686 -1643.0647583 2230.66552067 C-1644.58408984 2224.84702601 -1646.20582367 2219.07070594 -1647.92926025 2213.30956364 C-1651.01942921 2202.92618383 -1653.72233498 2192.44679736 -1656.39801025 2181.95018864 C-1656.79010681 2180.415172 -1656.79010681 2180.415172 -1657.19012451 2178.84914494 C-1661.58179178 2161.60959662 -1665.57931971 2144.31861529 -1669.18821716 2126.89954472 C-1670.2825586 2121.61993766 -1671.41798069 2116.35031951 -1672.56988525 2111.08300114 C-1677.79561215 2087.07326418 -1682.11129884 2062.93914199 -1686.16491699 2038.70617008 C-1686.54741453 2036.42717084 -1686.93405797 2034.14894203 -1687.32330322 2031.87108707 C-1697.9298174 1969.6659466 -1703.89732625 1906.80784509 -1707.38284302 1843.83059025 C-1707.52846068 1841.22212431 -1707.68458917 1838.61534336 -1707.84799194 1836.00801945 C-1708.72947403 1821.21714468 -1708.76651184 1806.42705622 -1708.78569889 1791.61467838 C-1708.78868014 1789.41710523 -1708.7927935 1787.21953671 -1708.79720306 1785.02196598 C-1708.81083199 1778.05299508 -1708.8205126 1771.0840355 -1708.82440495 1764.11505222 C-1708.82839425 1757.02292778 -1708.84049408 1749.93093932 -1708.86676025 1742.83886051 C-1709.00244079 1705.39735586 -1708.49345568 1668.21909859 -1705.7749958 1630.85290241 C-1705.40150457 1625.62419057 -1705.06576728 1620.39291084 -1704.72625065 1615.16190052 C-1700.76331395 1554.78389846 -1692.31361555 1494.71804313 -1681.58551025 1435.20018864 C-1681.33994385 1433.83570591 -1681.33994385 1433.83570591 -1681.0894165 1432.44365788 C-1676.29278913 1405.86413229 -1670.73368504 1379.49864557 -1664.58551025 1353.20018864 C-1664.30997314 1352.01763493 -1664.03443604 1350.83508121 -1663.75054932 1349.61669254 C-1662.34046022 1343.5903495 -1660.89172014 1337.57446571 -1659.41168213 1331.56493473 C-1658.80966695 1329.1131105 -1658.21194169 1326.66048331 -1657.61871338 1324.20653629 C-1652.72899092 1303.99444036 -1647.36885176 1283.98629242 -1641.35482788 1264.07904911 C-1640.15572459 1260.10945725 -1638.97577907 1256.13484743 -1637.8119812 1252.15476322 C-1619.19567952 1188.49521702 -1596.57528382 1126.21136478 -1570.58551025 1065.20018864 C-1570.29827087 1064.52494144 -1570.01103149 1063.84969425 -1569.71508789 1063.15398502 C-1558.97250206 1037.91139592 -1547.50634261 1013.04303069 -1535.550354 988.35253239 C-1533.44545494 983.99992792 -1531.37738127 979.63303772 -1529.34576416 975.24584293 C-1525.6190963 967.20211547 -1521.57777787 959.35923324 -1517.409729 951.53612614 C-1515.33777105 947.64111186 -1513.30642412 943.72710569 -1511.2925415 939.80175114 C-1504.68072256 926.92034374 -1497.8697968 914.2012839 -1490.67926025 901.63378239 C-1487.68574651 896.39979904 -1484.78450956 891.11872269 -1481.89801025 885.82518864 C-1477.43487721 877.6710358 -1472.81515796 869.62651725 -1468.04742432 861.64696598 C-1466.99023237 859.87756423 -1465.93516149 858.1068946 -1464.88140869 856.33544254 C-1457.12338649 843.29461597 -1449.25620411 830.33987955 -1441.08355713 817.55468082 C-1439.55661757 815.15477778 -1438.04611894 812.7451661 -1436.53863525 810.33300114 C-1417.42098617 779.85014693 -1396.78932163 750.26169771 -1375.58551025 721.20018864 C-1375.0342749 720.44415348 -1374.48303955 719.68811832 -1373.9151001 718.90917301 C-1361.55333655 701.97993929 -1348.89312151 685.2758299 -1335.87994385 668.8417902 C-1334.5309285 667.13096802 -1333.19194631 665.41267548 -1331.8550415 663.69237614 C-1326.9387942 657.37594829 -1321.92391781 651.17855869 -1316.71490479 645.10106754 C-1313.34967508 641.15599762 -1310.1364916 637.11106904 -1306.96051025 633.01268864 C-1303.08428428 628.01755911 -1299.03727723 623.2695646 -1294.753479 618.61425114 C-1292.49998033 616.10494992 -1290.38389879 613.51777238 -1288.27301025 610.88768864 C-1283.86412918 605.43642762 -1279.15027045 600.32305366 -1274.3706665 595.20018864 C-1271.60954678 592.23874696 -1268.93496375 589.21033226 -1266.284729 586.14940739 C-1263.52364649 582.98209664 -1260.70207253 579.86962484 -1257.8862915 576.75096989 C-1256.42140916 575.12691527 -1254.96007194 573.49965079 -1253.503479 571.86815739 C-1247.90654774 565.60665544 -1242.19571212 559.45689817 -1236.45025635 553.33202457 C-1234.12710566 550.85280938 -1231.81305977 548.36607267 -1229.51348877 545.86498356 C-1218.22895782 533.64080024 -1206.44968019 521.91085484 -1194.67657471 510.160882 C-1191.71598948 507.20604647 -1188.75999186 504.24666822 -1185.80525303 501.28598785 C-1183.49664184 498.97374604 -1181.18563352 496.66391187 -1178.87391472 494.35477734 C-1177.78288665 493.26440886 -1176.69258 492.17331797 -1175.60305977 491.08144283 C-1170.30339705 485.77281762 -1164.9977199 480.51906667 -1159.26847839 475.66907597 C-1157.45597663 474.08713225 -1155.76956925 472.41753642 -1154.08551025 470.70018864 C-1151.82753082 468.40692828 -1149.52554522 466.23590836 -1147.08551025 464.13768864 C-1142.98040473 460.60184579 -1139.03555785 456.90683626 -1135.08551025 453.20018864 C-1130.60615791 449.00041966 -1126.11695614 444.83323693 -1121.46051025 440.82909489 C-1119.19799844 438.86353775 -1116.98860343 436.84345554 -1114.77301025 434.82518864 C-1111.31020943 431.69596037 -1107.77872022 428.69518515 -1104.14801025 425.76268864 C-1100.32095299 422.6687015 -1096.64270153 419.47188313 -1093.02301025 416.13768864 C-1088.8906306 412.33847113 -1084.64685914 408.78366931 -1080.23394775 405.31737614 C-1077.21358942 402.90287139 -1074.27367707 400.40065805 -1071.33551025 397.88768864 C-1066.33047569 393.61944703 -1061.22365957 389.50972605 -1056.0322876 385.47094059 C-1051.45441903 381.90343425 -1046.95149753 378.25123174 -1042.46051025 374.57518864 C-1037.06954173 370.17407281 -1031.61577455 365.89743293 -1026.019104 361.75878239 C-1022.37408926 359.05815276 -1018.77958655 356.29246794 -1015.17926025 353.53270817 C-1005.49900805 346.11778797 -995.7153621 338.87660756 -985.79595947 331.78563786 C-983.53334878 330.16277571 -981.27905877 328.5289489 -979.0269165 326.89159489 C-977.87969116 326.05857853 -977.87969116 326.05857853 -976.70928955 325.20873356 C-975.29704426 324.18285871 -973.88562262 323.15584802 -972.47540283 322.12719059 C-959.51236205 312.73152856 -946.16694961 303.87297309 -932.83551025 295.01268864 C-931.42007113 294.07074334 -930.00470645 293.12868619 -928.5894165 292.18651676 C-925.85180744 290.36417475 -923.11352261 288.54285468 -920.37481689 286.72216129 C-917.991294 285.1370005 -915.61001434 283.54859939 -913.23175049 281.95555973 C-907.25372909 277.9543759 -901.24004725 274.02549671 -895.14801025 270.20018864 C-893.91909058 269.42675114 -893.91909058 269.42675114 -892.66534424 268.63768864 C-873.85066062 256.81268862 -854.79501153 245.37203017 -835.58551025 234.20018864 C-834.41761963 233.52053043 -834.41761963 233.52053043 -833.22613525 232.82714176 C-820.62861928 225.51536697 -807.87229159 218.53026592 -795.03082275 211.65721989 C-789.00972435 208.43414014 -783.01358294 205.16706073 -777.02301025 201.88768864 C-773.5452746 199.98922057 -770.06602783 198.0935514 -766.58551025 196.20018864 C-765.84043213 195.79461735 -765.095354 195.38904606 -764.32769775 194.97118473 C-755.11499929 189.97329581 -745.7782293 185.31992426 -736.29644775 180.85326481 C-731.16601273 178.43622039 -726.0770827 175.96001952 -721.02301025 173.38768864 C-700.2656855 162.89262499 -678.8966561 153.50189306 -657.58551025 144.20018864 C-656.91523804 143.90759159 -656.24496582 143.61499454 -655.55438232 143.31353092 C-636.04216028 134.80453929 -616.45780241 126.55534934 -596.56903076 118.9579401 C-594.41356329 118.13450086 -592.25882147 117.30917777 -590.10406494 116.48388004 C-558.03223105 104.21118105 -558.03223105 104.21118105 -542.3862915 98.86425114 C-538.9268978 97.67870834 -535.49388867 96.43480168 -532.065979 95.16112614 C-515.68680462 89.11425035 -499.1069335 83.77142108 -482.46051025 78.51268864 C-481.32776672 78.15306034 -480.19502319 77.79343204 -479.0279541 77.42290592 C-463.60729198 72.53530469 -448.11752555 68.07188066 -432.47131348 63.9642725 C-428.69051516 62.96321776 -424.91916559 61.92927189 -421.14881897 60.88964176 C-407.6673403 57.17290504 -394.14004012 53.64019673 -380.58551025 50.20018864 C-379.2441991 49.85775074 -377.90289057 49.51530259 -376.56158447 49.17284489 C-350.29953444 42.48764378 -323.83308451 36.957738 -297.24707031 31.72429752 C-294.85639918 31.25353152 -292.46624211 30.78025791 -290.07623291 30.30614567 C-211.57853641 14.78312545 -132.07179935 5.82253145 -52.21591187 1.40285587 C-49.60744592 1.25723821 -47.00066498 1.10110972 -44.39334106 0.93770695 C-29.60246629 0.05622486 -14.81237784 0.01918705 0 0 Z M-59.39801025 166.51268864 C-60.32230835 166.57676914 -61.24660645 166.64084965 -62.19891357 166.70687199 C-115.66002302 170.41966816 -168.71384252 176.41830718 -221.58551025 185.20018864 C-222.3746582 185.33102848 -223.16380615 185.46186832 -223.97686768 185.59667301 C-285.95664981 195.90374663 -347.37869664 210.25846905 -407.58551025 228.20018864 C-409.37058682 228.72780206 -411.15573482 229.25517389 -412.940979 229.78221989 C-417.82976325 231.23124058 -422.70822236 232.71300696 -427.58551025 234.20018864 C-428.63819092 234.51923161 -429.69087158 234.83827457 -430.77545166 235.16698551 C-469.00898259 246.77484762 -506.42219481 260.55924718 -543.58551025 275.20018864 C-544.29556213 275.47949223 -545.00561401 275.75879581 -545.73718262 276.04656315 C-570.26698449 285.70429461 -594.37356305 296.16442212 -618.32995605 307.16454411 C-620.48856482 308.15567585 -622.64801459 309.14495174 -624.80767822 310.13378239 C-628.57000907 311.85768258 -632.32858113 313.58954498 -636.08551025 315.32518864 C-637.65667603 316.05052799 -637.65667603 316.05052799 -639.25958252 316.79052067 C-647.78643232 320.76028171 -656.19214904 324.95765356 -664.58551025 329.20018864 C-665.70049896 329.76334782 -665.70049896 329.76334782 -666.8380127 330.33788395 C-687.00481744 340.53264464 -707.05130944 350.82826542 -726.58551025 362.20018864 C-729.16598922 363.68436622 -731.75055088 365.1613326 -734.33551025 366.63768864 C-735.41961182 367.25901676 -736.50371338 367.88034489 -737.6206665 368.52050114 C-740.32188547 370.05083599 -743.04000531 371.54011063 -745.77301025 373.01268864 C-766.04305047 384.00963128 -785.61017471 396.2391303 -805.06549072 408.60253239 C-807.67364765 410.25606648 -810.28736664 411.9005344 -812.9019165 413.54393864 C-825.15209359 421.26349815 -837.17896306 429.26399022 -849.09771729 437.48534489 C-851.37011224 439.05171409 -853.64655392 440.61190884 -855.925354 442.16893864 C-870.37518846 452.04922709 -884.64536203 462.1323712 -898.60162354 472.70018864 C-901.25659462 474.70758986 -903.91958784 476.70418116 -906.58331299 478.6999445 C-907.91800684 479.70002908 -909.25215445 480.70084307 -910.58575439 481.7023859 C-913.91167342 484.19997203 -917.242861 486.68987243 -920.58551025 489.16503239 C-928.10800015 494.74768568 -935.47890089 500.4709654 -942.72174072 506.41259098 C-947.00462595 509.92575561 -951.33509148 513.36573126 -955.71051025 516.76268864 C-961.12150744 520.97584907 -966.35478546 525.36461828 -971.53814697 529.85399723 C-975.08914141 532.92818678 -978.68290736 535.93375522 -982.33551025 538.88768864 C-986.71922139 542.44464724 -990.90792672 546.16985382 -995.07769775 549.97362614 C-997.56141562 552.1787962 -1000.11345731 554.25529868 -1002.71051025 556.32518864 C-1008.31402824 560.85263987 -1013.53491958 565.74368957 -1018.75201416 570.70848942 C-1022.61649744 574.38223014 -1026.5521413 577.94170761 -1030.57891846 581.43651676 C-1033.98382877 584.42922538 -1037.2841726 587.53167746 -1040.58551025 590.63768864 C-1041.28611572 591.29511051 -1041.98672119 591.95253239 -1042.70855713 592.62987614 C-1046.7917286 596.47330874 -1050.80214289 600.3717396 -1054.72859192 604.37571049 C-1056.51569338 606.13159146 -1058.35947715 607.76219906 -1060.26495361 609.38793278 C-1064.77085385 613.30777845 -1068.99842743 617.46885468 -1073.2144165 621.69628239 C-1074.00774887 622.48865803 -1074.80108124 623.28103367 -1075.61845398 624.09742069 C-1077.28440106 625.76269146 -1078.94910282 627.42920892 -1080.61260986 629.09691715 C-1083.1408716 631.63053486 -1085.67442686 634.15877031 -1088.20855713 636.68651676 C-1089.83583095 638.31445146 -1091.46279451 639.94269638 -1093.0894165 641.57128239 C-1094.2115731 642.69040264 -1094.2115731 642.69040264 -1095.35639954 643.83213139 C-1099.42413179 647.91781133 -1103.32583496 652.08929244 -1107.07524109 656.46973515 C-1109.29404976 659.01202715 -1111.6710194 661.34250933 -1114.08551025 663.70018864 C-1117.72324596 667.28940483 -1121.19421009 670.95348337 -1124.5112915 674.84081364 C-1127.46185331 678.19700824 -1130.52751771 681.44201059 -1133.58551025 684.70018864 C-1138.35096024 689.78716891 -1143.06137457 694.89602956 -1147.58551025 700.20018864 C-1148.46028298 701.22121674 -1149.33530724 702.24202935 -1150.21051025 703.26268864 C-1151.72759922 705.03224744 -1153.24427409 706.80215161 -1154.75958252 708.57323551 C-1158.53689066 712.98622416 -1162.33829786 717.37766891 -1166.14801025 721.76268864 C-1174.40135167 731.27899689 -1182.57912118 740.81476677 -1190.31817627 750.75682926 C-1193.86675163 755.31004992 -1197.49441927 759.7934544 -1201.14801025 764.26268864 C-1206.24894025 770.51620764 -1211.23082839 776.83980893 -1216.112854 783.26659489 C-1217.83709538 785.53051924 -1219.57068619 787.78715309 -1221.30426025 790.04393864 C-1229.92991834 801.29139631 -1238.37410631 812.64690367 -1246.58551025 824.20018864 C-1247.07970459 824.89531559 -1247.57389893 825.59044254 -1248.08306885 826.30663395 C-1251.08390596 830.53369393 -1254.06822458 834.77211658 -1257.04644775 839.01513004 C-1258.59336704 841.21134318 -1260.15099299 843.39962652 -1261.71051025 845.58690739 C-1277.09516702 867.25157967 -1291.60426482 889.60658039 -1305.58551025 912.20018864 C-1306.01911865 912.90079411 -1306.45272705 913.60139957 -1306.8994751 914.32323551 C-1309.63737332 918.75804444 -1312.35091136 923.20721093 -1315.050354 927.66552067 C-1316.1319859 929.451383 -1317.21549381 931.23610977 -1318.300354 933.02001286 C-1330.54194293 953.16269183 -1342.07440555 973.65856553 -1353.31964111 994.37133121 C-1356.03531748 999.37250038 -1358.78222956 1004.35369804 -1361.56842041 1009.31591129 C-1369.3328689 1023.16026704 -1376.19968971 1037.38959948 -1383.02252197 1051.7180109 C-1385.45821197 1056.82220813 -1387.92982258 1061.90417368 -1390.47454834 1066.95473576 C-1394.86245225 1075.6635376 -1399.03804734 1084.45337831 -1403.08551025 1093.32518864 C-1403.42255981 1094.06264317 -1403.75960937 1094.80009769 -1404.10687256 1095.55989933 C-1416.80529654 1123.3962203 -1428.41788002 1151.7189303 -1439.58551025 1180.20018864 C-1440.036521 1181.34971012 -1440.48753174 1182.49923161 -1440.95220947 1183.68358707 C-1446.45817045 1197.75858619 -1451.74724584 1211.88190754 -1456.58551025 1226.20018864 C-1456.79026978 1226.80457767 -1456.9950293 1227.40896671 -1457.20599365 1228.03167057 C-1464.98227173 1250.98726051 -1472.52652186 1274.01318699 -1479.58551025 1297.20018864 C-1479.80896118 1297.93416874 -1480.03241211 1298.66814884 -1480.26263428 1299.42437077 C-1488.66605794 1327.10690507 -1495.792037 1355.08361464 -1502.58551025 1383.20018864 C-1502.7606012 1383.92437992 -1502.93569214 1384.64857121 -1503.11608887 1385.39470768 C-1509.58182268 1412.19583393 -1514.90753183 1439.23739178 -1519.878479 1466.35009098 C-1520.54595641 1469.98480046 -1521.22170795 1473.61789441 -1521.89801025 1477.25096989 C-1530.85535873 1525.8136112 -1536.63532762 1574.9820049 -1540.46051025 1624.20018864 C-1540.53865463 1625.2042053 -1540.53865463 1625.2042053 -1540.61837769 1626.22850513 C-1541.31559873 1635.21625066 -1541.97063802 1644.20644773 -1542.58551025 1653.20018864 C-1542.64162476 1654.0063361 -1542.69773926 1654.81248356 -1542.7555542 1655.64305973 C-1544.77600277 1685.29862473 -1544.75043875 1715.06852525 -1544.71588135 1744.77684879 C-1544.71018465 1749.71069923 -1544.71358253 1754.64449573 -1544.71931362 1759.57834435 C-1544.74983879 1790.42474747 -1544.46642087 1821.23146434 -1542.27301025 1852.01268864 C-1542.20859741 1852.93931309 -1542.14418457 1853.86593754 -1542.07781982 1854.82064152 C-1541.60448213 1861.61569405 -1541.10276674 1868.40834824 -1540.58551025 1875.20018864 C-1540.51632385 1876.11413395 -1540.44713745 1877.02807926 -1540.37585449 1877.96971989 C-1535.76109442 1938.51320358 -1527.13987423 1998.60702024 -1515.58551025 2058.20018864 C-1515.42371277 2059.03922733 -1515.26191528 2059.87826603 -1515.09521484 2060.74273014 C-1504.83220824 2113.91534358 -1491.53852267 2166.45264688 -1475.58551025 2218.20018864 C-1475.18431901 2219.51063993 -1474.78344565 2220.82118858 -1474.38287354 2222.13182926 C-1447.72915503 2309.27439725 -1412.50699444 2393.69370413 -1356.13873291 2503.41893864 C-1354.29432694 2506.72159076 -1352.47601557 2510.03827852 -1350.659729 2513.35643864 C-1343.89968371 2525.69599275 -1337.09101356 2537.99132466 -1329.85894775 2550.06249332 C-1328.43205968 2552.4577832 -1327.02354721 2554.86335227 -1325.61676025 2557.27050114 C-1312.906637 2578.9866434 -1299.42986011 2600.19196475 -1285.58551025 2621.20018864 C-1285.18283936 2621.81249332 -1284.78016846 2622.42479801 -1284.36529541 2623.05565739 C-1267.98954401 2647.93021647 -1250.83958501 2672.39063631 -1232.8862915 2696.15331364 C-1231.16770878 2698.42919568 -1229.45727787 2700.71016165 -1227.753479 2702.99706364 C-1217.99482918 2716.08561927 -1207.90039908 2728.86600813 -1197.581604 2741.51659489 C-1195.18554972 2744.45622271 -1192.81611115 2747.41548873 -1190.46051025 2750.38768864 C-1186.96858193 2754.76913976 -1183.35793683 2759.04223916 -1179.72613525 2763.30761051 C-1176.75778708 2766.79809195 -1173.84326594 2770.32574967 -1170.96051025 2773.88768864 C-1167.3803399 2778.28964186 -1163.63524865 2782.50133452 -1159.81207275 2786.69237614 C-1157.60690269 2789.176094 -1155.53040021 2791.72813569 -1153.46051025 2794.32518864 C-1148.93305902 2799.92870662 -1144.04200932 2805.14959796 -1139.07720947 2810.36669254 C-1135.40346875 2814.23117583 -1131.84399128 2818.16681969 -1128.34918213 2822.19359684 C-1125.35647351 2825.59850715 -1122.25402143 2828.89885099 -1119.14801025 2832.20018864 C-1118.49058838 2832.90079411 -1117.8331665 2833.60139957 -1117.15582275 2834.32323551 C-1113.31211326 2838.40670114 -1109.41337302 2842.41737321 -1105.40913391 2846.34412479 C-1103.65792166 2848.12648911 -1102.03233058 2849.96511994 -1100.41143799 2851.86596012 C-1096.41983153 2856.45427138 -1092.17524998 2860.75457793 -1087.8706665 2865.04784489 C-1087.05609482 2865.8633733 -1086.24152313 2866.67890171 -1085.40226746 2867.5191431 C-1083.68991832 2869.23216872 -1081.97632183 2870.94394829 -1080.26153564 2872.65453434 C-1077.6554901 2875.25522416 -1075.05482503 2877.8612082 -1072.45465088 2880.46776676 C-1070.78114326 2882.1406135 -1069.10732543 2883.81314997 -1067.4331665 2885.48534489 C-1066.66521255 2886.25532307 -1065.89725861 2887.02530125 -1065.10603333 2887.8186121 C-1060.96693748 2891.94001914 -1056.74728474 2895.90007925 -1052.30827332 2899.6976099 C-1048.84207282 2902.72079938 -1045.70342903 2906.06738025 -1042.49176025 2909.35643864 C-1039.67436926 2912.17833425 -1036.67374181 2914.76597351 -1033.66021729 2917.37499332 C-1030.27811785 2920.35034933 -1027.03567845 2923.47026167 -1023.77301025 2926.57518864 C-1018.41830599 2931.6372319 -1012.99044165 2936.4375786 -1007.22613525 2941.02831364 C-1004.24455439 2943.48061979 -1001.40991023 2946.07105693 -998.58551025 2948.70018864 C-994.05227835 2952.91381139 -989.37599402 2956.88313274 -984.55426025 2960.76268864 C-981.06269233 2963.62944967 -977.67024809 2966.59794138 -974.27301025 2969.57518864 C-968.9458979 2974.22883546 -963.51808086 2978.69984003 -957.92828369 2983.03344059 C-953.40336463 2986.54260034 -948.95530504 2990.13741797 -944.52301025 2993.76268864 C-938.2077861 2998.91600787 -931.81483448 3003.94093691 -925.32525635 3008.87401676 C-923.43462419 3010.31520591 -921.55071649 3011.76489524 -919.6675415 3013.21581364 C-904.30633992 3025.03698522 -888.71238891 3036.51896456 -872.8291626 3047.62889957 C-870.41798729 3049.3175094 -868.01133227 3051.01243893 -865.6050415 3052.70800114 C-855.69161446 3059.68478073 -845.72278258 3066.55298515 -835.58551025 3073.20018864 C-834.7361792 3073.75819157 -833.88684814 3074.3161945 -833.01177979 3074.89110661 C-811.90230768 3088.74914895 -790.54289257 3102.13420373 -768.92633057 3115.18309879 C-765.86072482 3117.03402211 -762.79720693 3118.88835449 -759.73394775 3120.74315739 C-757.99717648 3121.79167889 -756.26021151 3122.83987968 -754.52301025 3123.88768864 C-753.76963379 3124.34401676 -753.01625732 3124.80034489 -752.24005127 3125.27050114 C-746.44670344 3128.75335669 -740.53788443 3131.99805347 -734.58551025 3135.20018864 C-733.58882324 3135.73668034 -732.59213623 3136.27317204 -731.56524658 3136.82592106 C-728.38525582 3138.53541896 -725.20414982 3140.2428296 -722.02301025 3141.95018864 C-714.30028187 3146.09780279 -706.60374826 3150.28292272 -698.96051025 3154.57518864 C-692.51725832 3158.17959977 -686.0050267 3161.57930861 -679.378479 3164.83300114 C-675.59379899 3166.6918813 -671.83232046 3168.59368697 -668.0737915 3170.50487614 C-650.6519629 3179.34501796 -633.01988924 3187.61130876 -615.18707275 3195.58739567 C-612.07658559 3196.98028329 -608.97025391 3198.38165347 -605.86676025 3199.79003239 C-601.11461235 3201.94549393 -596.35289171 3204.07865534 -591.58551025 3206.20018864 C-590.72473877 3206.58449039 -589.86396729 3206.96879215 -588.97711182 3207.36473942 C-574.08291353 3213.99593726 -558.99747017 3220.04292809 -543.800354 3225.94237614 C-540.11585066 3227.38394367 -536.44892788 3228.86551341 -532.78399658 3230.35595036 C-521.7435501 3234.84081401 -510.55641589 3238.87537793 -499.32598877 3242.85643864 C-496.4663337 3243.88375679 -493.61429588 3244.92619582 -490.76495361 3245.98143864 C-476.92186748 3251.09461263 -462.96401338 3255.74045873 -448.89801025 3260.20018864 C-447.80266968 3260.54879948 -446.7073291 3260.89741032 -445.57879639 3261.25658512 C-420.61205893 3269.20207632 -395.58063552 3276.61833335 -370.22857666 3283.24755192 C-366.76685049 3284.15276942 -363.30693204 3285.06461884 -359.847229 3285.97753239 C-354.2547335 3287.4480823 -348.65534366 3288.88991136 -343.05133057 3290.31591129 C-340.75513643 3290.90176753 -338.46018762 3291.49252824 -336.16656494 3292.08837223 C-294.09298466 3302.98001015 -251.12204238 3310.96052509 -208.17340088 3317.49608707 C-204.58263829 3318.0435349 -200.99635809 3318.61438791 -197.41156006 3319.19950199 C-160.3168423 3325.25407323 -122.91273237 3329.0243663 -85.46051025 3332.01268864 C-84.46682623 3332.09211704 -84.46682623 3332.09211704 -83.45306778 3332.17315006 C-74.49991806 3332.88710806 -65.54465205 3333.56582436 -56.58551025 3334.20018864 C-55.78536499 3334.25737064 -54.98521973 3334.31455265 -54.16082764 3334.37346745 C-24.29555661 3336.4451503 5.71949626 3336.365873 35.63934326 3336.33055973 C40.50478689 3336.32485903 45.37017586 3336.32826438 50.23561764 3336.333992 C80.93394442 3336.36477474 111.59364873 3336.07056138 142.22698975 3333.88768864 C143.1536142 3333.82327579 144.08023865 3333.75886295 145.03494263 3333.69249821 C151.82999516 3333.21916051 158.62264935 3332.71744512 165.41448975 3332.20018864 C166.32843506 3332.13100224 167.24238037 3332.06181583 168.184021 3331.99053288 C215.85608782 3328.35686106 263.29838039 3322.2975204 310.41448975 3314.20018864 C311.18389893 3314.06805973 311.95330811 3313.93593082 312.74603271 3313.79979801 C372.69905196 3303.467059 432.11042039 3289.56662071 490.41448975 3272.20018864 C492.16436388 3271.68413665 493.91435015 3271.16846462 495.66448975 3270.65331364 C500.58982847 3269.19698593 505.50380146 3267.70511748 510.41448975 3266.20018864 C511.58028564 3265.84344059 512.74608154 3265.48669254 513.94720459 3265.11913395 C552.04187058 3253.43984873 589.32249988 3239.72520401 626.41448975 3225.20018864 C627.51003174 3224.77238102 628.60557373 3224.3445734 629.73431396 3223.90380192 C669.06558187 3208.50958885 707.48724257 3190.76274863 745.41448975 3172.20018864 C746.34422607 3171.7462775 747.2739624 3171.29236637 748.23187256 3170.82470036 C760.36639965 3164.8837066 772.28523205 3158.61909157 784.11761475 3152.09862614 C788.99371362 3149.41659496 793.91473998 3146.82984997 798.85198975 3144.26268864 C828.66977151 3128.68426502 857.47243168 3111.09918975 885.8637085 3093.07518864 C888.62467767 3091.32475145 891.39396436 3089.59135813 894.184021 3087.88768864 C907.91589061 3079.48274253 921.13210092 3070.29082805 934.41448975 3061.20018864 C936.00166809 3060.11676558 937.58889817 3059.03341831 939.1762085 3057.95018864 C942.93284401 3055.38195032 946.67822192 3052.79796242 950.41448975 3050.20018864 C951.42696777 3049.49636051 951.42696777 3049.49636051 952.4598999 3048.77831364 C962.26664362 3041.9452857 971.90203526 3034.91531316 981.43060303 3027.70018864 C984.08557411 3025.69278741 986.74856733 3023.69619611 989.41229248 3021.70043278 C990.74698633 3020.70034819 992.08113395 3019.6995342 993.41473389 3018.69799137 C996.74065292 3016.20040525 1000.0718405 3013.71050484 1003.41448975 3011.23534489 C1010.93697964 3005.6526916 1018.30788039 2999.92941188 1025.55072021 2993.98778629 C1029.83360545 2990.47462166 1034.16407098 2987.03464601 1038.53948975 2983.63768864 C1043.95048693 2979.42452821 1049.18376495 2975.03575899 1054.36712646 2970.54638004 C1057.91812091 2967.4721905 1061.51188686 2964.46662206 1065.16448975 2961.51268864 C1069.54820089 2957.95573004 1073.73690621 2954.23052346 1077.90667725 2950.42675114 C1080.39039511 2948.22158107 1082.9424368 2946.1450786 1085.53948975 2944.07518864 C1091.14300773 2939.5477374 1096.36389907 2934.65668771 1101.58099365 2929.69188786 C1105.44547694 2926.01814714 1109.38112079 2922.45866966 1113.40789795 2918.96386051 C1116.81280826 2915.9711519 1120.1131521 2912.86869981 1123.41448975 2909.76268864 C1124.11509521 2909.10526676 1124.81570068 2908.44784489 1125.53753662 2907.77050114 C1129.62070809 2903.92706854 1133.63112238 2900.02863767 1137.55757141 2896.02466679 C1139.34467288 2894.26878581 1141.18845664 2892.63817821 1143.09393311 2891.0124445 C1147.59983334 2887.09259883 1151.82740692 2882.93152259 1156.043396 2878.70409489 C1156.83672836 2877.91171925 1157.63006073 2877.11934361 1158.44743347 2876.30295658 C1160.11338055 2874.63768581 1161.77808231 2872.97116835 1163.44158936 2871.30346012 C1165.96985109 2868.76984242 1168.50340635 2866.24160696 1171.03753662 2863.71386051 C1172.66481045 2862.08592581 1174.291774 2860.45768089 1175.918396 2858.82909489 C1176.6665004 2858.08301472 1177.4146048 2857.33693455 1178.18537903 2856.56824589 C1182.25311129 2852.48256594 1186.15481446 2848.31108484 1189.90422058 2843.93064213 C1192.12302926 2841.38835013 1194.49999889 2839.05786794 1196.91448975 2836.70018864 C1200.55222546 2833.11097245 1204.02318959 2829.44689391 1207.340271 2825.55956364 C1210.29083281 2822.20336904 1213.3564972 2818.95836669 1216.41448975 2815.70018864 C1221.17993973 2810.61320836 1225.89035406 2805.50434772 1230.41448975 2800.20018864 C1231.28926247 2799.17916054 1232.16428673 2798.15834792 1233.03948975 2797.13768864 C1234.55657871 2795.36812984 1236.07325358 2793.59822566 1237.58856201 2791.82714176 C1241.36587015 2787.41415311 1245.16727736 2783.02270837 1248.97698975 2778.63768864 C1257.23033116 2769.12138038 1265.40810067 2759.58561051 1273.14715576 2749.64354801 C1276.69573228 2745.09032586 1280.32345649 2740.60697136 1283.97698975 2736.13768864 C1289.58913645 2729.25577739 1295.06300357 2722.28768957 1300.41448975 2715.20018864 C1300.96330811 2714.47347965 1301.51212646 2713.74677067 1302.07757568 2712.9980402 C1314.91263538 2695.97990835 1327.63943505 2678.89055525 1339.85638428 2661.42186832 C1341.50260546 2659.07454573 1343.15903386 2656.73465875 1344.8168335 2654.39550114 C1351.9105968 2644.36143006 1358.74885379 2634.19742324 1365.39886475 2623.86425114 C1368.01944399 2619.79458741 1370.7052622 2615.77360243 1373.41448975 2611.76268864 C1379.19001411 2603.1753646 1384.57679978 2594.3456744 1389.98675537 2585.52538395 C1391.15049588 2583.63012667 1392.32062351 2581.73879245 1393.49261475 2579.84862614 C1395.48104495 2576.64120177 1397.45223921 2573.42366241 1399.41448975 2570.20018864 C1400.19082764 2568.92595036 1400.19082764 2568.92595036 1400.98284912 2567.62596989 C1413.27725177 2547.4036561 1424.85791423 2526.82556511 1436.14862061 2506.02904606 C1438.86429697 2501.0278769 1441.61120905 2496.04667923 1444.3973999 2491.08446598 C1452.16184839 2477.24011023 1459.0286692 2463.0107778 1465.85150146 2448.68236637 C1468.28719146 2443.57816915 1470.75880207 2438.49620359 1473.30352783 2433.44564152 C1477.69143174 2424.73683968 1481.86702683 2415.94699897 1485.91448975 2407.07518864 C1486.25153931 2406.33773411 1486.58858887 2405.60027958 1486.93585205 2404.84047794 C1499.63504253 2377.00247672 1511.2285334 2348.67572523 1522.41448975 2320.20018864 C1522.86018311 2319.07193668 1523.30587646 2317.94368473 1523.76507568 2316.78124332 C1528.92591173 2303.69524391 1533.74536988 2290.55790857 1538.105896 2277.18456364 C1539.86881687 2271.79923541 1541.70537333 2266.44260025 1543.5668335 2261.09081364 C1554.81799166 2228.68947567 1565.07721572 2196.01851905 1573.72210693 2162.81932926 C1574.58162419 2159.56795369 1575.49312307 2156.33288574 1576.41204834 2153.09789371 C1579.12252673 2143.55004902 1581.45424869 2133.93146119 1583.69915771 2124.26464176 C1584.48158474 2120.91275645 1585.27759422 2117.56425043 1586.074646 2114.21581364 C1590.17121706 2096.9383774 1593.94394048 2079.61464461 1597.41448975 2062.20018864 C1597.62815186 2061.12913883 1597.84181396 2060.05808903 1598.06195068 2058.95458317 C1610.11645576 1998.16489884 1618.49120903 1936.86267318 1623.28948975 1875.07518864 C1623.36763412 1874.06940454 1623.36763412 1874.06940454 1623.44735718 1873.04330158 C1624.13989517 1864.09810414 1624.78976611 1855.15034881 1625.41448975 1846.20018864 C1625.47060425 1845.42856388 1625.52671875 1844.65693913 1625.58453369 1843.8619318 C1627.69650207 1814.68107292 1627.57932934 1785.34427411 1627.54486084 1756.10570621 C1627.53916816 1751.24141586 1627.54256004 1746.37718027 1627.54829311 1741.51289177 C1627.57930884 1710.61293866 1627.37856712 1679.71840678 1625.10198975 1648.88768864 C1624.96946607 1647.03840741 1624.8369804 1645.18912346 1624.70452881 1643.33983707 C1624.3587681 1638.56992831 1623.99872174 1633.8012276 1623.63195801 1629.03289127 C1623.41765039 1626.24135857 1623.20718938 1623.44955427 1622.99700928 1620.65770817 C1618.43883515 1560.70215281 1609.85628015 1501.21274387 1598.41448975 1442.20018864 C1598.25269226 1441.36114994 1598.09089478 1440.52211124 1597.92419434 1439.65764713 C1583.99633254 1367.49742742 1564.23743103 1296.69612478 1540.41448975 1227.20018864 C1540.01085205 1226.02117985 1539.60721436 1224.84217106 1539.19134521 1223.62743473 C1528.43889022 1192.4330501 1516.49067067 1161.49466394 1503.41448975 1131.20018864 C1502.93044678 1130.07048649 1502.44640381 1128.94078434 1501.94769287 1127.77684879 C1482.84653514 1083.22371496 1462.48951624 1038.91798284 1438.76068115 996.61913395 C1437.3254788 994.04024658 1435.91977284 991.44688293 1434.5199585 988.84862614 C1427.65867452 976.11946554 1420.49144322 963.59265611 1413.1449585 951.13768864 C1411.47812269 948.30820663 1409.8201759 945.47370579 1408.16448975 942.63768864 C1395.55198311 921.08545274 1382.15369642 900.04886212 1368.41448975 879.20018864 C1367.8104834 878.28173161 1367.8104834 878.28173161 1367.1942749 877.34471989 C1350.11322991 851.39882877 1332.14150133 825.9828507 1313.41448975 801.20018864 C1312.73515381 800.28753239 1312.05581787 799.37487614 1311.355896 798.43456364 C1301.89007586 785.72083824 1292.13885703 773.23037725 1282.10125732 760.96337223 C1278.62577436 756.71137827 1275.22151252 752.41142258 1271.85198975 748.07518864 C1266.26909346 740.91594516 1260.37551626 734.04549255 1254.41448975 727.20018864 C1252.18448285 724.63841792 1249.95527997 722.07595272 1247.72698975 719.51268864 C1247.1745459 718.87838932 1246.62210205 718.24409 1246.05291748 717.5905695 C1242.98923665 714.06084588 1240.01282866 710.48310597 1237.10198975 706.82518864 C1232.450185 701.06868814 1227.36879016 695.73763414 1222.26092529 690.38817692 C1218.46008063 686.4040178 1214.77180467 682.35394638 1211.16497803 678.19359684 C1208.15847181 674.76986974 1205.03640274 671.45592811 1201.91448975 668.13768864 C1201.28929443 667.46930973 1200.66409912 666.80093082 1200.0199585 666.11229801 C1197.02455501 662.92154212 1194.00179556 659.77479339 1190.88323975 656.70409489 C1188.56907211 654.41075379 1186.39605793 652.05592273 1184.28289795 649.57689762 C1180.07200054 644.73916182 1175.58188442 640.20567048 1171.0512085 635.66893864 C1170.17801468 634.79241642 1169.30482086 633.9158942 1168.40516663 633.01281071 C1166.57356483 631.17617684 1164.74063344 629.34086804 1162.90643311 627.50682926 C1161.02510868 625.62403083 1159.14597294 623.73936416 1157.27069092 621.85057926 C1154.55666763 619.11835692 1151.83612668 616.39279332 1149.1137085 613.66893864 C1148.27103928 612.8190839 1147.42837006 611.96922916 1146.56016541 611.09362125 C1145.78208023 610.31861271 1145.00399506 609.54360416 1144.20233154 608.74511051 C1143.17476997 607.71541142 1143.17476997 607.71541142 1142.12644958 606.66491032 C1140.53671661 604.9834862 1140.53671661 604.9834862 1138.41448975 605.20018864 C1138.41448975 604.54018864 1138.41448975 603.88018864 1138.41448975 603.20018864 C1136.89728992 601.66561497 1136.89728992 601.66561497 1134.91448975 600.07518864 C1131.30235042 597.00995773 1127.95394956 593.79462915 1124.66448975 590.38768864 C1122.71250241 588.48992317 1120.71932656 586.70287411 1118.66448975 584.91893864 C1113.78587588 580.68177215 1109.10486275 576.2486865 1104.41448975 571.80565739 C1097.74429534 565.51326696 1090.82416327 559.52840795 1083.85198975 553.57518864 C1079.43142392 549.79603588 1075.02754341 545.9989315 1070.64178467 542.17943668 C1064.96451164 537.23761048 1059.25083722 532.3612198 1053.39886475 527.62596989 C1051.10536588 525.76175157 1048.82634597 523.88419466 1046.55511475 521.99315739 C1038.61946495 515.39549505 1030.59114916 508.96868012 1022.36248779 502.73973942 C1018.5409545 499.84272067 1014.7846354 496.89884764 1011.10198975 493.82518864 C997.81085549 482.82979575 983.65172655 472.8518108 969.64105225 462.80175114 C967.37310759 461.17042252 965.11169436 459.53040905 962.85198975 457.88768864 C948.87347231 447.73194704 934.65501645 437.97304642 920.25579834 428.42528629 C918.43598565 427.21449074 916.62171768 425.99582553 914.809021 424.77440739 C899.74875697 414.6409664 884.32701917 405.09130976 868.81585693 395.66698551 C865.94369946 393.91262174 863.08211105 392.14143786 860.21917725 390.37206364 C853.49790475 386.23455051 846.72317899 382.19231659 839.91448975 378.20018864 C839.299758 377.83946262 838.68502625 377.47873661 838.05166626 377.10707951 C825.08605532 369.50962242 811.95731767 362.22470676 798.76507568 355.02977848 C795.59454259 353.29850662 792.42941644 351.55779811 789.26605225 349.81346989 C779.59604742 344.49050138 769.88008104 339.33139729 759.97210693 334.46727848 C756.76985811 332.88082646 753.58056603 331.26905877 750.39105225 329.65721989 C738.06971142 323.43869131 725.77057823 317.25152233 713.07855225 311.81346989 C710.57999229 310.73657834 708.14720316 309.57984416 705.7230835 308.34471989 C700.19501265 305.54523096 694.51852195 303.07881764 688.85198975 300.57518864 C687.05797729 299.78132755 687.05797729 299.78132755 685.22772217 298.97142887 C682.78060339 297.88931316 680.33271252 296.80896899 677.88421631 295.72997379 C675.73171967 294.78094875 673.57989535 293.83039534 671.42913818 292.87743473 C659.3603424 287.53171064 647.20200843 282.42607028 634.97698975 277.45018864 C634.3182486 277.18150974 633.65950745 276.91283085 632.98080444 276.63601017 C619.20734707 271.02622874 605.29296616 265.83180789 591.28948975 260.82518864 C589.34922385 260.13032757 587.40912765 259.43499251 585.46917725 258.73925114 C584.39708008 258.35551334 583.32498291 257.97177555 582.22039795 257.57640934 C579.33003797 256.536412 576.44812283 255.47478785 573.56756592 254.40795231 C559.81393583 249.3298237 545.94977313 244.69897972 531.97698975 240.26268864 C530.88477112 239.91469212 529.79255249 239.56669559 528.66723633 239.20815372 C511.65829429 233.79221941 494.62119086 228.55798983 477.42541504 223.76348209 C475.27593572 223.16137736 473.12850845 222.55233622 470.98138428 221.94188786 C409.12549024 204.36917229 346.31170092 191.32264704 282.76220703 181.56359196 C279.56456997 181.0686295 276.37045665 180.55245284 273.1762085 180.03612614 C266.60169686 178.99168288 260.0147729 178.06553864 253.41448975 177.20018864 C252.61547241 177.0951099 251.81645508 176.99003117 250.9932251 176.88176823 C223.67130355 173.30958377 196.31827324 170.53532245 168.85198975 168.38768864 C168.17712021 168.33480309 167.50225067 168.28191753 166.80693054 168.22742939 C157.67874868 167.51373364 148.54843957 166.83579243 139.41448975 166.20018864 C138.60086975 166.14300663 137.78724976 166.08582462 136.94897461 166.02690983 C107.30283754 163.99881897 77.53701195 164.03527077 47.83782959 164.06981754 C42.90397915 164.07551424 37.97018265 164.07211636 33.03633404 164.06638527 C2.18972293 164.0358599 -28.6165187 164.32089286 -59.39801025 166.51268864 Z " fill="#252525" transform="translate(1708.5855102539063,-0.20018863677978516)"/>
<path d="M0 0 C8.17808388 0.00980265 16.3561299 0.00167874 24.534212 -0.00661189 C40.55011658 -0.02227819 56.5659849 -0.02109275 72.58189278 -0.01237515 C86.59955707 -0.00478408 100.61720817 -0.00287887 114.63487409 -0.00644308 C115.57006268 -0.00667224 116.50525127 -0.00690139 117.46877891 -0.00713749 C121.26643403 -0.00807173 125.06408915 -0.00902696 128.86174425 -0.01001678 C164.38046502 -0.01916362 199.89916289 -0.01092165 235.41788012 0.00527391 C266.86977527 0.01950617 298.32163396 0.01823431 329.7735288 0.00389093 C365.23192584 -0.01222611 400.6903027 -0.01851338 436.1487029 -0.00927228 C439.93915758 -0.00831034 443.72961227 -0.00737181 447.52006696 -0.00644308 C448.45315415 -0.00620585 449.38624135 -0.00596862 450.34760391 -0.0057242 C464.3445643 -0.00233351 478.34150996 -0.0062617 492.33846829 -0.01388174 C508.27865752 -0.02251723 524.21880531 -0.02019359 540.15898946 -0.00403951 C548.2716428 0.00391419 556.38422871 0.00736779 564.49688123 -0.00298697 C607.82587155 -0.05475097 650.74768457 0.66547607 693.6443784 7.39500421 C695.15040624 7.62872736 695.15040624 7.62872736 696.68685887 7.86717218 C738.34458946 14.44470859 780.34493019 24.93222404 819.6443784 40.39500421 C820.73121922 40.81620539 821.81806005 41.23740656 822.93783544 41.6713714 C846.60943228 50.85621943 869.80043955 60.90046165 892.13217137 73.03514093 C894.94243686 74.55634392 897.7636905 76.05602151 900.58578465 77.55516046 C911.54741586 83.40119171 922.32371469 89.39491897 932.7434995 96.1635589 C934.71945398 97.44364038 936.7061799 98.70558221 938.69515965 99.96531671 C970.73404559 120.34722239 1000.61274237 143.80469262 1028.6443784 169.39500421 C1029.54543309 170.2032464 1030.44648778 171.01148859 1031.37484715 171.84422296 C1038.80683138 178.55698291 1045.93053755 185.57394571 1053.0193784 192.64500421 C1053.73063878 193.3523823 1053.73063878 193.3523823 1054.45626805 194.07405084 C1059.53185945 199.12777795 1064.49224426 204.22305264 1069.15560887 209.6611175 C1071.21871829 212.0639058 1073.37054429 214.38140937 1075.5193784 216.70750421 C1080.44056188 222.10970562 1085.05939493 227.7073032 1089.6443784 233.39500421 C1090.65371935 234.62505437 1091.66420439 235.85416632 1092.6756284 237.08250421 C1123.1843825 274.20639528 1148.31283665 314.65521356 1170.11996434 357.40916437 C1171.4141214 359.94400434 1172.71809509 362.47333393 1174.0271909 365.00047296 C1179.12245877 374.90706562 1183.46492934 385.07292196 1187.6443784 395.39500421 C1188.05558934 396.4001507 1188.46680028 397.40529718 1188.89047215 398.44090265 C1202.91737142 432.83177956 1213.98386291 468.01503917 1221.95785497 504.30271906 C1222.58946875 507.14767642 1223.24971523 509.98422388 1223.9178159 512.82078546 C1230.32747798 540.81141733 1234.02743908 570.12663575 1235.46087549 598.79957843 C1235.59314373 601.3911484 1235.73701789 603.98069444 1235.88985298 606.57102072 C1236.72187079 621.36790722 1236.79272054 636.1442544 1236.78524868 650.96091489 C1236.78450634 654.63861383 1236.78956643 658.31630606 1236.7938237 661.99400199 C1236.8013409 669.26087855 1236.80359353 676.52774775 1236.80415276 683.7946278 C1236.80507272 692.51143696 1236.81175897 701.22823947 1236.81849958 709.94504573 C1236.83450016 731.00841693 1236.84045685 752.07178735 1236.84524833 773.13516353 C1236.84759104 783.11984321 1236.85119449 793.10452233 1236.85494371 803.08920157 C1236.86777622 837.33493806 1236.87849385 871.58067425 1236.88194631 905.8264131 C1236.88216793 907.97311817 1236.88238972 910.11982325 1236.88261166 912.26652832 C1236.88283229 914.41813458 1236.88305277 916.56974084 1236.88327311 918.72134709 C1236.88371563 923.03712668 1236.88416275 927.35290627 1236.88461278 931.66868585 C1236.88472217 932.73873492 1236.88483156 933.80878398 1236.88494427 934.91125877 C1236.888569 969.55072502 1236.90446852 1004.19017026 1236.92780314 1038.82962847 C1236.95248539 1075.53741145 1236.96612309 1112.24518245 1236.96731422 1148.95297396 C1236.96748565 1152.99492683 1236.96770106 1157.0368797 1236.96794866 1161.07883257 C1236.96800442 1162.0739207 1236.96806019 1163.06900884 1236.96811765 1164.09425116 C1236.96926104 1180.00330006 1236.98022211 1195.91232715 1236.99483571 1211.82136873 C1237.00931364 1227.86213476 1237.01237484 1243.9028733 1237.00439573 1259.94364408 C1237.00037401 1268.60777682 1237.00092625 1277.27184315 1237.01545308 1285.93596643 C1237.16242827 1377.68398085 1237.16242827 1377.68398085 1230.3943784 1420.83250421 C1230.08794658 1422.87452366 1229.78188528 1424.91659874 1229.47616551 1426.95872492 C1225.32430052 1454.21349461 1219.23643135 1480.8851072 1211.6443784 1507.39500421 C1211.30712743 1508.5744964 1210.96987645 1509.75398859 1210.62240575 1510.96922296 C1204.75472835 1531.22064682 1197.4538843 1550.82798378 1189.6443784 1570.39500421 C1188.93716649 1572.16738458 1188.93716649 1572.16738458 1188.21566747 1573.97557062 C1183.51862149 1585.66019735 1178.53996163 1597.09651414 1172.73226903 1608.2704925 C1171.51304433 1610.65148292 1170.33455037 1613.05025969 1169.1600034 1615.45359796 C1159.18376451 1635.81809002 1148.04526946 1655.41032312 1135.6443784 1674.39500421 C1135.14019383 1675.16715265 1134.63600926 1675.93930109 1134.11654637 1676.73484796 C1120.29183963 1697.82948142 1105.59751663 1718.47301052 1089.0818784 1737.55906671 C1086.73082354 1740.29442862 1084.46385521 1743.08184384 1082.2068784 1745.89500421 C1077.95600905 1751.119239 1073.43364306 1756.04861902 1068.8318784 1760.96141046 C1066.33900885 1763.62356138 1063.91394605 1766.34009287 1061.49203465 1769.06687921 C1056.68979538 1774.4137075 1051.66897011 1779.52247123 1046.5782163 1784.59153742 C1045.07630916 1786.08805347 1043.57986778 1787.58988721 1042.08383153 1789.09226984 C1037.30968872 1793.86970777 1032.48611627 1798.53669042 1027.3540952 1802.9304046 C1024.957528 1804.98338285 1022.64964248 1807.12886602 1020.3318784 1809.27000421 C1015.92084667 1813.28881014 1011.40702483 1817.12365745 1006.7615659 1820.86766046 C1004.43199898 1822.74548337 1002.13180444 1824.65524538 999.8396909 1826.57859796 C967.13469427 1853.95096332 931.06256406 1876.88920789 893.45883153 1896.89158625 C890.91315768 1898.25142833 888.37866863 1899.62950134 885.8475034 1901.01609796 C872.47629217 1908.28503076 858.62607486 1914.40228555 844.6443784 1920.39500421 C843.56688329 1920.86051691 842.48938817 1921.3260296 841.37924169 1921.80564875 C815.27657576 1933.01868164 788.12185679 1942.17346305 760.6443784 1949.39500421 C759.75057469 1949.63380304 758.85677098 1949.87260187 757.93588231 1950.11863703 C719.1187763 1960.42974426 679.66400969 1966.56029207 639.6443784 1969.39500421 C638.40739091 1969.48419335 637.17040342 1969.57338249 635.89593146 1969.66527432 C621.91933723 1970.59296963 607.94859936 1970.54067234 593.94699071 1970.53544611 C591.15652333 1970.5374879 588.36605822 1970.54101016 585.57559226 1970.54444951 C578.74200443 1970.55197444 571.90842442 1970.55421974 565.07483287 1970.55477856 C556.87932373 1970.55569774 548.6838217 1970.56238172 540.48831565 1970.56912539 C520.68359261 1970.58513383 500.87887039 1970.59108353 481.07414205 1970.59587414 C471.68810983 1970.59821603 462.30207821 1970.60181939 452.91604646 1970.60556951 C420.7304162 1970.61840265 388.54478626 1970.62912029 356.35915349 1970.63257212 C354.34119605 1970.63279374 352.32323861 1970.63301553 350.30528117 1970.63323747 C348.28268568 1970.6334581 346.26009018 1970.63367858 344.23749469 1970.63389891 C340.18041426 1970.63434144 336.12333383 1970.63478857 332.0662534 1970.63523859 C330.55738961 1970.63540268 330.55738961 1970.63540268 329.01804372 1970.63557008 C296.45066865 1970.63919528 263.88331591 1970.65509624 231.31594938 1970.67842895 C196.81277792 1970.70310293 162.3096192 1970.71674852 127.80643867 1970.71794003 C124.00832373 1970.71811146 120.21020879 1970.71832688 116.41209386 1970.71857447 C115.00948353 1970.71865812 115.00948353 1970.71865812 113.57853764 1970.71874346 C98.61935758 1970.71988756 83.66020069 1970.73085478 68.70102842 1970.74546152 C53.62225778 1970.75992873 38.54351637 1970.76300654 23.46474067 1970.75502154 C15.31781355 1970.75099583 7.17095707 1970.75157136 -0.97596004 1970.76607889 C-41.48015349 1970.83503128 -81.94686166 1970.70736107 -122.1056216 1964.70750421 C-123.39652202 1964.52150156 -123.39652202 1964.52150156 -124.71350123 1964.33174127 C-152.65917806 1960.29182511 -180.24701964 1954.29316452 -207.3556216 1946.39500421 C-209.23628322 1945.85093927 -209.23628322 1945.85093927 -211.154938 1945.29588312 C-215.16323341 1944.13369367 -219.1663854 1942.95455541 -223.1681216 1941.77000421 C-224.39015285 1941.40979181 -225.6121841 1941.04957941 -226.8712466 1940.67845148 C-234.8586241 1938.27644235 -242.59997983 1935.45638868 -250.3556216 1932.39500421 C-252.64615022 1931.5585479 -254.93764826 1930.7247354 -257.2306216 1929.89500421 C-276.34418692 1922.80878301 -295.301318 1914.86275479 -313.3556216 1905.39500421 C-314.57368775 1904.78943062 -315.79379969 1904.18795699 -317.01577785 1903.59031671 C-347.26384253 1888.79295414 -376.15939606 1871.6109696 -403.39810206 1851.81687921 C-404.77817217 1850.81444365 -406.16019394 1849.81469227 -407.54360988 1848.81687921 C-419.1759674 1840.41941091 -430.40213474 1831.65937663 -441.3556216 1822.39500421 C-441.98339503 1821.86632746 -442.61116847 1821.3376507 -443.25796535 1820.79295343 C-450.8997824 1814.34870443 -458.35075653 1807.73115975 -465.67666652 1800.9304046 C-466.95088291 1799.76513677 -468.23708892 1798.61296315 -469.5287173 1797.4670257 C-475.73954733 1791.95019835 -481.69287781 1786.21318758 -487.5521548 1780.3288421 C-489.04867085 1778.82693497 -490.55050459 1777.33049359 -492.05288722 1775.83445734 C-496.83032515 1771.06031453 -501.4973078 1766.23674208 -505.89102199 1761.10472101 C-507.94400023 1758.70815381 -510.0894834 1756.40026829 -512.2306216 1754.08250421 C-516.24820029 1749.67281949 -520.08227764 1745.16077445 -523.8243716 1740.51609796 C-525.71366657 1738.17211471 -527.63709511 1735.85963684 -529.5743716 1733.55516046 C-537.38188101 1724.24072721 -544.69916776 1714.68898928 -551.69497706 1704.75144953 C-553.40747412 1702.32142578 -555.13292089 1699.90095555 -556.85952785 1697.48094171 C-568.51312287 1681.0766226 -579.14765133 1664.15906255 -589.07046535 1646.65672296 C-590.25981827 1644.56360642 -591.46257492 1642.47881857 -592.6681216 1640.39500421 C-607.38272303 1614.71412608 -619.76542723 1588.00943556 -630.3556216 1560.39500421 C-630.89171046 1559.01103449 -630.89171046 1559.01103449 -631.43862941 1557.59910578 C-633.51013461 1552.23096615 -635.47077263 1546.83133873 -637.3556216 1541.39500421 C-637.87285792 1539.90686212 -637.87285792 1539.90686212 -638.40054347 1538.38865656 C-656.61047648 1485.660328 -668.59660833 1430.6329311 -672.01495387 1374.89085382 C-672.07802457 1373.87375892 -672.14109526 1372.85666402 -672.20607719 1371.80874807 C-673.96449326 1342.47161801 -673.78602988 1313.09333131 -673.75062728 1283.7162254 C-673.74079428 1275.03752403 -673.74895804 1266.35885802 -673.7572377 1257.68015829 C-673.77288261 1240.68542543 -673.77172739 1223.6907268 -673.76300096 1206.69599083 C-673.75540264 1191.82206825 -673.75350798 1176.94815808 -673.75706889 1162.07423395 C-673.75729805 1161.08099824 -673.7575272 1160.08776252 -673.7577633 1159.06442876 C-673.75869758 1155.03082411 -673.75965281 1150.99721946 -673.76064259 1146.96361483 C-673.76978426 1109.25766002 -673.76155562 1071.55172679 -673.7453519 1033.84577532 C-673.73111904 1000.47252496 -673.73239309 967.09930896 -673.74673488 933.7260589 C-673.76285882 896.08148511 -673.76913549 858.43693033 -673.75989809 820.79235357 C-673.75893618 816.76682721 -673.75799764 812.74130085 -673.75706889 808.71577448 C-673.75683166 807.72485578 -673.75659443 806.73393707 -673.75635001 805.71299053 C-673.75296225 790.86196418 -673.75688187 776.01095173 -673.76450755 761.15992731 C-673.7731509 744.24443567 -673.77080305 727.32898307 -673.75466532 710.4134962 C-673.74672228 701.80778151 -673.74324113 693.2021303 -673.75361278 684.59641641 C-673.82070118 624.9931971 -673.82070118 624.9931971 -671.99932887 595.8288421 C-671.9397372 594.86969994 -671.88014554 593.91055778 -671.81874806 592.92235071 C-668.70520379 544.57346464 -659.42351431 495.78767998 -644.13833644 449.77537531 C-643.15550679 446.78642051 -642.20516886 443.78749165 -641.25015285 440.78953546 C-635.83785143 423.98710093 -629.66102239 407.67292642 -622.67642238 391.46092218 C-621.57494993 388.90412162 -620.49051152 386.34135551 -619.41421535 383.77391046 C-608.93969014 359.14477909 -596.31935315 335.20009344 -582.3556216 312.39500421 C-581.75008449 311.39823664 -581.14454738 310.40146906 -580.52066066 309.3744964 C-571.97537688 295.33994653 -562.97368512 281.71565654 -553.3556216 268.39500421 C-552.77957179 267.59224054 -552.20352199 266.78947687 -551.61001613 265.96238703 C-543.29349587 254.39581241 -534.55447472 243.27102605 -525.3556216 232.39500421 C-524.82694484 231.76723078 -524.29826808 231.13945734 -523.75357081 230.49266046 C-517.30932182 222.85084341 -510.69177713 215.39986928 -503.89102199 208.07395929 C-502.72575416 206.7997429 -501.57358054 205.51353689 -500.42764308 204.22190851 C-494.91081573 198.01107848 -489.17380496 192.057748 -483.28945949 186.19847101 C-481.78755235 184.70195496 -480.29111097 183.20012122 -478.79507472 181.69773859 C-474.02093191 176.92030066 -469.19735946 172.25331801 -464.06533839 167.85960382 C-461.66877119 165.80662558 -459.36088567 163.66114241 -457.0431216 161.52000421 C-452.63208986 157.50119828 -448.11826802 153.66635098 -443.4728091 149.92234796 C-441.14324217 148.04452505 -438.84304763 146.13476305 -436.5509341 144.21141046 C-426.13201365 135.49195146 -415.39991693 127.30596754 -404.3556216 119.39500421 C-403.76861476 118.97412531 -403.18160792 118.5532464 -402.576813 118.11961359 C-398.87808983 115.48232175 -395.13244718 112.91862882 -391.3556216 110.39500421 C-390.64921535 109.92272394 -389.9428091 109.45044367 -389.2149966 108.96385187 C-370.03681626 96.20119118 -350.22573397 84.64329897 -329.91958644 73.77537531 C-327.56134449 72.50576 -325.21685656 71.21431963 -322.87515285 69.91453546 C-308.43396609 61.98976907 -293.28929805 55.60865778 -278.14926173 49.16191095 C-275.6516463 48.09400549 -273.16252324 47.00673505 -270.67202785 45.92234796 C-247.09165686 35.8107043 -222.1562904 27.91303502 -197.3556216 21.39500421 C-196.46181788 21.15620539 -195.56801417 20.91740656 -194.6471255 20.6713714 C-171.75792782 14.59124344 -148.62593471 9.98557189 -125.19561793 6.5920257 C-123.50031619 6.34626478 -121.80556651 6.09664462 -120.11157252 5.8420257 C-80.28881642 -0.08654147 -40.15688062 -0.05124225 0 0 Z M-72.2228091 156.75520319 C-73.03984624 156.81506173 -73.85688338 156.87492028 -74.69867923 156.93659271 C-114.86291163 159.99354826 -154.35917242 169.19950511 -192.3556216 182.39500421 C-193.63131007 182.83078791 -193.63131007 182.83078791 -194.93277003 183.27537531 C-215.44339132 190.32091236 -235.61016946 198.91708624 -254.57632472 209.43504328 C-257.32841206 210.91984122 -260.15790945 212.23803706 -262.9806216 213.58250421 C-286.26943875 225.16006774 -307.79313933 240.56663765 -328.3556216 256.39500421 C-329.28978908 257.1106756 -329.28978908 257.1106756 -330.24282863 257.840805 C-337.11006441 263.11293082 -343.77007141 268.50436923 -350.14859035 274.36766046 C-352.08391445 276.14541836 -354.04965176 277.87076673 -356.0431216 279.58250421 C-368.10423309 290.10233777 -380.10846735 301.1069577 -390.5196841 313.27781671 C-392.70768329 315.80099877 -394.96855272 318.25054941 -397.2306216 320.70750421 C-415.80950199 341.11059491 -432.00928313 363.86095795 -446.3556216 387.39500421 C-446.99878322 388.44373712 -446.99878322 388.44373712 -447.654938 389.51365656 C-455.167098 401.81507501 -461.86142561 414.53186806 -468.3556216 427.39500421 C-468.83176906 428.33650324 -469.30791652 429.27800226 -469.79849269 430.24803156 C-477.33276088 445.26187744 -483.68085772 460.58816683 -489.3556216 476.39500421 C-489.98814845 478.15674982 -489.98814845 478.15674982 -490.63345363 479.95408625 C-497.449759 499.16837031 -502.80730334 518.53423844 -507.3556216 538.39500421 C-507.61867091 539.54267267 -507.88172023 540.69034113 -508.15274074 541.87278742 C-509.96435891 550.03402615 -511.39134172 558.22726496 -512.60830714 566.49436945 C-512.91149654 568.53785165 -513.22982921 570.57857267 -513.54898097 572.61961359 C-517.06127774 595.81364052 -517.65841405 619.14652143 -517.6125567 642.56466535 C-517.60738764 646.3708647 -517.61404012 650.17704911 -517.61904337 653.98324621 C-517.62620112 660.62494768 -517.62608859 667.26661652 -517.62094905 673.90831941 C-517.61332699 683.78536661 -517.6172809 693.66238671 -517.62336566 703.53943378 C-517.63385491 721.18818847 -517.63300131 738.8369286 -517.62720784 756.48568465 C-517.62216317 771.93041908 -517.62086962 787.3751482 -517.62325313 802.81988329 C-517.6234059 803.84708243 -517.62355867 804.87428156 -517.62371607 805.93260795 C-517.62433881 810.10304594 -517.62497562 814.27348393 -517.62563559 818.44392192 C-517.63174408 857.51037143 -517.62622171 896.57681171 -517.6154418 935.64325979 C-517.60595094 970.30164243 -517.60680155 1004.96001037 -517.61636378 1039.61839289 C-517.62708797 1078.61801448 -517.63131146 1117.61762793 -517.62513926 1156.6172508 C-517.62449788 1160.77948083 -517.6238722 1164.94171087 -517.62325313 1169.10394091 C-517.62301589 1170.6410488 -517.62301589 1170.6410488 -517.62277387 1172.20920939 C-517.62050515 1187.6395826 -517.62314781 1203.06994989 -517.62821223 1218.50032228 C-517.63394571 1236.05599419 -517.63246926 1253.61164935 -517.62165074 1271.16731919 C-517.61580479 1280.97562707 -517.61535608 1290.78389865 -517.62294309 1300.59220554 C-517.62746206 1307.16237958 -517.62457573 1313.73252481 -517.61593356 1320.30269461 C-517.61122398 1324.03349575 -517.60944703 1327.76422535 -517.61674552 1331.49502397 C-517.66051483 1355.67296537 -516.52074017 1379.55754753 -512.7306216 1403.45750421 C-512.6044546 1404.26942224 -512.47828761 1405.08134027 -512.34829738 1405.91786188 C-508.5987567 1429.85044074 -502.79734122 1453.3430435 -495.3556216 1476.39500421 C-495.06751613 1477.30943292 -494.77941066 1478.22386164 -494.48257472 1479.16600031 C-486.80110833 1503.51365037 -476.72516922 1526.55753684 -465.3556216 1549.39500421 C-464.91137843 1550.29283625 -464.46713527 1551.19066828 -464.00943019 1552.11570734 C-453.30724094 1573.60863348 -440.62945562 1594.09381713 -426.3556216 1613.39500421 C-425.59789454 1614.42657648 -425.59789454 1614.42657648 -424.82485988 1615.47898859 C-418.57039307 1623.98020561 -412.17445977 1632.33536106 -405.3556216 1640.39500421 C-404.89639308 1640.93914972 -404.43716456 1641.48329523 -403.96402003 1642.04393 C-390.48284869 1657.96619097 -376.35056406 1673.97689078 -360.4728091 1687.55906671 C-357.94962704 1689.74706591 -355.5000764 1692.00793534 -353.0431216 1694.27000421 C-333.19934972 1712.33957365 -311.06452038 1728.14356649 -288.3556216 1742.39500421 C-287.61811671 1742.86180597 -286.88061183 1743.32860773 -286.12075831 1743.809555 C-277.07721225 1749.52137073 -267.96966713 1754.77734826 -258.3399966 1759.43406671 C-254.88894938 1761.10858962 -251.52137303 1762.91056701 -248.15420558 1764.74681085 C-239.19510209 1769.61956021 -230.02383698 1773.68949331 -220.5690005 1777.50144953 C-218.54907681 1778.31690515 -216.53556054 1779.1461037 -214.52359035 1779.98094171 C-152.69495582 1805.30187763 -87.85950328 1815.57237649 -21.33003261 1815.52871698 C-18.61279643 1815.53003797 -15.89556223 1815.53285033 -13.17832716 1815.5355823 C-7.29636285 1815.54070345 -1.41440676 1815.54215926 4.46755956 1815.54112619 C13.21520231 1815.53959362 21.96283605 1815.54377988 30.71047704 1815.54900082 C47.24884429 1815.55864647 63.78720843 1815.56148403 80.32557817 1815.56205788 C93.1047447 1815.56251838 105.88391001 1815.56458169 118.66307614 1815.5677585 C122.34881143 1815.56865612 126.03454671 1815.56954594 129.720282 1815.57043338 C130.63671566 1815.57065443 131.55314933 1815.57087548 132.49735371 1815.57110322 C158.25828002 1815.57725327 184.01920591 1815.58120421 209.78013299 1815.58075994 C211.23553521 1815.58073658 211.23553521 1815.58073658 212.7203395 1815.58071274 C217.63743623 1815.58062963 222.55453297 1815.58053059 227.4716297 1815.58042803 C228.44808304 1815.58040808 229.42453638 1815.58038814 230.43057921 1815.58036759 C232.40520519 1815.58032715 234.37983116 1815.58028535 236.35445713 1815.5802422 C267.05730347 1815.57962982 297.76013875 1815.58713072 328.46298192 1815.60081476 C363.00403171 1815.61620333 397.54507424 1815.6247793 432.08612768 1815.62385154 C435.77532087 1815.62377692 439.46451406 1815.6237282 443.15370725 1815.62369722 C444.06199429 1815.62368557 444.97028133 1815.62367391 445.90609223 1815.62366191 C460.46986498 1815.62363124 475.03362807 1815.6299943 489.59739795 1815.63862949 C504.25698234 1815.64714117 518.91655272 1815.64806857 533.57613822 1815.64152017 C542.26399294 1815.63784772 550.95180488 1815.63958717 559.63965499 1815.64946251 C565.46711198 1815.65552175 571.29453842 1815.65410213 577.12199408 1815.64699201 C580.42631056 1815.64315979 583.73047932 1815.64333692 587.03479971 1815.65044936 C667.39133975 1815.81177024 748.84478335 1799.56966167 819.6443784 1760.39500421 C821.41502486 1759.43632564 823.18584689 1758.47797126 824.9568784 1757.52000421 C826.28139012 1756.78910578 826.28139012 1756.78910578 827.63265965 1756.04344171 C829.8707604 1754.81843715 832.11620042 1753.61984207 834.37484715 1752.43406671 C854.57501944 1741.6846978 873.62204385 1728.45974847 891.6443784 1714.39500421 C892.88485389 1713.44134576 894.12574333 1712.48822553 895.36703465 1711.53562921 C901.60775325 1706.71937757 907.6297321 1701.76085033 913.43734715 1696.42234796 C915.37267126 1694.64459007 917.33840857 1692.9192417 919.3318784 1691.20750421 C931.39503754 1680.68588469 943.41100083 1669.6804532 953.8162534 1657.50047296 C955.95458711 1655.03773393 958.17522439 1652.66013078 960.3943784 1650.27000421 C965.67647294 1644.47648146 970.48176019 1638.3730092 975.26644872 1632.16697687 C976.59215868 1630.46215707 977.93749811 1628.77556049 979.2928159 1627.09422296 C997.16839334 1604.86003328 1012.32286116 1580.59800841 1025.6443784 1555.39500421 C1026.13228856 1554.47509699 1026.62019872 1553.55518976 1027.12289403 1552.60740656 C1045.80656375 1517.08400339 1059.35177734 1479.42147842 1068.6443784 1440.39500421 C1068.87463719 1439.44705988 1069.10489598 1438.49911554 1069.34213231 1437.52244562 C1072.23842937 1425.49314433 1074.41386757 1413.36321769 1076.3318784 1401.14500421 C1076.63569432 1399.25757501 1076.63569432 1399.25757501 1076.94564794 1397.33201593 C1080.39409952 1374.41807615 1080.94661056 1351.35735583 1080.90131351 1328.22534308 C1080.89614445 1324.41914372 1080.90279693 1320.61295932 1080.90780018 1316.80676222 C1080.91495793 1310.16506075 1080.9148454 1303.5233919 1080.90970586 1296.88168901 C1080.9020838 1287.00464182 1080.90603771 1277.12762171 1080.91212247 1267.25057465 C1080.92261172 1249.60181996 1080.92175812 1231.95307982 1080.91596465 1214.30432378 C1080.91091998 1198.85958935 1080.90962643 1183.41486023 1080.91200994 1167.97012514 C1080.91216271 1166.942926 1080.91231548 1165.91572686 1080.91247288 1164.85740048 C1080.91309562 1160.68696249 1080.91373243 1156.5165245 1080.9143924 1152.34608651 C1080.92050089 1113.279637 1080.91497852 1074.21319672 1080.90419861 1035.14674864 C1080.89470775 1000.488366 1080.89555836 965.82999806 1080.90512059 931.17161554 C1080.91584478 892.17199395 1080.92006827 853.17238049 1080.91389606 814.17275763 C1080.91325469 810.01052759 1080.91262901 805.84829756 1080.91200994 801.68606752 C1080.91185178 800.66132892 1080.91169363 799.63659032 1080.91153068 798.58079904 C1080.90926196 783.15042583 1080.91190462 767.72005853 1080.91696904 752.28968614 C1080.92270252 734.73401424 1080.92122607 717.17835907 1080.91040755 699.62268924 C1080.9045616 689.81438136 1080.90411289 680.00610978 1080.9116999 670.19780289 C1080.91621886 663.62762885 1080.91333253 657.05748362 1080.90469036 650.48731382 C1080.89998079 646.75651268 1080.89820384 643.02578308 1080.90550233 639.29498445 C1080.94904914 615.23659069 1079.88989175 591.46823011 1075.9568784 567.70750421 C1075.82777074 566.91171961 1075.69866307 566.115935 1075.56564305 565.29603571 C1067.96761698 518.65477303 1054.23268763 473.9667237 1033.6443784 431.39500421 C1032.90719579 429.86504816 1032.90719579 429.86504816 1032.15512059 428.3041839 C1025.86753775 415.32062859 1019.25608675 402.65105439 1011.6443784 390.39500421 C1011.12118016 389.54728449 1010.59798192 388.69956476 1010.05892919 387.82615656 C993.28073636 360.73409628 974.13317469 335.89612925 952.6443784 312.39500421 C951.9642368 311.64718683 951.9642368 311.64718683 951.27035497 310.88426203 C942.51878312 301.26747132 933.6930732 291.69865901 923.78109715 283.25437921 C921.65027605 281.40013635 919.58718247 279.48294596 917.52621434 277.5517425 C911.13785965 271.58776004 904.45026802 266.14229575 897.5115659 260.83396906 C895.63557299 259.38821824 893.77952495 257.91972978 891.9256284 256.44578546 C870.25168992 239.35650965 846.45620708 223.34145409 821.5818784 211.33641046 C818.99503901 210.08174253 816.46505992 208.76504201 813.9568784 207.35984796 C794.37214068 196.42696205 772.97832578 188.07228705 751.69955419 181.07859796 C749.80666149 180.44898291 747.92596279 179.78301689 746.04672215 179.11375421 C726.1796906 172.12557626 705.30198781 167.39597494 684.6443784 163.39500421 C683.5433579 163.18101984 682.44233739 162.96703546 681.30795262 162.74656671 C639.20439032 154.78371805 596.56141573 154.94369942 553.87100045 154.99999906 C545.95064007 155.00981648 538.03031862 155.00167374 530.10996006 154.99338811 C514.59958799 154.97773171 499.08925339 154.97890315 483.57887791 154.98762485 C470.00419051 154.99521912 456.42951672 154.99711967 442.85482762 154.99355692 C441.49581777 154.99321318 441.49581777 154.99321318 440.10935317 154.99286251 C436.43011526 154.99192825 432.75087735 154.99097302 429.07163946 154.98998322 C394.66894681 154.98083881 360.26627779 154.98907458 325.86358879 155.00527391 C295.40508934 155.01950708 264.94662753 155.01823304 234.4881284 155.00389093 C200.14197692 154.98777167 165.79584626 154.98148774 131.44969151 154.99072772 C127.77777074 154.99168965 124.10584997 154.99262818 120.43392919 154.99355692 C119.53003465 154.99379415 118.62614012 154.99403138 117.69485484 154.9942758 C104.1401004 154.99766546 90.58536119 154.99374029 77.03060887 154.98611826 C61.59366317 154.97748028 46.15676024 154.97981164 30.71981977 154.99596049 C22.86436758 155.00391068 15.00898501 155.00737188 7.15353368 154.99701303 C-32.56184733 154.8907196 -32.56184733 154.8907196 -72.2228091 156.75520319 Z " fill="#252525" transform="translate(1468.3556215954013,764.6049957862124)"/>
<path d="M0 0 C0.82918945 0.27424805 1.65837891 0.54849609 2.51269531 0.83105469 C16.6393871 5.51755529 30.34132772 11.09791078 44 17 C44.93634277 17.40089844 45.87268555 17.80179688 46.83740234 18.21484375 C60.58308881 24.13113851 73.57198886 31.01041083 86.49560547 38.54589844 C88.67625822 39.81202905 90.86587804 41.05792752 93.06640625 42.2890625 C117.98267603 56.23405422 141.47174577 73.27071658 163 92 C164.10408203 92.95326172 164.10408203 92.95326172 165.23046875 93.92578125 C167.16466547 95.60517361 169.08527443 97.29845238 171 99 C171.71929688 99.63808594 172.43859375 100.27617188 173.1796875 100.93359375 C175.79989637 103.27460004 178.40201064 105.63435115 181 108 C181.82612793 108.74830078 181.82612793 108.74830078 182.66894531 109.51171875 C192.03518129 118.01805291 200.85256749 126.907596 209.39160156 136.24316406 C210.7713027 137.75019645 212.16193193 139.24721133 213.5546875 140.7421875 C218.74252588 146.37311528 223.47030049 152.30235231 228.1484375 158.35546875 C229.94270152 160.66995956 231.7720548 162.94059481 233.6640625 165.17578125 C281.76312214 222.46481315 312.84065588 296.30208239 328 369 C328.20866699 369.97469238 328.41733398 370.94938477 328.63232422 371.95361328 C331.72126099 386.56117423 333.73348749 401.16003259 335.25 416 C335.33299347 416.80581512 335.41598694 417.61163025 335.50149536 418.44186401 C342.4926767 487.28817881 335.06692281 557.36360301 313 623 C312.74283203 623.77794922 312.48566406 624.55589844 312.22070312 625.35742188 C295.60613934 675.44484767 270.22107832 723.22182218 238 765 C237.57750977 765.54865723 237.15501953 766.09731445 236.71972656 766.66259766 C227.62455228 778.44513352 218.17286643 789.84403093 207.97094727 800.68774414 C205.94583874 802.84678387 204.02024596 804.97206978 202.28125 807.37109375 C201.64703125 808.17740234 201.64703125 808.17740234 201 809 C200.34 809 199.68 809 199 809 C198.76539062 809.56074219 198.53078125 810.12148437 198.2890625 810.69921875 C194.45370912 817.54474342 187.23296993 822.91337908 181.3046875 827.97265625 C179.45983677 829.59549952 177.6660689 831.2446698 175.8828125 832.93359375 C168.46200136 839.95934468 160.8444891 846.47005721 152.72363281 852.67041016 C151.03564677 853.97250251 149.37050793 855.29865912 147.7109375 856.63671875 C120.00056888 878.92682645 89.14349782 897.82341492 57 913 C56.21189941 913.37543945 55.42379883 913.75087891 54.61181641 914.13769531 C19.2928068 930.87803047 -17.75635222 943.02523764 -56 951 C-56.97469238 951.20866699 -57.94938477 951.41733398 -58.95361328 951.63232422 C-73.56117423 954.72126099 -88.16003259 956.73348749 -103 958.25 C-103.80581512 958.33299347 -104.61163025 958.41598694 -105.44186401 958.50149536 C-195.99721671 967.69717843 -287.4982198 951.37445574 -452 861 C-452.86794189 860.33822754 -452.86794189 860.33822754 -453.75341797 859.66308594 C-466.53093964 849.87859233 -478.65982662 839.38503621 -490.44970703 828.43701172 C-492.12758944 826.88173364 -493.81131929 825.3329647 -495.49609375 823.78515625 C-496.66411535 822.71099497 -497.83208527 821.63677749 -499 820.5625 C-499.54019775 820.06621094 -500.08039551 819.56992188 -500.63696289 819.05859375 C-506.97673244 813.21294889 -506.97673244 813.21294889 -509 811 C-509 810.34 -509 809.68 -509 809 C-509.66 809 -510.32 809 -511 809 C-512.3046875 807.70703125 -512.3046875 807.70703125 -513.875 805.8125 C-516.57721869 802.62253644 -519.35301873 799.53835646 -522.22119141 796.49926758 C-527.92982723 790.43418388 -533.1857121 784.14538317 -538.25390625 777.5390625 C-540.00491691 775.2593396 -541.79500513 773.02979502 -543.65234375 770.8359375 C-566.03784287 744.18938094 -583.43963043 712.94963862 -599 682 C-599.42909668 681.15646973 -599.85819336 680.31293945 -600.30029297 679.44384766 C-618.12321642 644.25384912 -629.97155125 605.50110542 -638 567 C-638.20866699 566.02530762 -638.41733398 565.05061523 -638.63232422 564.04638672 C-641.72576665 549.41751852 -643.73574147 534.79948274 -645.25 519.9375 C-645.33299347 519.12741486 -645.41598694 518.31732971 -645.50149536 517.48269653 C-652.4569596 448.63155315 -645.06991864 378.64530789 -623 313 C-622.61424805 311.83307617 -622.61424805 311.83307617 -622.22070312 310.64257812 C-610.25211507 274.56123565 -593.90809442 238.80471194 -573 207 C-572.38930664 206.06687988 -571.77861328 205.13375977 -571.14941406 204.17236328 C-563.74323945 192.88018858 -556.35250588 181.62070931 -548 171 C-547.1335394 169.87935073 -546.26768928 168.75822928 -545.40234375 167.63671875 C-536.23511079 155.80635174 -526.58769916 144.47126665 -516.39599609 133.51367188 C-514.99576971 131.99541312 -513.61514835 130.46132598 -512.23828125 128.921875 C-504.57414844 120.40044777 -496.3578555 112.55275354 -487.93457031 104.78613281 C-486.26888476 103.24825352 -484.61275367 101.70116722 -482.9609375 100.1484375 C-476.51930684 94.16285149 -469.7288802 88.74152337 -462.77197266 83.37792969 C-461.06715286 82.05221972 -459.38055628 80.70688029 -457.69921875 79.3515625 C-437.23476489 62.90247796 -415.11355615 48.44035451 -392 36 C-391.16017578 35.54657227 -390.32035156 35.09314453 -389.45507812 34.62597656 C-332.53929375 4.04344634 -270.96025367 -15.76580748 -206.625 -22.3125 C-205.43195755 -22.43446747 -205.43195755 -22.43446747 -204.21481323 -22.55889893 C-135.45774022 -29.46785838 -65.53260852 -22.00740197 0 0 Z M-240 141 C-241.00111816 141.25620117 -242.00223633 141.51240234 -243.03369141 141.77636719 C-264.78248776 147.44563642 -286.25160548 155.32915435 -306.07324219 165.97998047 C-308.18086385 167.09574875 -310.31016554 168.16055985 -312.4453125 169.22265625 C-324.96725613 175.52201499 -336.50320984 183.00035168 -348 191 C-349.05832031 191.73089844 -350.11664062 192.46179687 -351.20703125 193.21484375 C-362.90488593 201.51032391 -373.91833027 210.78577972 -384.38671875 220.57421875 C-386.65036196 222.6754481 -388.95640893 224.69180527 -391.3125 226.6875 C-394.50156462 229.45918193 -397.2419912 232.43371687 -399.96875 235.65625 C-401.99105517 237.98967905 -404.08932573 240.23906027 -406.20800781 242.48486328 C-438.80126292 277.15260992 -463.22536707 321.32839335 -477.26367188 366.63623047 C-477.93051867 368.7769502 -478.62468983 370.90625541 -479.328125 373.03515625 C-500.00514291 437.25886062 -497.41905095 512.55493609 -475 576 C-474.73219727 576.77166504 -474.46439453 577.54333008 -474.18847656 578.33837891 C-458.70076162 622.75035027 -434.47921412 663.10532016 -402.359375 697.453125 C-400.43753368 699.52769543 -398.60843582 701.63034142 -396.8125 703.8125 C-394.26251856 706.82219641 -391.44047481 709.32852984 -388.43359375 711.875 C-386.56493219 713.50670448 -384.76302189 715.1606902 -382.97265625 716.875 C-374.14922546 725.3077731 -364.84972163 732.79949864 -355 740 C-353.92564697 740.78769775 -353.92564697 740.78769775 -352.82958984 741.59130859 C-343.83555564 748.15144784 -334.69065168 754.31850806 -325.02246094 759.84179688 C-323.6281573 760.64027303 -322.2384233 761.44676396 -320.85253906 762.25976562 C-301.11191439 773.82151977 -279.8338795 783.14231672 -258 790 C-256.88141602 790.35819824 -256.88141602 790.35819824 -255.74023438 790.72363281 C-176.69168941 815.72216775 -83.82895393 810.47464863 -9.4375 772.9375 C-7.58921111 771.97456071 -5.74933403 770.99783519 -3.91357422 770.01123047 C-1.8465445 768.91890627 0.24302772 767.88158285 2.33984375 766.84765625 C30.44134252 752.81032402 57.55909185 733.193848 79.44140625 710.55859375 C81 709 81 709 83.5625 707 C86.37113913 704.69547558 88.57714071 702.1427267 90.9296875 699.3828125 C92.85816449 697.16324465 94.84546336 695.01091352 96.85668945 692.86645508 C129.11810701 658.33254937 153.32388619 614.35364176 167.26367188 569.36376953 C167.93051867 567.2230498 168.62468983 565.09374459 169.328125 562.96484375 C187.6968531 505.91794781 186.93041131 440.68568006 172 383 C171.76023437 382.06027344 171.52046875 381.12054687 171.2734375 380.15234375 C167.7999908 366.73567876 163.25294172 353.81880267 158 341 C157.69368652 340.25218262 157.38737305 339.50436523 157.07177734 338.73388672 C141.65222304 301.62199346 119.84939859 267.94186767 92.42578125 238.61328125 C90.3245519 236.34963804 88.30819473 234.04359107 86.3125 231.6875 C83.54081807 228.49843538 80.56628313 225.7580088 77.34375 223.03125 C75.01010576 221.00875832 72.76055712 218.91022774 70.5144043 216.79150391 C63.3518547 210.05668065 55.86544944 203.89468314 48 198 C47.17145508 197.37810791 47.17145508 197.37810791 46.32617188 196.74365234 C25.00097273 180.86305097 1.71520337 166.88402003 -23 157 C-23.93263672 156.62133789 -24.86527344 156.24267578 -25.82617188 155.85253906 C-93.835181 128.37003411 -168.83194024 122.55273925 -240 141 Z " fill="#252525" transform="translate(1905,1282)"/>
<path d="M0 0 C26.07735684 22.38777416 40.03779069 51.29527135 42.69824219 85.33447266 C43.28331424 107.16020416 36.87707952 127.78434268 26.41308594 146.68603516 C25.86910156 147.67345703 25.32511719 148.66087891 24.76464844 149.67822266 C15.10305607 165.93797567 -0.23476271 179.57526972 -16.58691406 188.68603516 C-17.5653125 189.23130859 -18.54371094 189.77658203 -19.55175781 190.33837891 C-45.53315299 204.04400079 -76.82487866 206.8286698 -104.95800781 198.43212891 C-135.02821622 188.77661952 -160.26762098 167.55778478 -174.82128906 139.49462891 C-188.79617198 110.93221245 -189.63684018 78.9719088 -179.47851562 49.12109375 C-168.94111379 20.3423298 -146.74489502 -1.90192917 -119.58691406 -15.31396484 C-80.48831861 -33.21892912 -33.20041878 -27.48994675 0 0 Z " fill="#252525" transform="translate(2323.5869140625,1157.31396484375)"/>
</svg>
