<?xml version="1.0" encoding="UTF-8"?>
<svg version="1.1" xmlns="http://www.w3.org/2000/svg" width="3500" height="3500">
<path d="M0 0 C5.73906188 0.01132093 11.4779684 0.00721809 17.21702462 -0.00540537 C55.49310363 -0.08734341 93.57161246 0.31982653 131.76465875 3.19414908 C134.17529383 3.3751851 136.58625169 3.55074394 138.99745065 3.72408682 C147.65180439 4.34944227 156.29722005 5.05846023 164.9404133 5.82320791 C166.78072625 5.98286536 166.78072625 5.98286536 168.65821725 6.1457482 C188.26548457 7.84872201 207.80491319 9.79327097 227.3154133 12.38570791 C229.06557104 12.6163775 230.8157341 12.84700672 232.56590158 13.07760245 C281.88130576 19.59633776 330.7424794 27.60083215 379.3154133 38.38570791 C380.47250802 38.64078116 381.62960275 38.8958544 382.82176095 39.15865713 C430.15085938 49.60615439 477.02613367 62.00654053 523.3154133 76.38570791 C524.69801334 76.81278939 526.08066623 77.23969984 527.46336251 77.66646963 C549.59492179 84.505116 571.53032055 91.76267994 593.3076008 99.65786368 C595.29929888 100.37986634 597.29167019 101.09998459 599.2841633 101.81978995 C607.97799959 104.96376459 616.65275417 108.1566867 625.3154133 111.38570791 C626.88089914 111.96771963 626.88089914 111.96771963 628.47801095 112.56148916 C658.4936264 123.76860268 688.10384028 136.23250419 717.3154133 149.38570791 C718.55227036 149.93952887 719.7892557 150.49306341 721.0263508 151.04635245 C741.9875031 160.4273237 762.71932857 170.22952815 783.3154133 180.38570791 C784.0365632 180.74080435 784.7577131 181.09590079 785.50071603 181.46175772 C802.73735796 189.95089411 819.85767498 198.57072157 836.65086251 207.91451651 C840.55276231 210.06889146 844.48099011 212.17353954 848.40721017 214.28316885 C859.84261371 220.43375656 871.12708825 226.79783061 882.3154133 233.38570791 C884.06800286 234.41307658 885.82060753 235.44041947 887.5732258 236.46773916 C907.3678047 248.0956586 926.96251524 260.03654369 946.3154133 272.38570791 C946.95269357 272.7912792 947.58997384 273.19685049 948.24656564 273.61471182 C956.76372684 279.03761494 965.18360471 284.59754454 973.57078439 290.21871573 C976.12626587 291.92809181 978.690531 293.62419936 981.2529133 295.32320791 C993.75098045 303.66082223 1006.06121544 312.2686471 1018.31199533 320.9643212 C1020.18519226 322.29331858 1022.06066047 323.6190484 1023.93650705 324.94430166 C1032.22162997 330.8129304 1040.3564968 336.86970364 1048.45945626 342.98678213 C1050.149343 344.26053259 1051.84252864 345.52965483 1053.53806955 346.79586416 C1063.09497752 353.93521439 1072.5431828 361.21176983 1081.9482258 368.54977041 C1084.29413498 370.36920493 1086.65181741 372.17277857 1089.0107258 373.97530752 C1098.44425696 381.19442694 1107.57789903 388.74364685 1116.62229806 396.44234854 C1119.61282453 398.97809448 1122.63523623 401.44590685 1125.7529133 403.82320791 C1131.52498854 408.24706121 1136.97713061 413.0457837 1142.47605783 417.80074698 C1144.27953978 419.35479593 1146.09073075 420.8992637 1147.90525705 422.44039541 C1154.61060718 428.14091188 1161.18186531 433.95358855 1167.6435383 439.92867666 C1170.50055269 442.55596037 1173.40840831 445.11460482 1176.3388508 447.65914541 C1184.46120546 454.75416668 1192.38892467 462.07340628 1200.3154133 469.38570791 C1200.90515939 469.92888663 1201.49490548 470.47206534 1202.10252267 471.03170401 C1209.47125805 477.82779003 1216.74981631 484.68484027 1223.75266916 491.85982901 C1226.42990417 494.58390783 1229.17330124 497.15985738 1232.06931955 499.65133291 C1237.03528416 503.94869989 1241.67163125 508.55799252 1246.3154133 513.19820791 C1247.18553048 514.05607901 1248.05564767 514.9139501 1248.95213205 515.79781729 C1249.77326486 516.61701651 1250.59439767 517.43621573 1251.4404133 518.28023916 C1252.18549142 519.0212084 1252.93056955 519.76217764 1253.6982258 520.52560049 C1255.3154133 522.38570791 1255.3154133 522.38570791 1255.3154133 524.38570791 C1255.8929133 524.61258291 1256.4704133 524.83945791 1257.0654133 525.07320791 C1259.91132711 526.7333243 1261.3138325 528.77758749 1263.3154133 531.38570791 C1264.96564607 533.06864801 1266.63605537 534.7318299 1268.3154133 536.38570791 C1283.8372207 551.73790247 1283.8372207 551.73790247 1288.8857258 557.74117666 C1290.42569251 559.51255914 1292.06470128 561.13084424 1293.7529133 562.76070791 C1296.3154133 565.38570791 1296.3154133 565.38570791 1296.3154133 567.38570791 C1296.9754133 567.38570791 1297.6354133 567.38570791 1298.3154133 567.38570791 C1299.72556955 568.78414541 1299.72556955 568.78414541 1301.3779133 570.76070791 C1304.10620799 573.96913729 1306.86685775 577.13551159 1309.6904133 580.26070791 C1310.45482736 581.10891104 1311.21924142 581.95711416 1312.00681955 582.83102041 C1313.49138043 584.47383398 1314.97817888 586.11462977 1316.46775705 587.75289541 C1322.35659626 594.24872167 1328.06618783 600.88671448 1333.75388986 607.5580712 C1335.30899875 609.3782002 1336.86976551 611.19330447 1338.4326008 613.00680166 C1343.65061532 619.06459169 1348.8129595 625.15592725 1353.8544758 631.36227041 C1356.31421108 634.38423091 1358.7902368 637.39211087 1361.27024728 640.39742666 C1364.28945485 644.05677357 1367.30307278 647.7207072 1370.3154133 651.38570791 C1370.89436349 652.08985831 1371.47331369 652.7940087 1372.06980783 653.51949698 C1378.1723671 660.95216792 1384.17392766 668.42124011 1389.8935383 676.15523916 C1392.85847063 680.14173465 1395.93938496 684.03737412 1399.0029133 687.94820791 C1406.29939363 697.28825506 1413.34337603 706.80189178 1420.3154133 716.38570791 C1421.1490339 717.53087881 1421.1490339 717.53087881 1421.99949533 718.69918448 C1429.36270627 728.82657117 1436.62118235 739.02523955 1443.82273751 749.26803213 C1445.33713794 751.4165289 1446.85847274 753.55995304 1448.38181955 755.70211416 C1454.86236087 764.82299076 1461.17906068 774.03001162 1467.3154133 783.38570791 C1467.86568185 784.22343741 1468.41595041 785.0611669 1468.98289376 785.92428213 C1491.91438235 820.86661288 1513.81956857 856.31234128 1534.17234689 892.82174307 C1536.4310437 896.86040864 1538.76630643 900.84725397 1541.13596994 904.82174307 C1545.17968229 911.60742994 1548.9166566 918.4312584 1552.3779133 925.53805166 C1554.21282547 929.24594068 1556.20744232 932.8561958 1558.21409494 936.4733544 C1570.83587681 959.23514228 1582.22252661 982.6596418 1593.06150705 1006.31539541 C1595.37250732 1011.35874249 1597.72259332 1016.3815643 1600.10056955 1021.39352041 C1607.07363831 1036.10222117 1613.77219377 1050.84739787 1619.90037423 1065.9330712 C1621.57083958 1070.00893748 1623.27304638 1074.07089156 1624.9794758 1078.13180166 C1631.35179433 1093.30674388 1637.6926575 1108.47171121 1643.39842111 1123.91305166 C1644.37785114 1126.55407067 1645.37254178 1129.18898522 1646.3701008 1131.82320791 C1648.28092767 1136.87438853 1650.17241347 1141.93252054 1652.05418283 1146.99459463 C1652.92002304 1149.32260868 1653.78831843 1151.64971063 1654.65867501 1153.97603995 C1670.51562438 1196.39718447 1684.23667663 1239.74003697 1696.3154133 1283.38570791 C1696.81355539 1285.17162344 1696.81355539 1285.17162344 1697.32176095 1286.99361807 C1702.39130271 1305.177776 1707.16003229 1323.40437485 1711.46824533 1341.78658682 C1712.33091018 1345.45154513 1713.21053214 1349.11213182 1714.09275705 1352.77242666 C1718.06121155 1369.35025543 1721.46225907 1385.97038733 1724.61570626 1402.71725088 C1725.70099986 1408.40727935 1726.85231752 1414.0835925 1728.0029133 1419.76070791 C1729.67601354 1428.04357069 1731.23647855 1436.33411996 1732.63963205 1444.66695791 C1733.12077736 1447.31464773 1733.65208644 1449.90083372 1734.25852853 1452.51827627 C1735.33092046 1457.31446711 1736.14600801 1462.12841195 1736.9013508 1466.98336416 C1737.04300164 1467.88154867 1737.18465249 1468.77973318 1737.33059579 1469.70513541 C1737.78809351 1472.61885229 1738.24008812 1475.53337425 1738.6904133 1478.44820791 C1738.84670205 1479.45755392 1739.00299081 1480.46689993 1739.16401559 1481.50683218 C1741.63757098 1497.52998662 1743.91994873 1513.55421788 1745.76902658 1529.66305166 C1746.16852578 1533.13829232 1746.58085696 1536.61182236 1746.99851876 1540.08492666 C1747.65535762 1545.55211946 1748.29542277 1551.0211204 1748.92768747 1556.49120718 C1749.17400207 1558.60796177 1749.42400294 1560.72429319 1749.6789692 1562.8400231 C1750.60420273 1570.55400962 1751.3741603 1578.27899625 1752.09120065 1586.01469809 C1752.32765144 1588.51512412 1752.57783362 1591.01396169 1752.82884103 1593.51296622 C1757.65277761 1642.44405571 1756.92916245 1691.57934934 1756.8296898 1740.68937838 C1756.81460043 1749.00651499 1756.82005099 1757.32346109 1756.83689767 1765.64059073 C1757.03925227 1868.19776985 1757.03925227 1868.19776985 1752.3154133 1914.38570791 C1752.19967084 1915.53385222 1752.08392839 1916.68199652 1751.96467859 1917.86493307 C1746.87003409 1968.31976876 1741.40670528 2019.39817032 1730.80857736 2069.04879385 C1729.87645215 2073.4657753 1729.00843964 2077.89571085 1728.1279133 2082.32320791 C1727.70873098 2084.41437149 1727.28945331 2086.50551596 1726.8701008 2088.59664541 C1725.81049909 2093.8917785 1724.76101235 2099.18883268 1723.71581918 2104.48682791 C1722.9288428 2108.4725506 1722.13855423 2112.45761366 1721.34797555 2116.4426232 C1720.95659198 2118.41945244 1720.56659872 2120.39655754 1720.17811471 2122.37395865 C1717.86542363 2134.14141989 1715.31687992 2145.77482998 1712.3154133 2157.38570791 C1711.65007277 2160.06089409 1710.99675755 2162.73898048 1710.34275705 2165.41695791 C1698.15156876 2215.03583552 1683.92387071 2264.0622027 1667.3154133 2312.38570791 C1667.01574655 2313.25830252 1666.7160798 2314.13089712 1666.40733224 2315.02993399 C1664.13838742 2321.63176447 1661.85546301 2328.22867154 1659.5654133 2334.82320791 C1659.26089242 2335.70210684 1658.95637155 2336.58100577 1658.64262277 2337.48653799 C1654.10998911 2350.54921911 1649.29974366 2363.48900561 1644.3154133 2376.38570791 C1643.83075892 2377.64502177 1643.34620917 2378.90437589 1642.86180001 2380.16378409 C1635.6982831 2398.7218129 1628.11749948 2417.08904416 1620.3154133 2435.38570791 C1620.04279672 2436.02546561 1619.77018014 2436.6652233 1619.48930246 2437.32436758 C1608.94194464 2462.05990267 1597.75009245 2486.46278423 1586.0576008 2510.67867666 C1584.05247784 2514.83686404 1582.08533371 2519.01025174 1580.1459797 2523.19942862 C1576.39865271 2531.28289357 1572.33891856 2539.16691747 1568.1513508 2547.03023916 C1565.43315972 2552.14071079 1562.78051836 2557.28390872 1560.12937814 2562.42940909 C1554.42534032 2573.49432122 1548.60574238 2584.46838114 1542.48338205 2595.30709463 C1541.30088797 2597.41155837 1540.13399654 2599.52395527 1538.9716633 2601.63961416 C1528.22283034 2621.18894416 1516.8360684 2640.36107048 1505.16453439 2659.37154776 C1503.2166944 2662.54662467 1501.27566265 2665.72580479 1499.33494455 2668.90523916 C1491.20196934 2682.20514888 1482.90989354 2695.37919826 1474.3154133 2708.38570791 C1473.89131173 2709.0294335 1473.46721017 2709.67315909 1473.03025705 2710.33639151 C1467.64064133 2718.5096311 1462.13908419 2726.60659185 1456.6279133 2734.69820791 C1456.00996896 2735.60554678 1455.39202462 2736.51288565 1454.7553547 2737.44771963 C1451.16964898 2742.70119546 1447.55040495 2747.92942841 1443.894759 2753.13448721 C1442.31944753 2755.37995747 1440.75415194 2757.63216859 1439.1904133 2759.88570791 C1425.73145213 2779.08715917 1411.65986398 2797.83934743 1397.3154133 2816.38570791 C1396.49978192 2817.44780325 1395.6846874 2818.51031106 1394.8701008 2819.57320791 C1385.86302395 2831.32379933 1376.73274975 2842.96001477 1367.3154133 2854.38570791 C1365.81470155 2856.21845868 1364.31470692 2858.05179686 1362.8154133 2859.88570791 C1362.06904611 2860.7970751 1361.32267892 2861.70844229 1360.55369455 2862.64742666 C1359.08933374 2864.43890472 1357.62825799 2866.2330743 1356.17088205 2868.03023916 C1348.55257858 2877.40555676 1340.75685747 2886.63562531 1332.6279133 2895.57320791 C1329.65517306 2898.84375397 1326.83055415 2902.18806405 1324.0654133 2905.63570791 C1319.40300557 2911.4023701 1314.37473124 2916.77877569 1309.30369455 2922.18258291 C1307.11081076 2924.52183883 1304.96709956 2926.8902315 1302.8779133 2929.32320791 C1298.49510615 2934.39351422 1293.88415815 2939.25407928 1289.29612619 2944.13790518 C1286.8861725 2946.70547056 1284.48502309 2949.28045883 1282.09641916 2951.86788565 C1269.80370436 2965.12584878 1256.98853988 2977.86582234 1244.19480783 2990.63668448 C1240.93942761 2993.88631368 1237.68863443 2997.14048912 1234.43910104 3000.39596373 C1231.90316396 3002.93552832 1229.36483311 3005.47268957 1226.82578927 3008.0091477 C1225.62590843 3009.20836817 1224.42675128 3010.40831324 1223.22837716 3011.60903937 C1217.58435451 3017.26172928 1211.95685806 3022.88890506 1205.86045724 3028.0608483 C1203.72716021 3029.89012901 1201.77127323 3031.86966767 1199.8154133 3033.88570791 C1196.46103923 3037.28021979 1193.01456275 3040.47825394 1189.39744455 3043.58883291 C1183.33285682 3048.82281107 1177.44785311 3054.26164453 1171.5654133 3059.69820791 C1166.13698385 3064.69842281 1160.56155641 3069.51050034 1154.9404133 3074.29195791 C1151.89139329 3076.88658833 1148.870293 3079.51162275 1145.85471994 3082.14498526 C1137.77090538 3089.19820671 1129.52732327 3096.04314413 1121.21922189 3102.83004385 C1119.52650078 3104.21322145 1117.83624932 3105.59931641 1116.14744455 3106.98727041 C1102.46469289 3118.21909194 1088.55748308 3129.16932407 1074.50681955 3139.93648916 C1072.42577107 3141.53122282 1070.35157574 3143.1337054 1068.28025705 3144.74117666 C1059.49644929 3151.54835006 1050.56056709 3158.14000587 1041.59763986 3164.7089501 C1039.53773905 3166.2223646 1037.48373759 3167.74326132 1035.4326008 3169.26852041 C1027.84222353 3174.9001234 1020.11926885 3180.30331767 1012.30076486 3185.61373526 C1007.50867462 3188.87154144 1002.76317323 3192.1809804 998.0654133 3195.57320791 C991.54670302 3200.27109686 984.88190946 3204.72854215 978.17576486 3209.15328604 C976.38076043 3210.34241758 974.59294266 3211.54150416 972.8076008 3212.74508291 C961.77909913 3220.17128713 950.56028513 3227.29270371 939.3154133 3234.38570791 C938.30639962 3235.02266592 937.29738595 3235.65962393 936.25779611 3236.3158837 C924.49575951 3243.73172699 912.6962019 3251.05339356 900.66355783 3258.02242666 C897.93773858 3259.60497758 895.21825529 3261.19814332 892.49900705 3262.79195791 C881.96703978 3268.9610019 871.4270406 3275.10961874 860.75388986 3281.03170401 C858.91871201 3282.05071646 857.08497044 3283.07231621 855.25193673 3284.09518057 C839.69975142 3292.77014059 824.05472486 3301.20560151 808.2138508 3309.34273916 C803.6322138 3311.69693145 799.08949101 3314.11089774 794.5654133 3316.57320791 C785.67750493 3321.34109497 776.54158175 3325.59233117 767.4272297 3329.90621573 C764.27340137 3331.4056822 761.12734216 3332.92035569 757.98338205 3334.44039541 C745.18147965 3340.62934247 732.33315176 3346.66434831 719.3154133 3352.38570791 C718.28545236 3352.83961905 717.25549142 3353.29353018 716.19431955 3353.7611962 C707.25804657 3357.69101869 698.29590559 3361.55813121 689.3154133 3365.38570791 C688.55599435 3365.70944388 687.79657541 3366.03317984 687.01414376 3366.36672598 C606.61980514 3400.58914555 523.56443494 3427.67406332 433.3154133 3451.38570791 C432.42525522 3451.61983389 431.53509713 3451.85395987 430.61796457 3452.09518057 C406.95321003 3458.31431951 383.23603244 3463.59897325 359.18379098 3468.09312063 C352.21395428 3469.39631697 345.26377879 3470.78474165 338.3154133 3472.19820791 C330.24128992 3473.83043057 322.15728371 3475.34208717 314.0341633 3476.70992666 C311.39081044 3477.19028385 308.81121737 3477.72155353 306.19871408 3478.32882315 C301.31448672 3479.42080224 296.41102928 3480.22434754 291.4638508 3480.97164541 C290.5406907 3481.11329626 289.61753061 3481.25494711 288.66639596 3481.40089041 C285.67499961 3481.85820353 282.68283197 3482.3101354 279.6904133 3482.76070791 C278.65577951 3482.91699667 277.62114572 3483.07328543 276.55515939 3483.23431021 C259.96813844 3485.73544389 243.37979649 3488.130115 226.72007638 3490.09988028 C224.03555782 3490.41897263 221.35176927 3490.74387372 218.66795236 3491.06881338 C213.20652611 3491.72761379 207.74302158 3492.36709717 202.27830392 3492.99798208 C200.15770636 3493.24430845 198.03753009 3493.49431098 195.91795236 3493.74926382 C188.18668623 3494.67459735 180.44438473 3495.44431428 172.69145471 3496.16149527 C170.18525928 3496.39798976 167.68063983 3496.64814887 165.17585641 3496.89913565 C116.41205794 3501.69587618 67.45541036 3500.99966935 18.51366669 3500.89998442 C10.24528617 3500.88489914 1.97709734 3500.89034234 -6.29127616 3500.90719229 C-108.76067898 3501.11060014 -108.76067898 3501.11060014 -155.6845867 3496.38570791 C-156.84252423 3496.26996546 -158.00046176 3496.15422301 -159.1934883 3496.0349732 C-176.04803943 3494.34170881 -192.87379174 3492.46945586 -209.6845867 3490.38570791 C-210.70034781 3490.25982291 -211.71610892 3490.1339379 -212.76265067 3490.00423819 C-244.34882858 3486.06941195 -276.14580324 3482.07849675 -307.3095867 3475.50289541 C-313.24299397 3474.25190409 -319.19852476 3473.11691512 -325.15284842 3471.97091299 C-330.67596568 3470.90781027 -336.19601001 3469.82912789 -341.71562308 3468.74799734 C-345.40965578 3468.02461443 -349.10406739 3467.3036854 -352.80079764 3466.59420401 C-387.9807578 3459.82927553 -422.64485309 3450.67372265 -457.2470867 3441.44820791 C-458.05751426 3441.23313589 -458.86794181 3441.01806387 -459.70292777 3440.79647452 C-470.71152745 3437.86672891 -481.57909259 3434.597476 -492.42320365 3431.10992056 C-495.9083843 3429.99378418 -499.4018278 3428.90452032 -502.8955242 3427.81539541 C-563.08833919 3409.00325132 -563.08833919 3409.00325132 -585.0595867 3400.53414541 C-591.14630227 3398.18831322 -597.28848957 3396.00758548 -603.4345867 3393.82320791 C-613.37263112 3390.27042183 -623.19246385 3386.49447248 -632.95997733 3382.49850088 C-635.97457846 3381.26726863 -638.99344218 3380.04685202 -642.0127117 3378.82711416 C-657.6372907 3372.50417715 -673.19627168 3366.03555622 -688.6845867 3359.38570791 C-690.17877127 3358.74496329 -690.17877127 3358.74496329 -691.70314139 3358.09127432 C-727.91324002 3342.5072565 -763.59211553 3325.33784594 -798.6220867 3307.26070791 C-799.76975516 3306.66959219 -800.91742362 3306.07847647 -802.09986991 3305.46944815 C-808.43601986 3302.17314994 -814.6359298 3298.70588443 -820.78688163 3295.07662588 C-825.36223861 3292.40673605 -830.01885389 3289.89331157 -834.6845867 3287.38570791 C-835.62076834 3286.88232901 -836.55694999 3286.3789501 -837.52150077 3285.86031729 C-839.45379828 3284.8220094 -841.3861718 3283.78384293 -843.31861991 3282.74581534 C-853.41467516 3277.31087252 -863.39470558 3271.74254687 -873.22950858 3265.8495751 C-876.10834406 3264.13303796 -878.99767674 3262.43488287 -881.8877117 3260.73727041 C-896.97521759 3251.86213878 -911.90193121 3242.76298249 -926.6845867 3233.38570791 C-927.68522147 3232.75124747 -927.68522147 3232.75124747 -928.70607108 3232.10396963 C-932.04185865 3229.98378122 -935.36444618 3227.84380463 -938.67823905 3225.68941885 C-940.19843439 3224.70160635 -941.71980094 3223.71559597 -943.24171561 3222.73043448 C-954.75664599 3215.27575059 -966.22157365 3207.76956517 -977.47462577 3199.92428213 C-980.02778308 3198.14677469 -982.58661424 3196.37757954 -985.1455242 3194.60836416 C-997.09305278 3186.33738155 -1008.95444793 3177.9621954 -1020.6845867 3169.38570791 C-1021.84401786 3168.53927725 -1021.84401786 3168.53927725 -1023.02687186 3167.67574698 C-1039.78978433 3155.42553216 -1056.2401739 3142.7869994 -1072.60353202 3130.00973135 C-1074.51155677 3128.52073785 -1076.42201976 3127.03493603 -1078.3330242 3125.54977041 C-1086.94485955 3118.83975601 -1095.37358001 3111.91820259 -1103.78224295 3104.95602041 C-1106.30089635 3102.87696772 -1108.83647669 3100.81902663 -1111.3720867 3098.76070791 C-1117.2910659 3093.92359651 -1123.0785628 3088.93702781 -1128.86866874 3083.94723135 C-1130.68759319 3082.38312262 -1132.5113875 3080.82489715 -1134.33693045 3079.26852041 C-1141.21108859 3073.40515868 -1148.0071751 3067.4736209 -1154.6845867 3061.38570791 C-1156.55932414 3059.67708645 -1158.4343306 3057.96876011 -1160.3095867 3056.26070791 C-1161.23513358 3055.41766104 -1162.16068045 3054.57461416 -1163.1142742 3053.70602041 C-1165.20066873 3051.82255788 -1167.30527665 3049.97004861 -1169.4345867 3048.13570791 C-1174.03717647 3044.13673648 -1178.4653036 3039.95163265 -1182.91188163 3035.78121573 C-1186.82521697 3032.11255469 -1190.76984419 3028.48492604 -1194.7470867 3024.88570791 C-1199.86372058 3020.21790157 -1204.77077781 3015.36894496 -1209.61451834 3010.41891104 C-1212.47467274 3007.51427194 -1215.384997 3004.74206655 -1218.47755545 3002.08492666 C-1223.46726982 2997.77328633 -1228.0965743 2993.1197475 -1232.7470867 2988.44820791 C-1233.60624686 2987.59291495 -1234.46540702 2986.73762198 -1235.35060233 2985.85641104 C-1239.07760298 2982.12371597 -1242.74534113 2978.38617876 -1246.18068045 2974.38180166 C-1250.41558944 2969.45211744 -1255.05739417 2964.94383788 -1259.6845867 2960.38570791 C-1264.98044496 2955.16889232 -1270.17721313 2949.95135773 -1275.01759452 2944.30660635 C-1277.93166514 2940.94868197 -1281.0046097 2937.7399834 -1284.0595867 2934.51070791 C-1294.84340065 2923.05821259 -1305.20935504 2911.26528445 -1315.49952811 2899.36959463 C-1318.33235196 2896.09512427 -1321.17144036 2892.8267087 -1324.0283367 2889.57320791 C-1329.72049039 2883.07645286 -1335.23365878 2876.50346008 -1340.51222342 2869.66598135 C-1344.00715944 2865.16940912 -1347.68275812 2860.85688029 -1351.4345867 2856.57320791 C-1356.04358746 2851.30787266 -1360.47069701 2845.97536525 -1364.6845867 2840.38570791 C-1366.20375595 2838.40526364 -1367.72477023 2836.42623402 -1369.2470867 2834.44820791 C-1369.66039237 2833.90994375 -1370.07369803 2833.37167959 -1370.49952811 2832.8171044 C-1373.62338205 2828.75190274 -1376.770229 2824.70503596 -1379.92311209 2820.66231924 C-1385.15033475 2813.95879625 -1390.34788171 2807.24067008 -1395.42286795 2800.42086416 C-1397.0990087 2798.17153538 -1398.78362432 2795.93015327 -1400.47755545 2793.69430166 C-1407.75831887 2784.06916815 -1414.77687368 2774.28133392 -1421.6845867 2764.38570791 C-1422.30720389 2763.49625479 -1422.92982108 2762.60680166 -1423.57130545 2761.69039541 C-1424.64535846 2760.15603398 -1425.71827883 2758.62087906 -1426.79005545 2757.08492666 C-1428.32726518 2754.894799 -1429.87259737 2752.71111051 -1431.42286795 2750.53023916 C-1437.58549847 2741.85241169 -1443.61048561 2733.10400897 -1449.4712078 2724.21969229 C-1450.68831471 2722.38007315 -1451.91346041 2720.54609014 -1453.14161795 2718.71383291 C-1461.85493429 2705.71347555 -1470.39031836 2692.61878063 -1478.50221366 2679.23336416 C-1481.23495483 2674.73113587 -1484.02144212 2670.27012497 -1486.86232108 2665.83541495 C-1503.46769037 2639.87972132 -1518.55484532 2612.87189821 -1533.15113944 2585.74972159 C-1536.02590035 2580.41490062 -1538.95213442 2575.12516683 -1541.9970867 2569.88570791 C-1545.06343995 2564.57880428 -1547.84855752 2559.18102787 -1550.54957694 2553.6830712 C-1552.71784433 2549.27944958 -1554.97734268 2544.93695942 -1557.29884452 2540.61227041 C-1561.8611156 2532.10262768 -1566.0369418 2523.4839131 -1569.93409842 2514.64889151 C-1572.32761104 2509.25033978 -1574.87861398 2503.95637487 -1577.54005545 2498.68648916 C-1581.51851348 2490.79885336 -1585.23767662 2482.81171738 -1588.8720867 2474.76070791 C-1589.18996146 2474.05871268 -1589.50783622 2473.35671744 -1589.83534354 2472.63344961 C-1608.54512084 2431.30104965 -1626.39315991 2389.34723841 -1640.97755545 2346.36227041 C-1642.53709345 2341.77044355 -1644.22212734 2337.23467858 -1645.9345867 2332.69820791 C-1651.3844574 2318.13210246 -1656.12188632 2303.3029592 -1660.97828788 2288.5313378 C-1661.63153588 2286.54686836 -1662.28733926 2284.56326937 -1662.94435233 2282.58004385 C-1669.19491168 2263.67604125 -1674.7464587 2244.60529048 -1680.10969657 2225.43526846 C-1680.9811547 2222.32840318 -1681.86313075 2219.22452373 -1682.74318045 2216.12008291 C-1693.72290363 2177.13494305 -1702.91182711 2137.68906288 -1710.95069999 2097.99947745 C-1711.68668526 2094.37537428 -1712.43318205 2090.75354572 -1713.18068045 2087.13180166 C-1719.5812297 2055.91483249 -1724.52208347 2024.59061636 -1728.6742565 1993.0003472 C-1729.34570552 1987.90033243 -1730.04282027 1982.80556498 -1730.77443045 1977.71383291 C-1735.67429104 1943.3230873 -1738.51711131 1908.65197965 -1740.9345867 1874.01070791 C-1741.01748954 1872.82472006 -1741.10039237 1871.63873221 -1741.18580741 1870.41680533 C-1741.42371666 1866.98221471 -1741.65698806 1863.54735073 -1741.8877117 1860.11227041 C-1741.95415885 1859.13576025 -1742.02060599 1858.15925009 -1742.08906668 1857.15314871 C-1742.30255062 1853.89808915 -1742.49560103 1850.64228388 -1742.6845867 1847.38570791 C-1742.72696715 1846.70228071 -1742.7693476 1846.01885351 -1742.8130123 1845.3147164 C-1743.82050042 1828.78887697 -1743.86483912 1812.26227204 -1743.88477534 1795.71244437 C-1743.88775483 1793.3515362 -1743.89186792 1790.99063237 -1743.89627951 1788.62972647 C-1743.90990797 1781.14764442 -1743.91958959 1773.66557293 -1743.9234814 1766.18347937 C-1743.92747397 1758.5613795 -1743.93959933 1750.93940604 -1743.9658367 1743.31734854 C-1744.10064292 1703.23328232 -1743.75088048 1663.38011734 -1740.6845867 1623.38570791 C-1740.61977607 1622.52732321 -1740.55496543 1621.66893851 -1740.48819083 1620.78454214 C-1739.71423496 1610.5617847 -1738.83368796 1600.35172997 -1737.8720867 1590.14504629 C-1737.61559301 1587.39633898 -1737.36892378 1584.6467808 -1737.12208766 1581.89719206 C-1734.94537925 1557.68415772 -1732.06611268 1533.59168441 -1728.7470867 1509.51070791 C-1728.55191458 1508.09052862 -1728.55191458 1508.09052862 -1728.35279959 1506.64165884 C-1727.58164681 1501.03382497 -1726.80519362 1495.4267494 -1726.02375907 1489.82033926 C-1725.72068739 1487.64484421 -1725.41901917 1485.46915995 -1725.11769217 1483.29342276 C-1720.41491248 1449.55569042 -1713.80485964 1416.09100794 -1706.44728202 1382.83980948 C-1705.72732391 1379.57925659 -1705.01263632 1376.31759717 -1704.29919547 1373.05561453 C-1703.62070683 1369.9573031 -1702.93880057 1366.85974916 -1702.25627249 1363.76232535 C-1701.92655508 1362.26384515 -1701.59785528 1360.76514052 -1701.27037162 1359.26617056 C-1696.78359334 1338.74862021 -1691.51365971 1318.43106781 -1686.00734061 1298.16598135 C-1685.18114755 1295.12304121 -1684.36040858 1292.0786645 -1683.54005545 1289.03414541 C-1680.34243293 1277.21002543 -1676.97798077 1265.45057596 -1673.40065116 1253.73586661 C-1672.70002426 1251.43637474 -1672.00643477 1249.13488991 -1671.31544608 1246.83248526 C-1663.91478603 1222.18759315 -1655.90978181 1197.78581808 -1647.4210369 1173.49477774 C-1646.7666905 1171.62083941 -1646.11554518 1169.745784 -1645.46486014 1167.8705712 C-1634.370111 1135.96936784 -1621.86770964 1104.47635828 -1608.6845867 1073.38570791 C-1608.1915203 1072.21701163 -1607.69845389 1071.04831534 -1607.19044608 1069.84420401 C-1601.47000737 1056.29763236 -1595.59235145 1042.83990726 -1589.41359061 1029.49581534 C-1587.02036019 1024.32449362 -1584.69796577 1019.14171559 -1582.4970867 1013.88570791 C-1580.16614966 1008.36471703 -1577.56477204 1003.0289236 -1574.85133475 997.68966299 C-1572.2342921 992.53006891 -1569.75682734 987.31515018 -1567.3095867 982.07320791 C-1563.85420129 974.70091988 -1560.16956621 967.47861534 -1556.3408367 960.29391104 C-1553.74761374 955.424593 -1551.24277972 950.52414994 -1548.8095867 945.57320791 C-1543.74922715 935.34192201 -1538.20206871 925.37540501 -1532.6845867 915.38570791 C-1532.10257499 914.3288378 -1531.52056327 913.27196768 -1530.92091483 912.1830712 C-1518.89884817 890.361532 -1506.64550002 868.66601081 -1493.6845867 847.38570791 C-1492.82907997 845.9742726 -1491.97361333 844.56281299 -1491.11818045 843.15133291 C-1474.45808202 815.71734433 -1457.0113662 788.73719748 -1438.6845867 762.38570791 C-1438.12465018 761.57875479 -1437.56471366 760.77180166 -1436.98780936 759.94039541 C-1424.19983928 741.5262886 -1411.03985618 723.39171686 -1397.6845867 705.38570791 C-1396.9133245 704.34567618 -1396.9133245 704.34567618 -1396.12648124 703.2846337 C-1385.69492522 689.24124052 -1374.97609339 675.42210439 -1364.0127117 661.79000479 C-1361.1597773 658.24095439 -1358.34031444 654.66892766 -1355.54615897 651.07345206 C-1350.86225005 645.05248324 -1346.02514439 639.19956816 -1341.03102225 633.43331534 C-1337.95671838 629.88226651 -1334.95109276 626.28840063 -1331.9970867 622.63570791 C-1328.44363101 618.25631387 -1324.72193871 614.07175027 -1320.92286795 609.90523916 C-1318.65611512 607.35365875 -1316.50918584 604.7339926 -1314.3720867 602.07320791 C-1309.54113625 596.10407541 -1304.34214037 590.52252043 -1299.1040203 584.91402823 C-1296.31172953 581.90753696 -1293.57902399 578.84761619 -1290.8408367 575.79195791 C-1288.56673738 573.2541949 -1286.28169648 570.7265094 -1283.9970867 568.19820791 C-1280.99329733 564.86530771 -1278.04044246 561.5012261 -1275.1689617 558.05367666 C-1272.2271635 554.74802447 -1269.00766687 551.70476634 -1265.86036795 548.59664541 C-1264.9059284 547.6513455 -1263.95150139 546.70603293 -1262.9970867 545.76070791 C-1262.51175467 545.28375479 -1262.02642264 544.80680166 -1261.52638358 544.31539541 C-1259.28873355 542.09317745 -1257.4421258 540.02201656 -1255.6845867 537.38570791 C-1255.0245867 537.38570791 -1254.3645867 537.38570791 -1253.6845867 537.38570791 C-1253.43806357 536.81419501 -1253.19154044 536.2426821 -1252.93754691 535.65385062 C-1251.47729323 533.01045962 -1249.77506675 531.22912499 -1247.63722342 529.09542471 C-1246.38484381 527.83843016 -1246.38484381 527.83843016 -1245.10716361 526.55604178 C-1244.2020101 525.65807379 -1243.2968566 524.7601058 -1242.3642742 523.83492666 C-1241.43164756 522.90275824 -1240.49902091 521.97058981 -1239.53813285 521.01017386 C-1237.56235936 519.03596335 -1235.58327826 517.0651513 -1233.60157889 515.09688956 C-1231.08178195 512.59397686 -1228.56851109 510.08463879 -1226.05752486 507.57289034 C-1224.11022618 505.62586603 -1222.16031271 503.68147783 -1220.2095539 501.73792082 C-1218.83729413 500.37032585 -1217.46647219 499.00128864 -1216.095689 497.63221365 C-1211.63479174 493.2046483 -1207.12176523 488.90563193 -1202.3413555 484.82352835 C-1200.00165153 482.79302525 -1197.84488596 480.60439364 -1195.6845867 478.38570791 C-1192.12098687 474.77851665 -1188.46533815 471.39092903 -1184.6142742 468.09664541 C-1182.55150149 466.26770928 -1180.61867951 464.34990333 -1178.6845867 462.38570791 C-1175.55097842 459.20958945 -1172.30409303 456.25124928 -1168.92286795 453.34273916 C-1166.27716406 451.02947974 -1163.7019495 448.64716735 -1161.1220867 446.26070791 C-1154.11881614 439.80390298 -1146.91027347 433.59118761 -1139.6845867 427.38570791 C-1138.78256522 426.60961172 -1138.78256522 426.60961172 -1137.86232108 425.81783682 C-1133.81050992 422.33172935 -1129.7507523 418.8550596 -1125.6845867 415.38570791 C-1125.15687674 414.93518057 -1124.62916678 414.48465323 -1124.08546561 414.02047354 C-1111.3124315 403.12781451 -1098.38652637 392.42533489 -1085.14943045 382.10055166 C-1081.44621403 379.20876754 -1077.78456662 376.26628884 -1074.1220867 373.32320791 C-1063.5665903 364.86263379 -1052.81480665 356.70594066 -1041.9087078 348.70309073 C-1037.42344456 345.41074512 -1032.95768817 342.0957905 -1028.51881522 338.74117666 C-1021.23611942 333.2380904 -1013.85479724 327.8981544 -1006.37330741 322.6686669 C-1003.31546189 320.52958363 -1000.26224567 318.38416829 -997.21315116 316.23263174 C-985.86399456 308.23699426 -974.39914512 300.43329137 -962.83570975 292.75118643 C-960.09016009 290.92699531 -957.34717374 289.09899798 -954.60450858 287.27047354 C-946.02000427 281.55304933 -937.42611586 275.8614039 -928.6845867 270.38570791 C-927.36043753 269.54954947 -927.36043753 269.54954947 -926.00953788 268.69649893 C-897.37391498 250.62478874 -868.34348968 233.14418878 -838.49049491 217.14986807 C-832.7914697 214.09153587 -827.15363677 210.95127152 -821.55275077 207.71700674 C-807.61015081 199.67978532 -793.25733582 192.53028198 -778.82800406 185.41941458 C-773.95760949 183.01921961 -769.10033003 180.59380639 -764.2470867 178.15914541 C-758.5692715 175.31404837 -752.87126176 172.5213369 -747.1220867 169.82320791 C-746.32818534 169.44881582 -745.53428397 169.07442374 -744.71632499 168.68868643 C-739.22216884 166.10031618 -733.72217994 163.5241821 -728.21388358 160.96603018 C-725.1442179 159.53961014 -722.08196633 158.10042675 -719.03224295 156.63180166 C-677.44715591 136.67922709 -634.22549318 120.09198425 -590.95393485 104.21895987 C-588.69011968 103.38773949 -586.42724524 102.55400247 -584.16456717 101.71969229 C-562.50121322 93.73868008 -540.71402791 86.29228123 -518.6845867 79.38570791 C-517.50686698 79.01606924 -516.32914725 78.64643057 -515.11573905 78.26559073 C-508.66496839 76.24827234 -502.20427918 74.26609802 -495.73439139 72.31100088 C-492.80031547 71.42081935 -489.87124555 70.51557757 -486.9423992 69.60836416 C-454.86952163 59.78212782 -422.24541183 51.53568204 -389.6220867 43.76070791 C-388.79441794 43.56269583 -387.96674918 43.36468374 -387.11399955 43.16067129 C-375.02532006 40.27906658 -362.88295432 37.75643184 -350.6845867 35.38570791 C-349.30313276 35.11549019 -347.92170232 34.84515224 -346.54029959 34.57467276 C-342.77676648 33.84042956 -339.01218615 33.11187302 -335.2470867 32.38570791 C-333.90675063 32.12677702 -332.56641867 31.8678248 -331.22609061 31.60885245 C-322.82189388 29.98604914 -314.4174492 28.36395735 -306.00587577 26.77975088 C-302.06781541 26.03743035 -298.13574577 25.27832315 -294.21193045 24.46383291 C-275.80593447 20.70122745 -257.15785512 18.2990008 -238.55043143 15.77499014 C-235.75201887 15.39486757 -232.95413417 15.01102764 -230.15626639 14.62691885 C-205.68876684 11.28703386 -181.16967533 8.6279239 -156.57955664 6.3886376 C-154.57718392 6.20553234 -152.57510727 6.01919805 -150.57304496 5.8327294 C-141.46075965 4.99093448 -132.34448033 4.24325768 -123.2181446 3.57206351 C-121.48360036 3.44447928 -119.74915561 3.31553745 -118.01479834 3.18543631 C-78.66767486 0.2489701 -39.43087313 -0.08678882 0 0 Z M-283.6845867 421.38570791 C-284.46471122 421.54899588 -285.24483573 421.71228384 -286.04860038 421.88051993 C-318.01303192 428.59061735 -349.69682841 436.98246515 -380.92237967 446.54635245 C-383.4435714 447.31247028 -385.96965553 448.05628328 -388.50099295 448.78805166 C-439.75011099 463.66280889 -489.82422012 483.03634487 -538.6845867 504.38570791 C-539.86810721 504.90197745 -541.05162772 505.41824698 -542.27101249 505.95016104 C-554.19804973 511.16490792 -566.06962108 516.41955534 -577.65724295 522.35445791 C-581.56835717 524.34909649 -585.53324711 526.2213376 -589.50392264 528.09395987 C-611.52170152 538.48999489 -633.00627777 549.79392367 -654.11378592 561.92940909 C-656.8646484 563.48770868 -659.63832515 564.99842717 -662.4189617 566.50289541 C-666.47018985 568.70157166 -670.40876586 570.99381547 -674.3095867 573.44820791 C-678.58799376 576.13733523 -682.92700717 578.64550578 -687.35011405 581.08419424 C-712.17144291 594.92256531 -736.00444261 610.81226606 -759.31349295 627.04586416 C-761.70826787 628.71275261 -764.11315762 630.36387069 -766.52443045 632.00680166 C-775.01713542 637.79775321 -783.37015528 643.74275427 -791.6274578 649.86422354 C-793.87772253 651.52855416 -796.13417231 653.18425644 -798.39161795 654.83883291 C-807.57843908 661.57693397 -816.70283078 668.37610668 -825.6845867 675.38570791 C-826.54044364 676.05231436 -826.54044364 676.05231436 -827.41359061 676.7323876 C-835.25808583 682.84625925 -843.00759297 689.06213974 -850.6845867 695.38570791 C-852.47616377 696.84415132 -854.26783173 698.30248308 -856.0595867 699.76070791 C-860.74414224 703.58865901 -865.35980889 707.49198771 -869.96022147 711.42013174 C-873.91913405 714.78440144 -877.98407525 717.97007204 -882.17286795 721.04586416 C-882.67173514 721.4880126 -883.17060233 721.93016104 -883.6845867 722.38570791 C-883.6845867 723.04570791 -883.6845867 723.70570791 -883.6845867 724.38570791 C-884.22599295 724.60871573 -884.7673992 724.83172354 -885.3252117 725.06148916 C-888.4343397 726.80651299 -890.86314427 729.13882206 -893.4345867 731.57320791 C-894.51206248 732.57781093 -895.59018715 733.58171844 -896.6689617 734.58492666 C-897.18909842 735.07009756 -897.70923514 735.55526846 -898.24513358 736.05514151 C-900.02711547 737.70232626 -901.8479263 739.29985198 -903.6845867 740.88570791 C-907.94528113 744.58647535 -912.10696222 748.3927945 -916.25294608 752.22115713 C-918.40160258 754.20479866 -920.55600542 756.18180354 -922.71559256 758.15353018 C-934.2557314 768.75200888 -945.30139888 779.84901972 -956.36671561 790.93746573 C-959.14782682 793.72432282 -961.93347426 796.50659596 -964.7204296 799.28760725 C-966.89799453 801.46153911 -969.07314848 803.63787083 -971.2476055 805.81491095 C-972.27377922 806.84174378 -973.30067403 807.86785659 -974.32835501 808.89318091 C-979.44988855 814.00552179 -984.49553212 819.14233597 -989.19119376 824.65420157 C-990.81608703 826.53817525 -992.50315997 828.35114959 -994.21193045 830.15914541 C-994.7758953 830.75598135 -995.33986014 831.35281729 -995.92091483 831.96773916 C-997.07968881 833.1890417 -998.2412643 834.40769085 -999.40528983 835.62398916 C-1002.57767149 838.51513021 -1002.57767149 838.51513021 -1003.6845867 842.38570791 C-1004.6745867 842.71570791 -1005.6645867 843.04570791 -1006.6845867 843.38570791 C-1008.10155177 844.95624997 -1009.44565486 846.59317455 -1010.7470867 848.26070791 C-1013.94233031 852.26900379 -1017.20388644 856.11721184 -1020.6845867 859.88570791 C-1024.7038649 864.25690448 -1028.48492168 868.76083665 -1032.21193045 873.38180166 C-1035.09341849 876.88237717 -1038.07191049 880.28839324 -1041.0595867 883.69820791 C-1046.7213164 890.18154981 -1052.08646148 896.84924837 -1057.3462078 903.66061026 C-1058.68461842 905.3857488 -1060.03556228 907.10019472 -1061.39161795 908.81148916 C-1067.79296524 916.89202879 -1074.01311007 925.09647705 -1080.17286795 933.36227041 C-1081.66062543 935.35363572 -1083.15557205 937.33936132 -1084.6533367 939.32320791 C-1094.92166963 952.93149572 -1104.99230748 966.65192873 -1114.36818045 980.89352041 C-1116.52218867 984.15988103 -1118.7510662 987.36926578 -1120.9970867 990.57320791 C-1126.5655057 998.57719642 -1131.83035509 1006.77556671 -1137.11622733 1014.96773916 C-1138.49607881 1017.09508179 -1139.88996144 1019.21176566 -1141.2939617 1021.32320791 C-1150.6278814 1035.42400291 -1159.09681937 1050.06472745 -1167.65925711 1064.64101797 C-1168.55750952 1066.16947472 -1169.45756946 1067.69686892 -1170.35792655 1069.22408682 C-1190.08366828 1102.71009708 -1208.27360094 1137.15703738 -1224.6845867 1172.38570791 C-1225.39059012 1173.88859366 -1225.39059012 1173.88859366 -1226.11085624 1175.42184073 C-1242.96551179 1211.30523048 -1258.11577077 1247.91704325 -1271.53566092 1285.21529776 C-1272.50516043 1287.89058899 -1273.49290532 1290.55682338 -1274.50099295 1293.21773916 C-1284.44927419 1319.4944345 -1292.92891715 1346.39082228 -1300.6845867 1373.38570791 C-1300.88396842 1374.07859915 -1301.08335013 1374.77149039 -1301.28877372 1375.48537832 C-1307.65709278 1397.65042877 -1313.53683106 1419.90489572 -1318.6845867 1442.38570791 C-1318.84509513 1443.08619253 -1319.00560355 1443.78667715 -1319.17097586 1444.50838858 C-1340.13196017 1536.29482941 -1352.18840324 1630.20577869 -1315.6845867 2072.38570791 C-1315.33773844 2073.79671936 -1314.99140823 2075.20785823 -1314.6455242 2076.61910635 C-1306.04255709 2111.64613744 -1296.55663193 2146.67660952 -1284.61329764 2180.72603995 C-1283.61148925 2183.59504642 -1282.63496994 2186.47193018 -1281.6611492 2189.35055166 C-1271.42939085 2219.46463661 -1260.0813413 2249.10032547 -1247.6845867 2278.38570791 C-1247.27176444 2279.3625051 -1247.27176444 2279.3625051 -1246.85060233 2280.35903555 C-1239.05036779 2298.80179615 -1230.79212888 2317.00695344 -1222.2314617 2335.10836416 C-1220.86241559 2338.00894418 -1219.50466412 2340.91434404 -1218.1533367 2343.82320791 C-1213.83513787 2353.09042681 -1209.24718923 2362.17623068 -1204.43849295 2371.19820791 C-1200.64222582 2378.32303536 -1196.94537355 2385.49983351 -1193.23829764 2392.67135245 C-1188.03097583 2402.71589157 -1182.48368168 2412.54828919 -1176.8486492 2422.35787588 C-1176.05580409 2423.73903601 -1175.2641858 2425.12090094 -1174.4736492 2426.5033837 C-1159.37097786 2452.90374436 -1143.23564294 2478.64111102 -1126.3720867 2503.94820791 C-1125.95569937 2504.57333273 -1125.53931205 2505.19845755 -1125.11030692 2505.84252554 C-1113.90474369 2522.64920874 -1102.38425848 2539.22130878 -1090.21876639 2555.34933096 C-1086.80917582 2559.87200124 -1083.45384454 2564.43050925 -1080.1220867 2569.01070791 C-1075.25591287 2575.68197686 -1070.19608628 2582.18302521 -1065.0595867 2588.64742666 C-1063.67558421 2590.39708891 -1062.30339748 2592.15539177 -1060.9345867 2593.91695791 C-1055.54049062 2600.85058302 -1050.00240361 2607.62736513 -1044.29786795 2614.30758291 C-1041.90576401 2617.11278111 -1039.57002819 2619.96033949 -1037.2470867 2622.82320791 C-1032.84913178 2628.22283229 -1028.32865987 2633.50970048 -1023.78224295 2638.78414541 C-1021.75714552 2641.13353768 -1019.7443394 2643.49245932 -1017.74318045 2645.86227041 C-1011.85898219 2652.81445066 -1005.80184557 2659.55948419 -999.55543631 2666.18868643 C-996.5970384 2669.32911414 -993.68063906 2672.48406349 -990.8720867 2675.76070791 C-987.79657636 2679.33976529 -984.47671949 2682.63214626 -981.0908367 2685.91695791 C-979.16412423 2687.89371487 -977.37231754 2689.89346426 -975.57887381 2691.98702627 C-971.56049858 2696.59290957 -967.29619354 2700.91828759 -962.96974295 2705.23336416 C-962.15517127 2706.04889258 -961.34059958 2706.86442099 -960.50134391 2707.70466238 C-958.78899477 2709.417688 -957.07539828 2711.12946757 -955.36061209 2712.84005362 C-952.75456655 2715.44074344 -950.15390148 2718.04672748 -947.55372733 2720.65328604 C-945.88021971 2722.32613278 -944.20640188 2723.99866925 -942.53224295 2725.67086416 C-941.764289 2726.44084234 -940.99633506 2727.21082052 -940.20510978 2728.00413138 C-936.05896139 2732.13256082 -931.83127449 2736.09901046 -927.38598746 2739.90449148 C-925.03373626 2741.95232948 -922.85951478 2744.151998 -920.6845867 2746.38570791 C-917.19157111 2749.91588325 -913.632023 2753.26372836 -909.86036795 2756.49117666 C-907.70726537 2758.36596078 -905.60667085 2760.2910089 -903.5127117 2762.23141104 C-897.2862345 2768.00053102 -890.87731775 2773.51130513 -884.37306327 2778.96334463 C-881.45977805 2781.41747992 -878.57333638 2783.90278922 -875.6845867 2786.38570791 C-860.69817735 2799.24299083 -845.6104731 2811.94221037 -829.9033367 2823.91695791 C-827.03071867 2826.11033621 -824.19226269 2828.34477509 -821.35817069 2830.58761221 C-815.92814101 2834.88402092 -810.45139032 2839.07750166 -804.8252117 2843.11617666 C-802.36426592 2844.89454669 -799.91913046 2846.68912285 -797.4814617 2848.49898916 C-781.71614768 2860.20065044 -765.69959178 2871.50718265 -749.30616874 2882.31246573 C-746.90085136 2883.90442224 -744.51365193 2885.52318741 -742.1220867 2887.13570791 C-728.52182081 2896.20255184 -714.66104617 2904.91147531 -700.6845867 2913.38570791 C-699.8905242 2913.86781729 -699.0964617 2914.34992666 -698.2783367 2914.84664541 C-695.75318578 2916.37015314 -693.22057222 2917.88029626 -690.6845867 2919.38570791 C-689.8200286 2919.89907706 -689.8200286 2919.89907706 -688.93800467 2920.42281729 C-661.65097941 2936.60425304 -633.91247166 2951.90593205 -605.6845867 2966.38570791 C-604.62852225 2966.92808096 -603.5724578 2967.47045401 -602.48439139 2968.0292626 C-583.48204844 2977.75204392 -564.19023613 2986.72497165 -544.6845867 2995.38570791 C-544.0471453 2995.66930166 -543.40970389 2995.95289541 -542.75294608 2996.24508291 C-513.39871239 3009.29815477 -483.60318345 3021.22424851 -453.3618328 3032.06344229 C-449.66867398 3033.39142982 -445.9830472 3034.73887926 -442.29786795 3036.08883291 C-421.651886 3043.60000705 -400.75063422 3050.1585282 -379.6845867 3056.38570791 C-378.34016501 3056.78399801 -378.34016501 3056.78399801 -376.96858329 3057.19033438 C-335.06828572 3069.58303987 -292.69018481 3079.59277015 -249.81233329 3087.96761709 C-247.81920852 3088.35925545 -245.82775708 3088.7593828 -243.83644217 3089.16012198 C-202.59317482 3097.43411524 -160.5777288 3102.76583642 -118.70430106 3106.63634878 C-116.74460484 3106.81765518 -114.785148 3107.00154317 -112.82569999 3107.1855126 C-75.31806663 3110.66123619 -37.89307788 3111.74287402 -0.23536795 3111.70138174 C4.27710378 3111.69676975 8.78930464 3111.70362622 13.30174142 3111.72188956 C56.38466594 3111.89419982 99.31767664 3110.13800127 142.1904133 3105.76070791 C143.41919198 3105.63798514 144.64797067 3105.51526236 145.91398507 3105.38882071 C203.97752612 3099.54379371 261.55430261 3089.92936979 318.3154133 3076.38570791 C319.78621347 3076.03572745 319.78621347 3076.03572745 321.28672677 3075.67867666 C398.08930959 3057.36901397 472.8595772 3032.77026018 545.3154133 3001.38570791 C546.34537423 3000.94017569 547.37533517 3000.49464346 548.43650705 3000.03561026 C560.30959358 2994.88652982 572.1189868 2989.6028839 583.8779133 2984.19820791 C584.88724923 2983.73551504 585.89658517 2983.27282217 586.93650705 2982.79610831 C595.48897757 2978.84128488 603.90827076 2974.63808481 612.3154133 2970.38570791 C613.03175943 2970.02371298 613.74810556 2969.66171805 614.48615915 2969.28875357 C633.0869413 2959.88085322 651.58986888 2950.38278933 669.63084298 2939.93160635 C673.5091816 2937.6982815 677.41338515 2935.51172571 681.31590158 2933.32101065 C690.3579312 2928.24066469 699.3379049 2923.08239533 708.1904133 2917.67867666 C710.72710836 2916.13520963 713.27134403 2914.60448874 715.8154133 2913.07320791 C717.81556948 2911.86513313 719.81556928 2910.6567994 721.8154133 2909.44820791 C722.72871408 2908.89914786 723.64201486 2908.3500878 724.58299142 2907.78438956 C731.99571693 2903.28895134 739.19756479 2898.51165685 746.39048654 2893.67657095 C749.500632 2891.59089585 752.62332993 2889.52423489 755.7451008 2887.45602041 C774.70639619 2874.87712214 774.70639619 2874.87712214 793.33494455 2861.81295401 C795.51181841 2860.24416646 797.69479688 2858.68407633 799.8779133 2857.12398916 C807.70946117 2851.513255 815.44920512 2845.81699595 823.05369455 2839.90133291 C826.03867808 2837.58528667 829.06678151 2835.3306139 832.10056955 2833.07906729 C839.02227133 2827.93780325 845.78499419 2822.64251714 852.45091134 2817.17379385 C856.7341464 2813.66058448 861.06496115 2810.22060336 865.4404133 2806.82320791 C871.99373311 2801.71506465 878.29620008 2796.34330318 884.56980783 2790.89742666 C886.87635018 2788.89992873 889.19519315 2786.91702942 891.51463205 2784.93453604 C893.85200251 2782.93595298 896.18518065 2780.93251036 898.51805001 2778.92867666 C899.73247309 2777.88614015 900.94766258 2776.84449584 902.16355783 2775.80367666 C909.76331678 2769.29468801 917.23576917 2762.68336105 924.53587228 2755.83907706 C927.43372516 2753.12334891 930.35012052 2750.45743149 933.3779133 2747.88570791 C937.61110815 2744.24424997 941.49739097 2740.25773755 945.39768869 2736.26656729 C948.12002408 2733.49989419 950.88586027 2730.8658621 953.84275705 2728.35055166 C959.67572803 2723.30759303 965.05733898 2717.79264449 970.49729806 2712.33419424 C972.37370805 2710.45242517 974.25540299 2708.57606053 976.13767892 2706.70016104 C981.58418162 2701.2563636 986.97267354 2695.82325741 991.96555978 2689.95382315 C994.43936302 2687.08002351 997.19017319 2684.49228414 999.9091633 2681.85445791 C1002.53818605 2679.15714886 1004.98754995 2676.33989838 1007.45506173 2673.4955712 C1010.44519151 2670.10440302 1013.57405031 2666.84791364 1016.6904133 2663.57320791 C1021.77276867 2658.19669291 1026.59935484 2652.74695202 1031.20994455 2646.95992666 C1033.48742176 2644.17540443 1035.87853338 2641.53156988 1038.3154133 2638.88570791 C1042.73052683 2634.07783888 1046.88195811 2629.11161466 1050.97849923 2624.03170401 C1052.50938983 2622.14688582 1054.05577169 2620.27544752 1055.6044758 2618.40523916 C1061.58131518 2611.18755058 1067.51114965 2603.94387384 1073.27195626 2596.55221182 C1076.07808616 2592.95226284 1078.92139388 2589.38593237 1081.79099923 2585.83639151 C1087.68945124 2578.5303973 1093.30346202 2571.0586993 1098.8100422 2563.45455557 C1101.04474073 2560.3833854 1103.30508101 2557.33133098 1105.56346017 2554.27755362 C1114.76958141 2541.82476341 1123.7443146 2529.28561521 1132.3154133 2516.38570791 C1133.7822001 2514.18995364 1135.24965746 2511.99464717 1136.71775705 2509.79977041 C1148.19271177 2492.70734318 1148.19271177 2492.70734318 1159.3154133 2475.38570791 C1159.86842111 2474.5022167 1160.42142892 2473.61872549 1160.99119455 2472.70846182 C1171.13086812 2456.46766478 1180.85196786 2440.03063323 1190.3154133 2423.38570791 C1190.74902169 2422.6264501 1191.18263009 2421.86719229 1191.62937814 2421.08492666 C1207.46102053 2393.35801509 1222.386978 2365.08438884 1235.98435861 2336.19625479 C1237.33696782 2333.34019513 1238.70966155 2330.49464399 1240.0888508 2327.65133291 C1255.87420398 2295.07469717 1269.89107224 2261.38974404 1282.3154133 2227.38570791 C1282.80057207 2226.06245472 1283.28576343 2224.73921347 1283.7709797 2223.41598135 C1290.57552196 2204.83646195 1297.27862652 2186.23143625 1303.3154133 2167.38570791 C1303.83216623 2165.77961661 1303.83216623 2165.77961661 1304.35935861 2164.14107901 C1320.90159372 2112.48924802 1334.30294503 2059.68284666 1344.3154133 2006.38570791 C1344.48687875 2005.47639517 1344.6583442 2004.56708243 1344.83500558 2003.63021475 C1352.71174141 1961.72351148 1358.46716795 1919.58412391 1362.43497354 1877.13406378 C1362.62225172 1875.1336812 1362.81184457 1873.13351575 1363.00150949 1871.13335806 C1366.53040064 1833.52196039 1367.6513451 1796.068214 1367.57615548 1758.29781729 C1367.56476192 1752.54040456 1367.57155717 1746.78317672 1367.58302003 1741.02577025 C1367.64750379 1703.01589733 1366.18468593 1665.35865747 1362.6904133 1627.51070791 C1362.56292342 1626.111695 1362.43548291 1624.71267758 1362.30808908 1623.31365591 C1359.64089798 1594.1943192 1355.81339265 1565.28013746 1351.3154133 1536.38570791 C1351.18219674 1535.52209646 1351.04898019 1534.65848501 1350.91172677 1533.76870352 C1349.23870361 1522.93689535 1347.37542611 1512.15058275 1345.3154133 1501.38570791 C1345.1471705 1500.50644644 1344.9789277 1499.62718497 1344.80558664 1498.7212792 C1337.05965346 1458.426418 1327.87521 1418.51173463 1316.39500314 1379.11129385 C1315.30388657 1375.34593002 1314.2387127 1371.57399677 1313.17869455 1367.79977041 C1307.72363039 1348.50007866 1301.55564564 1329.47952144 1295.04527169 1310.51211172 C1294.350169 1308.48696683 1293.65742259 1306.4610278 1292.96482736 1304.43502432 C1282.70241707 1274.54739527 1271.45516076 1244.86302541 1258.49851876 1216.0346337 C1257.23245285 1213.19996279 1255.9923968 1210.35488838 1254.75681955 1207.50680166 C1239.61195403 1172.64833714 1223.26343869 1138.25669665 1204.77781564 1105.0370751 C1203.21222955 1102.19863354 1201.67681627 1099.34537961 1200.14744455 1096.48727041 C1191.0771539 1079.54419041 1181.46680415 1062.96121771 1171.32713205 1046.63570791 C1169.79673373 1044.16329743 1168.27963694 1041.68471266 1166.77244455 1039.19820791 C1146.92478388 1006.4766763 1125.42665174 974.63133917 1102.35056955 944.10055166 C1100.34643775 941.42709371 1098.38987682 938.72420361 1096.4404133 936.01070791 C1092.0432883 929.9418047 1087.40591812 924.07390206 1082.75193673 918.20162588 C1080.83784803 915.78201477 1078.93463004 913.35396334 1077.03147775 910.92574698 C1074.79687837 908.07584566 1072.55658461 905.23044219 1070.3154133 902.38570791 C1069.62834298 901.5130126 1068.94127267 900.64031729 1068.23338205 899.74117666 C1063.20154637 893.39757935 1057.98267754 887.21883423 1052.73435861 881.05465323 C1050.89579489 878.89215812 1049.06495699 876.72319698 1047.23411447 874.55416495 C1038.06982247 863.70219146 1028.86834232 852.89916911 1019.3154133 842.38570791 C1017.85652005 840.76121057 1016.39819688 839.13620111 1014.9404133 837.51070791 C1011.05970228 833.19503104 1007.1349389 828.92146017 1003.20408517 824.65157706 C1000.30233498 821.49000703 997.46366006 818.29084513 994.7294758 814.98336416 C993.2002944 813.25564264 991.57883208 811.63881252 989.94480783 810.01087576 C987.99573983 808.06686369 986.05336482 806.11627015 984.11106759 804.16549307 C980.17007465 800.20849272 976.22687441 796.25370357 972.28204519 792.30052763 C969.90714695 789.92041758 967.53319336 787.53938089 965.16136056 785.15621573 C962.40650999 782.38917026 959.64838486 779.6254247 956.88963205 776.86227041 C955.62985795 775.59475439 955.62985795 775.59475439 954.34463388 774.30163199 C950.0238237 769.98041595 945.63878862 765.80937333 940.99127084 761.84014517 C938.64509718 759.80395636 936.48174222 757.61058627 934.3154133 755.38570791 C930.82109751 751.85421855 927.25979184 748.50559595 923.4872883 745.27633291 C920.83829428 742.9703741 918.26703878 740.58409619 915.6904133 738.19820791 C909.63193863 732.60992021 903.39197842 727.25029576 897.11082345 721.91500479 C895.302641 720.37482871 893.50133571 718.82698479 891.70213205 717.27633291 C884.65695531 711.2058157 877.54149675 705.24083482 870.3154133 699.38570791 C869.06640462 698.3665574 867.81772877 697.3469989 866.56931955 696.32711416 C858.5195842 689.75733989 850.41803027 683.26208868 842.22263986 676.87496573 C840.12221263 675.23484718 838.02741056 673.58768177 835.9326008 671.94039541 C827.4304161 665.27018816 818.8484773 658.77587299 810.00096017 652.57125479 C807.68434583 650.94184007 805.38066125 649.29463126 803.07737619 647.6464501 C801.89762612 646.80230027 800.71711741 645.95920971 799.53587228 645.11715323 C796.77162097 643.14655257 794.01552931 641.16705053 791.27244455 639.16695791 C761.03290481 617.22920487 729.20073926 596.63938629 696.78196603 578.10714346 C691.29498253 574.9702845 685.90867387 571.71241382 680.5654133 568.33492666 C670.22833722 562.13516589 659.42968532 556.68047593 648.80149728 550.99825674 C647.56003515 550.33445157 646.31857998 549.67063338 645.07713205 549.00680166 C644.1763115 548.52522352 644.1763115 548.52522352 643.25729257 548.03391653 C640.131187 546.3615389 637.00996074 544.68089369 633.89744455 542.98336416 C626.19552937 538.79393445 618.36252981 534.95428665 610.42307931 531.23604971 C605.13233489 528.75404285 599.89688735 526.17967138 594.67869455 523.54977041 C586.51166819 519.44420213 578.25479871 515.55779357 569.9404133 511.76070791 C569.19817514 511.42110037 568.45593698 511.08149283 567.69120675 510.73159415 C551.70320519 503.43227252 535.50144737 496.70398611 519.19828683 490.14486319 C516.32161086 488.98501698 513.44969062 487.81351958 510.57713205 486.64352041 C468.39390105 469.53123882 425.13932209 454.71809592 381.3154133 442.38570791 C379.96424414 442.00209032 378.61317564 441.61811807 377.26219064 441.23385245 C290.76868764 416.65389511 202.52538582 401.7090026 67.3154133 391.38570791 C66.00894845 391.32786124 64.70248361 391.27001456 63.35642892 391.21041495 C-27.55197659 387.40562947 -118.96933732 392.91626209 -283.6845867 421.38570791 Z " fill="#000000" transform="translate(1743.6845867037773,-0.38570791482925415)"/>
<path d="M0 0 C1.02527802 -0.00553894 2.05055603 -0.01107788 3.10690308 -0.01678467 C23.63858435 -0.09780183 43.97226023 1.21840752 64.25 4.5 C64.91473328 4.60604553 65.57946655 4.71209106 66.26434326 4.8213501 C109.67988751 11.78975217 152.0759907 26.62776146 189.3125 50.25 C189.94269043 50.64896484 190.57288086 51.04792969 191.22216797 51.45898438 C206.49328588 61.21302317 220.78381249 72.20695831 234.3125 84.25 C234.83295898 84.7126123 235.35341797 85.17522461 235.88964844 85.65185547 C246.27544786 94.92794836 256.33237684 104.59333025 265.3125 115.25 C266.11945312 116.17941406 266.92640625 117.10882812 267.7578125 118.06640625 C278.68692914 130.70635685 288.57904486 144.00317998 297.3125 158.25 C297.67939941 158.84635254 298.04629883 159.44270508 298.42431641 160.05712891 C300.72315845 163.80682227 302.97861672 167.57995924 305.20507812 171.37304688 C306.2643225 173.16834466 307.34234027 174.95123291 308.421875 176.734375 C320.74628062 197.46667591 329.75088282 220.41702313 337.3125 243.25 C337.65619629 244.28125 337.99989258 245.3125 338.35400391 246.375 C344.08532196 263.75990845 348.40756771 281.37562264 352.3125 299.25 C352.54565918 300.28350586 352.77881836 301.31701172 353.01904297 302.38183594 C359.13322431 329.56096679 362.20611618 357.33680574 363.93965149 385.11180115 C364.03645107 386.65992282 364.03645107 386.65992282 364.1352062 388.23931967 C365.76173544 415.0926976 365.72476561 441.95576146 365.66533385 468.84679367 C365.6491818 476.45231663 365.65136966 484.05781299 365.65374239 491.66334888 C365.6576375 505.68685527 365.64784056 519.71031849 365.62969017 533.73381233 C365.61181734 547.57897216 365.60036807 561.42411392 365.59713173 575.2692852 C365.59692551 576.13654274 365.59671929 577.00380027 365.59650682 577.89733834 C365.59549155 582.30334756 365.5945875 586.70935679 365.5937262 591.11536603 C365.58745809 622.16261621 365.56733966 653.20984302 365.53881836 684.25708008 C365.51117691 714.38175334 365.49002037 744.50642011 365.47729492 774.63110352 C365.476483 776.53197223 365.47567088 778.43284094 365.47485858 780.33370966 C365.46829036 795.78399084 365.46216338 811.2342722 365.45614313 826.6845536 C365.42808764 897.87305789 365.36784856 969.06150104 365.3125 1040.25 C259.7125 1040.25 154.1125 1040.25 45.3125 1040.25 C45.26351562 998.59652344 45.21453125 956.94304687 45.1640625 914.02734375 C45.13079209 889.22088119 45.09738702 864.41442025 45.06151867 839.60796154 C45.04048272 825.05260643 45.01953791 810.49725119 44.99887431 795.94189555 C44.99637499 794.18155593 44.9938728 792.4212163 44.9913677 790.66087668 C44.95153423 762.65307916 44.91800629 734.64527851 44.88781309 706.63746907 C44.85671903 677.82528599 44.81915957 649.01311827 44.77359388 620.20095427 C44.76714454 616.12101045 44.76076825 612.04106652 44.75443649 607.96112251 C44.75318819 607.15821905 44.75193988 606.35531558 44.75065375 605.52808171 C44.7308369 592.6615971 44.71773144 579.79511421 44.70720672 566.92861902 C44.69645128 553.95830569 44.67845657 540.98801778 44.65333296 528.01772421 C44.6399425 521.00443044 44.62960526 513.99116686 44.62828636 506.9778595 C44.6832525 467.06939867 44.6832525 467.06939867 42.3125 427.25 C42.21238027 426.12149215 42.11226054 424.99298429 42.00910687 423.83027923 C37.91869852 378.36676186 26.1386675 327.1860052 -7.6875 294.25 C-7.6875 293.59 -7.6875 292.93 -7.6875 292.25 C-8.26371094 291.99605469 -8.83992188 291.74210937 -9.43359375 291.48046875 C-11.93837882 290.11303842 -13.68419305 288.5279126 -15.75 286.5625 C-29.26147704 274.38901014 -46.29337778 266.93372047 -63.6875 262.25 C-64.78707031 261.95351562 -65.88664062 261.65703125 -67.01953125 261.3515625 C-81.2638449 257.803657 -95.45812291 256.89230163 -110.0625 257 C-110.82919006 257.00343414 -111.59588013 257.00686829 -112.38580322 257.01040649 C-123.56943355 257.0690563 -134.66760536 257.16667499 -145.6875 259.25 C-146.48655762 259.40065918 -147.28561523 259.55131836 -148.10888672 259.70654297 C-187.10965187 267.40610613 -221.04144928 287.60592491 -243.53149414 320.82763672 C-253.65090197 336.13978265 -260.81612601 352.12458931 -267.49536133 369.20458984 C-268.609569 372.05091926 -269.74020964 374.88995736 -270.87890625 377.7265625 C-282.15556853 405.8841154 -282.83400877 434.14262161 -282.84571838 464.11061096 C-282.85029196 466.60428872 -282.85529314 469.09796572 -282.86068195 471.59164184 C-282.87137225 476.98746672 -282.87907995 482.38328276 -282.88408089 487.77911568 C-282.8915335 495.80234966 -282.90462692 503.82556774 -282.91882664 511.84879227 C-282.94256279 525.34924394 -282.961798 538.84969845 -282.97842598 552.3501606 C-282.99489342 565.70821078 -283.01338714 579.06625565 -283.03455925 592.42429924 C-283.03587686 593.25632508 -283.03719446 594.08835092 -283.038552 594.94558967 C-283.04525452 599.17140441 -283.05199297 603.39721909 -283.05874526 607.62303375 C-283.10644854 637.51780836 -283.14965063 667.41258793 -283.19018555 697.30737305 C-283.22956347 726.34123089 -283.27100918 755.37508459 -283.31518555 784.40893555 C-283.31796289 786.23617127 -283.32074016 788.06340698 -283.32351738 789.8906427 C-283.34609617 804.73882346 -283.36881722 819.58700401 -283.39157274 834.4351845 C-283.49661049 903.04011475 -283.59125691 971.6450557 -283.6875 1040.25 C-389.2875 1040.25 -494.8875 1040.25 -603.6875 1040.25 C-603.71255615 1015.90798828 -603.7376123 991.56597656 -603.76342773 966.48632812 C-603.78030801 950.21911612 -603.797204 933.95190414 -603.8143158 917.68469238 C-603.81540299 916.650723 -603.81649019 915.61675362 -603.81761033 914.55145184 C-603.85430161 879.67228007 -603.89226351 844.7931098 -603.9311676 809.91394043 C-603.93243928 808.7735347 -603.93371096 807.63312898 -603.93502118 806.4581655 C-603.9626799 781.66076716 -603.99054332 756.86336905 -604.01861694 732.06597117 C-604.03238744 719.9014027 -604.04611282 707.73683417 -604.05981445 695.57226562 C-604.06186058 693.75670015 -604.06186058 693.75670015 -604.06394804 691.90445658 C-604.10796323 652.83024667 -604.14901148 613.75603434 -604.18848413 574.6818196 C-604.22913914 534.45294957 -604.27286121 494.22408397 -604.32032111 453.99522137 C-604.32705746 448.28404064 -604.33375956 442.57285987 -604.34044075 436.86167908 C-604.34175648 435.73788274 -604.34307221 434.61408641 -604.3444278 433.45623564 C-604.36533008 415.52839717 -604.38309733 397.60055696 -604.39962531 379.67271399 C-604.41640138 361.55098791 -604.43663895 343.42926812 -604.46016841 325.30754954 C-604.47277519 315.52874379 -604.48401531 305.74994195 -604.49091911 295.97113037 C-604.51794133 258.7616 -604.63652839 221.55857339 -605.17127991 184.35241699 C-605.18754566 183.22061894 -605.18754566 183.22061894 -605.20414002 182.06595627 C-605.52440441 159.95634538 -605.93046845 137.85127316 -606.625 115.75 C-606.66731654 114.34086889 -606.70936248 112.93172962 -606.75115967 111.52258301 C-607.32576871 92.18974378 -608.0217344 72.86474967 -609.19273376 53.55749512 C-609.54676219 47.11088355 -609.73714772 40.70659603 -609.71044922 34.25097656 C-609.70879257 33.4761795 -609.70713593 32.70138245 -609.70542908 31.90310669 C-609.70115839 30.01873316 -609.69457528 28.13436509 -609.6875 26.25 C-574.79854248 26.22713473 -539.90958666 26.20950234 -505.02062327 26.19893467 C-500.90608282 26.19768389 -496.79154238 26.19638958 -492.67700195 26.19506836 C-491.85783582 26.19480605 -491.03866968 26.19454374 -490.19468033 26.19427348 C-476.91310826 26.18991656 -463.63154051 26.18202889 -450.349971 26.1728472 C-436.73218701 26.16351127 -423.11440528 26.15794452 -409.49661821 26.15591151 C-401.08682872 26.15453615 -392.67705141 26.1501849 -384.26726567 26.14208353 C-378.50833527 26.13681682 -372.74941121 26.13519553 -366.99047858 26.13649862 C-363.66282871 26.13714212 -360.33521747 26.13558476 -357.00756836 26.13079453 C-353.40831287 26.12586472 -349.80911069 26.12699907 -346.20985413 26.12974548 C-344.61504364 26.12537622 -344.61504364 26.12537622 -342.98801476 26.12091869 C-341.5533526 26.12390526 -341.5533526 26.12390526 -340.08970737 26.12695217 C-339.25774013 26.12657245 -338.42577289 26.12619273 -337.56859452 26.1258015 C-335.6875 26.25 -335.6875 26.25 -334.6875 27.25 C-334.41143506 28.65337835 -334.19284288 30.06812745 -333.99829102 31.48510742 C-333.87010986 32.40283432 -333.74192871 33.32056122 -333.60986328 34.26609802 C-333.47177246 35.28559036 -333.33368164 36.3050827 -333.19140625 37.35546875 C-333.04227783 38.43018936 -332.89314941 39.50490997 -332.73950195 40.61219788 C-332.41236691 42.9724601 -332.08711221 45.33298349 -331.76345825 47.69372559 C-330.97517182 53.44135268 -330.17523414 59.18735414 -329.37611198 64.93348312 C-329.08971025 66.9939064 -328.80380611 69.05439831 -328.51795959 71.11489868 C-326.3571317 86.67960125 -324.14334141 102.23673368 -321.92184448 117.7928772 C-321.36360935 121.70228268 -320.80712425 125.61193507 -320.25107002 129.52165127 C-319.83141593 132.47014748 -319.41051339 135.4184644 -318.98922729 138.36672783 C-318.79289286 139.74215654 -318.5970103 141.11764983 -318.40161133 142.49321175 C-318.13308114 144.38270777 -317.86260645 146.27192715 -317.59204102 148.16113281 C-317.44074234 149.22164856 -317.28944366 150.28216431 -317.13356018 151.37481689 C-316.72330645 154.01920129 -316.23547493 156.6310784 -315.6875 159.25 C-315.36587891 158.7873877 -315.04425781 158.32477539 -314.71289062 157.84814453 C-308.62150534 149.10426944 -302.53515937 140.42553248 -295.6875 132.25 C-295.27145508 131.75048828 -294.85541016 131.25097656 -294.42675781 130.73632812 C-285.1569024 119.61784064 -275.54799056 108.93051666 -265.3125 98.6875 C-264.44367188 97.80642578 -263.57484375 96.92535156 -262.6796875 96.01757812 C-257.4363808 90.76263687 -252.02240716 85.90502454 -246.22070312 81.27294922 C-243.62983882 79.2039533 -241.09457113 77.07783413 -238.5625 74.9375 C-208.72090768 50.62525505 -173.2591196 32.01535353 -136.6875 20.25 C-135.48222656 19.84136719 -134.27695313 19.43273438 -133.03515625 19.01171875 C-90.01545664 4.94463505 -45.05087383 0.15858355 0 0 Z " fill="#000000" transform="translate(2158.6875,1353.75)"/>
<path d="M0 0 C103.29 0 206.58 0 313 0 C313 334.62 313 669.24 313 1014 C209.38 1014 105.76 1014 -1 1014 C-1.02013078 896.05746642 -1.02013078 896.05746642 -1.02565002 859.57777405 C-1.02594602 857.62622499 -1.02594602 857.62622499 -1.02624801 855.63525071 C-1.03287646 811.86132102 -1.03812223 768.08739128 -1.04234314 724.3134613 C-1.04248259 722.87111173 -1.04262204 721.42876217 -1.04276149 719.9864126 C-1.04568397 689.71333886 -1.04840071 659.44026512 -1.05087968 629.16719135 C-1.0521251 613.9607789 -1.05341008 598.75436647 -1.05473244 583.54795403 C-1.05493169 581.2540763 -1.05512981 578.96019856 -1.05532788 576.66632083 C-1.05838907 541.32987443 -1.06230015 505.99342839 -1.06866455 470.65698242 C-1.06880145 469.89680202 -1.06893835 469.13662162 -1.0690794 468.35340545 C-1.07129186 456.09648591 -1.07357543 443.83956638 -1.07586844 431.58264685 C-1.08246924 396.29327975 -1.08854712 361.00391291 -1.09113979 325.71454525 C-1.0912201 324.62676437 -1.0912201 324.62676437 -1.09130202 323.51700812 C-1.09246759 307.60013816 -1.09336253 291.68326821 -1.09400098 275.76639822 C-1.09426262 269.3626822 -1.09456324 262.95896619 -1.09487724 256.55525017 C-1.09491067 255.85437681 -1.0949441 255.15350346 -1.09497854 254.43139152 C-1.09607626 231.82233803 -1.10035165 209.2132865 -1.10628221 186.6042338 C-1.11240368 163.21065626 -1.11501715 139.81708142 -1.11350138 116.42350287 C-1.11273769 102.92192309 -1.11479613 89.42035042 -1.12079754 75.91877192 C-1.12452707 66.91772224 -1.12467813 57.91667725 -1.12183181 48.91562725 C-1.12031143 43.77545347 -1.12042978 38.6352932 -1.12488318 33.49512083 C-1.12889474 28.82985627 -1.12840435 24.1646159 -1.12413998 19.49935176 C-1.12341882 17.8116642 -1.1244165 16.12397492 -1.12723524 14.43628955 C-1.13079322 12.16402397 -1.12831942 9.89184675 -1.1241985 7.61958414 C-1.12435448 6.35567314 -1.12451046 5.09176215 -1.12467116 3.78955081 C-1 1 -1 1 0 0 Z " fill="#000000" transform="translate(1056,1380)"/>
<path d="M0 0 C0.93650391 0.14985352 1.87300781 0.29970703 2.83789062 0.45410156 C40.09042 6.56766997 76.20888601 22.86399358 98.8125 54.3125 C100.25010727 56.52748009 101.64392031 58.7373419 103 61 C103.55397461 61.90878906 103.55397461 61.90878906 104.11914062 62.8359375 C118.3438728 86.58421268 125.04368903 115.27377886 125.203125 142.85546875 C125.21004868 143.67160141 125.21697235 144.48773407 125.22410583 145.32859802 C125.24129056 147.94828152 125.247693 150.56776279 125.25 153.1875 C125.25133942 154.08128357 125.25267883 154.97506714 125.25405884 155.89593506 C125.2496369 169.49017848 124.59679279 182.62542342 122 196 C121.69255859 197.84078125 121.69255859 197.84078125 121.37890625 199.71875 C116.7114627 224.99832003 105.06573943 250.44399107 86 268 C84.7934375 269.2375 84.7934375 269.2375 83.5625 270.5 C82.716875 271.325 81.87125 272.15 81 273 C80.41347656 273.58265625 79.82695313 274.1653125 79.22265625 274.765625 C60.25853411 292.70561391 33.59248889 301.58419537 8.5625 306.75 C7.61181641 306.94875732 6.66113281 307.14751465 5.68164062 307.35229492 C-10.0516977 310.41315869 -25.92931254 311.33971433 -41.92724609 311.26074219 C-44.49991391 311.25000036 -47.07188391 311.26073789 -49.64453125 311.2734375 C-65.71463824 311.28821825 -81.67745848 310.06743762 -97.4375 306.8125 C-98.47535645 306.60109375 -99.51321289 306.3896875 -100.58251953 306.171875 C-128.52072051 300.20854502 -153.10701268 288.53040119 -174 269 C-174.78890625 268.26523438 -175.5778125 267.53046875 -176.390625 266.7734375 C-201.02925585 243.05666018 -213.29410742 204.3867247 -214.16113281 170.74389648 C-214.18089852 169.28636238 -214.19469163 167.82873747 -214.203125 166.37109375 C-214.20882507 165.57832535 -214.21452515 164.78555695 -214.22039795 163.96876526 C-214.2297749 162.30072329 -214.23635252 160.63266341 -214.24023438 158.96459961 C-214.24988372 156.46758984 -214.28095401 153.97142496 -214.3125 151.47460938 C-214.38226512 140.93374583 -213.36946335 131.28329787 -211 121 C-210.79584473 120.07598389 -210.59168945 119.15196777 -210.38134766 118.19995117 C-203.40151163 87.80004309 -186.03833531 59.98932493 -162 40 C-161.12859375 39.24074219 -160.2571875 38.48148438 -159.359375 37.69921875 C-142.86354647 23.51898112 -124.59736548 12.95748795 -104 6 C-103.3699707 5.77715332 -102.73994141 5.55430664 -102.09082031 5.32470703 C-69.94034635 -5.94700731 -33.26449166 -5.42929764 0 0 Z " fill="#000000" transform="translate(1257,942)"/>
<path d="" fill="#000000" transform="translate(0,0)"/>
</svg>
