<?xml version="1.0" standalone="no"?>
<!DOCTYPE svg PUBLIC "-//W3C//DTD SVG 20010904//EN"
 "http://www.w3.org/TR/2001/REC-SVG-20010904/DTD/svg10.dtd">
<svg version="1.0" xmlns="http://www.w3.org/2000/svg"
 width="3500.000000pt" height="3500.000000pt" viewBox="0 0 3500.000000 3500.000000"
 preserveAspectRatio="xMidYMid meet">

<g transform="translate(0.000000,3500.000000) scale(0.100000,-0.100000)"
fill="#000000" stroke="none">
<path d="M17130 34984 c-1324 -38 -2501 -188 -3700 -471 -3040 -718 -5804
-2223 -8065 -4390 -1124 -1077 -2076 -2273 -2892 -3633 -381 -633 -779 -1420
-1083 -2135 -545 -1281 -953 -2713 -1164 -4085 -338 -2188 -271 -4387 199
-6520 268 -1217 665 -2392 1200 -3555 677 -1471 1608 -2904 2685 -4135 1520
-1736 3368 -3155 5435 -4171 2070 -1018 4294 -1608 6625 -1759 1622 -104 3269
18 4860 360 1836 396 3576 1075 5185 2023 1860 1097 3519 2548 4851 4242 1011
1286 1845 2728 2459 4250 501 1244 853 2526 1054 3840 276 1807 276 3580 0
5390 -318 2081 -1030 4122 -2082 5965 -1622 2842 -4019 5170 -6927 6730 -214
115 -749 379 -970 479 -1466 663 -2936 1105 -4505 1356 -669 106 -1326 173
-2021 205 -229 10 -958 19 -1144 14z m845 -3634 c1857 -66 3613 -477 5275
-1235 1301 -593 2464 -1357 3550 -2333 229 -205 744 -719 951 -947 644 -713
1156 -1401 1641 -2205 382 -635 743 -1369 1010 -2055 430 -1105 699 -2167 842
-3320 223 -1798 91 -3642 -384 -5375 -242 -881 -560 -1706 -981 -2540 -290
-576 -519 -966 -886 -1514 -1146 -1706 -2705 -3169 -4493 -4213 -2470 -1443
-5281 -2078 -8160 -1842 -2155 176 -4221 850 -6075 1982 -736 449 -1449 985
-2110 1585 -213 194 -714 695 -906 907 -303 336 -543 624 -810 975 -324 425
-674 954 -951 1435 -704 1224 -1214 2534 -1512 3890 -181 823 -281 1602 -317
2480 -13 304 -7 1022 11 1285 20 310 41 560 65 775 214 1898 800 3683 1753
5340 303 527 677 1085 1046 1558 1466 1886 3355 3344 5536 4274 1846 787 3885
1164 5905 1093z"/>
<path d="M15966 25159 c-2797 -32 -5612 -138 -6352 -239 -404 -55 -554 -87
-789 -165 -511 -170 -935 -462 -1271 -875 -291 -358 -538 -964 -698 -1710 -46
-218 -60 -300 -96 -585 -99 -783 -159 -1611 -181 -2504 -13 -545 -6 -3175 10
-3506 44 -912 95 -1538 181 -2224 110 -874 402 -1722 751 -2183 85 -112 291
-322 414 -421 390 -315 862 -511 1459 -607 178 -29 698 -88 876 -99 818 -54
2385 -94 4585 -116 1001 -11 3683 -25 4630 -25 2118 0 4141 53 5540 146 107 7
491 57 660 85 316 53 583 137 840 264 290 142 506 298 737 532 141 142 211
226 295 352 267 403 496 1045 627 1761 64 349 161 1333 201 2030 38 675 40
816 40 2465 0 1650 -3 1815 -41 2480 -46 812 -140 1723 -219 2125 -109 554
-290 1096 -483 1451 -136 249 -241 387 -448 591 -221 218 -429 366 -709 503
-342 169 -619 241 -1225 319 -192 25 -359 33 -1295 66 -2153 75 -5772 115
-8039 89z m125 -5458 c2531 -1260 4314 -2153 4314 -2161 0 -10 -5802 -2910
-5822 -2910 -1 0 -3 1310 -3 2910 0 1601 2 2910 3 2910 2 0 681 -337 1508
-749z"/>
</g>
</svg>
